<svg width="124" height="117" viewBox="0 0 124 117" fill="none" xmlns="http://www.w3.org/2000/svg">
<path d="M53.8967 96.237C80.4187 96.237 101.92 74.7352 101.92 48.1185C101.92 21.5018 80.4187 0 53.8967 0C27.3747 0 5.87292 21.5018 5.87292 48.1185C5.87292 74.7352 27.3747 96.237 53.8967 96.237Z" fill="#B4CDEE" fill-opacity="0.35"/>
<path d="M107.414 28.3217C109.559 28.3217 111.297 26.5829 111.297 24.4381C111.297 22.2932 109.559 20.5545 107.414 20.5545C105.269 20.5545 103.53 22.2932 103.53 24.4381C103.53 26.5829 105.269 28.3217 107.414 28.3217Z" fill="#B4CDEE" fill-opacity="0.35"/>
<path d="M113.097 13.0715C114.562 13.0715 115.749 11.8841 115.749 10.4193C115.749 8.95454 114.562 7.76711 113.097 7.76711C111.632 7.76711 110.445 8.95454 110.445 10.4193C110.445 11.8841 111.632 13.0715 113.097 13.0715Z" fill="#B4CDEE" fill-opacity="0.35"/>
<path d="M2.6522 31.0686C4.11697 31.0686 5.3044 29.8812 5.3044 28.4164C5.3044 26.9516 4.11697 25.7642 2.6522 25.7642C1.18743 25.7642 0 26.9516 0 28.4164C0 29.8812 1.18743 31.0686 2.6522 31.0686Z" fill="#B4CDEE" fill-opacity="0.35"/>
<path d="M7.57752 88.754C10.2978 88.754 12.503 86.5488 12.503 83.8285C12.503 81.1082 10.2978 78.903 7.57752 78.903C4.85724 78.903 2.65201 81.1082 2.65201 83.8285C2.65201 86.5488 4.85724 88.754 7.57752 88.754Z" fill="#B4CDEE" fill-opacity="0.35"/>
<path d="M83.6387 20.0809V59.5798C83.6387 61.9478 81.6495 63.9369 79.2815 63.9369H13.9237C11.5556 63.9369 9.5665 62.0425 9.5665 59.5798V20.0809C9.5665 17.7129 11.5556 15.7237 13.9237 15.7237H79.2815C81.6495 15.7237 83.6387 17.7129 83.6387 20.0809Z" fill="#659BE0" fill-opacity="0.45"/>
<path opacity="0.3" d="M83.6384 33.2472V59.5798C83.6384 61.9478 81.6492 63.937 79.2812 63.937H24.5322V37.6044C24.5322 35.2364 26.4266 33.2472 28.8894 33.2472H83.6384Z" fill="#2684FC"/>
<g filter="url(#filter0_d_66_42)">
<path d="M95.29 83.8285H34.5736C30.8794 83.8285 27.9431 80.8921 27.9431 77.198V42.2457C27.9431 38.5516 30.8794 35.6152 34.5736 35.6152H95.29C98.9841 35.6152 101.92 38.5516 101.92 42.2457V77.198C101.92 80.8921 98.9841 83.8285 95.29 83.8285Z" fill="url(#paint0_linear_66_42)"/>
</g>
<path d="M46.6979 72.9354H37.0363C36.1838 72.9354 35.5208 72.2724 35.5208 71.4199C35.5208 70.5674 36.1838 69.9044 37.0363 69.9044H46.6979C47.5504 69.9044 48.2135 70.5674 48.2135 71.4199C48.2135 72.2724 47.5504 72.9354 46.6979 72.9354Z" fill="#659BE0" fill-opacity="0.45"/>
<path d="M62.3269 72.9354H52.6654C51.8129 72.9354 51.1498 72.2724 51.1498 71.4199C51.1498 70.5674 51.8129 69.9044 52.6654 69.9044H62.3269C63.1794 69.9044 63.8425 70.5674 63.8425 71.4199C63.8425 72.2724 63.1794 72.9354 62.3269 72.9354Z" fill="#659BE0" fill-opacity="0.45"/>
<path d="M77.956 72.9354H68.2944C67.4419 72.9354 66.7788 72.2724 66.7788 71.4199C66.7788 70.5674 67.4419 69.9044 68.2944 69.9044H77.956C78.8085 69.9044 79.4715 70.5674 79.4715 71.4199C79.4715 72.2724 78.8085 72.9354 77.956 72.9354Z" fill="#659BE0" fill-opacity="0.45"/>
<path d="M93.585 72.9354H83.9234C83.0709 72.9354 82.4079 72.2724 82.4079 71.4199C82.4079 70.5674 83.0709 69.9044 83.9234 69.9044H93.585C94.4375 69.9044 95.1005 70.5674 95.1005 71.4199C95.1005 72.2724 94.4375 72.9354 93.585 72.9354Z" fill="#659BE0" fill-opacity="0.45"/>
<path d="M90.0796 54.7489C93.2184 54.7489 95.7629 52.2044 95.7629 49.0656C95.7629 45.9268 93.2184 43.3824 90.0796 43.3824C86.9408 43.3824 84.3963 45.9268 84.3963 49.0656C84.3963 52.2044 86.9408 54.7489 90.0796 54.7489Z" fill="#2684FC"/>
<path d="M82.5962 54.7489C85.735 54.7489 88.2795 52.2044 88.2795 49.0656C88.2795 45.9268 85.735 43.3824 82.5962 43.3824C79.4575 43.3824 76.913 45.9268 76.913 49.0656C76.913 52.2044 79.4575 54.7489 82.5962 54.7489Z" fill="#659BE0" fill-opacity="0.45"/>
<path d="M83.6382 23.7751H9.66074V33.0578H83.6382V23.7751Z" fill="#2684FC"/>
<path d="M47.5502 56.5487H36.9414C36.1836 56.5487 35.5205 55.8856 35.5205 55.1279V48.3079C35.5205 47.5502 36.1836 46.8871 36.9414 46.8871H47.4554C48.2132 46.8871 48.8763 47.5502 48.8763 48.3079V55.1279C48.971 55.8856 48.3079 56.5487 47.5502 56.5487Z" fill="#659BE0" fill-opacity="0.45"/>
<defs>
<filter id="filter0_d_66_42" x="5.94305" y="24.6152" width="117.977" height="92.2132" filterUnits="userSpaceOnUse" color-interpolation-filters="sRGB">
<feFlood flood-opacity="0" result="BackgroundImageFix"/>
<feColorMatrix in="SourceAlpha" type="matrix" values="0 0 0 0 0 0 0 0 0 0 0 0 0 0 0 0 0 0 127 0" result="hardAlpha"/>
<feOffset dy="11"/>
<feGaussianBlur stdDeviation="11"/>
<feColorMatrix type="matrix" values="0 0 0 0 0.397708 0 0 0 0 0.47749 0 0 0 0 0.575 0 0 0 0.27 0"/>
<feBlend mode="normal" in2="BackgroundImageFix" result="effect1_dropShadow_66_42"/>
<feBlend mode="normal" in="SourceGraphic" in2="effect1_dropShadow_66_42" result="shape"/>
</filter>
<linearGradient id="paint0_linear_66_42" x1="64.9077" y1="34.5" x2="64.9077" y2="84.3482" gradientUnits="userSpaceOnUse">
<stop stop-color="#FDFEFF"/>
<stop offset="0.9964" stop-color="#ECF0F5"/>
</linearGradient>
</defs>
</svg>
