<svg width="20" height="20" viewBox="0 0 20 20" fill="none" xmlns="http://www.w3.org/2000/svg">
<g opacity="0.4">
<path d="M16.8915 7.07083L17.4795 10.4706C17.6263 11.3198 16.9733 12.0965 16.1125 12.0965H11.7949C11.367 12.0965 11.0411 12.4806 11.1104 12.9033L11.6626 16.2738C11.7523 16.8213 11.7267 17.3816 11.5874 17.9187C11.472 18.3636 11.1287 18.7208 10.6773 18.8659L10.5565 18.9047C10.2837 18.9923 9.9859 18.9719 9.72867 18.848C9.44555 18.7115 9.23842 18.4627 9.16164 18.1667L8.76522 16.6385C8.63909 16.1523 8.45536 15.6829 8.21847 15.2394C7.87234 14.5915 7.33719 14.0729 6.78091 13.5935L5.58196 12.5604C5.24391 12.2691 5.06638 11.8328 5.10485 11.388L5.78165 3.56073C5.84373 2.84278 6.44398 2.29163 7.1638 2.29163H11.0376C13.9387 2.29163 16.4146 4.31297 16.8915 7.07083Z" fill="white"/>
<path fill-rule="evenodd" clip-rule="evenodd" d="M2.47305 12.7209C2.80744 12.7353 3.09384 12.4838 3.12268 12.1503L3.93234 2.78653C3.98435 2.18504 3.51057 1.66663 2.90559 1.66663C2.33574 1.66663 1.875 2.12891 1.875 2.69767V12.0965C1.875 12.4312 2.13867 12.7064 2.47305 12.7209Z" fill="white"/>
</g>
</svg>
