<svg width="20" height="20" viewBox="0 0 20 20" fill="none" xmlns="http://www.w3.org/2000/svg">
<path d="M16.8916 7.07071L17.4795 10.4705C17.6264 11.3197 16.9733 12.0963 16.1125 12.0963H11.7949C11.367 12.0963 11.0412 12.4804 11.1104 12.9032L11.6627 16.2737C11.7524 16.8212 11.7268 17.3815 11.5874 17.9186C11.472 18.3635 11.1288 18.7207 10.6773 18.8657L10.5565 18.9045C10.2837 18.9922 9.98593 18.9718 9.72871 18.8478C9.44558 18.7114 9.23845 18.4626 9.16167 18.1666L8.76525 16.6384C8.63912 16.1521 8.45539 15.6828 8.2185 15.2393C7.87237 14.5914 7.33722 14.0728 6.78094 13.5934L5.58199 12.5603C5.24394 12.269 5.06641 11.8327 5.10488 11.3878L5.78168 3.56061C5.84376 2.84266 6.44401 2.2915 7.16383 2.2915H11.0377C13.9388 2.2915 16.4146 4.31284 16.8916 7.07071Z" fill="#E93B50"/>
<path fill-rule="evenodd" clip-rule="evenodd" d="M2.47305 12.7208C2.80744 12.7352 3.09384 12.4836 3.12268 12.1502L3.93234 2.78641C3.98435 2.18492 3.51057 1.6665 2.90559 1.6665C2.33574 1.6665 1.875 2.12879 1.875 2.69755V12.0963C1.875 12.431 2.13867 12.7063 2.47305 12.7208Z" fill="#E93B50"/>
</svg>
