<svg width="16" height="16" viewBox="0 0 16 16" fill="none" xmlns="http://www.w3.org/2000/svg">
<g id="Group 36576">
<g id="Group 36560">
<path id="Rectangle path" d="M14 0H2C0.895431 0 0 0.895431 0 2V14C0 15.1046 0.895431 16 2 16H14C15.1046 16 16 15.1046 16 14V2C16 0.895431 15.1046 0 14 0Z" fill="#DCDCE6"/>
<path id="Vector" d="M8.80727 4.03817L9.62835 5.68033C9.74032 5.90893 10.0389 6.12819 10.2908 6.17018L11.779 6.41744C12.7307 6.57606 12.9547 7.26651 12.2689 7.94764L11.1119 9.10461C10.916 9.30055 10.8087 9.67844 10.8693 9.94902L11.2005 11.3812C11.4618 12.5149 10.86 12.9534 9.85695 12.3609L8.46204 11.5352C8.21012 11.3859 7.79491 11.3859 7.53833 11.5352L6.14342 12.3609C5.14506 12.9534 4.53858 12.5102 4.79983 11.3812L5.13107 9.94902C5.19171 9.67844 5.08441 9.30055 4.88847 9.10461L3.7315 7.94764C3.05037 7.26651 3.26964 6.57606 4.22135 6.41744L5.70956 6.17018C5.95681 6.12819 6.25539 5.90893 6.36735 5.68033L7.18843 4.03817C7.6363 3.14711 8.36407 3.14711 8.80727 4.03817Z" fill="white"/>
</g>
<path id="Vector_2" d="M8.80727 4.03817L9.62835 5.68033C9.74032 5.90893 10.0389 6.12819 10.2908 6.17018L11.779 6.41744C12.7307 6.57606 12.9547 7.26651 12.2689 7.94764L11.1119 9.10461C10.916 9.30055 10.8087 9.67844 10.8693 9.94902L11.2005 11.3812C11.4618 12.5149 10.86 12.9534 9.85695 12.3609L8.46204 11.5352C8.21012 11.3859 7.79491 11.3859 7.53833 11.5352L6.14342 12.3609C5.14506 12.9534 4.53858 12.5102 4.79983 11.3812L5.13107 9.94902C5.19171 9.67844 5.08441 9.30055 4.88847 9.10461L3.7315 7.94764C3.05037 7.26651 3.26964 6.57606 4.22135 6.41744L5.70956 6.17018C5.95681 6.12819 6.25539 5.90893 6.36735 5.68033L7.18843 4.03817C7.6363 3.14711 8.36407 3.14711 8.80727 4.03817Z" fill="white"/>
</g>
</svg>
