<svg width="752" height="640" viewBox="0 0 752 640" fill="none" xmlns="http://www.w3.org/2000/svg">
<g filter="url(#filter0_i_14862_43520)">
<path d="M500.83 0H246.648L93.9785 384.396C159.24 326 242.751 287.523 334.922 278.678L366.409 192.94H381.069L412.432 278.306C486.293 284.616 554.71 309.917 612.858 349.321L614.033 348.393L625.292 339.053L632.962 332.743L500.83 0Z" fill="white"/>
<path d="M500.83 0H246.648L93.9785 384.396C159.24 326 242.751 287.523 334.922 278.678L366.409 192.94H381.069L412.432 278.306C486.293 284.616 554.71 309.917 612.858 349.321L614.033 348.393L625.292 339.053L632.962 332.743L500.83 0Z" fill="url(#paint0_linear_14862_43520)"/>
<path d="M578.017 378.086L444.648 488.443L430.853 499.887C413.347 495.062 394.912 492.526 375.86 492.526C283.256 492.526 204.756 553.025 177.723 636.659C177.352 637.773 176.981 638.886 176.671 639.999H0C0.185579 638.886 0.371158 637.773 0.556737 636.659C2.78369 623.359 5.75295 610.369 9.34082 597.564C16.4547 572.139 26.1667 547.767 38.2293 524.817C93.2226 419.408 196.095 342.95 318.083 324.392C336.95 321.484 356.188 320 375.86 320C393.923 320 411.738 321.237 429.121 323.711C483.248 331.258 533.726 350.249 578.017 378.086Z" fill="white"/>
<path d="M578.017 378.086L444.648 488.443L430.853 499.887C413.347 495.062 394.912 492.526 375.86 492.526C283.256 492.526 204.756 553.025 177.723 636.659C177.352 637.773 176.981 638.886 176.671 639.999H0C0.185579 638.886 0.371158 637.773 0.556737 636.659C2.78369 623.359 5.75295 610.369 9.34082 597.564C16.4547 572.139 26.1667 547.767 38.2293 524.817C93.2226 419.408 196.095 342.95 318.083 324.392C336.95 321.484 356.188 320 375.86 320C393.923 320 411.738 321.237 429.121 323.711C483.248 331.258 533.726 350.249 578.017 378.086Z" fill="url(#paint1_linear_14862_43520)"/>
</g>
<g filter="url(#filter1_i_14862_43520)">
<path d="M751.784 640H575.113C574.804 638.887 574.432 637.773 574.061 636.66C563.05 602.637 543.503 572.449 517.954 548.571C514.181 545.045 510.222 541.581 506.139 538.365C502.057 535.024 497.85 531.931 493.52 528.962L622.869 410.996C626.828 414.336 630.725 417.8 634.498 421.326C638.272 424.852 642.045 428.44 645.633 432.09C666.047 452.565 684.11 475.33 699.389 500.012C722.896 537.808 739.969 579.996 749.062 625.092C749.867 628.927 750.547 632.762 751.228 636.66C751.413 637.773 751.599 638.887 751.784 640Z" fill="#2684FC"/>
<path d="M711.221 326.794C711.221 329.454 710.107 331.99 708.128 333.784L651.973 385.137L650.241 386.745L378.059 634.926C374.347 638.328 369.646 639.998 365.006 639.998C359.563 639.998 354.181 637.771 350.345 633.318C343.17 625.09 344.221 612.595 352.634 605.604L642.076 366.331L695.818 319.618C697.488 318.195 699.591 317.453 701.694 317.453C702.189 317.453 702.684 317.515 703.179 317.577C707.757 318.257 711.159 322.154 711.221 326.794Z" fill="#2684FC"/>
</g>
<defs>
<filter id="filter0_i_14862_43520" x="-13.7778" y="-9.88889" width="646.74" height="649.888" filterUnits="userSpaceOnUse" color-interpolation-filters="sRGB">
<feFlood flood-opacity="0" result="BackgroundImageFix"/>
<feBlend mode="normal" in="SourceGraphic" in2="BackgroundImageFix" result="shape"/>
<feColorMatrix in="SourceAlpha" type="matrix" values="0 0 0 0 0 0 0 0 0 0 0 0 0 0 0 0 0 0 127 0" result="hardAlpha"/>
<feOffset dx="-16.11" dy="-9.88889"/>
<feGaussianBlur stdDeviation="6.88889"/>
<feComposite in2="hardAlpha" operator="arithmetic" k2="-1" k3="1"/>
<feColorMatrix type="matrix" values="0 0 0 0 0.654623 0 0 0 0 0.654623 0 0 0 0 0.654623 0 0 0 0.64 0"/>
<feBlend mode="normal" in2="shape" result="effect1_innerShadow_14862_43520"/>
</filter>
<filter id="filter1_i_14862_43520" x="344.466" y="307.564" width="407.318" height="332.436" filterUnits="userSpaceOnUse" color-interpolation-filters="sRGB">
<feFlood flood-opacity="0" result="BackgroundImageFix"/>
<feBlend mode="normal" in="SourceGraphic" in2="BackgroundImageFix" result="shape"/>
<feColorMatrix in="SourceAlpha" type="matrix" values="0 0 0 0 0 0 0 0 0 0 0 0 0 0 0 0 0 0 127 0" result="hardAlpha"/>
<feOffset dx="-1.11111" dy="-9.88889"/>
<feGaussianBlur stdDeviation="6.88889"/>
<feComposite in2="hardAlpha" operator="arithmetic" k2="-1" k3="1"/>
<feColorMatrix type="matrix" values="0 0 0 0 0.0767062 0 0 0 0 0.318073 0 0 0 0 0.626201 0 0 0 1 0"/>
<feBlend mode="normal" in2="shape" result="effect1_innerShadow_14862_43520"/>
</filter>
<linearGradient id="paint0_linear_14862_43520" x1="218.68" y1="79.3167" x2="341.113" y2="449.042" gradientUnits="userSpaceOnUse">
<stop offset="0.0245846" stop-color="white"/>
<stop offset="1" stop-color="white" stop-opacity="0"/>
</linearGradient>
<linearGradient id="paint1_linear_14862_43520" x1="218.68" y1="79.3167" x2="341.113" y2="449.042" gradientUnits="userSpaceOnUse">
<stop offset="0.0245846" stop-color="white"/>
<stop offset="1" stop-color="white" stop-opacity="0"/>
</linearGradient>
</defs>
</svg>
