<svg width="29" height="28" viewBox="0 0 29 28" fill="none" xmlns="http://www.w3.org/2000/svg">
<path d="M10.9999 25.6666H17.9999C23.8333 25.6666 26.1666 23.3333 26.1666 17.4999V10.4999C26.1666 4.66659 23.8333 2.33325 17.9999 2.33325H10.9999C5.16659 2.33325 2.83325 4.66659 2.83325 10.4999V17.4999C2.83325 23.3333 5.16659 25.6666 10.9999 25.6666Z" stroke="#8E9BA8" stroke-width="2" stroke-linecap="round" stroke-linejoin="round"/>
<path d="M11.0001 11.6667C12.2887 11.6667 13.3334 10.622 13.3334 9.33333C13.3334 8.04467 12.2887 7 11.0001 7C9.71142 7 8.66675 8.04467 8.66675 9.33333C8.66675 10.622 9.71142 11.6667 11.0001 11.6667Z" stroke="#8E9BA8" stroke-width="2" stroke-linecap="round" stroke-linejoin="round"/>
<path d="M3.61499 22.1083L9.36666 18.2467C10.2883 17.6283 11.6183 17.6983 12.4467 18.41L12.8317 18.7483C13.7417 19.53 15.2117 19.53 16.1217 18.7483L20.975 14.5833C21.885 13.8017 23.355 13.8017 24.265 14.5833L26.1667 16.2167" stroke="#8E9BA8" stroke-width="2" stroke-linecap="round" stroke-linejoin="round"/>
</svg>
