<svg width="36" height="36" viewBox="0 0 36 36" fill="none" xmlns="http://www.w3.org/2000/svg">
<rect width="36" height="36" rx="8" fill="#E9F2FE"/>
<path d="M26 14C24.537 11.0094 21.5536 9 18 9C13.0294 9 9 13.0294 9 18C9 22.9706 13.0294 27 18 27C22.6336 27 26.5039 23.4984 27 18.997M26.5 11.5V14H24M22.5 16.5V18.5M22.5 18.5V20.5M22.5 18.5H19.5V15.5M13.5 17.5V17C13.5 16.1716 14.1716 15.5 15 15.5C15.8284 15.5 16.5 16.1716 16.5 17V17.5C16.5 18.4043 13.9694 20.1788 13.5 20.5H16.5" stroke="#2684FC" stroke-width="2" stroke-linecap="round" stroke-linejoin="round"/>
</svg>
