<svg width="32" height="32" viewBox="0 0 32 32" fill="none" xmlns="http://www.w3.org/2000/svg">
    <g clip-path="url(#clip0_16819_35589)">
        <path d="M21.9993 0C20.2933 0.117999 18.2993 1.20999 17.1373 2.63198C16.0773 3.92198 15.2054 5.83797 15.5453 7.69995C17.4093 7.75795 19.3353 6.63996 20.4513 5.19397C21.4953 3.84798 22.2853 1.94399 21.9993 0Z" fill="white"/>
        <path d="M28.7411 10.7359C27.1031 8.68192 24.8011 7.48993 22.6271 7.48993C19.7571 7.48993 18.5431 8.86392 16.5492 8.86392C14.4932 8.86392 12.9312 7.49393 10.4492 7.49393C8.0112 7.49393 5.41522 8.98392 3.76923 11.5319C1.45524 15.1199 1.85124 21.8658 5.60122 27.6118C6.94321 29.6678 8.7352 31.9798 11.0792 31.9998C13.1652 32.0198 13.7532 30.6618 16.5792 30.6478C19.4051 30.6318 19.9411 32.0178 22.0231 31.9958C24.3691 31.9778 26.2591 29.4158 27.6011 27.3598C28.5631 25.8858 28.9211 25.1438 29.6671 23.4798C24.2411 21.4138 23.3711 13.6979 28.7411 10.7359Z" fill="white"/>
    </g>
    <defs>
        <clipPath id="clip0_16819_35589">
            <rect width="32" height="32" fill="white"/>
        </clipPath>
    </defs>
</svg>
