<svg width="20" height="20" viewBox="0 0 20 20" fill="none" xmlns="http://www.w3.org/2000/svg">
    <g clip-path="url(#clip0_17584_65543)">
        <path d="M6.51813 10C7.2246 10 7.91521 9.79051 8.50262 9.398C9.09002 9.00549 9.54784 8.4476 9.81817 7.79489C10.0885 7.14218 10.1592 6.42396 10.0213 5.73107C9.88345 5.03818 9.5432 4.40173 9.0436 3.90222C8.544 3.40271 7.9075 3.06257 7.21458 2.92482C6.52166 2.78707 5.80346 2.85789 5.15079 3.12834C4.49813 3.39878 3.94032 3.85669 3.54792 4.44417C3.15551 5.03164 2.94613 5.72229 2.94625 6.42876C2.94724 7.37572 3.3239 8.2836 3.99356 8.95314C4.66322 9.62268 5.57117 9.99919 6.51813 10ZM11.1906 12.9506C10.2855 12.0223 9.1242 11.3848 7.85503 11.1196C6.58586 10.8544 5.26645 10.9735 4.06533 11.4618C2.86421 11.9501 1.83591 12.7854 1.11179 13.8609C0.387662 14.9365 0.000585866 16.2034 0 17.5C0 17.6658 0.065848 17.8247 0.183058 17.942C0.300268 18.0592 0.45924 18.125 0.625 18.125H12.4125C12.5783 18.125 12.7372 18.0592 12.8544 17.942C12.9717 17.8247 13.0375 17.6658 13.0375 17.5C13.0399 16.8373 12.9376 16.1783 12.7344 15.5475C12.4318 14.5723 11.9028 13.6824 11.1906 12.9506Z" fill="white"/>
        <path fill-rule="evenodd" clip-rule="evenodd" d="M14.3943 16.6587H15.3083V17.4001C15.3083 17.7997 15.6331 18.125 16.0333 18.125H17.7277C18.1269 18.125 18.4527 17.7997 18.4527 17.4001V15.5915C19.1477 14.955 19.4797 14.0793 19.4841 13.205C19.4869 12.4152 19.2206 11.6241 18.6644 11.0054H19.2448C19.3561 11.0058 19.4641 10.9675 19.5503 10.8972C19.6366 10.8269 19.6958 10.7288 19.718 10.6198L19.9906 9.3018C20.0046 9.23161 20.003 9.15919 19.9859 9.08969C19.9687 9.02019 19.9365 8.95532 19.8915 8.89969C19.8461 8.84415 19.789 8.79935 19.7242 8.76852C19.6594 8.73768 19.5886 8.72157 19.5169 8.72135H17.6799C17.2265 7.52565 16.6359 6.35412 15.9646 5.91189C14.9216 5.22573 13.1044 4.84775 11.2086 4.77795C11.2863 4.99901 11.3487 5.22614 11.3948 5.45781C11.446 5.71505 11.4765 5.9748 11.4866 6.23466C12.9953 6.31994 14.3973 6.61591 15.1667 7.12257C15.5263 7.35843 15.9888 8.31199 16.4126 9.47965H10.4437C10.225 9.76102 9.97616 10.0187 9.70117 10.2478C10.6306 10.6551 11.4779 11.2394 12.1934 11.9733L12.1943 11.9742C13.0587 12.8624 13.7012 13.9421 14.0696 15.1254C14.23 15.6248 14.3386 16.1386 14.3943 16.6587ZM14.9197 14.3294C15.1872 14.5969 15.5501 14.7472 15.9284 14.7472C16.3067 14.7472 16.6695 14.5969 16.937 14.3294C17.2046 14.0619 17.3548 13.699 17.3548 13.3207C17.3548 12.9424 17.2046 12.5796 16.937 12.312C16.6695 12.0445 16.3067 11.8942 15.9284 11.8942C15.5501 11.8942 15.1872 12.0445 14.9197 12.312C14.6522 12.5796 14.5019 12.9424 14.5019 13.3207C14.5019 13.699 14.6522 14.0619 14.9197 14.3294Z" fill="white"/>
    </g>
    <defs>
        <clipPath id="clip0_17584_65543">
            <rect width="20" height="20" fill="white"/>
        </clipPath>
    </defs>
</svg>
