<svg width="32" height="19" viewBox="0 0 32 19" fill="none" xmlns="http://www.w3.org/2000/svg">
    <path fill-rule="evenodd" clip-rule="evenodd" d="M3.07461 0.347811C3.53181 -0.115937 4.27307 -0.115937 4.73027 0.347811L8.56013 4.23253C10.7827 3.04631 13.3141 2.375 16 2.375C18.6859 2.375 21.2173 3.04631 23.4399 4.23253L27.2697 0.347811C27.7269 -0.115937 28.4682 -0.115937 28.9254 0.347811C29.3826 0.811558 29.3826 1.56344 28.9254 2.02719L25.4759 5.52606C29.4326 8.48062 32 13.2383 32 18.6042C32 18.7365 31.9984 18.8684 31.9953 19H0.00466591C0.00156119 18.8684 0 18.7365 0 18.6042C0 13.2383 2.56736 8.48062 6.52407 5.52606L3.07461 2.02719C2.61741 1.56344 2.61741 0.811558 3.07461 0.347811ZM9.7561 13.4583C10.6182 13.4583 11.3171 12.7495 11.3171 11.875C11.3171 11.0005 10.6182 10.2917 9.7561 10.2917C8.894 10.2917 8.19512 11.0005 8.19512 11.875C8.19512 12.7495 8.894 13.4583 9.7561 13.4583ZM23.8049 11.875C23.8049 12.7495 23.106 13.4583 22.2439 13.4583C21.3818 13.4583 20.6829 12.7495 20.6829 11.875C20.6829 11.0005 21.3818 10.2917 22.2439 10.2917C23.106 10.2917 23.8049 11.0005 23.8049 11.875Z" fill="white"/>
</svg>
