<svg width="28" height="28" viewBox="0 0 28 28" fill="none" xmlns="http://www.w3.org/2000/svg">
    <rect width="28" height="28" rx="8" fill="#061018"/>
    <path d="M14.0001 14.0002C9.94671 14.0002 6.58538 16.9497 5.96402 20.8101H9.74168C10.2971 18.9935 11.9935 17.6717 14.0001 17.6717C14.6472 17.6717 15.2621 17.8092 15.8169 18.0564L18.2585 15.1962C17.0196 14.4377 15.5612 14.0002 14.0001 14.0002Z" fill="#2684FC"/>
    <path d="M20.1831 13.1454C20.1908 13.2009 20.1762 13.2594 20.1367 13.3025L19.0913 14.5528L19.0588 14.5912L16.0911 18.1385L13.997 20.6434C13.9288 20.7243 13.8336 20.775 13.7334 20.7887C13.6183 20.8044 13.4967 20.7721 13.4022 20.6908C13.2261 20.5379 13.2117 20.2687 13.3695 20.0964L14.4878 18.8813L15.4228 17.872L18.7068 14.3154L18.8289 14.1857L19.8356 13.0385C19.8686 13.0039 19.9111 12.983 19.9557 12.9769C19.9668 12.9754 19.978 12.9739 19.9896 12.976C20.0839 12.9744 20.1657 13.0461 20.1831 13.1454Z" fill="#2684FC"/>
    <path d="M16.6705 7.18985H11.2359L7.97168 15.3708C9.36704 14.128 11.1526 13.3091 13.1233 13.1208L13.7965 11.2961H14.1099L14.7831 13.1208C15.9543 13.2327 17.0601 13.5673 18.0574 14.0812L18.2399 13.8837L18.3565 13.7598L18.9996 13.027L16.6705 7.18985Z" fill="white"/>
    <path d="M18.9712 15.6866C20.5736 16.9188 21.7016 18.7325 22.036 20.8101H18.2582C17.9725 19.8756 17.3848 19.072 16.6083 18.512L18.9712 15.6866Z" fill="white"/>
</svg>
