<svg width="24" height="24" viewBox="0 0 24 24" fill="none" xmlns="http://www.w3.org/2000/svg">
    <path d="M19.9377 20.487H15.6488C15.5275 20.487 15.4262 20.3857 15.4262 20.2643L15.406 15.9349C15.406 15.7327 15.6488 15.6315 15.7905 15.7732L17.0852 17.0677C17.6718 16.4812 18.1575 15.7934 18.4811 15.0649C19.7556 12.3945 19.2904 9.07655 17.0852 6.87142C15.7296 5.51601 13.9696 4.82799 12.1691 4.78757C11.5217 4.76736 10.9754 4.24144 10.9754 3.59405C10.9751 3.4338 11.0072 3.27514 11.0697 3.12756C11.1321 2.97998 11.2237 2.8465 11.3389 2.7351C11.4541 2.62369 11.5905 2.53665 11.7401 2.47917C11.8897 2.42168 12.0493 2.39494 12.2095 2.40054C14.5967 2.46117 16.9638 3.39173 18.7845 5.21263C21.9608 8.38873 22.4463 13.2038 20.2613 16.8858C19.8569 17.5736 19.351 18.221 18.7847 18.7874L20.0996 20.0822C20.2411 20.2238 20.1401 20.487 19.9377 20.487ZM13.0188 20.3857C13.0188 21.0736 12.4725 21.6197 11.7846 21.5995C9.39762 21.5388 7.03039 20.6083 5.2097 18.7874C2.0536 15.6113 1.5479 10.7962 3.73281 7.09396C4.13745 6.40614 4.64316 5.75875 5.2097 5.19241L3.91492 3.87722C3.75323 3.73574 3.85429 3.49299 4.07662 3.49299L8.36559 3.47278C8.48707 3.47278 8.58813 3.57384 8.58813 3.69511L8.60834 8.02451C8.60834 8.22704 8.3658 8.3281 8.22411 8.18641L6.92933 6.89163C6.34258 7.47839 5.85709 8.1662 5.53329 8.89464C4.25873 11.565 4.72421 14.8828 6.92933 17.088C8.23615 18.3959 9.99703 19.1496 11.8455 19.192C12.4929 19.192 13.0188 19.7181 13.0188 20.3857Z" fill="#2684FC"/>
</svg>
