<svg width="24" height="24" viewBox="0 0 24 24" fill="none" xmlns="http://www.w3.org/2000/svg">
<g clip-path="url(#clip0_9811_14909)">
<rect width="24" height="24" fill="white"/>
<path d="M4.26143 0.0450649C3.72256 0.126499 3.14609 0.320688 2.56963 0.621368C2.19367 0.821822 1.91797 1.02854 1.46682 1.47956C0.927953 2.01828 0.827698 2.14356 0.545731 2.7324C-0.0432668 3.96018 -0.5 3.5 0.000594747 12.0034C-0.500675 20.5 -0.0432667 20.0591 0.551997 21.2744C0.833964 21.8569 0.940485 22.001 1.47309 22.5335C2.00569 23.0722 1.91713 23.2181 2.49986 23.5C3.72798 24.0888 3.20875 23.9993 11.9999 23.9993C20.9999 24.5 20.0578 24.0431 21.2734 23.448C21.8562 23.1661 22.0003 23.0597 22.5329 22.5272C23.0718 21.9947 23.172 21.8569 23.454 21.2744C24.043 20.0466 24.4999 20.5 23.9991 12.0034C24.4999 3 24.043 3.94765 23.4477 2.7324C23.1657 2.14983 23.0592 2.00575 22.5266 1.4733C21.994 0.934578 21.8562 0.834351 21.2734 0.552463C20.0516 -0.0363692 20.4999 -0.5 12.2192 0.00121495C8.05232 -0.00504922 4.49986 -1.39917e-09 4.26143 0.0450649ZM16.0163 4.68682C16.3233 4.93739 16.574 5.15037 16.574 5.16916C16.574 5.18169 16.386 5.46984 16.1604 5.80811L15.7406 6.422L15.1892 5.95218C14.8822 5.68909 14.6315 5.46358 14.6315 5.44479C14.6315 5.40094 15.4085 4.24206 15.4399 4.2358C15.4524 4.2358 15.7093 4.43625 16.0163 4.68682ZM19.7759 7.61845C20.6092 7.88155 21.2734 8.54555 21.2734 9.11559C21.2672 9.98005 20.8223 11.0011 20.1581 11.6776C19.0992 12.7551 17.163 13.4128 14.4185 13.6258C14.0112 13.6571 13.6541 13.7072 13.629 13.7386C13.6039 13.7636 13.4724 14.1269 13.3408 14.5404C13.2154 14.9538 13.0839 15.3171 13.0588 15.3484C13.0275 15.3798 12.9648 15.3109 12.9147 15.1856C12.8332 14.9914 12.8332 14.91 12.946 14.3587C13.0149 14.0204 13.0651 13.7386 13.0525 13.726C13.04 13.7135 12.8019 13.6696 12.5262 13.6195L12.0187 13.5318L11.9811 14.1019C11.9184 15.1793 11.6176 16.2755 11.1038 17.3279C10.5462 18.4555 9.75039 19.1132 8.49094 19.4765C7.41319 19.7898 5.92817 19.8649 5.076 19.6457C4.06092 19.3888 3.28394 18.6935 2.91425 17.7351C2.70121 17.1713 2.71374 16.2943 2.94558 15.574C3.22755 14.7032 3.92934 13.3815 4.10478 13.3815C4.29276 13.3815 4.28649 13.4567 4.06719 13.8952C3.77895 14.4715 3.49699 15.3297 3.44686 15.7995C3.32154 16.927 4.10478 17.7539 5.62114 18.0859C6.40438 18.2613 7.9458 18.23 8.71024 18.0233C9.46216 17.8228 10.2955 17.3906 10.6339 17.0272C11.4923 16.1127 11.5111 13.939 10.6777 12.4607C10.4647 12.0911 10.4459 12.1976 10.9033 11.2266L11.1352 10.738L11.2354 10.8821C11.2918 10.9635 11.4547 11.2391 11.5926 11.496C11.8996 12.066 12.0312 12.1287 13.0337 12.1725L13.723 12.2038L14.1804 11.5148C15.2393 9.91741 16.6868 8.50797 17.9149 7.88781C18.7483 7.46185 19.118 7.41174 19.7759 7.61845Z" fill="#007A3D"/>
<path d="M18.0776 9.20957C17.3508 9.47893 16.4485 10.074 15.7091 10.7694C15.2579 11.2016 14.4246 12.1287 14.4622 12.1663C14.506 12.2101 15.9911 12.0472 16.5362 11.9345C17.7518 11.6902 19.1679 11.1577 19.8697 10.6817C20.4587 10.2807 20.4712 10.2369 20.0764 9.83599C19.6065 9.35992 19.1303 9.12188 18.6666 9.12814C18.4598 9.12814 18.1967 9.16573 18.0776 9.20957Z" fill="#007A3D"/>
</g>
<defs>
<clipPath id="clip0_9811_14909">
<rect width="24" height="24" rx="6" fill="white"/>
</clipPath>
</defs>
</svg>
