<svg width="24" height="24" viewBox="0 0 24 24" fill="none" xmlns="http://www.w3.org/2000/svg">
<g clip-path="url(#clip0_13735_14280)">
<path d="M15.297 3.55426H8.58847L4.55908 13.6996C6.28153 12.1583 8.48561 11.1428 10.9183 10.9094L11.7493 8.64651H12.1362L12.964 10.8996C14.9134 11.0661 16.7191 11.7339 18.2538 12.7739L18.2848 12.7494L18.5819 12.5028L18.7844 12.3363L15.297 3.55426Z" fill="#061018"/>
<path d="M17.3346 13.5331L13.8146 16.4457L13.4505 16.7478C12.9885 16.6204 12.502 16.5535 11.9991 16.5535C9.55502 16.5535 7.48318 18.1502 6.76971 20.3576C6.75992 20.3869 6.75012 20.4163 6.74196 20.4457H2.0791C2.084 20.4163 2.0889 20.3869 2.0938 20.3576C2.15257 20.0065 2.23094 19.6637 2.32563 19.3257C2.51339 18.6547 2.76971 18.0114 3.08808 17.4057C4.53951 14.6237 7.25461 12.6057 10.4742 12.1159C10.9722 12.0392 11.4799 12 11.9991 12C12.4758 12 12.946 12.0327 13.4048 12.098C14.8334 12.2971 16.1656 12.7984 17.3346 13.5331Z" fill="#061018"/>
<path d="M21.9208 20.4457H17.258C17.2498 20.4163 17.24 20.3869 17.2302 20.3575C16.9396 19.4596 16.4237 18.6628 15.7494 18.0326C15.6498 17.9396 15.5453 17.8481 15.4376 17.7632C15.3298 17.6751 15.2188 17.5934 15.1045 17.5151L18.5184 14.4016C18.6229 14.4898 18.7257 14.5812 18.8253 14.6743C18.9249 14.7673 19.0245 14.862 19.1192 14.9583C19.658 15.4988 20.1347 16.0996 20.538 16.751C21.1584 17.7485 21.609 18.862 21.849 20.0522C21.8702 20.1534 21.8882 20.2547 21.9061 20.3575C21.911 20.3869 21.9159 20.4163 21.9208 20.4457Z" fill="#2684FC"/>
<path d="M20.8496 12.1793C20.8496 12.2495 20.8202 12.3165 20.768 12.3638L19.2859 13.7192L19.2402 13.7616L18.4418 14.4898L15.0279 17.6032L14.3275 18.2416L12.0565 20.3118C11.9585 20.4016 11.8345 20.4457 11.712 20.4457C11.5683 20.4457 11.4263 20.3869 11.3251 20.2694C11.1357 20.0522 11.1634 19.7224 11.3855 19.5379L12.9528 18.2416L14.2589 17.1624L17.9585 14.1028L18.8565 13.3616L19.0247 13.2228L20.4431 11.9899C20.4871 11.9524 20.5426 11.9328 20.5982 11.9328C20.6112 11.9328 20.6243 11.9344 20.6373 11.9361C20.7582 11.954 20.848 12.0569 20.8496 12.1793Z" fill="#2684FC"/>
</g>
<defs>
<clipPath id="clip0_13735_14280">
<rect width="19.8416" height="16.8914" fill="white" transform="translate(2.0791 3.55426)"/>
</clipPath>
</defs>
</svg>
