<svg width="28" height="28" viewBox="0 0 28 28" fill="none" xmlns="http://www.w3.org/2000/svg">
<rect width="28" height="28" rx="6" fill="#E93B50"/>
<path d="M21.7634 18.0486L16.0407 7.52888C15.1213 5.98099 12.88 5.97893 11.9593 7.52888L6.2369 18.0486C5.29698 19.6303 6.43494 21.6332 8.27715 21.6332H19.7227C21.5634 21.6332 22.7033 19.6319 21.7634 18.0486ZM14 19.7348C13.4767 19.7348 13.0508 19.3088 13.0508 18.7856C13.0508 18.2623 13.4767 17.8363 14 17.8363C14.5233 17.8363 14.9492 18.2623 14.9492 18.7856C14.9492 19.3088 14.5233 19.7348 14 19.7348ZM14.9492 15.9379C14.9492 16.4612 14.5233 16.8871 14 16.8871C13.4767 16.8871 13.0508 16.4612 13.0508 15.9379V11.1918C13.0508 10.6685 13.4767 10.2426 14 10.2426C14.5233 10.2426 14.9492 10.6685 14.9492 11.1918V15.9379Z" fill="white"/>
</svg>
