<svg width="24" height="24" viewBox="0 0 24 24" fill="none" xmlns="http://www.w3.org/2000/svg">
    <rect width="24" height="24" rx="4" fill="#F2F2F7"/>
    <path d="M15.858 12.5088C15.8398 10.4874 17.5108 9.50401 17.5873 9.45823C16.6409 8.07658 15.174 7.88781 14.6586 7.87275C13.4266 7.74293 12.2316 8.61093 11.604 8.61093C10.9639 8.61093 9.99748 7.8853 8.95591 7.90662C7.61558 7.92732 6.36168 8.70438 5.67398 9.91105C4.25474 12.3714 5.31322 15.987 6.67297 17.9758C7.35315 18.9498 8.14795 20.0373 9.18828 19.999C10.206 19.957 10.5862 19.3493 11.8144 19.3493C13.0314 19.3493 13.3884 19.999 14.4494 19.9746C15.5417 19.957 16.2294 18.9962 16.8858 18.0134C17.6718 16.8971 17.9875 15.7976 18 15.7412C17.9743 15.7324 15.8786 14.9315 15.858 12.5088Z" fill="black"/>
    <path d="M13.8537 6.56448C14.4012 5.87899 14.7757 4.94639 14.6717 4C13.8794 4.03512 12.8886 4.54877 12.318 5.21921C11.8132 5.81 11.3622 6.77835 11.4787 7.68899C12.3687 7.75547 13.2825 7.23932 13.8537 6.56448Z" fill="black"/>
</svg>
