<svg width="20" height="20" viewBox="0 0 20 20" fill="none" xmlns="http://www.w3.org/2000/svg">
<path d="M10.0009 9.78271C5.96523 9.78271 2.61864 12.7201 2 16.5648H5.7611C6.31405 14.7556 8.00304 13.4392 10.0008 13.4392C10.6451 13.4392 11.2574 13.5761 11.8097 13.8223L14.2405 10.9738C13.0072 10.2184 11.5551 9.78271 10.0009 9.78271Z" fill="white"/>
<path d="M16.1565 8.93102C16.1641 8.98625 16.1495 9.04451 16.1102 9.0874L15.0694 10.3327L15.037 10.3709L12.0823 13.9036L9.99747 16.3983C9.9295 16.4789 9.83479 16.5294 9.73501 16.543C9.62044 16.5587 9.49928 16.5265 9.40529 16.4456C9.22992 16.2932 9.21556 16.0251 9.37265 15.8536L10.4861 14.6434L11.4169 13.6383L14.6866 10.0962L14.8081 9.967L15.8104 8.82455C15.8433 8.79004 15.8856 8.76924 15.93 8.76318C15.9411 8.76166 15.9522 8.76014 15.9638 8.76231C16.0577 8.76072 16.1391 8.83211 16.1565 8.93102Z" fill="white"/>
<path d="M12.6602 3H7.24941L3.99951 11.1474C5.38875 9.90972 7.16645 9.09419 9.12851 8.9067L9.79877 7.08945H10.1108L10.7811 8.9067C11.9471 9.01812 13.048 9.35135 14.041 9.86319L14.2228 9.66644L14.3388 9.54311L14.9791 8.81331L12.6602 3Z" fill="white"/>
<path d="M14.9507 11.4619C16.546 12.689 17.6691 14.4953 18.002 16.5644H14.2408C13.9564 15.6337 13.3713 14.8334 12.5981 14.2757L14.9507 11.4619Z" fill="white"/>
</svg>
