<svg width="20" height="20" viewBox="0 0 20 20" fill="none" xmlns="http://www.w3.org/2000/svg">
<path d="M13.3333 17.5H16.1667C16.6334 17.5 16.8667 17.5 17.045 17.4092C17.2018 17.3293 17.3293 17.2018 17.4092 17.045C17.5 16.8667 17.5 16.6334 17.5 16.1667V3.83333C17.5 3.36662 17.5 3.13327 17.4092 2.95501C17.3293 2.79821 17.2018 2.67072 17.045 2.59083C16.8667 2.5 16.6334 2.5 16.1667 2.5H11.3333C10.8666 2.5 10.6333 2.5 10.455 2.59083C10.2982 2.67072 10.1707 2.79821 10.0908 2.95501C10 3.13327 10 3.36662 10 3.83333V5M8.33333 15V17.5M5.83333 17.5H10.8333M5.16667 15H11.5C12.4334 15 12.9001 15 13.2567 14.8183C13.5703 14.6586 13.8252 14.4036 13.985 14.09C14.1667 13.7335 14.1667 13.2668 14.1667 12.3333V7.66667C14.1667 6.73325 14.1667 6.26654 13.985 5.91002C13.8252 5.59641 13.5703 5.34144 13.2567 5.18166C12.9001 5 12.4334 5 11.5 5H5.16667C4.23325 5 3.76654 5 3.41002 5.18166C3.09641 5.34144 2.84144 5.59641 2.68166 5.91002C2.5 6.26654 2.5 6.73325 2.5 7.66667V12.3333C2.5 13.2668 2.5 13.7335 2.68166 14.09C2.84144 14.4036 3.09641 14.6586 3.41002 14.8183C3.76654 15 4.23325 15 5.16667 15Z" stroke="white" stroke-width="1.5" stroke-linecap="round"/>
</svg>
