<svg width="32" height="32" viewBox="0 0 32 32" fill="none" xmlns="http://www.w3.org/2000/svg">
<rect width="32" height="32" rx="8" fill="#34C759"/>
<path fill-rule="evenodd" clip-rule="evenodd" d="M16.8327 12.6666C16.8327 12.316 17.0148 11.8986 17.3798 11.5529C17.7394 11.2121 18.2173 11 18.7077 11C19.767 11 20.5827 11.8525 20.5827 12.6666V13.5H22.2493V12.6666C22.2493 10.8142 20.565 9.33331 18.7077 9.33331C17.7397 9.33331 16.8634 9.74617 16.2335 10.3429C15.6088 10.9347 15.166 11.7672 15.166 12.6666V19.3333C15.166 20.1231 14.4974 21 13.291 21C12.0846 21 11.416 20.1231 11.416 19.3333L11.416 18.5L9.74935 18.5003L9.74936 19.3333C9.74937 21.0436 11.1641 22.6666 13.291 22.6666C15.4179 22.6666 16.8327 21.0436 16.8327 19.3333V12.6666ZM13.4993 13.9166C13.4993 15.5275 12.1935 16.8333 10.5827 16.8333C8.97185 16.8333 7.66602 15.5275 7.66602 13.9166C7.66602 12.3058 8.97185 11 10.5827 11C12.1935 11 13.4993 12.3058 13.4993 13.9166ZM10.5827 15.1666C11.273 15.1666 11.8327 14.607 11.8327 13.9166C11.8327 13.2263 11.273 12.6666 10.5827 12.6666C9.89232 12.6666 9.33268 13.2263 9.33268 13.9166C9.33268 14.607 9.89232 15.1666 10.5827 15.1666ZM24.3327 18.0833C24.3327 19.6941 23.0268 21 21.416 21C19.8052 21 18.4993 19.6941 18.4993 18.0833C18.4993 16.4725 19.8052 15.1666 21.416 15.1666C23.0268 15.1666 24.3327 16.4725 24.3327 18.0833ZM21.416 19.3333C22.1063 19.3333 22.666 18.7736 22.666 18.0833C22.666 17.393 22.1063 16.8333 21.416 16.8333C20.7257 16.8333 20.166 17.393 20.166 18.0833C20.166 18.7736 20.7257 19.3333 21.416 19.3333Z" fill="white"/>
</svg>
