<svg width="20" height="20" viewBox="0 0 20 20" fill="none" xmlns="http://www.w3.org/2000/svg">
<path d="M0 12.4086V15.2301C0 16.4 0.870968 17.2258 1.93548 17.2258H18.0645C19.129 17.2258 20 16.4 20 15.2301V12.4086H0Z" fill="#1EB53A"/>
<path d="M18.0645 2.77417H1.93548C0.870968 2.77417 0 3.59998 0 4.76987V7.59138H20V4.76987C20 3.59998 19.129 2.77417 18.0645 2.77417Z" fill="#0099B5"/>
<path d="M20 7.59137H0V12.4086H20V7.59137Z" fill="#F7F8FC"/>
<path d="M20 7.24731H0V7.5914H20V7.24731Z" fill="#CE1126"/>
<path d="M20 12.4086H0V12.7527H20V12.4086Z" fill="#CE1126"/>
<path d="M3.03364 3.73759C2.96912 3.73759 2.90461 3.70319 2.84009 3.70319C2.16268 3.70319 1.58203 4.28813 1.58203 5.04513C1.58203 5.80212 2.13042 6.38706 2.84009 6.38706C2.90461 6.38706 2.96912 6.38706 3.03364 6.35266C2.453 6.24943 2.00139 5.69889 2.00139 5.04513C2.00139 4.35695 2.453 3.84082 3.03364 3.73759Z" fill="white"/>
<path d="M3.64677 6.00847L3.58225 5.83643L3.51774 6.00847H3.35645L3.48548 6.1461L3.45322 6.31815L3.58225 6.21492L3.74354 6.31815L3.67903 6.1461L3.84032 6.00847H3.64677Z" fill="white"/>
<path d="M4.64579 6.00841L4.58127 5.83636L4.51676 6.00841H4.35547L4.4845 6.14604L4.45224 6.31808L4.58127 6.21486L4.74257 6.31808L4.67805 6.14604L4.80708 6.00841H4.64579Z" fill="white"/>
<path d="M5.6453 6.00841L5.58079 5.83636L5.51627 6.00841H5.35498L5.48401 6.14604L5.4195 6.31808L5.58079 6.21486L5.74208 6.31808L5.67756 6.14604L5.80659 6.00841H5.6453Z" fill="white"/>
<path d="M6.64774 6.00841L6.58323 5.83636L6.51871 6.00841H6.35742L6.48645 6.14604L6.42194 6.31808L6.58323 6.21486L6.74452 6.31808L6.68 6.14604L6.80903 6.00841H6.64774Z" fill="white"/>
<path d="M7.64726 6.00841L7.58274 5.83636L7.51822 6.00841H7.35693L7.48597 6.14604L7.42145 6.31808L7.58274 6.21486L7.71177 6.31808L7.67952 6.14604L7.80855 6.00841H7.64726Z" fill="white"/>
<path d="M4.58127 4.77008L4.54902 4.94212H4.35547L4.51676 5.07976L4.45224 5.2518L4.58127 5.14857L4.74256 5.2518L4.67805 5.07976L4.83934 4.94212H4.64579L4.58127 4.77008Z" fill="white"/>
<path d="M5.58079 4.77008L5.54853 4.94212H5.35498L5.51627 5.07976L5.45175 5.2518L5.58079 5.14857L5.74208 5.2518L5.67756 5.07976L5.83885 4.94212H5.6453L5.58079 4.77008Z" fill="white"/>
<path d="M6.58323 4.77008L6.55097 4.94212H6.35742L6.51871 5.07976L6.4542 5.2518L6.58323 5.14857L6.74452 5.2518L6.68 5.07976L6.84129 4.94212H6.64774L6.58323 4.77008Z" fill="white"/>
<path d="M7.64726 4.94212L7.58274 4.77008L7.55048 4.94212H7.35693L7.48597 5.07976L7.45371 5.2518L7.58274 5.14857L7.74403 5.2518L7.67952 5.07976L7.84081 4.94212H7.64726Z" fill="white"/>
<path d="M5.48697 4.01286L5.42246 4.18491L5.58375 4.08168L5.71278 4.18491L5.68052 4.01286L5.80955 3.87523H5.64826L5.58375 3.70319L5.51923 3.87523H5.32568L5.48697 4.01286Z" fill="white"/>
<path d="M6.486 4.01286L6.42148 4.18491L6.58277 4.08168L6.7118 4.18491L6.67955 4.01286L6.80858 3.87523H6.64729L6.58277 3.70319L6.51826 3.87523H6.32471L6.486 4.01286Z" fill="white"/>
<path d="M7.48551 4.01286L7.42099 4.18491L7.58228 4.08168L7.71132 4.18491L7.67906 4.01286L7.80809 3.87523H7.61454L7.58228 3.70319L7.51777 3.87523H7.32422L7.48551 4.01286Z" fill="white"/>
</svg>
