<svg width="9" height="7" viewBox="0 0 9 7" fill="none" xmlns="http://www.w3.org/2000/svg">
    <path d="M3.00251 0.978661H3.96724V4.37099C3.96724 4.76156 3.88305 5.09015 3.71466 5.35677C3.54627 5.62104 3.31707 5.821 3.02707 5.95665C2.73707 6.08996 2.40731 6.15661 2.03779 6.15661C1.66359 6.15661 1.33032 6.08996 1.03798 5.95665C0.745639 5.821 0.516443 5.62104 0.350393 5.35677C0.184343 5.09015 0.101318 4.76156 0.101318 4.37099V0.978661H1.06605V4.37099C1.06605 4.60954 1.1058 4.80483 1.18532 4.95684C1.26484 5.10652 1.3771 5.21761 1.5221 5.29011C1.6671 5.36261 1.839 5.39886 2.03779 5.39886C2.23892 5.39886 2.41082 5.36261 2.55348 5.29011C2.69848 5.21761 2.80957 5.10652 2.88675 4.95684C2.96393 4.80483 3.00251 4.60954 3.00251 4.37099V0.978661Z" fill="#273140"/>
    <path d="M8.36329 5.3287V6.08645H4.77801V5.3287H8.36329ZM8.29663 1.54346L5.17443 6.08645H4.5114V5.50761L7.64764 0.978661H8.29663V1.54346ZM7.95284 0.978661V1.73992H4.52192V0.978661H7.95284Z" fill="#273140"/>
</svg>
