<svg width="20" height="21" viewBox="0 0 20 21" fill="none" xmlns="http://www.w3.org/2000/svg">
<g clip-path="url(#clip0_22847_11520)">
<path d="M19.7135 17.6058H19.4649C19.3289 17.6058 19.3289 17.4447 19.3289 17.4447V6.17799C19.3289 5.89436 19.0967 5.6623 18.8132 5.6623H14.8237C14.6805 5.6623 14.6881 5.5265 14.6881 5.5265V3.35452C14.6881 3.33304 14.7002 3.30891 14.7715 3.30891C14.929 3.30891 15.058 3.17999 15.058 3.02242V2.51355C15.058 2.35597 14.929 2.22705 14.7715 2.22705H5.50816C5.35058 2.22705 5.22166 2.35597 5.22166 2.51355V3.02242C5.22166 3.17999 5.35058 3.30891 5.50816 3.30891C5.59141 3.30891 5.59158 3.38352 5.59158 3.39217V5.47642C5.59158 5.47642 5.60574 5.66236 5.48398 5.66236H1.17549C0.89186 5.66236 0.659798 5.89442 0.659798 6.17805V17.4806C0.659798 17.588 0.601583 17.6058 0.484005 17.6058H0.286495C0.128923 17.6058 0 17.7348 0 17.8923V18.4865C0 18.644 0.128923 18.773 0.286495 18.773H19.7135C19.8711 18.773 20 18.644 20 18.4865V17.8923C20 17.7347 19.8711 17.6058 19.7135 17.6058ZM11.2349 8.13275H12.9495C13.0756 8.13275 13.1787 8.23589 13.1787 8.36194V10.0766C13.1787 10.2027 13.0756 10.3058 12.9495 10.3058H11.2349C11.1088 10.3058 11.0057 10.2027 11.0057 10.0766V8.36194C11.0057 8.23589 11.1088 8.13275 11.2349 8.13275ZM11.0057 7.06916V5.35449C11.0057 5.22843 11.1088 5.12529 11.2349 5.12529H12.9495C13.0756 5.12529 13.1787 5.22843 13.1787 5.35449V7.06916C13.1787 7.19522 13.0756 7.29836 12.9495 7.29836H11.2349C11.1088 7.29836 11.0057 7.19522 11.0057 7.06916ZM11.2349 11.0342H12.9495C13.0756 11.0342 13.1787 11.1373 13.1787 11.2634V12.9781C13.1787 13.1041 13.0756 13.2073 12.9495 13.2073H11.2349C11.1088 13.2073 11.0057 13.1041 11.0057 12.9781V11.2634C11.0057 11.1374 11.1088 11.0342 11.2349 11.0342ZM11.4894 14.4814C11.6154 14.4814 11.7186 14.5846 11.7186 14.7106V17.3656C11.7186 17.4916 11.6154 17.5948 11.4894 17.5948H8.83442C8.70842 17.5948 8.60523 17.4916 8.60523 17.3656V14.7106C8.60523 14.5846 8.70842 14.4814 8.83442 14.4814H11.4894ZM9.27689 7.06916C9.27689 7.19522 9.17375 7.29836 9.04769 7.29836H7.33302C7.20696 7.29836 7.10382 7.19522 7.10382 7.06916V5.35449C7.10382 5.22843 7.20696 5.12529 7.33302 5.12529H9.04769C9.17375 5.12529 9.27689 5.22843 9.27689 5.35449V7.06916ZM7.33302 8.13275H9.04769C9.17375 8.13275 9.27689 8.23589 9.27689 8.36194V10.0766C9.27689 10.2027 9.17375 10.3058 9.04769 10.3058H7.33302C7.20696 10.3058 7.10382 10.2027 7.10382 10.0766V8.36194C7.10382 8.23589 7.20696 8.13275 7.33302 8.13275ZM7.33302 11.0342H9.04769C9.17375 11.0342 9.27689 11.1373 9.27689 11.2634V12.9781C9.27689 13.1041 9.17375 13.2073 9.04769 13.2073H7.33302C7.20696 13.2073 7.10382 13.1041 7.10382 12.9781V11.2634C7.10382 11.1374 7.20696 11.0342 7.33302 11.0342ZM15.3631 8.30894C15.3631 8.18288 15.4663 8.07975 15.5923 8.07975H17.3071C17.4331 8.07975 17.5363 8.18288 17.5363 8.30894V10.0236C17.5363 10.1497 17.4331 10.2528 17.3071 10.2528H15.5923C15.4663 10.2528 15.3631 10.1497 15.3631 10.0236V8.30894ZM15.3631 11.3165C15.3631 11.1904 15.4663 11.0873 15.5923 11.0873H17.3071C17.4331 11.0873 17.5363 11.1904 17.5363 11.3165V13.0311C17.5363 13.1572 17.4331 13.2603 17.3071 13.2603H15.5923C15.4663 13.2603 15.3631 13.1572 15.3631 13.0311V11.3165ZM15.3631 14.2178C15.3631 14.0918 15.4663 13.9887 15.5923 13.9887H17.3071C17.4331 13.9887 17.5363 14.0918 17.5363 14.2178V15.9325C17.5363 16.0586 17.4331 16.1617 17.3071 16.1617H15.5923C15.4663 16.1617 15.3631 16.0586 15.3631 15.9325V14.2178ZM2.4524 8.30894C2.4524 8.18288 2.55554 8.07975 2.6816 8.07975H4.39627C4.52233 8.07975 4.62546 8.18288 4.62546 8.30894V10.0236C4.62546 10.1497 4.52233 10.2528 4.39627 10.2528H2.6816C2.55554 10.2528 2.4524 10.1497 2.4524 10.0236V8.30894ZM2.4524 11.3165C2.4524 11.1904 2.55554 11.0873 2.6816 11.0873H4.39627C4.52233 11.0873 4.62546 11.1904 4.62546 11.3165V13.0311C4.62546 13.1572 4.52233 13.2603 4.39627 13.2603H2.6816C2.55554 13.2603 2.4524 13.1572 2.4524 13.0311V11.3165ZM2.4524 14.2178C2.4524 14.0918 2.55554 13.9887 2.6816 13.9887H4.39627C4.52233 13.9887 4.62546 14.0918 4.62546 14.2178V15.9325C4.62546 16.0586 4.52233 16.1617 4.39627 16.1617H2.6816C2.55554 16.1617 2.4524 16.0586 2.4524 15.9325V14.2178Z" fill="white"/>
</g>
<defs>
<clipPath id="clip0_22847_11520">
<rect width="20" height="20" fill="white" transform="translate(0 0.5)"/>
</clipPath>
</defs>
</svg>
