<svg width="10" height="11" viewBox="0 0 10 11" fill="none" xmlns="http://www.w3.org/2000/svg">
<g clip-path="url(#clip0_9824_2348)">
<path d="M5.99141 0.671129L5.43318 4.40418H8.39078C8.46824 4.40418 8.53234 4.46828 8.53234 4.54574C8.53234 4.58047 8.51988 4.61252 8.49852 4.63656L4.26244 10.4324C4.21615 10.4957 4.12801 10.509 4.06479 10.4627C4.02115 10.4315 4.00158 10.379 4.00869 10.3292L4.56691 6.59523H1.60934C1.531 6.59523 1.46777 6.53201 1.46777 6.45457C1.46777 6.41984 1.48023 6.38779 1.50072 6.36287L5.73768 0.566949C5.78396 0.504625 5.87211 0.491266 5.93533 0.536676C5.97894 0.568746 5.99853 0.621266 5.99141 0.671129Z" fill="#34C759"/>
</g>
<defs>
<clipPath id="clip0_9824_2348">
<rect width="10" height="10" fill="white" transform="translate(0 0.5)"/>
</clipPath>
</defs>
</svg>
