<svg width="16" height="16" viewBox="0 0 16 16" fill="none" xmlns="http://www.w3.org/2000/svg">
<path fill-rule="evenodd" clip-rule="evenodd" d="M4.83001 1.3335H11.17C11.9426 1.3335 12.3289 1.3335 12.6404 1.4419C13.2312 1.64747 13.695 2.12496 13.8947 2.73314C14 3.05386 14 3.45153 14 4.24687V13.583C14 14.1551 13.3433 14.4587 12.9279 14.0786C12.6839 13.8552 12.3161 13.8552 12.0721 14.0786L11.75 14.3733C11.3223 14.7647 10.6777 14.7647 10.25 14.3733C9.82228 13.9819 9.17772 13.9819 8.75 14.3733C8.32228 14.7647 7.67772 14.7647 7.25 14.3733C6.82228 13.9819 6.17772 13.9819 5.75 14.3733C5.32228 14.7647 4.67772 14.7647 4.25 14.3733L3.92794 14.0786C3.68388 13.8552 3.31612 13.8552 3.07206 14.0786C2.65666 14.4587 2 14.1551 2 13.583V4.24687C2 3.45153 2 3.05386 2.1053 2.73314C2.30499 2.12496 2.76881 1.64747 3.35959 1.4419C3.67114 1.3335 4.05743 1.3335 4.83001 1.3335ZM10.0396 5.66651C10.2236 5.46052 10.2057 5.14445 9.99967 4.96053C9.79369 4.77662 9.47761 4.79451 9.2937 5.00049L7.28571 7.24943L6.7063 6.60049C6.52239 6.39451 6.20631 6.37662 6.00033 6.56053C5.79434 6.74445 5.77645 7.06052 5.96036 7.26651L6.91275 8.33318C7.00761 8.43942 7.14328 8.50017 7.28571 8.50017C7.42815 8.50017 7.56382 8.43942 7.65868 8.33318L10.0396 5.66651ZM5 9.8335C4.72386 9.8335 4.5 10.0574 4.5 10.3335C4.5 10.6096 4.72386 10.8335 5 10.8335H11C11.2761 10.8335 11.5 10.6096 11.5 10.3335C11.5 10.0574 11.2761 9.8335 11 9.8335H5Z" fill="#34C759"/>
</svg>
