<svg width="20" height="20" viewBox="0 0 20 20" fill="none" xmlns="http://www.w3.org/2000/svg">
    <path d="M6.66699 14.1667H13.3337M6.66699 14.1667C6.66699 15.0872 5.9208 15.8334 5.00033 15.8334C4.07985 15.8334 3.33366 15.0872 3.33366 14.1667M6.66699 14.1667C6.66699 13.2462 5.9208 12.5 5.00033 12.5C4.07985 12.5 3.33366 13.2462 3.33366 14.1667M13.3337 14.1667C13.3337 15.0872 14.0799 15.8334 15.0003 15.8334C15.9208 15.8334 16.667 15.0872 16.667 14.1667M13.3337 14.1667C13.3337 13.2462 14.0799 12.5 15.0003 12.5C15.9208 12.5 16.667 13.2462 16.667 14.1667M8.33366 4.16669V9.16669M3.33366 9.16669L3.60993 7.50909C3.80784 6.32163 3.90679 5.7279 4.20308 5.28235C4.46425 4.8896 4.8312 4.57875 5.26154 4.3857C5.74974 4.16669 6.35166 4.16669 7.5555 4.16669H10.3596C11.1423 4.16669 11.5336 4.16669 11.8888 4.27456C12.2033 4.37007 12.4959 4.52664 12.7498 4.73532C13.0366 4.97104 13.2536 5.29666 13.6878 5.94789L15.8337 9.16669M3.33366 14.1667H3.00033C2.53362 14.1667 2.30026 14.1667 2.122 14.0759C1.9652 13.996 1.83771 13.8685 1.75782 13.7117C1.66699 13.5334 1.66699 13.3001 1.66699 12.8334V11.8334C1.66699 10.8999 1.66699 10.4332 1.84865 10.0767C2.00844 9.7631 2.2634 9.50813 2.57701 9.34834C2.93353 9.16669 3.40024 9.16669 4.33366 9.16669H14.3337C14.953 9.16669 15.2627 9.16669 15.5218 9.20773C16.9481 9.43363 18.0667 10.5523 18.2926 11.9786C18.3337 12.2377 18.3337 12.5473 18.3337 13.1667C18.3337 13.3215 18.3337 13.3989 18.3234 13.4637C18.2669 13.8203 17.9873 14.1 17.6307 14.1564C17.5659 14.1667 17.4885 14.1667 17.3337 14.1667H16.667" stroke="white" stroke-width="1.5" stroke-linecap="round" stroke-linejoin="round"/>
</svg>
