<svg width="15" height="14" viewBox="0 0 15 14" fill="none" xmlns="http://www.w3.org/2000/svg">
<path d="M5.6039 2.98179C6.2221 1.86437 6.53121 1.30566 6.93966 1.12082C7.29564 0.959725 7.70436 0.959725 8.06034 1.12082C8.46879 1.30566 8.7779 1.86437 9.3961 2.98179L13.1749 9.812C13.7555 10.8615 14.0458 11.3862 13.9941 11.8154C13.949 12.1899 13.7477 12.5283 13.4394 12.7481C13.086 13 12.4836 13 11.2788 13H3.72121C2.51638 13 1.91397 13 1.56063 12.7481C1.25231 12.5283 1.05102 12.1899 1.00589 11.8154C0.954163 11.3862 1.24448 10.8615 1.82511 9.81199L5.6039 2.98179Z" fill="#E93B50"/>
<path d="M7.5 10.3106H7.50672M7.5 5.60474V8.29382" stroke="white" stroke-width="1.44058" stroke-linecap="round" stroke-linejoin="round"/>
</svg>
