<svg width="16" height="16" viewBox="0 0 16 16" fill="none" xmlns="http://www.w3.org/2000/svg">
    <path fill-rule="evenodd" clip-rule="evenodd" d="M14.6668 7.99998C14.6668 11.6819 11.6821 14.6666 8.00016 14.6666C4.31826 14.6666 1.3335 11.6819 1.3335 7.99998C1.3335 4.31808 4.31826 1.33331 8.00016 1.33331C11.6821 1.33331 14.6668 4.31808 14.6668 7.99998ZM10.687 5.97976C10.8823 6.17502 10.8823 6.4916 10.687 6.68687L7.35372 10.0202C7.15845 10.2155 6.84187 10.2155 6.64661 10.0202L5.31328 8.68687C5.11801 8.4916 5.11801 8.17502 5.31328 7.97976C5.50854 7.7845 5.82512 7.7845 6.02038 7.97976L7.00016 8.95954L8.49005 7.46965L9.97994 5.97976C10.1752 5.7845 10.4918 5.7845 10.687 5.97976Z" fill="#34C759"/>
</svg>
