<svg width="12" height="13" viewBox="0 0 12 13" fill="none" xmlns="http://www.w3.org/2000/svg">
<path d="M3.81928 11.4575C3.94506 11.519 4.09289 11.484 4.17805 11.3779L8.86555 5.49902C8.93594 5.4109 8.94937 5.29045 8.90074 5.18889C8.85182 5.0876 8.74939 5.02295 8.63666 5.02295H6.76697L8.31279 1.9118C8.35828 1.82109 8.35342 1.71324 8.29992 1.62684C8.24642 1.54043 8.1523 1.48779 8.05074 1.48779H4.53512C4.40064 1.48779 4.28363 1.57936 4.25101 1.7098L3.07914 6.41684C3.05711 6.50437 3.07685 6.59709 3.13236 6.66803C3.18787 6.73926 3.27312 6.78074 3.36324 6.78074H4.74568L3.66508 11.1238C3.6316 11.2575 3.69568 11.3962 3.81928 11.4575Z" fill="#FEE409"/>
</svg>
