<svg width="20" height="20" viewBox="0 0 20 20" fill="none" xmlns="http://www.w3.org/2000/svg">
    <g clip-path="url(#clip0_17584_65533)">
        <path d="M19.8853 7.30276C19.8372 7.24391 19.7767 7.19645 19.7081 7.16378C19.6395 7.13111 19.5645 7.11404 19.4885 7.1138H17.542C17.0616 5.84687 16.4358 4.60554 15.7245 4.13697C13.2639 2.51823 6.73721 2.51823 4.27657 4.13697C3.56476 4.60605 2.94153 5.84891 2.45863 7.1138H0.512139C0.436089 7.11375 0.360988 7.13069 0.292324 7.16338C0.22366 7.19607 0.163166 7.24369 0.115263 7.30276C0.0670679 7.36163 0.0326691 7.43055 0.0145916 7.50446C-0.00348599 7.57836 -0.00478335 7.65538 0.0107947 7.72985L0.299106 9.12686C0.32301 9.24216 0.385918 9.3457 0.477235 9.42004C0.568552 9.49438 0.682699 9.53498 0.80045 9.535H1.37707C0.820422 10.1772 0.550546 10.9858 0.546962 11.7949C0.543377 12.7945 0.922842 13.6978 1.61674 14.3369C1.62442 14.3436 1.6321 14.3482 1.63927 14.3549V16.3095C1.63927 16.7331 1.9834 17.0777 2.40742 17.0777H4.20283C4.62685 17.0777 4.97098 16.7331 4.97098 16.3095V15.524H15.0291V16.3095C15.0291 16.7331 15.3732 17.0777 15.7973 17.0777H17.5927C18.0157 17.0777 18.3608 16.7331 18.3608 16.3095V14.3933C19.0972 13.7188 19.449 12.7909 19.4536 11.8645C19.4567 11.0278 19.1745 10.1895 18.5851 9.53397H19.2001C19.3181 9.53432 19.4325 9.49378 19.5239 9.41928C19.6153 9.34477 19.678 9.24089 19.7015 9.12532L19.9903 7.72883C20.0052 7.65446 20.0035 7.57772 19.9854 7.50408C19.9672 7.43044 19.9331 7.36171 19.8853 7.30276ZM5.12 5.41978C7.08134 4.12878 12.9187 4.12878 14.8791 5.41978C15.2601 5.66968 15.7501 6.68005 16.1992 7.91728H3.80083C4.24892 6.68056 4.739 5.6707 5.12 5.41978ZM2.82273 11.9874C2.82279 11.5867 2.98205 11.2024 3.26545 10.9191C3.54886 10.6358 3.9332 10.4767 4.33393 10.4767C4.73466 10.4768 5.11895 10.6361 5.40225 10.9195C5.68556 11.2029 5.84469 11.5872 5.84462 11.9879C5.84459 12.1864 5.80547 12.3828 5.72951 12.5661C5.65354 12.7494 5.54222 12.916 5.40189 13.0563C5.26156 13.1966 5.09498 13.3078 4.91165 13.3837C4.72832 13.4596 4.53184 13.4987 4.33342 13.4986C4.135 13.4986 3.93853 13.4595 3.75522 13.3835C3.57192 13.3076 3.40537 13.1962 3.26509 13.0559C2.98178 12.7725 2.82266 12.3882 2.82273 11.9874ZM15.6861 13.4986C15.2853 13.4986 14.9008 13.3394 14.6174 13.0559C14.3339 12.7725 14.1747 12.388 14.1747 11.9872C14.1747 11.5863 14.3339 11.2019 14.6174 10.9184C14.9008 10.635 15.2853 10.4757 15.6861 10.4757C16.087 10.4757 16.4714 10.635 16.7549 10.9184C17.0383 11.2019 17.1976 11.5863 17.1976 11.9872C17.1976 12.388 17.0383 12.7725 16.7549 13.0559C16.4714 13.3394 16.087 13.4986 15.6861 13.4986Z" fill="white"/>
    </g>
    <defs>
        <clipPath id="clip0_17584_65533">
            <rect width="20" height="20" fill="white"/>
        </clipPath>
    </defs>
</svg>
