<svg width="20" height="20" viewBox="0 0 20 20" fill="none" xmlns="http://www.w3.org/2000/svg">
    <path d="M15.25 1.75H4.75C4.57028 1.75207 4.39728 1.81861 4.2625 1.9375C4.79735 2.12568 5.26793 2.46157 5.61969 2.90625C5.97146 3.35093 6.19 3.88619 6.25 4.45C6.26147 4.54967 6.26147 4.65033 6.25 4.75V17.5C6.24965 17.6434 6.29044 17.784 6.36754 17.905C6.44464 18.0259 6.55482 18.1223 6.685 18.1825C6.81549 18.2426 6.96049 18.2639 7.10275 18.244C7.24502 18.224 7.37856 18.1636 7.4875 18.07L9.625 16.24L11.7625 18.07C11.8984 18.1862 12.0712 18.25 12.25 18.25C12.4288 18.25 12.6017 18.1862 12.7375 18.07L14.875 16.24L17.0125 18.07C17.1484 18.1862 17.3212 18.25 17.5 18.25C17.6085 18.2492 17.7157 18.2263 17.815 18.1825C17.9452 18.1223 18.0554 18.0259 18.1325 17.905C18.2096 17.784 18.2504 17.6434 18.25 17.5V4.75C18.25 3.95435 17.9339 3.19129 17.3713 2.62868C16.8087 2.06607 16.0457 1.75 15.25 1.75ZM14.5 12.25H10C9.80109 12.25 9.61032 12.171 9.46967 12.0303C9.32902 11.8897 9.25 11.6989 9.25 11.5C9.25 11.3011 9.32902 11.1103 9.46967 10.9697C9.61032 10.829 9.80109 10.75 10 10.75H14.5C14.6989 10.75 14.8897 10.829 15.0303 10.9697C15.171 11.1103 15.25 11.3011 15.25 11.5C15.25 11.6989 15.171 11.8897 15.0303 12.0303C14.8897 12.171 14.6989 12.25 14.5 12.25ZM14.5 9.25H10C9.80109 9.25 9.61032 9.17098 9.46967 9.03033C9.32902 8.88968 9.25 8.69891 9.25 8.5C9.25 8.30109 9.32902 8.11032 9.46967 7.96967C9.61032 7.82902 9.80109 7.75 10 7.75H14.5C14.6989 7.75 14.8897 7.82902 15.0303 7.96967C15.171 8.11032 15.25 8.30109 15.25 8.5C15.25 8.69891 15.171 8.88968 15.0303 9.03033C14.8897 9.17098 14.6989 9.25 14.5 9.25ZM14.5 6.25H10C9.80109 6.25 9.61032 6.17098 9.46967 6.03033C9.32902 5.88968 9.25 5.69891 9.25 5.5C9.25 5.30109 9.32902 5.11032 9.46967 4.96967C9.61032 4.82902 9.80109 4.75 10 4.75H14.5C14.6989 4.75 14.8897 4.82902 15.0303 4.96967C15.171 5.11032 15.25 5.30109 15.25 5.5C15.25 5.69891 15.171 5.88968 15.0303 6.03033C14.8897 6.17098 14.6989 6.25 14.5 6.25ZM4.75 4.75V10.75H2.5C2.30109 10.75 2.11032 10.671 1.96967 10.5303C1.82902 10.3897 1.75 10.1989 1.75 10V4.45C1.78978 4.05218 1.98597 3.68645 2.29541 3.43327C2.60484 3.1801 3.00218 3.06022 3.4 3.1C3.79782 3.13978 4.16355 3.33597 4.41673 3.64541C4.6699 3.95484 4.78978 4.35218 4.75 4.75Z" fill="white"/>
</svg>
