<svg width="34" height="34" viewBox="0 0 34 34" fill="none" xmlns="http://www.w3.org/2000/svg">
<path d="M30.1978 23.8824L20.4692 5.9988C18.9062 3.36738 15.0959 3.36389 13.5307 5.9988L3.80267 23.8824C2.20481 26.5712 4.13933 29.9762 7.27109 29.9762H26.7285C29.8577 29.9762 31.7956 26.574 30.1978 23.8824ZM17 26.7488C16.1104 26.7488 15.3863 26.0247 15.3863 25.1352C15.3863 24.2456 16.1104 23.5215 17 23.5215C17.8895 23.5215 18.6136 24.2456 18.6136 25.1352C18.6136 26.0247 17.8895 26.7488 17 26.7488ZM18.6136 20.2942C18.6136 21.1837 17.8895 21.9078 17 21.9078C16.1104 21.9078 15.3863 21.1837 15.3863 20.2942V12.2258C15.3863 11.3362 16.1104 10.6121 17 10.6121C17.8895 10.6121 18.6136 11.3362 18.6136 12.2258V20.2942Z" fill="#E93B50"/>
</svg>
