<svg width="24" height="24" viewBox="0 0 24 24" fill="none" xmlns="http://www.w3.org/2000/svg">
<path d="M6.14045 21.0666C10.9902 20.4362 13.9306 18.9598 14.9827 18.1713C15.244 18.0391 15.4999 17.8886 15.7488 17.7193C18.8255 15.6272 19.6653 11.4708 17.6248 8.43564C15.5842 5.40049 11.436 4.63599 8.35934 6.72807C8.25121 6.8016 8.14584 6.87767 8.04327 6.95616C7.96563 6.99704 7.89044 7.04425 7.8179 7.09803C4.77978 9.3502 2.60968 12.813 1.7602 14.5382C0.804188 10.2454 2.51159 5.57882 6.40367 2.93222C11.4597 -0.505842 18.2878 0.766841 21.6547 5.77484C25.0216 10.7828 23.6523 17.6297 18.5963 21.0678C14.6983 23.7184 9.74693 23.569 6.14045 21.0666Z" fill="#2684FC"/>
<path fill-rule="evenodd" clip-rule="evenodd" d="M8.72117 8.89349C8.79253 8.83885 8.86585 8.78589 8.9411 8.73473C11.0821 7.27883 13.9757 7.82093 15.4041 9.94553C16.8325 12.0701 16.2548 14.9727 14.1137 16.4286C13.9405 16.5464 13.7624 16.6511 13.5805 16.743C12.8426 17.2962 10.7685 18.3342 7.34027 18.7592L10.2312 16.0344L2.25484 19.0077L8.24852 12.2647L4.2526 14.3963C4.75226 13.2903 6.31413 10.6611 8.56431 8.99219C8.61478 8.95475 8.66712 8.92191 8.72117 8.89349Z" fill="#2684FC"/>
</svg>
