<svg width="28" height="28" viewBox="0 0 28 28" fill="none" xmlns="http://www.w3.org/2000/svg">
<rect width="28" height="28" rx="6" fill="#2684FC"/>
<path d="M18.1663 15.6673V20.6673M15.6663 18.1673H20.6663M16.9997 12.334H19.333C19.7997 12.334 20.0331 12.334 20.2113 12.2432C20.3681 12.1633 20.4956 12.0358 20.5755 11.879C20.6663 11.7007 20.6663 11.4674 20.6663 11.0007V8.66732C20.6663 8.20061 20.6663 7.96725 20.5755 7.78899C20.4956 7.63219 20.3681 7.50471 20.2113 7.42481C20.0331 7.33398 19.7997 7.33398 19.333 7.33398H16.9997C16.533 7.33398 16.2996 7.33398 16.1213 7.42481C15.9645 7.50471 15.8371 7.63219 15.7572 7.78899C15.6663 7.96725 15.6663 8.20061 15.6663 8.66732V11.0007C15.6663 11.4674 15.6663 11.7007 15.7572 11.879C15.8371 12.0358 15.9645 12.1633 16.1213 12.2432C16.2996 12.334 16.533 12.334 16.9997 12.334ZM8.66634 12.334H10.9997C11.4664 12.334 11.6997 12.334 11.878 12.2432C12.0348 12.1633 12.1623 12.0358 12.2422 11.879C12.333 11.7007 12.333 11.4674 12.333 11.0007V8.66732C12.333 8.20061 12.333 7.96725 12.2422 7.78899C12.1623 7.63219 12.0348 7.50471 11.878 7.42481C11.6997 7.33398 11.4664 7.33398 10.9997 7.33398H8.66634C8.19963 7.33398 7.96628 7.33398 7.78802 7.42481C7.63121 7.50471 7.50373 7.63219 7.42384 7.78899C7.33301 7.96725 7.33301 8.20061 7.33301 8.66732V11.0007C7.33301 11.4674 7.33301 11.7007 7.42384 11.879C7.50373 12.0358 7.63121 12.1633 7.78802 12.2432C7.96628 12.334 8.19963 12.334 8.66634 12.334ZM8.66634 20.6673H10.9997C11.4664 20.6673 11.6997 20.6673 11.878 20.5765C12.0348 20.4966 12.1623 20.3691 12.2422 20.2123C12.333 20.0341 12.333 19.8007 12.333 19.334V17.0007C12.333 16.5339 12.333 16.3006 12.2422 16.1223C12.1623 15.9655 12.0348 15.838 11.878 15.7581C11.6997 15.6673 11.4664 15.6673 10.9997 15.6673H8.66634C8.19963 15.6673 7.96628 15.6673 7.78802 15.7581C7.63121 15.838 7.50373 15.9655 7.42384 16.1223C7.33301 16.3006 7.33301 16.5339 7.33301 17.0007V19.334C7.33301 19.8007 7.33301 20.0341 7.42384 20.2123C7.50373 20.3691 7.63121 20.4966 7.78802 20.5765C7.96628 20.6673 8.19963 20.6673 8.66634 20.6673Z" stroke="white" stroke-width="2" stroke-linecap="round" stroke-linejoin="round"/>
</svg>
