<svg width="28" height="28" viewBox="0 0 28 28" fill="none" xmlns="http://www.w3.org/2000/svg">
    <rect width="28" height="28" rx="6" fill="#F2F2F7"/>
    <path d="M6.5 11.5H21.5M9.83333 16.5H11.5M9.16667 19.8334H18.8333C19.7668 19.8334 20.2335 19.8334 20.59 19.6517C20.9036 19.4919 21.1586 19.2369 21.3183 18.9233C21.5 18.5668 21.5 18.1001 21.5 17.1667V10.8334C21.5 9.89993 21.5 9.43322 21.3183 9.0767C21.1586 8.7631 20.9036 8.50813 20.59 8.34834C20.2335 8.16669 19.7668 8.16669 18.8333 8.16669H9.16667C8.23325 8.16669 7.76654 8.16669 7.41002 8.34834C7.09641 8.50813 6.84144 8.7631 6.68166 9.0767C6.5 9.43322 6.5 9.89993 6.5 10.8334V17.1667C6.5 18.1001 6.5 18.5668 6.68166 18.9233C6.84144 19.2369 7.09641 19.4919 7.41002 19.6517C7.76654 19.8334 8.23325 19.8334 9.16667 19.8334Z" stroke="#4D5B6E" stroke-width="1.5" stroke-linecap="round" stroke-linejoin="round"/>
</svg>
