<svg width="20" height="20" viewBox="0 0 20 20" fill="none" xmlns="http://www.w3.org/2000/svg">
<g id="Frame">
<g id="Group">
<path id="Vector" d="M13.3247 0H6.67016C5.49577 0.00132102 4.54416 0.952969 4.54297 2.12736V17.8728C4.54412 19.0472 5.49581 19.9988 6.67016 20H13.3247C14.4991 19.9988 15.4507 19.0471 15.4521 17.8728V2.12736C15.4507 0.952969 14.4991 0.00136364 13.3247 0ZM9.99752 18.1819C9.49532 18.1819 9.08831 17.7749 9.08831 17.2727C9.08831 16.7707 9.49527 16.3636 9.99752 16.3636C10.4995 16.3636 10.9066 16.7706 10.9066 17.2727C10.9066 17.7749 10.4996 18.1819 9.99752 18.1819ZM11.3612 2.72727H8.63388C8.38289 2.72727 8.17928 2.52371 8.17928 2.27267C8.17928 2.02164 8.38284 1.81824 8.63388 1.81824H11.3612C11.6121 1.81824 11.8156 2.02164 11.8156 2.27267C11.8156 2.52371 11.6122 2.72727 11.3612 2.72727Z" fill="white"/>
</g>
</g>
</svg>
