<svg width="24" height="24" viewBox="0 0 24 24" fill="none" xmlns="http://www.w3.org/2000/svg">
<path d="M6.10595 12.0462C4.90496 11.6189 4.30447 11.4052 4.12555 11.0811C3.97051 10.8002 3.96326 10.4612 4.10616 10.1739C4.27106 9.84249 4.86187 9.60335 6.04349 9.12508L17.1812 4.61694C18.345 4.14589 18.9269 3.91037 19.2945 4.03113C19.6136 4.13594 19.8638 4.38619 19.9686 4.70526C20.0894 5.07286 19.8539 5.65475 19.3828 6.81852L14.8747 17.9563C14.3964 19.1379 14.1573 19.7287 13.8258 19.8936C13.5386 20.0365 13.1995 20.0292 12.9187 19.8742C12.5946 19.6953 12.3809 19.0948 11.9536 17.8938L10.6452 14.2168C10.5621 13.9832 10.5205 13.8663 10.4526 13.7688C10.3925 13.6823 10.3174 13.6073 10.231 13.5471C10.1334 13.4792 10.0166 13.4377 9.78293 13.3545L6.10595 12.0462Z" stroke="#4D696E" stroke-width="1.5" stroke-linecap="round" stroke-linejoin="round"/>
</svg>
