<svg width="33" height="32" viewBox="0 0 33 32" fill="none" xmlns="http://www.w3.org/2000/svg">
<g id="camera">
<g id="Icon">
<path d="M16.5 21.3333C18.7091 21.3333 20.5 19.5425 20.5 17.3333C20.5 15.1242 18.7091 13.3333 16.5 13.3333C14.2909 13.3333 12.5 15.1242 12.5 17.3333C12.5 19.5425 14.2909 21.3333 16.5 21.3333Z" stroke="#4D696E" stroke-width="2" stroke-linecap="round" stroke-linejoin="round"/>
<path d="M4.5 22.4V12.2666C4.5 10.7732 4.5 10.0264 4.79065 9.456C5.04631 8.95424 5.45426 8.54629 5.95603 8.29063C6.52646 7.99998 7.27319 7.99998 8.76667 7.99998H10.1729C10.3368 7.99998 10.4187 7.99998 10.4943 7.99132C10.8889 7.94613 11.2427 7.72744 11.4596 7.39477C11.5012 7.33101 11.5378 7.25768 11.6111 7.11109C11.7577 6.81787 11.831 6.67126 11.9142 6.54374C12.3479 5.8784 13.0556 5.44101 13.8446 5.35064C13.9959 5.33331 14.1598 5.33331 14.4876 5.33331H18.5124C18.8402 5.33331 19.0041 5.33331 19.1554 5.35064C19.9444 5.44101 20.6521 5.8784 21.0858 6.54374C21.169 6.67125 21.2423 6.81791 21.3889 7.11109C21.4622 7.2577 21.4988 7.33101 21.5404 7.39477C21.7573 7.72744 22.1111 7.94613 22.5057 7.99132C22.5813 7.99998 22.6632 7.99998 22.8271 7.99998H24.2333C25.7268 7.99998 26.4735 7.99998 27.044 8.29063C27.5457 8.54629 27.9537 8.95424 28.2094 9.456C28.5 10.0264 28.5 10.7732 28.5 12.2666V22.4C28.5 23.8935 28.5 24.6402 28.2094 25.2106C27.9537 25.7124 27.5457 26.1203 27.044 26.376C26.4735 26.6666 25.7268 26.6666 24.2333 26.6666H8.76667C7.27319 26.6666 6.52646 26.6666 5.95603 26.376C5.45426 26.1203 5.04631 25.7124 4.79065 25.2106C4.5 24.6402 4.5 23.8935 4.5 22.4Z" stroke="#4D696E" stroke-width="2" stroke-linecap="round" stroke-linejoin="round"/>
</g>
</g>
</svg>
