<svg width="20" height="20" viewBox="0 0 20 20" fill="none" xmlns="http://www.w3.org/2000/svg">
    <path d="M16.4 3.6H15.6V2.8C15.6 2.32 15.28 2 14.8 2C14.32 2 14 2.32 14 2.8V3.6H6V2.8C6 2.32 5.68 2 5.2 2C4.72 2 4.4 2.32 4.4 2.8V3.6H2.8C2.4 3.6 2 3.92 2 4.4V15.6C2 16.08 2.4 16.4 2.8 16.4H7.68C7.12 15.44 6.8 14.32 6.8 13.2C6.8 9.68 9.68 6.8 13.2 6.8C14.72 6.8 16.08 7.36 17.2 8.24V4.4C17.2 4 16.8 3.6 16.4 3.6Z" fill="white"/>
    <path d="M13.2004 8.40002C10.5604 8.40002 8.40039 10.56 8.40039 13.2C8.40039 15.84 10.5604 18 13.2004 18C15.8404 18 18.0004 15.84 18.0004 13.2C18.0004 10.56 15.8404 8.40002 13.2004 8.40002ZM14.8004 14H13.2004C12.7204 14 12.4004 13.68 12.4004 13.2V10.8C12.4004 10.32 12.7204 10 13.2004 10C13.6804 10 14.0004 10.32 14.0004 10.8V12.4H14.8004C15.2804 12.4 15.6004 12.72 15.6004 13.2C15.6004 13.68 15.2804 14 14.8004 14Z" fill="white"/>
</svg>
