<svg width="24" height="24" viewBox="0 0 24 24" fill="none" xmlns="http://www.w3.org/2000/svg">
<path d="M8 5.75H13V4.25H8V5.75ZM13 16.25H8V17.75H13V16.25ZM8 16.25C6.56458 16.25 5.56347 16.2484 4.80812 16.1469C4.07434 16.0482 3.68577 15.8678 3.40901 15.591L2.34835 16.6517C2.95027 17.2536 3.70814 17.5125 4.60825 17.6335C5.48678 17.7516 6.60699 17.75 8 17.75V16.25ZM1.25 11C1.25 12.393 1.24841 13.5132 1.36652 14.3918C1.48754 15.2919 1.74643 16.0497 2.34835 16.6517L3.40901 15.591C3.13225 15.3142 2.9518 14.9257 2.85315 14.1919C2.75159 13.4365 2.75 12.4354 2.75 11H1.25ZM18.25 11C18.25 12.4354 18.2484 13.4365 18.1469 14.1919C18.0482 14.9257 17.8678 15.3142 17.591 15.591L18.6517 16.6517C19.2536 16.0497 19.5125 15.2919 19.6335 14.3918C19.7516 13.5132 19.75 12.393 19.75 11H18.25ZM13 17.75C14.393 17.75 15.5132 17.7516 16.3918 17.6335C17.2919 17.5125 18.0497 17.2536 18.6517 16.6517L17.591 15.591C17.3142 15.8678 16.9257 16.0482 16.1919 16.1469C15.4365 16.2484 14.4354 16.25 13 16.25V17.75ZM13 5.75C14.4354 5.75 15.4365 5.75159 16.1919 5.85315C16.9257 5.9518 17.3142 6.13225 17.591 6.40901L18.6517 5.34835C18.0497 4.74643 17.2919 4.48754 16.3918 4.36652C15.5132 4.24841 14.393 4.25 13 4.25V5.75ZM19.75 11C19.75 9.60699 19.7516 8.48678 19.6335 7.60825C19.5125 6.70814 19.2536 5.95027 18.6517 5.34835L17.591 6.40901C17.8678 6.68577 18.0482 7.07434 18.1469 7.80812C18.2484 8.56347 18.25 9.56458 18.25 11H19.75ZM8 4.25C6.60699 4.25 5.48678 4.24841 4.60825 4.36652C3.70814 4.48754 2.95027 4.74643 2.34835 5.34835L3.40901 6.40901C3.68577 6.13225 4.07434 5.9518 4.80812 5.85315C5.56347 5.75159 6.56458 5.75 8 5.75V4.25ZM2.75 11C2.75 9.56458 2.75159 8.56347 2.85315 7.80812C2.9518 7.07434 3.13225 6.68577 3.40901 6.40901L2.34835 5.34835C1.74643 5.95027 1.48754 6.70814 1.36652 7.60825C1.24841 8.48678 1.25 9.60699 1.25 11H2.75Z" fill="#4D696E"/>
<path d="M5.87874 19.1214L6.40907 18.591H6.40907L5.87874 19.1214ZM21.1214 8.87873L21.6517 8.3484V8.3484L21.1214 8.87873ZM16.0001 19.2501H11.0001V20.7501H16.0001V19.2501ZM11.0001 19.2501C9.56464 19.2501 8.56353 19.2485 7.80818 19.1469C7.0744 19.0483 6.68583 18.8678 6.40907 18.591L5.34841 19.6517C5.95032 20.2536 6.7082 20.5125 7.60831 20.6335C8.48684 20.7516 9.60705 20.7501 11.0001 20.7501V19.2501ZM21.2501 14.0001C21.2501 15.4355 21.2485 16.4366 21.1469 17.1919C21.0483 17.9257 20.8678 18.3143 20.591 18.591L21.6517 19.6517C22.2536 19.0498 22.5125 18.2919 22.6335 17.3918C22.7516 16.5133 22.7501 15.3931 22.7501 14.0001H21.2501ZM16.0001 20.7501C17.3931 20.7501 18.5133 20.7516 19.3918 20.6335C20.2919 20.5125 21.0498 20.2536 21.6517 19.6517L20.591 18.591C20.3143 18.8678 19.9257 19.0483 19.1919 19.1469C18.4366 19.2485 17.4355 19.2501 16.0001 19.2501V20.7501ZM22.7501 14.0001C22.7501 12.607 22.7516 11.4868 22.6335 10.6083C22.5125 9.70819 22.2536 8.95032 21.6517 8.3484L20.591 9.40906C20.8678 9.68583 21.0483 10.0744 21.1469 10.8082C21.2485 11.5635 21.2501 12.5646 21.2501 14.0001H22.7501ZM18.9266 8.82257C19.836 8.91201 20.2829 9.10091 20.591 9.40906L21.6517 8.3484C20.9801 7.67678 20.1143 7.43215 19.0735 7.32977L18.9266 8.82257ZM4.32977 17.0734C4.43215 18.1143 4.67678 18.9801 5.34841 19.6517L6.40907 18.591C6.10091 18.2829 5.91201 17.836 5.82257 16.9266L4.32977 17.0734Z" fill="#4D696E"/>
<path d="M13 11C13 12.3807 11.8807 13.5 10.5 13.5C9.11929 13.5 8 12.3807 8 11C8 9.61929 9.11929 8.5 10.5 8.5C11.8807 8.5 13 9.61929 13 11Z" stroke="#4D696E" stroke-width="1.5" stroke-linecap="round" stroke-linejoin="round"/>
<path d="M16 13L16 9" stroke="#4D696E" stroke-width="1.5" stroke-linecap="round" stroke-linejoin="round"/>
<path d="M5 13L5 9" stroke="#4D696E" stroke-width="1.5" stroke-linecap="round" stroke-linejoin="round"/>
</svg>
