<svg width="16" height="16" viewBox="0 0 16 16" fill="none" xmlns="http://www.w3.org/2000/svg">
<path d="M7.99992 1.33325C4.31802 1.33325 1.33325 4.32216 1.33325 8.00916C1.33325 11.5278 4.05165 14.4106 7.5001 14.6666L7.49987 10.6257C6.4515 10.3965 5.66659 9.46152 5.66659 8.34295V8.00916C5.66659 7.64046 5.96506 7.34157 6.33325 7.34157H6.49992V6.00639C6.49992 5.72986 6.72378 5.50569 6.99992 5.50569C7.27606 5.50569 7.49992 5.72986 7.49992 6.00639V7.34157H8.49992V6.00639C8.49992 5.72986 8.72378 5.50569 8.99992 5.50569C9.27606 5.50569 9.49992 5.72986 9.49992 6.00639V7.34157H9.66659C10.0348 7.34157 10.3333 7.64046 10.3333 8.00916V8.34295C10.3333 9.46156 9.54829 10.3966 8.49987 10.6258L8.49973 14.6666C11.9482 14.4106 14.6666 11.5278 14.6666 8.00916C14.6666 4.32216 11.6818 1.33325 7.99992 1.33325Z" fill="#EBC032"/>
</svg>
