<svg width="15" height="14" viewBox="0 0 15 14" fill="none" xmlns="http://www.w3.org/2000/svg">
<path d="M0.5 7C0.5 3.13401 3.63401 0 7.5 0C11.366 0 14.5 3.13401 14.5 7C14.5 10.866 11.366 14 7.5 14C3.63401 14 0.5 10.866 0.5 7Z" fill="#EE171C"/>
<path d="M3.92977 3.44142C4.06326 3.30594 4.22254 3.19832 4.3983 3.12486C4.57406 3.05139 4.76277 3.01355 4.95339 3.01355C5.14401 3.01355 5.33272 3.05139 5.50848 3.12486C5.68423 3.19832 5.84351 3.30594 5.977 3.44142C6.12562 3.57188 6.24582 3.73128 6.33017 3.90977C6.41453 4.08827 6.46126 4.28208 6.46747 4.47925C6.47369 4.67641 6.43927 4.87276 6.36632 5.05617C6.29338 5.23958 6.18346 5.40617 6.04336 5.54566C5.90325 5.68514 5.73592 5.79457 5.5517 5.8672C5.36747 5.93982 5.17025 5.97409 4.97221 5.9679C4.77416 5.96171 4.57949 5.91519 4.40021 5.8312C4.22092 5.74722 4.06081 5.62756 3.92977 5.4796C3.79369 5.3467 3.6856 5.18812 3.6118 5.01314C3.53801 4.83816 3.5 4.65029 3.5 4.46051C3.5 4.27073 3.53801 4.08286 3.6118 3.90788C3.6856 3.73289 3.79369 3.57432 3.92977 3.44142ZM5.58745 10.6864C5.51026 10.7837 5.41206 10.8624 5.30014 10.9167C5.18822 10.9709 5.06545 10.9994 4.94095 11C4.78411 11.0005 4.63033 10.9567 4.49749 10.8737C4.36464 10.7907 4.25819 10.6719 4.19048 10.531C4.12278 10.3902 4.09661 10.2331 4.11502 10.078C4.13342 9.92292 4.19565 9.77623 4.29446 9.65496L9.40839 3.30939C9.54515 3.13937 9.74388 3.03007 9.96125 3.00534C10.1786 2.98061 10.397 3.04244 10.5688 3.17737C10.6545 3.24487 10.726 3.32859 10.7791 3.42372C10.8323 3.51884 10.866 3.62349 10.8783 3.73164C10.8906 3.83978 10.8813 3.94928 10.851 4.05384C10.8206 4.1584 10.7698 4.25594 10.7014 4.34086L5.58745 10.6864ZM11.0661 10.5544C10.9326 10.6899 10.7733 10.7975 10.5975 10.871C10.4218 10.9444 10.2331 10.9823 10.0425 10.9823C9.85183 10.9823 9.66312 10.9444 9.48736 10.871C9.31161 10.7975 9.15233 10.6899 9.01884 10.5544C8.77484 10.2789 8.64546 9.92118 8.65704 9.55405C8.66861 9.18693 8.82027 8.83799 9.08115 8.57827C9.34203 8.31854 9.69252 8.16755 10.0613 8.15603C10.43 8.1445 10.7893 8.27331 11.0661 8.51623C11.2027 8.64858 11.3114 8.80672 11.3859 8.9814C11.4604 9.15608 11.4992 9.3438 11.5 9.53358C11.5008 9.72336 11.4635 9.91139 11.3904 10.0867C11.3173 10.2619 11.2099 10.421 11.0744 10.5544H11.0661Z" fill="white"/>
</svg>
