<svg width="20" height="20" viewBox="0 0 20 20" fill="none" xmlns="http://www.w3.org/2000/svg">
<g id="Notification Icon">
<path id="Icon" d="M11.668 5H8.33464M12.5013 14.1667C12.2649 13.2157 11.2355 12.5 10.0013 12.5C8.76714 12.5 7.73767 13.2157 7.5013 14.1667M10.0013 9.16667H10.0096M6.83464 17.5H13.168C14.1014 17.5 14.5681 17.5 14.9246 17.3183C15.2382 17.1586 15.4932 16.9036 15.653 16.59C15.8346 16.2335 15.8346 15.7668 15.8346 14.8333V5.16667C15.8346 4.23325 15.8346 3.76654 15.653 3.41002C15.4932 3.09641 15.2382 2.84144 14.9246 2.68166C14.5681 2.5 14.1014 2.5 13.168 2.5H6.83464C5.90121 2.5 5.4345 2.5 5.07798 2.68166C4.76438 2.84144 4.50941 3.09641 4.34962 3.41002C4.16797 3.76654 4.16797 4.23325 4.16797 5.16667V14.8333C4.16797 15.7668 4.16797 16.2335 4.34962 16.59C4.50941 16.9036 4.76438 17.1586 5.07798 17.3183C5.4345 17.5 5.90121 17.5 6.83464 17.5ZM10.8346 9.16667C10.8346 9.6269 10.4615 10 10.0013 10C9.54106 10 9.16797 9.6269 9.16797 9.16667C9.16797 8.70643 9.54106 8.33333 10.0013 8.33333C10.4615 8.33333 10.8346 8.70643 10.8346 9.16667Z" stroke="#061018" stroke-width="1.6" stroke-linecap="round" stroke-linejoin="round"/>
</g>
</svg>
