<svg width="14" height="14" viewBox="0 0 14 14" fill="none" xmlns="http://www.w3.org/2000/svg">
<path d="M5.95878 11.2438C6.14439 11.099 6.31274 10.9306 6.64941 10.594L10.9637 6.27973C10.3765 6.03534 9.68104 5.63391 9.02331 4.97619C8.36549 4.31836 7.96404 3.6228 7.71966 3.03557L3.40533 7.3499L3.4053 7.34993C3.06865 7.68658 2.90031 7.85492 2.75554 8.04053C2.58476 8.25948 2.43834 8.49639 2.31888 8.74706C2.21761 8.95955 2.14233 9.1854 1.99176 9.6371L1.19778 12.0191C1.12368 12.2413 1.18154 12.4864 1.34722 12.6521C1.5129 12.8178 1.75797 12.8756 1.98026 12.8015L4.3622 12.0075C4.8139 11.857 5.03976 11.7817 5.25225 11.6804C5.50292 11.561 5.73983 11.4145 5.95878 11.2438Z" fill="#2684FC"/>
<path d="M12.1608 5.08257C13.0566 4.18675 13.0566 2.73432 12.1608 1.8385C11.265 0.942669 9.81256 0.942669 8.91673 1.8385L8.39929 2.35594C8.40638 2.37733 8.41373 2.39902 8.42135 2.421C8.61101 2.96767 8.96886 3.6843 9.64203 4.35747C10.3152 5.03065 11.0318 5.38849 11.5785 5.57815C11.6004 5.58574 11.622 5.59306 11.6433 5.60011L12.1608 5.08257Z" fill="#2684FC"/>
</svg>
