<svg width="20" height="20" viewBox="0 0 20 20" fill="none" xmlns="http://www.w3.org/2000/svg">
<path d="M17.5 4.99992H15.8333M17.5 9.99992H13.3333M17.5 14.9999H13.3333M5.83333 16.6666V11.301C5.83333 11.1276 5.83333 11.0409 5.81632 10.958C5.80122 10.8845 5.77626 10.8133 5.7421 10.7464C5.70359 10.6711 5.64945 10.6034 5.54116 10.468L2.79218 7.0318C2.68389 6.89644 2.62974 6.82876 2.59124 6.75339C2.55708 6.68653 2.53211 6.61536 2.51701 6.5418C2.5 6.4589 2.5 6.37223 2.5 6.19888V4.66659C2.5 4.19987 2.5 3.96652 2.59083 3.78826C2.67072 3.63146 2.79821 3.50397 2.95501 3.42408C3.13327 3.33325 3.36662 3.33325 3.83333 3.33325H11.1667C11.6334 3.33325 11.8667 3.33325 12.045 3.42408C12.2018 3.50397 12.3293 3.63146 12.4092 3.78826C12.5 3.96652 12.5 4.19987 12.5 4.66659V6.19888C12.5 6.37223 12.5 6.4589 12.483 6.5418C12.4679 6.61536 12.4429 6.68653 12.4088 6.75339C12.3703 6.82876 12.3161 6.89644 12.2078 7.0318L9.45884 10.468C9.35055 10.6034 9.29641 10.6711 9.2579 10.7464C9.22374 10.8133 9.19878 10.8845 9.18368 10.958C9.16667 11.0409 9.16667 11.1276 9.16667 11.301V14.1666L5.83333 16.6666Z" stroke="#667779" stroke-width="1.5" stroke-linecap="round" stroke-linejoin="round"/>
</svg>
