<svg width="20" height="20" viewBox="0 0 20 20" fill="none" xmlns="http://www.w3.org/2000/svg">
<g clip-path="url(#clip0_13735_1170)">
<path d="M13.3333 18.3334V6.66675C13.3333 4.30973 13.3333 3.13121 12.6011 2.39898C11.8689 1.66675 10.6904 1.66675 8.33333 1.66675H7.5C5.14298 1.66675 3.96447 1.66675 3.23223 2.39898C2.5 3.13121 2.5 4.30973 2.5 6.66675V18.3334" stroke="#061018" stroke-width="1.5"/>
<path d="M10.8333 10.1577C10.8333 12.6983 8.75926 13.3334 7.72222 13.3334C6.81482 13.3334 5 12.6983 5 10.1577C5 9.05275 5.62004 8.35123 6.14096 7.99814C6.37912 7.8367 6.67534 7.93989 6.69074 8.23128C6.72443 8.86887 7.20582 9.38102 7.57863 8.86829C7.91984 8.39901 8.08824 7.76173 8.08824 7.37903C8.08824 6.81529 8.64729 6.45705 9.08379 6.80244C9.93459 7.47567 10.8333 8.60316 10.8333 10.1577Z" stroke="#061018" stroke-width="1.5"/>
<path d="M14.1665 18.3333H1.6665" stroke="#061018" stroke-width="1.5" stroke-linecap="round"/>
<path d="M16.2502 3.33325L17.2777 4.15531C17.3926 4.24719 17.45 4.29313 17.5023 4.33996C17.995 4.78164 18.2925 5.40063 18.3296 6.06129C18.3335 6.13133 18.3335 6.20487 18.3335 6.35196V15.4166C18.3335 16.1069 17.7739 16.6666 17.0835 16.6666C16.3931 16.6666 15.8335 16.1069 15.8335 15.4166V15.3571C15.8335 14.6996 15.3005 14.1666 14.643 14.1666H13.3335" stroke="#061018" stroke-width="1.5" stroke-linecap="round"/>
</g>
<defs>
<clipPath id="clip0_13735_1170">
<rect width="20" height="20" fill="white"/>
</clipPath>
</defs>
</svg>
