<svg width="15" height="14" viewBox="0 0 15 14" fill="none" xmlns="http://www.w3.org/2000/svg">
<path d="M8.88838 0.239581L8.10687 5.46585H12.2475C12.356 5.46585 12.4457 5.55559 12.4457 5.66403C12.4457 5.71265 12.4283 5.75752 12.3983 5.79118L6.46783 13.9054C6.40303 13.9939 6.27963 14.0126 6.19111 13.9478C6.13003 13.9042 6.10263 13.8306 6.11258 13.7608L6.89409 8.53332H2.75349C2.64381 8.53332 2.5553 8.44481 2.5553 8.33639C2.5553 8.28778 2.57274 8.24291 2.60143 8.20802L8.53316 0.0937292C8.59797 0.00647525 8.72137 -0.0122279 8.80988 0.0513463C8.87094 0.0962448 8.89836 0.169772 8.88838 0.239581Z" fill="#34C759"/>
</svg>
