<svg width="20" height="20" viewBox="0 0 20 20" fill="none" xmlns="http://www.w3.org/2000/svg">
    <path d="M8.33366 11.6667H11.667M10.8337 2.5H6.83366C5.90024 2.5 5.43353 2.5 5.07701 2.68166C4.7634 2.84144 4.50844 3.09641 4.34865 3.41002C4.16699 3.76654 4.16699 4.23325 4.16699 5.16667V14.8333C4.16699 15.7668 4.16699 16.2335 4.34865 16.59C4.50844 16.9036 4.7634 17.1586 5.07701 17.3183C5.43353 17.5 5.90024 17.5 6.83366 17.5H13.167C14.1004 17.5 14.5671 17.5 14.9236 17.3183C15.2372 17.1586 15.4922 16.9036 15.652 16.59C15.8337 16.2335 15.8337 15.7668 15.8337 14.8333V7.5M10.8337 2.5L15.8337 7.5M10.8337 2.5V6.16667C10.8337 6.63338 10.8337 6.86673 10.9245 7.04499C11.0044 7.20179 11.1319 7.32928 11.2887 7.40917C11.4669 7.5 11.7003 7.5 12.167 7.5H15.8337" stroke="white" stroke-width="1.5" stroke-linecap="round" stroke-linejoin="round"/>
</svg>
