<svg width="12" height="12" viewBox="0 0 12 12" fill="none" xmlns="http://www.w3.org/2000/svg">
<path d="M3.81928 10.9697C3.94506 11.0312 4.09289 10.9962 4.17805 10.8901L8.86555 5.01123C8.93594 4.92311 8.94937 4.80266 8.90074 4.70109C8.85182 4.5998 8.74939 4.53516 8.63666 4.53516H6.76697L8.31279 1.424C8.35828 1.3333 8.35342 1.22545 8.29992 1.13904C8.24642 1.05264 8.1523 1 8.05074 1H4.53512C4.40064 1 4.28363 1.09156 4.25101 1.22201L3.07914 5.92904C3.05711 6.01658 3.07685 6.1093 3.13236 6.18023C3.18787 6.25146 3.27312 6.29295 3.36324 6.29295H4.74568L3.66508 10.6361C3.6316 10.7697 3.69568 10.9085 3.81928 10.9697Z" fill="#FEE409"/>
</svg>
