<svg width="37" height="36" viewBox="0 0 37 36" fill="none" xmlns="http://www.w3.org/2000/svg">
<g clip-path="url(#clip0_20551_7273)">
<path d="M7.84701 3.03754C9.13122 3.01623 10.4168 3.03548 11.7017 3.03205C12 3.01692 12.3397 3.10354 12.5041 3.37853C12.6794 3.67551 12.7127 4.06117 12.587 4.38359C12.4661 4.6737 12.1549 4.81944 11.862 4.85725C11.0664 4.97687 10.2578 4.96587 9.45601 4.93425C8.70655 4.91362 7.93194 4.93769 7.23209 5.24017C6.49757 5.53784 5.89352 6.14487 5.59931 6.8887C5.38595 7.40292 5.30917 7.96389 5.29898 8.51798C5.29422 9.45842 5.30373 10.3989 5.29422 11.3393C5.28811 11.7305 5.10601 12.1732 4.71803 12.3148C4.38712 12.409 3.98012 12.3712 3.73619 12.1017C3.5636 11.9161 3.52283 11.6494 3.52691 11.4039C3.52691 9.91215 3.43722 8.41417 3.58534 6.92651C3.86868 4.83113 5.77597 3.14479 7.84701 3.03754Z" fill="#666E79"/>
<path d="M16.6915 13.0294C17.019 12.9723 17.3954 12.9737 17.6658 13.1951C17.9261 13.4089 18.009 13.7609 18.0368 14.0833C18.1034 15.0918 18.0443 16.103 18.0532 17.1129C18.0627 18.1207 18.1517 19.1354 18.0083 20.1384C17.9376 20.7296 17.5327 21.2232 17.0611 21.5525C16.4985 21.9389 15.7891 22.1726 15.1097 22.0221C14.8691 21.9643 14.63 21.8571 14.4601 21.6701C14.0789 21.2576 14.2515 20.4842 14.7706 20.2752C15.0879 20.1508 15.4582 20.1652 15.7443 19.9611C15.9563 19.7913 15.9366 19.4867 15.9488 19.2406C15.9549 17.5886 15.9461 15.9367 15.9509 14.2847C15.9196 13.7725 16.1275 13.1346 16.6915 13.0294Z" fill="#666E79"/>
<path d="M10.3085 13.1738C10.9486 12.9957 11.628 13.4611 11.7639 14.1032C11.9236 14.889 11.9121 15.7043 11.8237 16.4983C11.7925 16.8875 11.6172 17.2848 11.2842 17.5007C10.757 17.8575 9.94091 17.7427 9.59166 17.1851C9.27774 16.7176 9.36336 16.1285 9.35928 15.5964C9.38782 15.0932 9.30153 14.5796 9.4184 14.0847C9.51964 13.6461 9.86685 13.2673 10.3085 13.1738Z" fill="#666E79"/>
<path d="M11.7378 23.414C12.1468 23.2648 12.5586 23.5109 12.8507 23.7866C13.7952 24.6892 15.0189 25.343 16.3317 25.4241C17.8211 25.5382 19.2772 24.8741 20.3637 23.8739C20.6328 23.614 20.9616 23.3425 21.3585 23.372C21.8558 23.3954 22.2194 23.9578 22.0903 24.4342C21.989 24.9119 21.5942 25.2316 21.2531 25.541C19.9859 26.6471 18.309 27.1538 16.6633 27.2706C14.9707 27.1895 13.2781 26.6052 11.9715 25.4963C11.6426 25.211 11.2682 24.9188 11.1446 24.4782C11.0195 24.0313 11.3409 23.5817 11.7378 23.414Z" fill="#666E79"/>
<path d="M4.04794 23.6842C4.59695 23.447 5.23498 23.8973 5.27099 24.483C5.29342 25.2103 5.3403 25.9377 5.32399 26.6664C5.32467 27.1957 5.218 27.7299 5.32739 28.2551C5.56521 29.6053 6.63946 30.8118 7.99841 31.0462C8.50394 31.1576 9.01626 31.0359 9.52587 31.0441C10.1598 31.0359 10.7931 31.0751 11.427 31.0916C11.7797 31.1246 12.1806 31.1452 12.4476 31.4133C12.7418 31.7419 12.7078 32.2657 12.4993 32.6308C12.3634 32.8597 12.0922 32.9731 11.8361 32.9718C10.3732 32.9759 8.90822 33.0522 7.44803 32.9346C5.26692 32.6335 3.48465 30.5423 3.51795 28.3142C3.52067 27.1015 3.51047 25.8889 3.51931 24.6769C3.51115 24.2885 3.65588 23.8313 4.04794 23.6842Z" fill="#666E79"/>
</g>
<g clip-path="url(#clip1_20551_7273)">
<path d="M29.0871 9.02025C28.8603 9.02025 28.6348 8.94025 28.4544 8.77525C25.6894 6.26024 22.1413 4.87524 18.463 4.87524C14.7847 4.87524 11.2366 6.26024 8.4716 8.77649C8.08698 9.12525 7.49314 9.0965 7.1436 8.71525C6.79405 8.33275 6.82162 7.739 7.20498 7.39024C10.3183 4.55899 14.3161 3.00024 18.463 3.00024C22.6099 3.00024 26.6077 4.55899 29.721 7.39024C30.1044 7.739 30.1319 8.3315 29.7824 8.71525C29.597 8.91775 29.3426 9.02025 29.0871 9.02025Z" fill="#666E79"/>
<path d="M30.679 15.1467C30.3771 15.1467 30.0789 15.0017 29.8985 14.7317C27.2901 10.8567 23.0154 8.54294 18.4638 8.54294C13.9123 8.54294 9.6376 10.8567 7.02919 14.7317C6.73978 15.1629 6.15471 15.2779 5.72498 14.9879C5.29401 14.6992 5.17875 14.1167 5.46815 13.6867C8.4261 9.29294 13.2846 6.66919 18.4638 6.66919C23.6431 6.66919 28.5016 9.29294 31.4595 13.6879C31.7489 14.1179 31.6349 14.7004 31.2027 14.9892C31.0423 15.0954 30.8607 15.1467 30.679 15.1467Z" fill="#666E79"/>
<path d="M15.4965 32.9996C15.2547 32.9996 15.0129 32.9071 14.8287 32.7221C14.6233 32.5159 9.80859 27.6121 9.80859 22.8909C9.80859 17.9909 13.6911 14.0046 18.4645 14.0046C23.2378 14.0046 27.1203 17.9909 27.1203 22.8909C27.1203 23.4084 26.6994 23.8284 26.1807 23.8284C25.662 23.8284 25.2411 23.4084 25.2411 22.8909C25.2411 19.0246 22.2017 15.8796 18.4645 15.8796C14.7272 15.8796 11.6879 19.0246 11.6879 22.8909C11.6879 26.8496 16.1191 31.3571 16.1642 31.4021C16.5301 31.7696 16.5276 32.3634 16.158 32.7284C15.9751 32.9096 15.7358 32.9996 15.4965 32.9996Z" fill="#666E79"/>
<path d="M21.4317 32.9999C19.1716 32.9999 13.9323 28.7099 13.4249 23.9324C13.2457 22.2437 13.7844 20.5162 14.8644 19.3112C15.804 18.2637 17.0731 17.6824 18.4375 17.6749H18.4638C19.7943 17.6749 21.0521 18.1962 22.0093 19.1449C23.0091 20.1362 23.5591 21.4674 23.5591 22.8924V23.5037C23.5591 25.0099 24.7342 26.2349 26.18 26.2349C27.6258 26.2349 28.8022 25.0099 28.8022 23.5037V23.2899C28.8022 17.4524 24.5638 12.5962 19.1528 12.2362C16.3314 12.0449 13.6253 13.0174 11.5368 14.9649C9.36942 16.9874 8.1266 19.8774 8.1266 22.8924C8.1266 25.3724 8.96851 27.7887 10.497 29.6962C10.8202 30.1012 10.7551 30.6899 10.3491 31.0137C9.94447 31.3374 9.35313 31.2712 9.02739 30.8662C7.23458 28.6274 6.24609 25.7949 6.24609 22.8912C6.24609 19.3587 7.7069 15.9699 10.2514 13.5949C12.7233 11.2874 15.928 10.1399 19.2756 10.3637C25.6701 10.7899 30.6802 16.4674 30.6802 23.2887V23.5024C30.6802 26.0424 28.6606 28.1087 26.1788 28.1087C23.6969 28.1087 21.6786 26.0424 21.6786 23.5024V22.8912C21.6786 21.9687 21.3253 21.1112 20.6838 20.4737C20.0824 19.8762 19.2944 19.5487 18.4638 19.5487C18.4575 19.5487 18.4525 19.5487 18.4462 19.5487C17.3876 19.5537 16.6747 20.1024 16.2638 20.5612C15.5309 21.3774 15.1676 22.5649 15.2916 23.7349C15.7063 27.6324 20.1952 31.1262 21.4305 31.1262C21.9492 31.1262 22.3701 31.5462 22.3701 32.0637C22.3701 32.5812 21.9504 32.9999 21.4317 32.9999Z" fill="#666E79"/>
<path d="M24.9174 31.166C21.5548 31.166 17.4492 27.066 17.4492 22.2798C17.4492 21.7623 17.8702 21.3423 18.3888 21.3423C18.9075 21.3423 19.3285 21.7623 19.3285 22.2798C19.3285 25.9898 22.4543 29.291 24.9174 29.291C25.4361 29.291 25.857 29.711 25.857 30.2285C25.857 30.746 25.4361 31.166 24.9174 31.166Z" fill="#666E79"/>
</g>
<defs>
<clipPath id="clip0_20551_7273">
<rect width="14.7619" height="30" fill="white" transform="translate(3.5 3.00024)"/>
</clipPath>
<clipPath id="clip1_20551_7273">
<rect width="14.6939" height="30" fill="white" transform="translate(18.8047 3.00024)"/>
</clipPath>
</defs>
</svg>
