<svg width="20" height="20" viewBox="0 0 20 20" fill="none" xmlns="http://www.w3.org/2000/svg">
<g id="fuel-pump 1">
<g id="Group">
<g id="Vector">
<path d="M8.04989 7.35099C8.0671 7.24773 8.11615 7.15244 8.19014 7.07841L10.5577 4.71085C10.7538 4.51472 11.0718 4.51472 11.268 4.71085L12.0966 5.5395L12.6885 4.94761C12.8846 4.75147 13.2026 4.75147 13.3988 4.94761L15.5296 7.07841C15.6925 7.24137 15.7237 7.49432 15.6051 7.69194L15.0966 8.53944L17.8971 11.34C18.0932 11.5361 18.0932 11.8541 17.8971 12.0502L17.3052 12.6421L17.8355 13.1725C18.3099 13.6468 18.5711 14.2774 18.5711 14.9482V18.0692C18.5711 18.3466 18.3462 18.5714 18.0688 18.5714C17.7915 18.5714 17.5666 18.3466 17.5666 18.0692V14.9482C17.5666 14.5457 17.4099 14.1673 17.1253 13.8827L16.5949 13.3524L15.2928 14.6545C14.3137 15.6337 12.7205 15.6336 11.7415 14.6545L7.71664 10.6297C7.60196 10.515 7.54973 10.352 7.57638 10.192L8.04989 7.35099ZM12.4517 13.9443C13.0392 14.5317 13.995 14.5318 14.5825 13.9443L14.9377 13.5891L13.0724 11.7239V12.4054C13.0724 12.6827 12.8475 12.9076 12.5701 12.9076C12.2928 12.9076 12.0679 12.6827 12.0679 12.4054V11.3239L10.5769 12.0694L12.4517 13.9443Z" fill="#ACB7C1"/>
<path d="M2.16567 7.79651C2.50651 7.20896 2.84237 6.72163 2.8565 6.70117C2.95029 6.5654 3.10474 6.48438 3.26974 6.48438C3.43474 6.48438 3.58919 6.5654 3.68298 6.70117C3.69711 6.72163 4.03297 7.20896 4.37381 7.79651C5.03482 8.93597 5.11126 9.40871 5.11126 9.66518C5.11126 10.6806 4.28515 11.5067 3.26974 11.5067C2.25433 11.5067 1.42822 10.6806 1.42822 9.66518C1.42822 9.40871 1.50466 8.93597 2.16567 7.79651Z" fill="#ACB7C1"/>
<path d="M3.50646 3.93957C3.37233 3.93957 3.2462 3.8873 3.15135 3.79245C3.05649 3.69756 3.00423 3.57143 3.00426 3.43733V1.93084C3.00426 1.65394 3.22953 1.42864 3.5065 1.42861L4.36036 1.42857C5.85848 1.42851 7.26687 2.0119 8.32618 3.07121L9.55153 4.29655L7.77587 6.07221L6.55042 4.84676C5.96549 4.26183 5.18777 3.9397 4.36059 3.93967L3.50646 3.93957Z" fill="#ACB7C1"/>
</g>
</g>
</g>
</svg>
