<svg width="40" height="40" viewBox="0 0 40 40" fill="none" xmlns="http://www.w3.org/2000/svg">
<path d="M24.7656 2.5H15.2344C13.8594 2.5 13.3594 3.625 13.3594 5H26.6406C26.6406 3.625 26.1406 2.5 24.7656 2.5ZM15.3203 11.5234C15.9141 12.2109 16.25 13.0859 16.25 14V34.7734C16.25 36.4844 17.6484 37.5 19.3672 37.5H20.6406C22.3516 37.5 23.7578 36.4922 23.7578 34.7734V14C23.7578 13.0859 24.0937 12.2188 24.6875 11.5234C25.8906 10.125 26.6406 8.82812 26.6406 6.25H13.3594C13.3594 8.98438 14.1094 10.125 15.3203 11.5234ZM17.8125 18.6172C17.8125 17.3984 18.7969 16.4062 20 16.4062C21.2031 16.4062 22.1875 17.3984 22.1875 18.6172V21.3828C22.1875 22.6016 21.2031 23.5938 20 23.5938C18.7969 23.5938 17.8125 22.6016 17.8125 21.3828V18.6172Z" fill="white"/>
<path d="M18.4375 21.3281C18.4375 21.7425 18.6021 22.14 18.8951 22.433C19.1882 22.726 19.5856 22.8906 20 22.8906C20.4144 22.8906 20.8118 22.726 21.1049 22.433C21.3979 22.14 21.5625 21.7425 21.5625 21.3281C21.5625 20.9137 21.3979 20.5163 21.1049 20.2233C20.8118 19.9302 20.4144 19.7656 20 19.7656C19.5856 19.7656 19.1882 19.9302 18.8951 20.2233C18.6021 20.5163 18.4375 20.9137 18.4375 21.3281Z" fill="white"/>
</svg>
