<svg width="20" height="20" viewBox="0 0 20 20" fill="none" xmlns="http://www.w3.org/2000/svg">
<path d="M17.5 5.00001H15.8333M17.5 10H13.3333M17.5 15H13.3333M5.83333 16.6667V11.3011C5.83333 11.1277 5.83333 11.041 5.81632 10.9581C5.80122 10.8846 5.77626 10.8134 5.7421 10.7465C5.70359 10.6712 5.64945 10.6035 5.54116 10.4681L2.79218 7.0319C2.68389 6.89653 2.62974 6.82885 2.59124 6.75349C2.55708 6.68662 2.53211 6.61545 2.51701 6.54189C2.5 6.45899 2.5 6.37232 2.5 6.19897V4.66668C2.5 4.19997 2.5 3.96661 2.59083 3.78835C2.67072 3.63155 2.79821 3.50407 2.95501 3.42417C3.13327 3.33334 3.36662 3.33334 3.83333 3.33334H11.1667C11.6334 3.33334 11.8667 3.33334 12.045 3.42417C12.2018 3.50407 12.3293 3.63155 12.4092 3.78835C12.5 3.96661 12.5 4.19997 12.5 4.66668V6.19897C12.5 6.37232 12.5 6.45899 12.483 6.54189C12.4679 6.61545 12.4429 6.68662 12.4088 6.75349C12.3703 6.82885 12.3161 6.89653 12.2078 7.0319L9.45884 10.4681C9.35055 10.6035 9.29641 10.6712 9.2579 10.7465C9.22374 10.8134 9.19878 10.8846 9.18368 10.9581C9.16667 11.041 9.16667 11.1277 9.16667 11.3011V14.1667L5.83333 16.6667Z" stroke="#2684FC" stroke-width="1.5" stroke-linecap="round" stroke-linejoin="round"/>
</svg>
