<svg width="20" height="20" viewBox="0 0 20 20" fill="none" xmlns="http://www.w3.org/2000/svg">
<g id="fi_638365">
<g id="Gas Icon">
<path id="Vector" d="M14.494 8.02886C14.4499 7.97357 14.3964 7.98443 14.3684 7.99572C14.3449 8.00524 14.2911 8.03567 14.2985 8.11192C14.3074 8.20349 14.3125 8.29685 14.3134 8.38943C14.3174 8.77353 14.1633 9.14983 13.8907 9.42185C13.6198 9.6921 13.2635 9.83772 12.8842 9.8335C12.366 9.82688 11.9362 9.55659 11.6412 9.05184C11.3973 8.63447 11.5045 8.09617 11.618 7.52622C11.6844 7.19262 11.7531 6.84764 11.7531 6.51931C11.7531 3.96284 10.0345 2.48794 9.01 1.8363C8.98881 1.82285 8.96865 1.81812 8.95078 1.81812C8.92173 1.81812 8.89872 1.83064 8.88737 1.83831C8.86538 1.85321 8.83019 1.88715 8.84151 1.94723C9.23308 4.02663 8.06513 5.27727 6.82859 6.60132C5.55401 7.96612 4.10938 9.51303 4.10938 12.3029C4.10938 15.5446 6.74664 18.1818 9.98831 18.1818C12.6574 18.1818 15.0106 16.321 15.711 13.6566C16.1885 11.8399 15.6881 9.52569 14.494 8.02886Z" fill="white"/>
</g>
</g>
</svg>
