<svg width="24" height="24" viewBox="0 0 24 24" fill="none" xmlns="http://www.w3.org/2000/svg">
    <rect width="24" height="24" rx="4" fill="#F2F2F7"/>
    <path d="M5.30124 4.24701C5.11043 4.43829 5 4.7361 5 5.12178V18.8786C5 19.2643 5.11043 19.5621 5.30124 19.7534L5.34834 19.7954L13.3983 12.0896V11.9077L5.34834 4.20191L5.30124 4.24701Z" fill="url(#paint0_linear_14159_24084)"/>
    <path d="M16.0788 14.6595L13.3984 12.0896V11.9076L16.082 9.33776L16.1421 9.37119L19.3202 11.1029C20.2272 11.5943 20.2272 12.403 19.3202 12.8975L16.1421 14.626L16.0788 14.6595Z" fill="url(#paint1_linear_14159_24084)"/>
    <path d="M16.1415 14.6261L13.3978 11.9987L5.30078 19.7535C5.60203 20.0567 6.09327 20.0933 6.65192 19.79L16.1415 14.6261Z" fill="url(#paint2_linear_14159_24084)"/>
    <path d="M16.1415 9.37129L6.65192 4.20741C6.09327 3.90727 5.60203 3.94381 5.30078 4.24707L13.3978 11.9987L16.1415 9.37129Z" fill="url(#paint3_linear_14159_24084)"/>
    <defs>
        <linearGradient id="paint0_linear_14159_24084" x1="12.6836" y1="19.0219" x2="2.25368" y2="8.13054" gradientUnits="userSpaceOnUse">
            <stop stop-color="#00A0FF"/>
            <stop offset="0.0066" stop-color="#00A1FF"/>
            <stop offset="0.2601" stop-color="#00BEFF"/>
            <stop offset="0.5122" stop-color="#00D2FF"/>
            <stop offset="0.7604" stop-color="#00DFFF"/>
            <stop offset="1" stop-color="#00E3FF"/>
        </linearGradient>
        <linearGradient id="paint1_linear_14159_24084" x1="20.5012" y1="11.9978" x2="4.78333" y2="11.9978" gradientUnits="userSpaceOnUse">
            <stop stop-color="#FFE000"/>
            <stop offset="0.4087" stop-color="#FFBD00"/>
            <stop offset="0.7754" stop-color="#FFA500"/>
            <stop offset="1" stop-color="#FF9C00"/>
        </linearGradient>
        <linearGradient id="paint2_linear_14159_24084" x1="14.6496" y1="10.5704" x2="0.505815" y2="-4.1992" gradientUnits="userSpaceOnUse">
            <stop stop-color="#FF3A44"/>
            <stop offset="1" stop-color="#C31162"/>
        </linearGradient>
        <linearGradient id="paint3_linear_14159_24084" x1="3.26258" y1="24.3303" x2="9.57841" y2="17.7351" gradientUnits="userSpaceOnUse">
            <stop stop-color="#32A071"/>
            <stop offset="0.0685" stop-color="#2DA771"/>
            <stop offset="0.4762" stop-color="#15CF74"/>
            <stop offset="0.8009" stop-color="#06E775"/>
            <stop offset="1" stop-color="#00F076"/>
        </linearGradient>
    </defs>
</svg>
