<svg width="28" height="28" viewBox="0 0 28 28" fill="none" xmlns="http://www.w3.org/2000/svg">
<path d="M25.4384 11.7151H24.4987V11.6667H13.9987V16.3333H20.5921C19.6302 19.0499 17.0454 21 13.9987 21C10.1329 21 6.9987 17.8658 6.9987 14C6.9987 10.1343 10.1329 7.00001 13.9987 7.00001C15.7831 7.00001 17.4065 7.67318 18.6426 8.77276L21.9425 5.47284C19.8589 3.53093 17.0717 2.33334 13.9987 2.33334C7.55578 2.33334 2.33203 7.55709 2.33203 14C2.33203 20.4429 7.55578 25.6667 13.9987 25.6667C20.4416 25.6667 25.6654 20.4429 25.6654 14C25.6654 13.2178 25.5849 12.4542 25.4384 11.7151Z" fill="#FFC107"/>
<path d="M3.67969 8.56976L7.51277 11.3808C8.54994 8.81301 11.0618 7.00001 14.0012 7.00001C15.7856 7.00001 17.409 7.67318 18.6451 8.77276L21.945 5.47284C19.8614 3.53093 17.0742 2.33334 14.0012 2.33334C9.52002 2.33334 5.63385 4.86326 3.67969 8.56976Z" fill="#FF3D00"/>
<path d="M13.9995 25.6667C17.013 25.6667 19.7512 24.5134 21.8214 22.638L18.2106 19.5825C17.0393 20.4698 15.5833 21 13.9995 21C10.965 21 8.38845 19.0651 7.41778 16.3648L3.61328 19.2961C5.54411 23.0743 9.46528 25.6667 13.9995 25.6667Z" fill="#4CAF50"/>
<path d="M25.4398 11.7151H24.5V11.6667H14V16.3333H20.5934C20.1314 17.6382 19.292 18.7635 18.2093 19.5831L18.2111 19.5819L21.8219 22.6374C21.5664 22.8696 25.6667 19.8333 25.6667 14C25.6667 13.2177 25.5862 12.4542 25.4398 11.7151Z" fill="#1976D2"/>
</svg>
