<svg width="28" height="28" viewBox="0 0 28 28" fill="none" xmlns="http://www.w3.org/2000/svg">
<rect width="28" height="28" rx="6" fill="#34C759"/>
<path d="M20.0659 10.4415C20.0659 9.77388 20.6998 8.98913 20.9435 8.74366C21.1289 8.55831 21.1289 8.25782 20.9435 8.07247L18.9101 6.03902C18.7391 5.86794 18.4666 5.85291 18.2778 6.00419L17.982 6.24111C16.8908 7.11389 15.323 7.02697 14.3352 6.03905C14.2461 5.95001 14.1253 5.89999 13.9993 5.89999C13.937 5.89999 13.8753 5.91227 13.8177 5.93613C13.7601 5.95999 13.7078 5.99497 13.6637 6.03905C12.6759 7.02703 11.1081 7.11389 10.0171 6.24133C9.83569 6.09601 9.72042 6.0039 9.72042 6.0039C9.53152 5.85294 9.25938 5.8681 9.08849 6.03905L7.05504 8.07244C6.87017 8.25732 6.87023 8.55749 7.05444 8.74303C7.29874 8.98907 7.93272 9.77385 7.93272 10.4415C7.93272 11.621 7.70229 12.1971 7.45834 12.807C7.1917 13.4736 6.91602 14.1628 6.91602 15.5251C6.91602 18.3386 9.2852 19.4103 11.1889 20.2715C12.2541 20.7534 13.2602 21.2086 13.5748 21.8376C13.6142 21.9165 13.6748 21.9828 13.7498 22.0291C13.8247 22.0754 13.9112 22.1 13.9993 22.1C14.0874 22.1 14.1738 22.0754 14.2488 22.0291C14.3238 21.9828 14.3844 21.9165 14.4238 21.8376C14.7383 21.2086 15.7445 20.7534 16.8097 20.2715C18.7134 19.4103 21.0826 18.3386 21.0826 15.5251C21.0826 14.1628 20.8069 13.4736 20.5402 12.807C20.2963 12.1971 20.0659 11.621 20.0659 10.4415ZM17.715 12.7319L16.2016 14.2071L16.5587 16.2903C16.5737 16.3776 16.5639 16.4673 16.5306 16.5493C16.4972 16.6313 16.4415 16.7024 16.3699 16.7544C16.2983 16.8065 16.2135 16.8375 16.1252 16.8438C16.0368 16.8502 15.9485 16.8318 15.8701 16.7906L13.9993 15.8071L12.1285 16.7906C12.1224 16.7938 11.8748 16.9333 11.6287 16.7544C11.557 16.7023 11.5014 16.6313 11.468 16.5493C11.4346 16.4672 11.4249 16.3775 11.4399 16.2902L11.7973 14.2071L10.2839 12.7319C10.2205 12.6701 10.1756 12.5918 10.1544 12.5058C10.1332 12.4198 10.1364 12.3296 10.1638 12.2454C10.1911 12.1612 10.2415 12.0863 10.3092 12.0292C10.3769 11.9721 10.4592 11.9351 10.5469 11.9224L12.6384 11.6184L13.5737 9.72313C13.6129 9.64371 13.6735 9.57683 13.7487 9.53007C13.8239 9.4833 13.9107 9.45852 13.9993 9.45851C14.0879 9.45851 14.1747 9.48329 14.2499 9.53005C14.3251 9.57681 14.3857 9.64368 14.4249 9.7231L15.3604 11.6185L17.452 11.9224C17.5396 11.9351 17.6219 11.9721 17.6897 12.0292C17.7574 12.0863 17.8078 12.1612 17.8351 12.2454C17.8625 12.3296 17.8657 12.4198 17.8445 12.5058C17.8233 12.5918 17.7784 12.6701 17.715 12.7319Z" fill="white"/>
<path d="M14.6194 12.2623L13.9991 11.0056L13.3789 12.2622C13.3449 12.3312 13.2945 12.3909 13.2323 12.4362C13.17 12.4814 13.0977 12.5108 13.0216 12.5219L11.6348 12.7235L12.6382 13.7016C12.6933 13.7553 12.7345 13.8216 12.7583 13.8948C12.7821 13.968 12.7877 14.0459 12.7747 14.1217L12.5378 15.5029L13.7782 14.8508C13.8463 14.815 13.9221 14.7963 13.999 14.7963C14.0759 14.7963 14.1517 14.815 14.2198 14.8508L15.4604 15.503L15.2236 14.1216C15.2106 14.0458 15.2162 13.968 15.24 13.8948C15.2637 13.8216 15.305 13.7553 15.36 13.7016L16.3635 12.7235L14.9767 12.5219C14.9005 12.5108 14.8282 12.4814 14.766 12.4362C14.7037 12.391 14.6534 12.3313 14.6194 12.2623Z" fill="white"/>
</svg>
