<svg width="24" height="24" viewBox="0 0 24 24" fill="none" xmlns="http://www.w3.org/2000/svg">
<path d="M5.12688 2.83643C4.29398 2.83643 3.59961 3.53079 3.59961 4.36369V20.4C3.59965 20.8217 3.94152 21.1636 4.36324 21.1636H13.5269C13.9486 21.1636 14.2904 20.8217 14.2905 20.4V16.9637C14.2905 16.7528 14.4614 16.5818 14.6723 16.5818H15.0541C15.4849 16.5818 15.8178 16.9147 15.8178 17.3455V18.1091C15.8178 19.3653 16.8525 20.4 18.1087 20.4C19.3648 20.4 20.3996 19.3653 20.3996 18.1091V8.18186C20.3996 7.46146 20.0601 6.78109 19.4838 6.34884L17.0393 4.51582C16.6662 4.23607 16.1893 4.37138 15.9699 4.66945C15.7197 5.00927 15.7856 5.48604 16.1235 5.73883L17.0393 6.42491C17.2319 6.56917 17.3452 6.79578 17.345 7.03641V8.9455C17.345 9.64985 17.8392 10.254 18.4949 10.425C18.6985 10.4781 18.8723 10.6437 18.8723 10.8546V18.1091C18.8723 18.5399 18.5394 18.8727 18.1087 18.8727C17.6779 18.8727 17.345 18.5399 17.345 18.1091V17.3455C17.345 16.0893 16.3103 15.0546 15.0541 15.0546H14.6723C14.4614 15.0546 14.2905 14.8836 14.2905 14.6728V4.36369C14.2905 3.53079 13.5961 2.83643 12.7632 2.83643L5.12688 2.83643ZM8.94505 7.41823C9.03771 7.41814 9.12924 7.43863 9.21303 7.47821C9.29682 7.51778 9.37078 7.57547 9.42956 7.6471C9.48835 7.71873 9.5305 7.80252 9.55298 7.89242C9.57546 7.98231 9.5777 8.07608 9.55954 8.16695L9.01962 10.862C9.01054 10.9075 9.01166 10.9544 9.0229 10.9993C9.03414 11.0443 9.05521 11.0862 9.08461 11.122C9.114 11.1578 9.15098 11.1866 9.19287 11.2064C9.23477 11.2262 9.28053 11.2364 9.32687 11.2364H10.4723C10.5614 11.2365 10.6492 11.2572 10.7289 11.297C10.8086 11.3368 10.878 11.3945 10.9316 11.4656C10.9852 11.5367 11.0216 11.6193 11.0379 11.7069C11.0543 11.7944 11.0501 11.8846 11.0257 11.9702L9.91898 15.848C9.85844 16.0596 9.73062 16.2456 9.55489 16.378C9.37916 16.5104 9.16508 16.582 8.94505 16.5818C8.85238 16.5819 8.76085 16.5614 8.67707 16.5219C8.59328 16.4823 8.51932 16.4246 8.46053 16.353C8.40174 16.2813 8.35959 16.1976 8.33712 16.1077C8.31464 16.0178 8.3124 15.924 8.33056 15.8331L8.87047 13.138C8.87956 13.0926 8.87844 13.0457 8.8672 13.0008C8.85596 12.9558 8.83488 12.9139 8.80549 12.8781C8.77609 12.8423 8.73912 12.8134 8.69722 12.7937C8.65533 12.7739 8.60956 12.7636 8.56323 12.7637H7.41778C7.32872 12.7636 7.24089 12.7428 7.1612 12.7031C7.08151 12.6633 7.01213 12.6056 6.95851 12.5345C6.90489 12.4634 6.86849 12.3808 6.85216 12.2932C6.83584 12.2057 6.84005 12.1155 6.86444 12.0299L7.97112 8.15204C8.03166 7.9405 8.15947 7.75445 8.3352 7.62204C8.51094 7.48964 8.72502 7.41809 8.94505 7.41823Z" fill="#4D696E"/>
<path d="M8.94541 7.41821C9.03808 7.41812 9.12961 7.43861 9.2134 7.47819C9.29718 7.51777 9.37114 7.57545 9.42993 7.64708C9.48872 7.71871 9.53087 7.8025 9.55335 7.8924C9.57582 7.9823 9.57806 8.07606 9.5599 8.16693L9.01999 10.862C9.01091 10.9075 9.01203 10.9543 9.02326 10.9993C9.0345 11.0442 9.05558 11.0861 9.08497 11.1219C9.11437 11.1578 9.15134 11.1866 9.19324 11.2064C9.23513 11.2262 9.2809 11.2364 9.32723 11.2364H10.4727C10.5617 11.2365 10.6496 11.2572 10.7293 11.297C10.8089 11.3368 10.8783 11.3945 10.932 11.4656C10.9856 11.5367 11.022 11.6193 11.0383 11.7068C11.0546 11.7944 11.0504 11.8845 11.026 11.9702L9.91934 15.848C9.8588 16.0596 9.73099 16.2456 9.55526 16.378C9.37953 16.5104 9.16544 16.582 8.94541 16.5818C8.85275 16.5819 8.76122 16.5614 8.67743 16.5218C8.59364 16.4823 8.51969 16.4246 8.4609 16.353C8.40211 16.2813 8.35996 16.1975 8.33748 16.1076C8.315 16.0177 8.31277 15.924 8.33093 15.8331L8.87084 13.138C8.87992 13.0926 8.8788 13.0457 8.86756 13.0007C8.85632 12.9558 8.83525 12.9139 8.80585 12.8781C8.77646 12.8423 8.73948 12.8134 8.69759 12.7936C8.65569 12.7739 8.60993 12.7636 8.5636 12.7637H7.41815C7.32908 12.7636 7.24126 12.7428 7.16157 12.703C7.08188 12.6633 7.0125 12.6056 6.95887 12.5344C6.90525 12.4633 6.86885 12.3808 6.85253 12.2932C6.83621 12.2056 6.84041 12.1155 6.86481 12.0298L7.97148 8.15202C8.03203 7.94048 8.15984 7.75443 8.33557 7.62203C8.5113 7.48962 8.72538 7.41807 8.94541 7.41821Z" fill="white"/>
</svg>
