<svg width="28" height="28" viewBox="0 0 28 28" fill="none" xmlns="http://www.w3.org/2000/svg">
    <rect width="28" height="28" rx="6" fill="#EBC032"/>
    <path d="M14.0002 18.1667H14.0085M14.0002 12.3333V15.6667M9.34359 21.5H18.6568C20.1415 21.5 20.8839 21.5 21.3193 21.1878C21.6993 20.9153 21.9473 20.4958 22.0029 20.0316C22.0667 19.4996 21.7089 18.8491 20.9934 17.5482L16.3368 9.08165C15.575 7.69652 15.194 7.00396 14.6907 6.77483C14.252 6.57514 13.7484 6.57514 13.3097 6.77483C12.8064 7.00396 12.4254 7.69652 11.6636 9.08165L7.00702 17.5482C6.29151 18.8491 5.93375 19.4996 5.99749 20.0316C6.05311 20.4958 6.30115 20.9153 6.6811 21.1878C7.11652 21.5 7.85888 21.5 9.34359 21.5Z" stroke="white" stroke-width="1.5" stroke-linecap="round" stroke-linejoin="round"/>
</svg>
