<svg width="32" height="32" viewBox="0 0 32 32" fill="none" xmlns="http://www.w3.org/2000/svg">
<g id="image-square">
<path id="Icon" d="M19.0191 21.2499L16.7951 19.0444C15.7219 17.9801 15.1852 17.448 14.5694 17.2534C14.0278 17.0823 13.4457 17.0886 12.908 17.2714C12.2965 17.4792 11.7715 18.0228 10.7216 19.1101L5.39278 24.3734M19.0191 21.2499L19.4743 20.7985C20.5489 19.7329 21.0861 19.2001 21.7026 19.0057C22.2447 18.8346 22.8273 18.8413 23.3654 19.0248C23.9772 19.2334 24.5021 19.7784 25.5519 20.8684L26.6673 21.9912M19.0191 21.2499L24.3672 26.6086M24.3672 26.6086C23.8907 26.6666 23.2731 26.6666 22.4007 26.6666H9.60065C8.10718 26.6666 7.36044 26.6666 6.79001 26.3759C6.28824 26.1203 5.8803 25.7123 5.62463 25.2106C5.5046 24.975 5.43414 24.7093 5.39278 24.3734M24.3672 26.6086C24.7064 26.5674 24.9741 26.4968 25.2113 26.3759C25.7131 26.1203 26.121 25.7123 26.3767 25.2106C26.6673 24.6401 26.6673 23.8934 26.6673 22.3999V21.9912M5.39278 24.3734C5.33398 23.896 5.33398 23.2766 5.33398 22.3999V9.59992C5.33398 8.10645 5.33398 7.35971 5.62463 6.78928C5.8803 6.28751 6.28824 5.87956 6.79001 5.6239C7.36044 5.33325 8.10718 5.33325 9.60065 5.33325H22.4006C23.8941 5.33325 24.6409 5.33325 25.2113 5.6239C25.7131 5.87956 26.121 6.28751 26.3767 6.78928C26.6673 7.35971 26.6673 8.10645 26.6673 9.59992V21.9912M22.6673 11.9998C22.6673 13.4725 21.4734 14.6664 20.0007 14.6664C18.5279 14.6664 17.334 13.4725 17.334 11.9998C17.334 10.527 18.5279 9.33311 20.0007 9.33311C21.4734 9.33311 22.6673 10.527 22.6673 11.9998Z" stroke="#2684FC" stroke-width="2.5" stroke-linecap="round" stroke-linejoin="round"/>
</g>
</svg>
