<svg width="24" height="24" viewBox="0 0 24 24" fill="none" xmlns="http://www.w3.org/2000/svg">
<g id="Phone number flags">
<path id="Vector" d="M22.2026 4.13794H1.79742C0.804703 4.13794 0 4.94264 0 5.93536V8.91375H24V5.93536C24 4.94264 23.1953 4.13794 22.2026 4.13794Z" fill="#0099B5"/>
<path id="Vector_2" d="M0 18.0647C0 19.0574 0.804703 19.8621 1.79742 19.8621H22.2026C23.1952 19.8621 24 19.0574 24 18.0647V15.0863H0V18.0647Z" fill="#73AF00"/>
<path id="Vector_3" d="M24 9.56714H0V14.4323H24V9.56714Z" fill="#EDBF4A"/>
<g id="Group">
<path id="Vector_4" d="M0 9.37931V9.56727H24V9.37931V8.9137H0V9.37931Z" fill="#E52E30"/>
<path id="Vector_5" d="M0 14.6207V15.0863H24V14.6207V14.4327H0V14.6207Z" fill="#E52E30"/>
</g>
<g id="Group_2">
<path id="Vector_6" d="M4.88976 7.98927C4.08488 7.98927 3.43244 7.3384 3.43244 6.53641C3.43244 5.73149 4.08483 5.07767 4.88976 5.07767C4.89288 5.07767 4.8959 5.07767 4.89893 5.07772C4.94632 5.07834 4.96293 5.01541 4.92116 4.99301C4.67331 4.86015 4.39045 4.78497 4.08973 4.78716C3.12665 4.79401 2.34435 5.59208 2.35459 6.55516C2.36466 7.50831 3.14389 8.27983 4.10233 8.27983C4.39891 8.27983 4.6778 8.20479 4.92258 8.07376C4.96422 8.05145 4.94739 7.98851 4.90018 7.98918C4.89662 7.98927 4.89319 7.98927 4.88976 7.98927Z" fill="#F5F5F5"/>
<path id="Vector_7" d="M6.23825 7.022L6.15008 7.28645L5.87133 7.28856C5.83524 7.28881 5.82027 7.33491 5.8493 7.35634L6.07356 7.52193L5.98943 7.78771C5.97857 7.82211 6.01773 7.8506 6.04712 7.8296L6.27392 7.6675L6.50071 7.8296C6.5301 7.8506 6.56921 7.82211 6.5584 7.78771L6.47428 7.52193L6.69847 7.35634C6.7275 7.33491 6.71253 7.28881 6.67645 7.28856L6.39769 7.28645L6.30952 7.022C6.29812 6.98778 6.24972 6.98778 6.23825 7.022Z" fill="#F5F5F5"/>
<path id="Vector_8" d="M8.20309 7.022L8.11492 7.28645L7.83617 7.28856C7.80008 7.28881 7.78511 7.33491 7.81414 7.35634L8.03834 7.52193L7.95421 7.78771C7.94335 7.82211 7.98252 7.8506 8.01191 7.8296L8.2387 7.6675L8.46549 7.8296C8.49488 7.8506 8.53399 7.82211 8.52319 7.78771L8.43906 7.52193L8.66326 7.35634C8.69229 7.33491 8.67732 7.28881 8.64123 7.28856L8.36248 7.28645L8.27431 7.022C8.2629 6.98778 8.21444 6.98778 8.20309 7.022Z" fill="#F5F5F5"/>
<path id="Vector_9" d="M8.20309 5.18896L8.11492 5.45341L7.83617 5.45553C7.80008 5.45577 7.78511 5.50187 7.81414 5.5233L8.03834 5.6889L7.95421 5.95467C7.94335 5.98907 7.98252 6.01756 8.01191 5.99656L8.2387 5.83446L8.46549 5.99656C8.49488 6.01756 8.53399 5.98907 8.52319 5.95467L8.43906 5.6889L8.66326 5.5233C8.69229 5.50187 8.67732 5.45577 8.64123 5.45553L8.36248 5.45341L8.27431 5.18896C8.2629 5.15462 8.21444 5.15462 8.20309 5.18896Z" fill="#F5F5F5"/>
<path id="Vector_10" d="M10.166 5.18896L10.0778 5.45341L9.79906 5.45553C9.76297 5.45577 9.74801 5.50187 9.77703 5.5233L10.0013 5.6889L9.91716 5.95467C9.9063 5.98907 9.94547 6.01756 9.97486 5.99656L10.2017 5.83446L10.4284 5.99656C10.4578 6.01756 10.4969 5.98907 10.4861 5.95467L10.402 5.6889L10.6262 5.5233C10.6552 5.50187 10.6403 5.45577 10.6042 5.45553L10.3254 5.45341L10.2373 5.18896C10.2259 5.15462 10.1774 5.15462 10.166 5.18896Z" fill="#F5F5F5"/>
<path id="Vector_11" d="M10.166 7.022L10.0778 7.28645L9.79906 7.28856C9.76297 7.28881 9.74801 7.33491 9.77703 7.35634L10.0013 7.52193L9.91716 7.78771C9.9063 7.82211 9.94547 7.8506 9.97486 7.8296L10.2017 7.6675L10.4284 7.8296C10.4578 7.8506 10.4969 7.82211 10.4861 7.78771L10.402 7.52193L10.6262 7.35634C10.6552 7.33491 10.6403 7.28881 10.6042 7.28856L10.3254 7.28645L10.2373 7.022C10.2259 6.98778 10.1774 6.98778 10.166 7.022Z" fill="#F5F5F5"/>
<path id="Vector_12" d="M12.1289 7.022L12.0407 7.28645L11.762 7.28856C11.7259 7.28881 11.7109 7.33491 11.7399 7.35634L11.9641 7.52193L11.88 7.78771C11.8691 7.82211 11.9083 7.8506 11.9377 7.8296L12.1645 7.6675L12.3913 7.8296C12.4207 7.8506 12.4598 7.82211 12.449 7.78771L12.3648 7.52193L12.589 7.35634C12.6181 7.33491 12.6031 7.28881 12.567 7.28856L12.2883 7.28645L12.2001 7.022C12.1887 6.98778 12.1403 6.98778 12.1289 7.022Z" fill="#F5F5F5"/>
</g>
</g>
</svg>
