<svg width="24" height="24" viewBox="0 0 24 24" fill="none" xmlns="http://www.w3.org/2000/svg">
<g clip-path="url(#clip0_9793_11809)">
<g clip-path="url(#clip1_9793_11809)">
<rect width="32" height="24" transform="translate(-4)" fill="white"/>
<path fill-rule="evenodd" clip-rule="evenodd" d="M-4 0V24H28V0H-4Z" fill="#C51918"/>
<mask id="mask0_9793_11809" style="mask-type:luminance" maskUnits="userSpaceOnUse" x="-4" y="0" width="32" height="24">
<path fill-rule="evenodd" clip-rule="evenodd" d="M-4 0V24H28V0H-4Z" fill="white"/>
</mask>
<g mask="url(#mask0_9793_11809)">
<path fill-rule="evenodd" clip-rule="evenodd" d="M11.9821 17.8668C12.0894 17.8668 12.1959 17.864 12.3018 17.8585L12.9189 19.8262L13.0618 17.7704C13.2682 17.7331 13.471 17.6853 13.6694 17.6275L14.7274 19.4011L14.3884 17.3673C14.5795 17.2839 14.7654 17.1909 14.9455 17.0888L16.3884 18.5737L15.5848 16.6705C15.7507 16.5462 15.9099 16.4135 16.0616 16.2731L17.8122 17.3887L16.5876 15.7203C16.7201 15.5619 16.8444 15.3966 16.96 15.225L18.9221 15.9099L17.3438 14.5676C17.4359 14.3835 17.5186 14.194 17.5914 13.9997L19.6583 14.2172L17.8112 13.2725C17.8576 13.0729 17.8939 12.8695 17.9194 12.6628L19.981 12.4016L17.9641 11.9049C17.9631 11.696 17.9512 11.4896 17.929 11.2864L19.8729 10.5612L17.7981 10.5393C17.7489 10.3365 17.6891 10.1377 17.6195 9.94367L19.3399 8.79511L17.3178 9.24791C17.2227 9.06235 17.118 8.88242 17.0045 8.70876L18.4105 7.19855L16.5493 8.10119C16.4138 7.94253 16.2701 7.79103 16.1188 7.64732L17.1351 5.8576L15.5359 7.16C15.3673 7.03631 15.1919 6.92119 15.0104 6.81531L15.5822 4.84455L14.331 6.47488C14.1382 6.39314 13.9402 6.32117 13.7376 6.25957L13.8356 4.21402L12.9979 6.08518C12.7919 6.05023 12.5822 6.02573 12.3696 6.01225L11.9895 4L11.6096 6.01132C11.3966 6.0243 11.1866 6.04834 10.9801 6.08287L10.1434 4.21402L10.2413 6.25517C10.0375 6.31655 9.83834 6.38843 9.64441 6.47017L8.39688 4.84455L8.96656 6.80796C8.78334 6.91424 8.60634 7.02991 8.43621 7.15431L6.844 5.8576L7.85509 7.63823C7.70188 7.7831 7.55641 7.93596 7.41936 8.09613L5.56851 7.19855L6.96594 8.69945C6.85062 8.87507 6.74442 9.05712 6.648 9.24494L4.63919 8.79511L6.34764 9.93572C6.27677 10.1324 6.21606 10.3338 6.16615 10.5394L4.10612 10.5612L6.03587 11.2811C6.01314 11.4872 6.00106 11.6966 6.00018 11.9085L3.99805 12.4016L6.04464 12.6609C6.07049 12.8706 6.10736 13.0769 6.15467 13.2792L4.3208 14.2172L6.37342 14.0012C6.44723 14.1981 6.53129 14.3901 6.62493 14.5764L5.05697 15.9099L7.00711 15.2292C7.12417 15.4027 7.25022 15.5698 7.38459 15.7297L6.16688 17.3887L7.90868 16.2786C8.06206 16.4202 8.22295 16.5538 8.39068 16.6789L7.59069 18.5737L9.02836 17.0942C9.20976 17.1966 9.39708 17.2898 9.58969 17.3732L9.25165 19.4011L10.3074 17.6311C10.5067 17.6887 10.7102 17.7362 10.9175 17.7731L11.0602 19.8262L11.677 17.8592C11.7781 17.8643 11.8798 17.8668 11.9821 17.8668ZM16.4822 11.9157C16.4822 14.4005 14.4513 16.4148 11.9462 16.4148C9.441 16.4148 7.41016 14.4005 7.41016 11.9157C7.41016 9.43084 9.441 7.4165 11.9462 7.4165C14.4513 7.4165 16.4822 9.43084 16.4822 11.9157ZM11.9761 15.418C13.87 15.418 15.4053 13.8827 15.4053 11.9888C15.4053 11.5045 15.305 11.0437 15.1239 10.626C13.9041 10.7126 12.9736 11.1644 12.3556 11.6305L11.8648 12.0006L11.4065 11.6038C10.9674 11.2238 10.1198 10.7959 8.81838 10.6492C8.64358 11.0608 8.54688 11.5135 8.54688 11.9888C8.54688 13.8827 10.0822 15.418 11.9761 15.418ZM9.50239 9.61385C10.1264 8.96404 11.004 8.55957 11.9761 8.55957C12.933 8.55957 13.7983 8.95148 14.4204 9.58354C13.4413 9.69703 12.611 9.94246 11.9369 10.3243C11.3361 9.97959 10.5239 9.74656 9.50239 9.61385Z" fill="#FFDC17"/>
</g>
</g>
</g>
<defs>
<clipPath id="clip0_9793_11809">
<rect width="24" height="24" rx="6" fill="white"/>
</clipPath>
<clipPath id="clip1_9793_11809">
<rect width="32" height="24" fill="white" transform="translate(-4)"/>
</clipPath>
</defs>
</svg>
