<svg width="24" height="24" viewBox="0 0 24 24" fill="none" xmlns="http://www.w3.org/2000/svg">
<g clip-path="url(#clip0_11208_15335)">
<path d="M18.75 0H5.25C2.3505 0 0 2.3505 0 5.25V18.75C0 21.6495 2.3505 24 5.25 24H18.75C21.6495 24 24 21.6495 24 18.75V5.25C24 2.3505 21.6495 0 18.75 0Z" fill="#82C3D2"/>
<path d="M2.56166 22.3941C2.50494 22.2241 2.28472 21.7678 2.27741 21.7527C2.21704 21.617 2.18525 21.467 2.18525 21.3187C2.18525 21.1113 2.30558 20.9297 2.47794 20.8771C2.6181 20.8337 2.76233 20.8571 2.87422 20.9398C2.98583 21.0223 3.04986 21.1492 3.04986 21.2877C3.04986 21.4611 2.93868 21.5185 2.89086 21.5351C2.81685 21.561 2.74607 21.5461 2.72324 21.5171C2.70397 21.4926 2.70594 21.4256 2.77504 21.317C2.81783 21.25 2.79824 21.1608 2.73111 21.118C2.66385 21.0758 2.57507 21.0955 2.53213 21.1622C2.34805 21.4507 2.4463 21.6314 2.49707 21.6958C2.59949 21.825 2.79046 21.8694 2.97463 21.8095C2.91411 22.0662 2.85838 22.3088 3.092 22.5425C3.12013 22.5706 3.15702 22.5846 3.19391 22.5846C3.23075 22.5846 3.26764 22.5706 3.29582 22.5425C3.35211 22.4862 3.35211 22.395 3.29582 22.3387C3.18041 22.2233 3.19546 22.1285 3.25625 21.8712C3.29272 21.717 3.338 21.5248 3.338 21.2878C3.338 21.0619 3.22977 20.8468 3.04888 20.7113C3.22977 20.5758 3.338 20.3608 3.338 20.1349C3.338 19.8979 3.29268 19.7057 3.25625 19.5515C3.19546 19.2942 3.18041 19.1994 3.29582 19.084C3.35211 19.0277 3.35211 18.9365 3.29582 18.8802C3.23952 18.8239 3.14835 18.8239 3.09205 18.8802C2.85838 19.1139 2.91411 19.3565 2.97468 19.6132C2.7905 19.553 2.59954 19.5973 2.49711 19.7268C2.4463 19.7913 2.3481 19.972 2.53218 20.2604C2.57497 20.3274 2.66347 20.3471 2.73116 20.3046C2.79829 20.2619 2.81783 20.1726 2.77508 20.1057C2.70599 19.997 2.70402 19.93 2.72329 19.9056C2.74607 19.8766 2.81685 19.8616 2.89091 19.8876C2.93877 19.9041 3.04991 19.9616 3.04991 20.135C3.04991 20.2734 2.98588 20.4004 2.87427 20.4828C2.76238 20.5656 2.61758 20.5892 2.47799 20.5456C2.30558 20.4929 2.1853 20.3114 2.1853 20.104C2.1853 19.9557 2.21708 19.8056 2.27746 19.67L3.22114 17.5467C3.29868 17.3722 3.3381 17.1868 3.3381 16.9956C3.3381 16.7498 3.2263 16.5253 3.05038 16.3883C3.2263 16.2513 3.3381 16.0267 3.3381 15.7809C3.3381 15.5898 3.29868 15.4043 3.22114 15.2299L2.27746 13.1066C2.21708 12.971 2.1853 12.821 2.1853 12.6726C2.1853 12.4652 2.30563 12.2837 2.47799 12.231C2.61814 12.1877 2.76238 12.2111 2.87427 12.2938C2.98588 12.3763 3.04991 12.5032 3.04991 12.6417C3.04991 12.815 2.93872 12.8724 2.89091 12.8891C2.81689 12.9152 2.74611 12.9 2.72329 12.8711C2.70402 12.8466 2.70599 12.7796 2.77508 12.671C2.81788 12.604 2.79829 12.5148 2.73116 12.472C2.66389 12.4297 2.57511 12.4495 2.53218 12.5162C2.3481 12.8046 2.44635 12.9853 2.49711 13.0498C2.59954 13.179 2.7905 13.2234 2.97468 13.1634C2.91416 13.4201 2.85843 13.6627 3.09205 13.8964C3.12018 13.9245 3.15707 13.9386 3.19396 13.9386C3.2308 13.9386 3.26769 13.9245 3.29586 13.8964C3.35216 13.8401 3.35216 13.7489 3.29586 13.6926C3.18046 13.5772 3.1955 13.4824 3.2563 13.2251C3.29277 13.0709 3.33805 12.8787 3.33805 12.6417C3.33805 12.4839 3.2826 12.3332 3.18932 12.2093H3.19396C3.2736 12.2093 3.33805 12.1449 3.33805 12.0652C3.33805 11.9856 3.2736 11.9211 3.19396 11.9211H3.18932C3.2826 11.7973 3.33805 11.6466 3.33805 11.4888C3.33805 11.2518 3.29272 11.0596 3.2563 10.9054C3.1955 10.6481 3.18046 10.5533 3.29586 10.4379C3.35216 10.3816 3.35216 10.2904 3.29586 10.2341C3.23957 10.1778 3.14839 10.1778 3.0921 10.2341C2.85843 10.4678 2.91416 10.7104 2.97472 10.9671C2.79055 10.9071 2.59958 10.9515 2.49716 11.0807C2.44635 11.1452 2.34814 11.3259 2.53222 11.6143C2.57502 11.6813 2.66352 11.7007 2.73121 11.6586C2.79833 11.6158 2.81788 11.5266 2.77513 11.4596C2.70604 11.3509 2.70407 11.284 2.72333 11.2595C2.74611 11.2305 2.81689 11.2155 2.89096 11.2415C2.93882 11.2581 3.04996 11.3155 3.04996 11.4889C3.04996 11.6273 2.98593 11.7543 2.87432 11.8367C2.76243 11.9195 2.61763 11.9428 2.47804 11.8995C2.30563 11.8468 2.18535 11.6653 2.18535 11.4579C2.18535 11.3096 2.21713 11.1595 2.2775 11.0239L3.22119 8.90066C3.29872 8.72615 3.33814 8.54071 3.33814 8.3496C3.33814 8.10374 3.22635 7.87921 3.05043 7.74224C3.22635 7.60522 3.33814 7.38069 3.33814 7.13488C3.33814 6.94377 3.29872 6.75829 3.22119 6.58382L2.27736 4.46038C2.21699 4.32472 2.18521 4.17472 2.18521 4.02636C2.18521 3.81894 2.30554 3.63739 2.47789 3.58475C2.61805 3.54139 2.76229 3.56479 2.87418 3.64752C2.98579 3.72997 3.04982 3.85691 3.04982 3.99538C3.04982 4.16877 2.93863 4.22619 2.89082 4.24279C2.8168 4.26866 2.74602 4.25347 2.72319 4.22479C2.70393 4.20032 2.70589 4.13333 2.77499 4.02468C2.81779 3.95769 2.79819 3.86849 2.73107 3.82569C2.6638 3.78346 2.57502 3.80291 2.53208 3.86989C2.348 4.15836 2.44625 4.33907 2.49702 4.40352C2.59944 4.53271 2.79041 4.5771 2.97458 4.51714C2.91407 4.77383 2.85833 5.01646 3.09196 5.25013C3.12008 5.27825 3.15697 5.29236 3.19386 5.29236C3.23071 5.29236 3.2676 5.2783 3.29577 5.25013C3.35207 5.19383 3.35207 5.10266 3.29577 5.04636C3.18036 4.93096 3.19541 4.83613 3.25621 4.57888C3.29268 4.42466 3.33796 4.23243 3.33796 3.99543C3.33796 3.83769 3.2825 3.68694 3.18922 3.5631H3.19386C3.2735 3.5631 3.33796 3.49864 3.33796 3.419C3.33796 3.33936 3.2735 3.27491 3.19386 3.27491H3.18922C3.2825 3.15107 3.33796 3.00032 3.33796 2.84263C3.33796 2.60563 3.29263 2.41339 3.25621 2.25918C3.19541 2.00193 3.18036 1.9071 3.29577 1.79169C3.35207 1.73539 3.35207 1.64422 3.29577 1.58793C3.23947 1.53163 3.1483 1.53163 3.092 1.58793C2.85833 1.8216 2.91407 2.06418 2.97463 2.32091C2.79046 2.26072 2.59949 2.30535 2.49707 2.43454C2.44625 2.49899 2.34805 2.67969 2.53213 2.96816C2.57493 3.03514 2.66343 3.05483 2.73111 3.01236C2.79824 2.96957 2.81779 2.88036 2.77504 2.81338C2.70594 2.70472 2.70397 2.63774 2.72324 2.61327C2.74602 2.5843 2.8168 2.56907 2.89086 2.59527C2.93872 2.61186 3.04986 2.66929 3.04986 2.84268C3.04986 2.98114 2.98583 3.10808 2.87422 3.19054C2.76233 3.27327 2.61754 3.29666 2.47794 3.2533C2.30554 3.20066 2.18525 3.01911 2.18525 2.81169C2.18525 2.66338 2.21704 2.51338 2.27544 2.38194C2.28472 2.36254 2.50499 1.9063 2.56166 1.73629C2.67383 1.39996 2.55983 1.23079 2.48202 1.16014C2.37786 1.06532 2.22575 1.04164 2.09474 1.09907C2.07486 1.10788 2.05841 1.12068 2.04111 1.13258C2.03258 1.12672 2.02419 1.12058 2.01557 1.11486C1.82774 1.262 1.65041 1.4218 1.48438 1.59271C1.49188 1.63691 1.50327 1.68435 1.52057 1.73629C1.57729 1.90625 1.7975 2.36249 1.80482 2.37772C1.86519 2.51338 1.89697 2.66338 1.89697 2.81174C1.89697 3.01916 1.77664 3.20071 1.60429 3.25335C1.46427 3.29671 1.31989 3.2736 1.208 3.19058C1.09639 3.10813 1.03236 2.98119 1.03236 2.84272C1.03236 2.66933 1.14355 2.61191 1.19136 2.59532C1.26566 2.56916 1.33602 2.58435 1.35899 2.61332C1.37825 2.63779 1.37629 2.70477 1.30719 2.81343C1.26439 2.88041 1.28399 2.96961 1.35111 3.01241C1.4188 3.05521 1.50758 3.03519 1.5501 2.96821C1.73418 2.67974 1.63593 2.49904 1.58516 2.43458C1.48274 2.30539 1.29177 2.26077 1.1076 2.32096C1.13671 2.19749 1.16436 2.0773 1.15958 1.95983C1.01989 2.13327 0.890895 2.31571 0.773848 2.50625C0.756738 2.60685 0.744176 2.7185 0.744176 2.84268C0.744176 3.00036 0.799582 3.15116 0.89291 3.27496H0.88827C0.808629 3.27496 0.744176 3.33941 0.744176 3.41905C0.744176 3.49869 0.808629 3.56314 0.88827 3.56314H0.89291C0.799629 3.68699 0.744176 3.83774 0.744176 3.99547C0.744176 4.23247 0.789504 4.42471 0.825926 4.57893C0.886723 4.83618 0.90177 4.931 0.786363 5.04641C0.730066 5.10271 0.730066 5.19388 0.786363 5.25018C0.814488 5.2783 0.851379 5.29241 0.88827 5.29241C0.92516 5.29241 0.962004 5.27835 0.990176 5.25018C1.22385 5.0165 1.16811 4.77388 1.1076 4.51719C1.29177 4.57714 1.48274 4.53275 1.58516 4.40357C1.63597 4.33911 1.73418 4.15841 1.5501 3.86994C1.50744 3.80296 1.41838 3.78299 1.35111 3.82574C1.28399 3.86854 1.26444 3.95774 1.30719 4.02472C1.37629 4.13338 1.37825 4.20036 1.35899 4.22483C1.33607 4.25357 1.26571 4.26875 1.19136 4.24283C1.1435 4.22624 1.03236 4.16882 1.03236 3.99543C1.03236 3.85696 1.09639 3.73002 1.208 3.64757C1.31989 3.56483 1.46455 3.54116 1.60429 3.5848C1.77669 3.63744 1.89697 3.81894 1.89697 4.02641C1.89697 4.17472 1.86514 4.32477 1.80482 4.46043L0.861129 6.58363C0.783598 6.75814 0.744176 6.94358 0.744176 7.13469C0.744176 7.38055 0.855973 7.60508 1.03189 7.74205C0.855973 7.87907 0.744176 8.10355 0.744176 8.34941C0.744176 8.54052 0.783598 8.72601 0.861129 8.90047L1.80482 11.0237C1.86519 11.1594 1.89697 11.3094 1.89697 11.4577C1.89697 11.6651 1.77664 11.8467 1.60429 11.8993C1.46427 11.9429 1.31989 11.9196 1.208 11.8365C1.09639 11.7541 1.03236 11.6271 1.03236 11.4887C1.03236 11.3153 1.14355 11.2579 1.19136 11.2413C1.26566 11.2154 1.33602 11.2303 1.35899 11.2593C1.37825 11.2838 1.37629 11.3507 1.30719 11.4594C1.26439 11.5264 1.28399 11.6156 1.35111 11.6584C1.4188 11.7012 1.50758 11.6814 1.5501 11.6142C1.73418 11.3257 1.63593 11.145 1.58516 11.0805C1.48274 10.9513 1.29177 10.907 1.1076 10.9669C1.16811 10.7102 1.22385 10.4676 0.990176 10.2339C0.933879 10.1776 0.842707 10.1776 0.78641 10.2339C0.730113 10.2902 0.730113 10.3814 0.78641 10.4377C0.901816 10.5531 0.88677 10.6479 0.825973 10.9052C0.789504 11.0594 0.744223 11.2516 0.744223 11.4886C0.744223 11.6464 0.799629 11.7971 0.892957 11.921H0.888316C0.808676 11.921 0.744223 11.9854 0.744223 12.0651C0.744223 12.1447 0.808676 12.2091 0.888316 12.2091H0.892957C0.799676 12.333 0.744223 12.4837 0.744223 12.6415C0.744223 12.8784 0.789551 13.0707 0.825973 13.2249C0.88677 13.4822 0.901816 13.577 0.78641 13.6924C0.730113 13.7487 0.730113 13.8399 0.78641 13.8962C0.814535 13.9243 0.851426 13.9384 0.888316 13.9384C0.925207 13.9384 0.962051 13.9243 0.990223 13.8962C1.22389 13.6625 1.16816 13.4199 1.10764 13.1632C1.29182 13.2232 1.48279 13.1788 1.58521 13.0496C1.63602 12.9852 1.73422 12.8045 1.55014 12.516C1.50749 12.449 1.41843 12.429 1.35116 12.4718C1.28404 12.5146 1.26449 12.6038 1.30724 12.6708C1.37633 12.7794 1.3783 12.8464 1.35904 12.8709C1.33611 12.8998 1.26575 12.9151 1.19141 12.8889C1.14355 12.8723 1.03241 12.8149 1.03241 12.6415C1.03241 12.503 1.09644 12.3761 1.20805 12.2936C1.31994 12.2109 1.4646 12.1872 1.60433 12.2308C1.77674 12.2835 1.89702 12.465 1.89702 12.6725C1.89702 12.8208 1.86519 12.9708 1.80486 13.1064L0.861176 15.2297C0.783645 15.4042 0.744223 15.5896 0.744223 15.7807C0.744223 16.0266 0.85602 16.2511 1.03194 16.3881C0.85602 16.5251 0.744223 16.7496 0.744223 16.9955C0.744223 17.1866 0.783645 17.3721 0.861176 17.5465L1.80486 19.6698C1.86524 19.8054 1.89702 19.9554 1.89702 20.1038C1.89702 20.3112 1.77669 20.4928 1.60433 20.5454C1.46432 20.589 1.31994 20.5654 1.20805 20.4826C1.09644 20.4002 1.03241 20.2732 1.03241 20.1348C1.03241 19.9614 1.1436 19.904 1.19141 19.8874C1.26571 19.8615 1.33607 19.8764 1.35904 19.9054C1.3783 19.9298 1.37633 19.9968 1.30724 20.1055C1.26444 20.1725 1.28404 20.2617 1.35116 20.3045C1.41885 20.3473 1.50763 20.3275 1.55014 20.2603C1.73422 19.9717 1.63597 19.7911 1.58521 19.7266C1.48279 19.5972 1.29182 19.5528 1.10764 19.613C1.16816 19.3563 1.22389 19.1137 0.990223 18.88C0.933926 18.8237 0.842754 18.8237 0.786457 18.88C0.73016 18.9363 0.73016 19.0275 0.786457 19.0838C0.901863 19.1992 0.886816 19.294 0.82602 19.5513C0.789551 19.7055 0.74427 19.8977 0.74427 20.1347C0.74427 20.3606 0.852504 20.5756 1.03339 20.7111C0.852504 20.8467 0.74427 21.0617 0.74427 21.2876C0.74427 21.3471 0.747129 21.4039 0.752004 21.4579C0.872754 21.6581 1.00663 21.8494 1.15218 22.031C1.14243 21.9582 1.12532 21.8843 1.10764 21.8093C1.29182 21.8693 1.48279 21.8249 1.58521 21.6957C1.63602 21.6313 1.73422 21.4506 1.55014 21.1621C1.50749 21.0951 1.41843 21.0754 1.35116 21.1179C1.28404 21.1607 1.26449 21.2499 1.30724 21.3169C1.37633 21.4255 1.3783 21.4925 1.35904 21.517C1.33611 21.5459 1.26575 21.5609 1.19141 21.535C1.14355 21.5184 1.03241 21.461 1.03241 21.2876C1.03241 21.1491 1.09644 21.0222 1.20805 20.9397C1.31994 20.857 1.4646 20.8336 1.60433 20.8769C1.77674 20.9296 1.89702 21.1111 1.89702 21.3186C1.89702 21.4669 1.86519 21.6169 1.80683 21.7483C1.79755 21.7677 1.57733 22.2239 1.52061 22.394C1.51621 22.4072 1.51274 22.4197 1.50899 22.4324C1.59097 22.5157 1.67568 22.5962 1.763 22.6738C1.75939 22.6282 1.76689 22.5661 1.79389 22.4851C1.83116 22.3737 1.96602 22.0837 2.04111 21.9262C2.11457 22.08 2.25083 22.3729 2.28838 22.4851C2.33961 22.6388 2.32171 22.7263 2.28796 22.757C2.26532 22.7776 2.23208 22.7767 2.21127 22.7674C2.18525 22.7559 2.18525 22.7376 2.18525 22.7286C2.18525 22.6489 2.1208 22.5845 2.04116 22.5845C1.96152 22.5845 1.89707 22.6489 1.89707 22.7286C1.89707 22.7376 1.89707 22.7558 1.8711 22.7674C1.99443 22.8712 2.12258 22.9694 2.25524 23.0618C2.33811 23.0588 2.41883 23.0276 2.48207 22.9701C2.55983 22.8996 2.67379 22.7304 2.56166 22.3941ZM1.79385 1.64502C1.74261 1.49136 1.76047 1.4038 1.79427 1.37314C1.81635 1.35233 1.84986 1.35318 1.87096 1.36274C1.89697 1.37427 1.89697 1.39255 1.89697 1.4016C1.89697 1.48124 1.96143 1.54569 2.04107 1.54569C2.12071 1.54569 2.18516 1.48124 2.18516 1.4016C2.18516 1.3926 2.18516 1.37432 2.21118 1.36274C2.23199 1.35318 2.26522 1.35233 2.28786 1.37314C2.32166 1.40385 2.33952 1.49136 2.28829 1.64502C2.25102 1.75649 2.11616 2.04646 2.04107 2.20391C1.96766 2.05016 1.83139 1.75724 1.79385 1.64502ZM2.18474 3.419C2.13018 3.46147 2.08185 3.51224 2.04111 3.56966C2.00038 3.51224 1.95205 3.46147 1.89749 3.419C1.95205 3.37654 2.00038 3.32577 2.04111 3.26835C2.0818 3.32577 2.13018 3.37654 2.18474 3.419ZM1.12457 6.70072L2.04111 4.63855L2.95766 6.70072C3.01804 6.83638 3.04982 6.98638 3.04982 7.13474C3.04982 7.34216 2.92949 7.52371 2.75713 7.57635C2.61725 7.61999 2.4726 7.59632 2.36085 7.51358C2.24924 7.43113 2.18521 7.30419 2.18521 7.16572C2.18521 6.99233 2.29639 6.93496 2.34421 6.91832C2.41836 6.89244 2.489 6.90735 2.51183 6.93632C2.5311 6.96079 2.52913 7.02777 2.46004 7.13643C2.41724 7.20341 2.43683 7.29261 2.50396 7.33541C2.57164 7.37793 2.66043 7.35847 2.70294 7.29121C2.88702 7.00274 2.78877 6.82204 2.73796 6.75758C2.63352 6.62586 2.43739 6.58082 2.24966 6.64611C2.22824 6.65352 2.20663 6.66271 2.18521 6.67358V6.30908C2.18525 6.30918 2.18544 6.30932 2.18544 6.30932C2.18985 6.38516 2.25261 6.44511 2.3293 6.44511C2.40894 6.44511 2.47339 6.38066 2.47339 6.30102C2.47339 6.20704 2.40768 6.044 2.18521 5.99347V5.72464C2.18521 5.645 2.12075 5.58055 2.04111 5.58055C1.96147 5.58055 1.89702 5.645 1.89702 5.72464V5.99347C1.67455 6.044 1.60883 6.20704 1.60883 6.30102C1.60883 6.38066 1.67314 6.44989 1.75264 6.44989C1.83229 6.44989 1.89646 6.39022 1.89646 6.31058C1.8965 6.3103 1.89693 6.31002 1.89702 6.30974V6.67354C1.8756 6.66266 1.85399 6.65347 1.83257 6.64607C1.64483 6.58077 1.44852 6.62582 1.34427 6.75754C1.29346 6.82199 1.19525 7.00269 1.37933 7.29116C1.42213 7.35815 1.51105 7.37755 1.57832 7.33536C1.64544 7.29257 1.66499 7.20336 1.62224 7.13638C1.55314 7.02772 1.55118 6.96074 1.57044 6.93627C1.59308 6.9073 1.66377 6.89235 1.73807 6.91827C1.78593 6.93486 1.89707 6.99229 1.89707 7.16568C1.89707 7.30415 1.83304 7.43108 1.72143 7.51354C1.60954 7.59627 1.46502 7.61994 1.32514 7.5763C1.15274 7.52366 1.03246 7.34211 1.03246 7.13469C1.03236 6.98638 1.06419 6.83638 1.12457 6.70072ZM2.18614 7.7421C2.12924 7.78475 2.0825 7.83697 2.04111 7.89322C1.99972 7.83697 1.95294 7.78471 1.89608 7.7421C1.95299 7.69944 1.99972 7.64722 2.04111 7.59097C2.08246 7.64718 2.12924 7.69944 2.18614 7.7421ZM1.12457 8.78343C1.06419 8.64777 1.03241 8.49777 1.03241 8.34941C1.03241 8.14199 1.15274 7.96044 1.3251 7.9078C1.46511 7.86449 1.60963 7.88783 1.72138 7.97057C1.83299 8.05302 1.89702 8.17996 1.89702 8.31843C1.89702 8.49182 1.78583 8.54924 1.73802 8.56583C1.66372 8.59199 1.59308 8.5768 1.57039 8.54783C1.55113 8.52336 1.5531 8.45638 1.62219 8.34772C1.66499 8.28074 1.64539 8.19154 1.57827 8.14874C1.511 8.10622 1.42222 8.12596 1.37929 8.19294C1.19521 8.48146 1.29346 8.66211 1.34422 8.72657C1.44852 8.85829 1.64483 8.90333 1.83252 8.83804C1.85394 8.83063 1.87555 8.82144 1.89697 8.81057V9.17502L1.89669 9.17465C1.89233 9.09894 1.82957 9.03899 1.75288 9.03899C1.67324 9.03899 1.60879 9.10344 1.60879 9.18308C1.60879 9.27711 1.6745 9.4401 1.89697 9.49063V9.75946C1.89697 9.8391 1.96143 9.90355 2.04107 9.90355C2.12071 9.90355 2.18516 9.8391 2.18516 9.75946V9.49063C2.40763 9.4401 2.47335 9.27707 2.47335 9.18308C2.47335 9.10344 2.40904 9.03421 2.32954 9.03421C2.24989 9.03421 2.18572 9.09388 2.18572 9.17352C2.18568 9.1738 2.18525 9.17408 2.18525 9.17408L2.18521 8.81057C2.20663 8.82144 2.22824 8.83063 2.24966 8.83804C2.43739 8.90333 2.63357 8.85829 2.73796 8.72657C2.78877 8.66211 2.88697 8.48141 2.70294 8.19294C2.66014 8.12568 2.57122 8.10599 2.50396 8.14874C2.43683 8.19154 2.41729 8.28074 2.46004 8.34772C2.52913 8.45638 2.5311 8.52336 2.51183 8.54783C2.48905 8.5768 2.41841 8.59204 2.34421 8.56583C2.29635 8.54924 2.18521 8.49182 2.18521 8.31843C2.18521 8.17996 2.24924 8.05302 2.36085 7.97057C2.47274 7.88783 2.61754 7.86449 2.75713 7.9078C2.92954 7.96044 3.04982 8.14199 3.04982 8.34941C3.04982 8.49772 3.01804 8.64777 2.95766 8.78343L2.04111 10.8456L1.12457 8.78343ZM2.18474 12.0651C2.13018 12.1076 2.08185 12.1584 2.04111 12.2158C2.00038 12.1584 1.95205 12.1076 1.89749 12.0651C1.95205 12.0227 2.00038 11.9719 2.04111 11.9145C2.0818 11.9719 2.13018 12.0227 2.18474 12.0651ZM1.12457 15.3469L2.04111 13.2847L2.95766 15.3469C3.01804 15.4825 3.04982 15.6325 3.04982 15.7809C3.04982 15.9883 2.92949 16.1698 2.75713 16.2225C2.61725 16.2661 2.4726 16.2425 2.36085 16.1597C2.24924 16.0773 2.18521 15.9503 2.18521 15.8119C2.18521 15.6385 2.29639 15.5811 2.34421 15.5645C2.41836 15.5386 2.489 15.5535 2.51183 15.5825C2.5311 15.6069 2.52913 15.6739 2.46004 15.7826C2.41724 15.8496 2.43683 15.9388 2.50396 15.9816C2.57164 16.0243 2.66043 16.0046 2.70294 15.9373C2.88702 15.6489 2.78877 15.4682 2.73796 15.4037C2.63352 15.272 2.43739 15.2272 2.24966 15.2923C2.22824 15.2997 2.20663 15.3088 2.18521 15.3197V14.9552L2.18549 14.9556C2.18985 15.0313 2.25261 15.0913 2.3293 15.0913C2.40894 15.0913 2.47339 15.0268 2.47339 14.9472C2.47339 14.8532 2.40768 14.6901 2.18521 14.6396V14.3707C2.18521 14.2911 2.12075 14.2266 2.04111 14.2266C1.96147 14.2266 1.89702 14.2911 1.89702 14.3707V14.6396C1.67455 14.6901 1.60883 14.8532 1.60883 14.9472C1.60883 15.0268 1.67314 15.096 1.75264 15.096C1.83229 15.096 1.89646 15.0364 1.89646 14.9567C1.8965 14.9564 1.89693 14.9562 1.89693 14.9562L1.89702 15.3197C1.8756 15.3088 1.85399 15.2996 1.83257 15.2922C1.64483 15.2272 1.44852 15.272 1.34427 15.4037C1.29346 15.4681 1.19525 15.6488 1.37933 15.9373C1.42213 16.0043 1.51105 16.0237 1.57832 15.9815C1.64544 15.9387 1.66499 15.8495 1.62224 15.7825C1.55314 15.6739 1.55118 15.6069 1.57044 15.5824C1.59308 15.5534 1.66377 15.5385 1.73807 15.5644C1.78593 15.581 1.89707 15.6384 1.89707 15.8118C1.89707 15.9503 1.83304 16.0772 1.72143 16.1597C1.60954 16.2424 1.46502 16.2661 1.32514 16.2224C1.15274 16.1698 1.03246 15.9883 1.03246 15.7808C1.03236 15.6325 1.06419 15.4825 1.12457 15.3469ZM2.18614 16.3882C2.12924 16.4309 2.0825 16.4831 2.04111 16.5394C1.99972 16.4831 1.95294 16.4308 1.89608 16.3882C1.95299 16.3456 1.99972 16.2934 2.04111 16.2371C2.08246 16.2934 2.12924 16.3456 2.18614 16.3882ZM1.12457 17.4296C1.06419 17.294 1.03241 17.1439 1.03241 16.9956C1.03241 16.7882 1.15274 16.6066 1.3251 16.554C1.46511 16.5106 1.60963 16.534 1.72138 16.6168C1.83299 16.6992 1.89702 16.8261 1.89702 16.9646C1.89702 17.138 1.78583 17.1954 1.73802 17.212C1.66372 17.2379 1.59308 17.223 1.57039 17.194C1.55113 17.1696 1.5531 17.1025 1.62219 16.9939C1.66499 16.9269 1.64539 16.8377 1.57827 16.7949C1.511 16.7527 1.42222 16.7724 1.37929 16.8391C1.19521 17.1276 1.29346 17.3083 1.34422 17.3728C1.44852 17.5045 1.64483 17.5498 1.83252 17.4842C1.85394 17.4768 1.87555 17.4676 1.89697 17.4568V17.8212C1.89693 17.8211 1.89674 17.821 1.89674 17.821C1.89233 17.7451 1.82957 17.6852 1.75288 17.6852C1.67324 17.6852 1.60879 17.7496 1.60879 17.8293C1.60879 17.9233 1.6745 18.0863 1.89697 18.1368V18.4057C1.89697 18.4853 1.96143 18.5498 2.04107 18.5498C2.12071 18.5498 2.18516 18.4853 2.18516 18.4057V18.1368C2.40763 18.0863 2.47335 17.9233 2.47335 17.8293C2.47335 17.7496 2.40904 17.6804 2.32954 17.6804C2.24989 17.6804 2.18572 17.7401 2.18572 17.8197C2.18568 17.82 2.18525 17.8203 2.18516 17.8206V17.4568C2.20658 17.4676 2.22819 17.4768 2.24961 17.4842C2.43735 17.5498 2.63352 17.5045 2.73791 17.3728C2.78872 17.3083 2.88693 17.1276 2.70289 16.8391C2.6601 16.7721 2.57118 16.7525 2.50391 16.7949C2.43679 16.8377 2.41724 16.9269 2.45999 16.9939C2.52908 17.1026 2.53105 17.1696 2.51179 17.194C2.489 17.223 2.41836 17.2379 2.34416 17.212C2.2963 17.1954 2.18516 17.138 2.18516 16.9646C2.18516 16.8261 2.24919 16.6992 2.3608 16.6168C2.47269 16.534 2.61749 16.5103 2.75708 16.554C2.92949 16.6066 3.04977 16.7882 3.04977 16.9956C3.04977 17.1439 3.01799 17.294 2.95761 17.4296L2.04107 19.4917L1.12457 17.4296ZM2.04111 20.8619C2.00038 20.8045 1.95205 20.7538 1.89749 20.7113C1.95205 20.6688 2.00038 20.6181 2.04111 20.5606C2.08185 20.6181 2.13018 20.6688 2.18474 20.7113C2.13018 20.7538 2.0818 20.8045 2.04111 20.8619Z" fill="#FFE15A"/>
<path d="M12.6702 13.4166C14.181 13.4166 15.4058 12.1918 15.4058 10.6809C15.4058 9.17009 14.181 7.94531 12.6702 7.94531C11.1594 7.94531 9.93457 9.17009 9.93457 10.6809C9.93457 12.1918 11.1594 13.4166 12.6702 13.4166Z" fill="#FFE15A"/>
<path d="M12.8752 7.19271C12.8752 7.30601 12.7833 7.39788 12.67 7.39788C12.5567 7.39788 12.4648 7.30601 12.4648 7.19271C12.4648 7.07941 12.67 6.57715 12.67 6.57715C12.67 6.57715 12.8752 7.07941 12.8752 7.19271Z" fill="#FFE15A"/>
<path d="M12.4648 14.1689C12.4648 14.0556 12.5567 13.9637 12.67 13.9637C12.7834 13.9637 12.8752 14.0556 12.8752 14.1689C12.8752 14.2823 12.67 14.7845 12.67 14.7845C12.67 14.7845 12.4648 14.2823 12.4648 14.1689Z" fill="#FFE15A"/>
<path d="M16.1583 10.8861C16.045 10.8861 15.9531 10.7942 15.9531 10.6809C15.9531 10.5676 16.045 10.4757 16.1583 10.4757C16.2716 10.4757 16.7739 10.6809 16.7739 10.6809C16.7739 10.6809 16.2716 10.8861 16.1583 10.8861Z" fill="#FFE15A"/>
<path d="M9.18197 10.4756C9.29527 10.4756 9.38714 10.5675 9.38714 10.6808C9.38714 10.7941 9.29527 10.8859 9.18197 10.8859C9.06867 10.8859 8.56641 10.6808 8.56641 10.6808C8.56641 10.6808 9.06867 10.4756 9.18197 10.4756Z" fill="#FFE15A"/>
<path d="M15.2819 8.35949C15.2018 8.4396 15.0718 8.4396 14.9917 8.35949C14.9116 8.27938 14.9116 8.14944 14.9917 8.06933C15.0718 7.98917 15.5721 7.77917 15.5721 7.77917C15.5721 7.77917 15.362 8.27933 15.2819 8.35949Z" fill="#FFE15A"/>
<path d="M10.0588 13.0022C10.1389 12.9221 10.2688 12.9221 10.3489 13.0022C10.429 13.0824 10.429 13.2123 10.3489 13.2924C10.2688 13.3725 9.76855 13.5825 9.76855 13.5825C9.76855 13.5825 9.97865 13.0824 10.0588 13.0022Z" fill="#FFE15A"/>
<path d="M14.9917 13.2924C14.9116 13.2123 14.9116 13.0823 14.9917 13.0022C15.0718 12.9221 15.2018 12.9221 15.2819 13.0022C15.362 13.0824 15.572 13.5826 15.572 13.5826C15.572 13.5826 15.0718 13.3725 14.9917 13.2924Z" fill="#FFE15A"/>
<path d="M10.3489 8.06926C10.429 8.14937 10.429 8.2793 10.3489 8.35941C10.2688 8.43952 10.1388 8.43952 10.0587 8.35941C9.9786 8.2793 9.76855 7.77905 9.76855 7.77905C9.76855 7.77905 10.2688 7.98915 10.3489 8.06926Z" fill="#FFE15A"/>
<path d="M11.5257 7.3797C11.5691 7.48442 11.5194 7.60442 11.4146 7.64778C11.31 7.69114 11.1899 7.64145 11.1466 7.53673C11.1032 7.43206 11.1006 6.88953 11.1006 6.88953C11.1006 6.88953 11.4823 7.27498 11.5257 7.3797Z" fill="#FFE15A"/>
<path d="M13.8155 13.9819C13.7721 13.8772 13.8218 13.7572 13.9265 13.7138C14.0312 13.6704 14.1512 13.7201 14.1946 13.8248C14.238 13.9295 14.2406 14.472 14.2406 14.472C14.2406 14.472 13.8588 14.0865 13.8155 13.9819Z" fill="#FFE15A"/>
<path d="M15.9713 9.53558C15.8666 9.57894 15.7465 9.52925 15.7032 9.42454C15.6598 9.31982 15.7095 9.19982 15.8142 9.15646C15.9189 9.1131 16.4614 9.11047 16.4614 9.11047C16.4614 9.11047 16.0759 9.49222 15.9713 9.53558Z" fill="#FFE15A"/>
<path d="M9.36908 11.8261C9.47375 11.7827 9.5938 11.8324 9.63716 11.9371C9.68052 12.0418 9.63083 12.1619 9.52611 12.2052C9.42144 12.2486 8.87891 12.2512 8.87891 12.2512C8.87891 12.2512 9.26436 11.8695 9.36908 11.8261Z" fill="#FFE15A"/>
<path d="M14.1946 7.53673C14.1512 7.64145 14.0312 7.69114 13.9265 7.64778C13.8218 7.60442 13.7721 7.48437 13.8155 7.3797C13.8588 7.27503 14.2406 6.88953 14.2406 6.88953C14.2406 6.88953 14.238 7.43201 14.1946 7.53673Z" fill="#FFE15A"/>
<path d="M11.1466 13.8248C11.1899 13.7201 11.31 13.6704 11.4146 13.7138C11.5193 13.7572 11.5691 13.8772 11.5257 13.9819C11.4823 14.0865 11.1006 14.472 11.1006 14.472C11.1006 14.472 11.1032 13.9295 11.1466 13.8248Z" fill="#FFE15A"/>
<path d="M15.8142 12.2052C15.7095 12.1619 15.6598 12.0418 15.7032 11.9371C15.7465 11.8325 15.8666 11.7827 15.9712 11.8261C16.0759 11.8695 16.4614 12.2512 16.4614 12.2512C16.4614 12.2512 15.9189 12.2486 15.8142 12.2052Z" fill="#FFE15A"/>
<path d="M9.52611 9.15646C9.63078 9.19982 9.68052 9.31986 9.63716 9.42454C9.5938 9.52921 9.47375 9.57894 9.36908 9.53558C9.26436 9.49222 8.87891 9.11047 8.87891 9.11047C8.87891 9.11047 9.42139 9.1131 9.52611 9.15646Z" fill="#FFE15A"/>
<path d="M12.1917 7.21968C12.2138 7.33082 12.1416 7.43882 12.0305 7.46094C11.9194 7.48307 11.8114 7.41088 11.7892 7.29974C11.7671 7.1886 11.8704 6.65601 11.8704 6.65601C11.8704 6.65601 12.1696 7.10854 12.1917 7.21968Z" fill="#FFE15A"/>
<path d="M13.1495 14.1419C13.1274 14.0307 13.1996 13.9227 13.3107 13.9006C13.4218 13.8785 13.5298 13.9507 13.552 14.0618C13.5741 14.1729 13.4708 14.7055 13.4708 14.7055C13.4708 14.7055 13.1716 14.253 13.1495 14.1419Z" fill="#FFE15A"/>
<path d="M16.132 10.2015C16.0208 10.2236 15.9128 10.1514 15.8907 10.0403C15.8686 9.92913 15.9408 9.82108 16.0519 9.79901C16.163 9.77688 16.6956 9.88015 16.6956 9.88015C16.6956 9.88015 16.2431 10.1794 16.132 10.2015Z" fill="#FFE15A"/>
<path d="M9.20918 11.1601C9.32032 11.138 9.42837 11.2102 9.45045 11.3213C9.47257 11.4325 9.40038 11.5405 9.28924 11.5626C9.1781 11.5847 8.64551 11.4814 8.64551 11.4814C8.64551 11.4814 9.09804 11.1822 9.20918 11.1601Z" fill="#FFE15A"/>
<path d="M14.7791 7.89458C14.7162 7.9888 14.5888 8.01416 14.4945 7.95121C14.4003 7.88825 14.375 7.76085 14.4379 7.66663C14.5009 7.57241 14.9505 7.2688 14.9505 7.2688C14.9505 7.2688 14.8421 7.80036 14.7791 7.89458Z" fill="#FFE15A"/>
<path d="M10.562 13.4671C10.625 13.3729 10.7524 13.3475 10.8466 13.4104C10.9408 13.4734 10.9662 13.6008 10.9032 13.695C10.8402 13.7892 10.3906 14.0929 10.3906 14.0929C10.3906 14.0929 10.499 13.5613 10.562 13.4671Z" fill="#FFE15A"/>
<path d="M15.4565 12.7892C15.3622 12.7263 15.3369 12.5989 15.3998 12.5047C15.4628 12.4105 15.5902 12.3851 15.6844 12.448C15.7786 12.511 16.0822 12.9606 16.0822 12.9606C16.0822 12.9606 15.5507 12.8522 15.4565 12.7892Z" fill="#FFE15A"/>
<path d="M9.88457 8.57225C9.97879 8.63521 10.0041 8.76261 9.9412 8.85683C9.87824 8.95105 9.75084 8.97641 9.65662 8.91346C9.5624 8.8505 9.25879 8.40088 9.25879 8.40088C9.25879 8.40088 9.79035 8.5093 9.88457 8.57225Z" fill="#FFE15A"/>
<path d="M10.9032 7.66663C10.9662 7.76085 10.9408 7.88825 10.8466 7.95121C10.7524 8.01416 10.625 7.9888 10.562 7.89458C10.499 7.80036 10.3906 7.2688 10.3906 7.2688C10.3906 7.2688 10.8402 7.57236 10.9032 7.66663Z" fill="#FFE15A"/>
<path d="M14.4379 13.695C14.375 13.6008 14.4003 13.4734 14.4945 13.4104C14.5888 13.3475 14.7162 13.3729 14.7791 13.4671C14.8421 13.5613 14.9505 14.0929 14.9505 14.0929C14.9505 14.0929 14.5009 13.7892 14.4379 13.695Z" fill="#FFE15A"/>
<path d="M15.6844 8.91346C15.5902 8.97641 15.4628 8.95105 15.3998 8.85683C15.3369 8.76261 15.3622 8.63521 15.4565 8.57225C15.5507 8.5093 16.0822 8.40088 16.0822 8.40088C16.0822 8.40088 15.7786 8.8505 15.6844 8.91346Z" fill="#FFE15A"/>
<path d="M9.65662 12.448C9.75084 12.3851 9.87824 12.4105 9.9412 12.5047C10.0041 12.5989 9.97879 12.7263 9.88457 12.7892C9.79035 12.8522 9.25879 12.9606 9.25879 12.9606C9.25879 12.9606 9.5624 12.511 9.65662 12.448Z" fill="#FFE15A"/>
<path d="M13.552 7.29974C13.5298 7.41088 13.4218 7.48307 13.3107 7.46094C13.1996 7.43882 13.1274 7.33082 13.1495 7.21968C13.1716 7.10854 13.4708 6.65601 13.4708 6.65601C13.4708 6.65601 13.574 7.1886 13.552 7.29974Z" fill="#FFE15A"/>
<path d="M11.7892 14.0619C11.8114 13.9508 11.9194 13.8786 12.0305 13.9007C12.1416 13.9228 12.2138 14.0308 12.1917 14.142C12.1696 14.2531 11.8704 14.7057 11.8704 14.7057C11.8704 14.7057 11.7671 14.1731 11.7892 14.0619Z" fill="#FFE15A"/>
<path d="M16.0519 11.5626C15.9408 11.5405 15.8686 11.4325 15.8907 11.3213C15.9128 11.2102 16.0208 11.138 16.132 11.1601C16.2431 11.1822 16.6956 11.4814 16.6956 11.4814C16.6956 11.4814 16.163 11.5847 16.0519 11.5626Z" fill="#FFE15A"/>
<path d="M9.28924 9.79901C9.40038 9.82113 9.47257 9.92913 9.45045 10.0403C9.42832 10.1514 9.32032 10.2236 9.20918 10.2015C9.09804 10.1793 8.64551 9.88015 8.64551 9.88015C8.64551 9.88015 9.1781 9.77688 9.28924 9.79901Z" fill="#FFE15A"/>
<path d="M19.1057 11.4006C19.0256 11.3669 18.934 11.4056 18.9006 11.4852C18.9006 11.4855 18.9006 11.4855 18.9006 11.4855C18.9 11.4871 18.897 11.4944 18.8916 11.507C18.773 11.784 18.5277 12.1888 18.2799 12.5696C18.5107 11.8269 18.7216 11.0336 18.7364 10.9778C18.7584 10.8944 18.7091 10.8089 18.6259 10.7862C18.5425 10.7639 18.4569 10.8123 18.4336 10.8953C18.3259 11.2811 18.1057 11.7889 17.9025 12.2187C17.9398 11.7395 17.9468 11.2955 17.9473 11.2633C17.9485 11.1784 17.882 11.1083 17.7971 11.1043C17.7173 11.1067 17.6402 11.1649 17.634 11.2498C17.4331 14.0132 14.7741 15.2493 14.5152 15.3629C14.3798 15.3764 13.7489 15.4475 13.1761 15.6464C13.1112 15.669 13.056 15.6915 13.0008 15.7139C12.9804 15.7063 12.9584 15.702 12.9353 15.7034C11.1777 15.8306 9.77625 15.1095 8.76904 13.5649C8.00803 12.3977 7.76934 11.1726 7.76704 11.1604C7.75097 11.0752 7.66945 11.0203 7.58381 11.0353C7.49864 11.0516 7.44272 11.1334 7.45879 11.2186C7.46517 11.2524 7.56984 11.7871 7.85831 12.4909C7.47244 11.8817 7.20356 11.1438 7.10887 10.7595C7.107 10.7518 7.10208 10.746 7.09917 10.7389C7.09476 10.728 7.09101 10.7171 7.0845 10.7077C7.07986 10.7011 7.07386 10.6962 7.06833 10.6904C7.05975 10.6814 7.0515 10.6725 7.04109 10.6658C7.03509 10.6619 7.02834 10.66 7.02187 10.6569C7.01025 10.6515 6.99895 10.6462 6.98606 10.6438C6.97715 10.6421 6.96797 10.6432 6.95873 10.643C6.94936 10.6429 6.94045 10.6405 6.93084 10.6422C6.92873 10.6425 6.92714 10.6439 6.92503 10.6444C6.92301 10.6448 6.92104 10.6441 6.91903 10.6446C6.91064 10.6467 6.90422 10.6519 6.89653 10.6552C6.88673 10.6594 6.8767 10.6626 6.86812 10.6686C6.85968 10.6744 6.8534 10.6819 6.84633 10.6892C6.83934 10.6964 6.83194 10.7028 6.82645 10.7111C6.82087 10.7196 6.81783 10.7291 6.81394 10.7385C6.81014 10.7477 6.80578 10.7563 6.80376 10.7663C6.8017 10.7764 6.80264 10.7869 6.80269 10.7974C6.80269 10.8059 6.80039 10.814 6.80184 10.8227C6.80245 10.8263 6.80367 10.8301 6.80428 10.8337V10.8343C6.80447 10.835 6.8047 10.8359 6.80489 10.8365C6.90192 11.4083 7.13325 12.0011 7.34236 12.4531C7.0102 12.0762 6.73275 11.642 6.63436 11.3849C6.6315 11.3774 6.62583 11.3722 6.62198 11.3655C6.61612 11.3551 6.61106 11.3445 6.60319 11.3359C6.59765 11.3298 6.59081 11.3258 6.58448 11.3207C6.57497 11.3131 6.56587 11.3053 6.55486 11.3C6.54778 11.2967 6.54014 11.2956 6.53264 11.2933C6.52106 11.2898 6.50986 11.2859 6.49753 11.2852C6.48783 11.2846 6.47826 11.287 6.46847 11.2883C6.45942 11.2894 6.45047 11.2883 6.44142 11.2911C6.43969 11.2916 6.43851 11.293 6.43683 11.2936C6.43514 11.2941 6.43345 11.2939 6.43176 11.2945C6.42323 11.2977 6.41719 11.304 6.40954 11.3085C6.40059 11.3139 6.39108 11.3182 6.38348 11.325C6.37565 11.3321 6.37031 11.3407 6.36417 11.349C6.35836 11.3569 6.35184 11.3639 6.34758 11.3726C6.34308 11.3818 6.34144 11.3918 6.33881 11.4017C6.33623 11.4113 6.33281 11.4204 6.33215 11.4305C6.33145 11.4406 6.33394 11.4507 6.33529 11.461C6.33647 11.4699 6.33525 11.4787 6.33801 11.4875C6.50869 12.0381 6.91931 12.6933 7.24087 13.1547C6.97289 12.9482 6.77587 12.7248 6.71873 12.6574C6.71259 12.65 6.7065 12.6427 6.70036 12.6353C6.64504 12.5688 6.54731 12.5593 6.48033 12.6136C6.41353 12.6681 6.40312 12.7661 6.45703 12.8333C6.45994 12.8369 6.47175 12.8516 6.49134 12.8747C6.72665 13.1547 6.98315 13.4161 7.21542 13.6368L6.89765 13.5013C6.82519 13.4701 6.74001 13.4983 6.70031 13.5672C6.66065 13.6361 6.67856 13.7235 6.74212 13.7713C6.77306 13.7943 7.33579 14.2147 7.82301 14.4632C7.77703 14.4659 7.72312 14.4626 7.66275 14.458C7.58906 14.4509 7.51659 14.5036 7.49864 14.5784C7.48101 14.6535 7.52025 14.7301 7.5915 14.7595C7.60345 14.7644 7.7519 14.8256 7.93528 14.8909C7.89253 14.9084 7.85854 14.9442 7.84443 14.9908C7.82329 15.0604 7.85301 15.1357 7.91615 15.1719C7.93256 15.1814 8.15442 15.3086 8.42878 15.4213C8.42142 15.4326 8.41547 15.4449 8.41101 15.4584C8.38954 15.5242 8.41406 15.5966 8.47125 15.6361C8.51887 15.6689 9.58448 16.3921 10.829 16.3921C10.9107 16.3921 10.9933 16.389 11.0763 16.3823C11.1625 16.3755 11.227 16.2998 11.2201 16.2134C11.2132 16.127 11.1383 16.0617 11.0512 16.0697C10.2693 16.1335 9.51614 15.8399 9.06815 15.6156C9.12731 15.6012 9.16129 15.588 9.16973 15.5846C9.23883 15.5565 9.27867 15.4838 9.26517 15.4106C9.25167 15.3374 9.18858 15.2838 9.11395 15.2822C8.93208 15.2786 8.68022 15.19 8.46328 15.095C8.54526 15.0539 8.59303 15.0147 8.59734 15.0113C8.64454 14.9718 8.66447 14.9087 8.64834 14.8492C8.63212 14.7901 8.58276 14.7456 8.52211 14.7358C8.45545 14.7248 8.37243 14.7034 8.28539 14.677C8.36995 14.6283 8.40595 14.5747 8.41978 14.5474C8.44153 14.5039 8.442 14.453 8.42114 14.4092C8.40014 14.3654 8.36015 14.3338 8.31267 14.3237C8.27161 14.3148 8.2252 14.2998 8.17495 14.2802C8.18414 14.271 8.19258 14.2606 8.19947 14.2487C8.23945 14.1809 8.2229 14.0939 8.16084 14.0452C8.15761 14.0427 8.03583 13.9471 7.85151 13.7881C7.88076 13.7773 7.90668 13.7574 7.92534 13.7305C7.96486 13.6735 7.96214 13.5971 7.91873 13.5432C7.91526 13.5389 7.79329 13.3856 7.62525 13.1527C7.6807 13.1958 7.7362 13.2398 7.79156 13.2754C7.81762 13.2919 7.84715 13.3002 7.87645 13.3002C7.91611 13.3002 7.95534 13.2852 7.98553 13.2561C7.99795 13.2441 8.00765 13.2303 8.01529 13.2156C8.11045 13.3173 8.21048 13.4096 8.31553 13.4884C8.32922 13.4987 8.34581 13.4984 8.36123 13.5036C8.40572 13.5782 8.45208 13.653 8.50059 13.7277C9.45328 15.1936 10.7966 15.9788 12.4078 16.0259C12.2594 16.116 12.0984 16.2091 11.8433 16.3084C11.7877 16.33 11.7385 16.3518 11.689 16.3736C11.6652 16.3782 11.6428 16.3869 11.6241 16.4017C11.179 16.6077 10.9947 16.8113 10.9199 16.9537C10.8453 17.0952 10.9096 17.2405 11.0008 17.3159C11.0292 17.3392 11.0652 17.3511 11.1013 17.3511C11.1261 17.3511 11.151 17.3456 11.1735 17.3343C11.229 17.3067 11.266 17.2481 11.2636 17.1866C11.27 17.1795 11.2973 17.1568 11.3828 17.1541C11.4451 17.1489 11.5763 17.163 11.7293 17.1752C11.8749 17.1872 12.0496 17.2008 12.2353 17.2104C12.1192 17.3458 11.9841 17.5028 11.9841 17.5028C11.9435 17.55 11.9346 17.6168 11.9616 17.6728C11.9887 17.7292 12.0471 17.7641 12.1084 17.762C12.2323 17.7577 12.3166 17.7552 12.3719 17.754C12.4202 17.8172 12.4793 17.8423 12.5175 17.8521C12.6253 17.8796 12.7328 17.8365 12.8139 17.7853C12.8752 17.8294 12.9365 17.8481 12.985 17.8551C13.0946 17.8701 13.196 17.8383 13.2694 17.8021C13.3454 17.8511 13.4198 17.8637 13.4765 17.8637C13.4773 17.8637 13.4782 17.8637 13.4791 17.8637C13.6015 17.8631 13.7086 17.8039 13.7844 17.7461C13.8514 17.7859 13.9154 17.7987 13.9649 17.8009C14.0772 17.8049 14.1704 17.7617 14.2323 17.7212C14.4533 17.7656 14.6439 17.6614 14.7699 17.5466C14.8274 17.58 14.8821 17.5882 14.9256 17.5861C15.0375 17.5821 15.1229 17.5141 15.1776 17.4531C15.4282 17.4834 15.6081 17.4371 15.7122 17.3137C15.7688 17.2466 15.7919 17.1709 15.7981 17.1019C16.4936 17.098 16.5565 16.7183 16.5616 16.6714C16.5662 16.6288 16.5532 16.5863 16.5255 16.5535C16.4979 16.5207 16.4579 16.5004 16.4152 16.498L14.592 16.3883C14.5156 16.3828 14.4476 16.434 14.4299 16.5085C14.4295 16.5097 14.3985 16.6255 14.3011 16.718C14.1703 16.843 13.9596 16.909 13.7303 16.9439C13.7312 16.9229 13.7282 16.9016 13.7202 16.8807C13.6889 16.7998 13.5979 16.7606 13.5173 16.791C13.1409 16.937 12.5315 16.9187 12.0547 16.8855C12.1279 16.8257 12.2159 16.7666 12.2862 16.7279C12.3457 16.6951 12.3775 16.628 12.365 16.5612C12.3558 16.5127 12.3208 16.4789 12.2784 16.4572C12.411 16.3903 12.5197 16.3256 12.6228 16.2627C12.8018 16.153 12.9709 16.0497 13.2789 15.9428C13.8734 15.7362 14.5612 15.6734 14.5681 15.6728C14.5837 15.6716 14.5991 15.6676 14.6137 15.6618C14.6382 15.6517 16.5786 14.8388 17.4928 12.9632C17.4809 13.0198 17.468 13.0716 17.454 13.117C17.4301 13.1942 17.4688 13.2767 17.5432 13.3079C17.6008 13.3321 17.6662 13.3196 17.7105 13.2785C17.6527 13.4308 17.6005 13.5506 17.5579 13.6214C17.5144 13.6934 17.5354 13.7869 17.6054 13.8334C17.6218 13.8442 17.6394 13.8515 17.6575 13.8558C17.5867 13.9594 17.515 14.0574 17.4435 14.1472C17.3958 14.207 17.3985 14.2922 17.4484 14.3486C17.3255 14.4772 17.2166 14.5833 17.1338 14.6507C17.0797 14.6945 17.0621 14.7677 17.087 14.8302C17.0071 14.8759 16.9416 14.9081 16.896 14.9218C16.8197 14.9448 16.7729 15.0217 16.7872 15.1002C16.7947 15.1415 16.818 15.1765 16.8502 15.1995C16.7543 15.2252 16.6493 15.2501 16.5353 15.2727C16.4711 15.2855 16.4217 15.3367 16.4111 15.4014C16.4007 15.466 16.4313 15.5304 16.4881 15.5629C16.4931 15.5656 16.5466 15.5959 16.6286 15.6309C16.3251 15.7531 15.7832 15.9128 14.894 16.0004C14.8079 16.009 14.7447 16.0859 14.7533 16.172C14.7618 16.2581 14.8362 16.3179 14.925 16.313C16.613 16.146 17.1343 15.7234 17.1555 15.7054C17.2042 15.6646 17.2236 15.5981 17.2042 15.5374C17.1914 15.4973 17.1632 15.4648 17.127 15.4461C17.6663 15.2764 17.8979 15.0885 17.91 15.0784C17.9691 15.0294 17.984 14.9445 17.9451 14.8781C17.9058 14.8115 17.8242 14.7828 17.7529 14.8115C17.7329 14.8192 17.7008 14.8271 17.6604 14.8351C18.0223 14.5872 18.4065 14.2921 18.5755 14.1604C18.6052 14.1383 18.6322 14.1171 18.656 14.0972C18.7215 14.042 18.7307 13.9446 18.6766 13.8781C18.6229 13.8119 18.525 13.8009 18.4579 13.8539C18.4334 13.8732 18.408 13.8932 18.3816 13.9137C18.3036 13.9716 18.2038 14.0372 18.0951 14.1046C18.5058 13.6383 18.9193 13.1327 19.0374 12.9874C19.0482 12.9742 19.0587 12.9611 19.0695 12.9479C19.1237 12.8805 19.1131 12.7818 19.0457 12.7276C18.9781 12.6724 18.8793 12.6837 18.8252 12.7509L18.8249 12.7512L18.8248 12.7515C18.8219 12.7549 18.8085 12.7714 18.7861 12.799C18.6623 12.9501 18.5321 13.0962 18.4036 13.2329C18.822 12.4745 19.1388 11.7281 19.1853 11.6174C19.187 11.6134 19.1885 11.6095 19.1902 11.6055C19.2235 11.5256 19.1857 11.4337 19.1057 11.4006ZM11.7524 16.6892L11.7952 16.6947C11.7427 16.7438 11.7 16.7989 11.666 16.8557C11.5914 16.8497 11.5239 16.8445 11.4709 16.8421C11.5439 16.7944 11.6378 16.7426 11.7524 16.6892Z" fill="#FFE15A"/>
</g>
<defs>
<clipPath id="clip0_11208_15335">
<rect width="24" height="24" fill="white"/>
</clipPath>
</defs>
</svg>
