<svg width="14" height="17" viewBox="0 0 14 17" fill="none" xmlns="http://www.w3.org/2000/svg">
<path d="M5.88194 16.7268H0V0.248779H5.93055C7.59954 0.248779 9.03626 0.578661 10.2407 1.23843C11.4452 1.89283 12.3715 2.8342 13.0197 4.06254C13.6732 5.29088 14 6.7606 14 8.47169C14 10.1882 13.6732 11.6632 13.0197 12.8969C12.3715 14.1306 11.4398 15.0774 10.2245 15.7371C9.01466 16.3969 7.56713 16.7268 5.88194 16.7268ZM3.5081 13.7418H5.73611C6.77315 13.7418 7.64545 13.5594 8.35301 13.1946C9.06597 12.8245 9.60069 12.2533 9.95718 11.4809C10.3191 10.7031 10.5 9.70003 10.5 8.47169C10.5 7.25408 10.3191 6.25907 9.95718 5.48666C9.60069 4.71426 9.06867 4.14568 8.36111 3.78093C7.65355 3.41618 6.78125 3.23381 5.74421 3.23381H3.5081V13.7418Z" fill="#061018"/>
</svg>
