<svg width="24" height="25" viewBox="0 0 24 25" fill="none" xmlns="http://www.w3.org/2000/svg">
<path d="M19.6457 6.75404L18.0026 5.11023C17.8729 4.985 17.6992 4.9157 17.519 4.91727C17.3387 4.91883 17.1663 4.99114 17.0388 5.11861C16.9113 5.24607 16.839 5.41851 16.8375 5.59877C16.8359 5.77903 16.9052 5.95269 17.0304 6.08236L18.6736 7.72617C18.802 7.85541 18.8744 8.03003 18.875 8.21223V15.7122C18.875 15.8033 18.8388 15.8908 18.7743 15.9552C18.7099 16.0197 18.6224 16.0559 18.5313 16.0559C18.4401 16.0559 18.3526 16.0197 18.2882 15.9552C18.2237 15.8908 18.1875 15.8033 18.1875 15.7122V12.4548C18.1857 11.8824 17.9752 11.3303 17.5956 10.9019C17.2159 10.4735 16.6931 10.1982 16.125 10.1276V4.92529C16.125 4.37828 15.9077 3.85368 15.5209 3.46689C15.1341 3.08009 14.6095 2.86279 14.0625 2.86279H6.5C5.95299 2.86279 5.42839 3.08009 5.04159 3.46689C4.6548 3.85368 4.4375 4.37828 4.4375 4.92529V18.1727C4.22858 18.2934 4.05507 18.4668 3.9344 18.6757C3.81372 18.8846 3.75013 19.1216 3.75 19.3628V20.7378C3.75 21.1025 3.89487 21.4522 4.15273 21.7101C4.41059 21.9679 4.76033 22.1128 5.125 22.1128H15.4375C15.8022 22.1128 16.1519 21.9679 16.4098 21.7101C16.6676 21.4522 16.8125 21.1025 16.8125 20.7378V19.3628C16.8124 19.1216 16.7488 18.8846 16.6281 18.6757C16.5074 18.4668 16.3339 18.2934 16.125 18.1727V11.5253C16.3236 11.5875 16.4973 11.7113 16.621 11.8787C16.7446 12.0462 16.8116 12.2487 16.8125 12.4569V15.7122C16.8125 16.168 16.9936 16.6052 17.3159 16.9275C17.6382 17.2498 18.0754 17.4309 18.5313 17.4309C18.9871 17.4309 19.4243 17.2498 19.7466 16.9275C20.0689 16.6052 20.25 16.168 20.25 15.7122V8.21223C20.2508 7.94127 20.1979 7.67283 20.0941 7.42251C19.9904 7.17219 19.838 6.94497 19.6457 6.75404ZM14.0625 9.05029C14.0625 9.23263 13.9901 9.4075 13.8611 9.53643C13.7322 9.66536 13.5573 9.73779 13.375 9.73779H7.1875C7.00516 9.73779 6.8303 9.66536 6.70136 9.53643C6.57243 9.4075 6.5 9.23263 6.5 9.05029V5.61279C6.5 5.43046 6.57243 5.25559 6.70136 5.12666C6.8303 4.99773 7.00516 4.92529 7.1875 4.92529H13.375C13.5573 4.92529 13.7322 4.99773 13.8611 5.12666C13.9901 5.25559 14.0625 5.43046 14.0625 5.61279V9.05029Z" fill="white"/>
</svg>
