<svg width="24" height="24" viewBox="0 0 24 24" fill="none" xmlns="http://www.w3.org/2000/svg">
<path d="M15 12L2 12M2 12L5.5 9M2 12L5.5 15" stroke="#E93B50" stroke-width="2" stroke-linecap="round" stroke-linejoin="round"/>
<path d="M9 7C9.01211 4.82497 9.10856 3.64706 9.87694 2.87868C10.7556 2 12.1698 2 14.9983 2L15.9983 2C18.8267 2 20.2409 2 21.1196 2.87868C21.9983 3.75736 21.9983 5.17157 21.9983 8L21.9983 16C21.9983 18.8284 21.9983 20.2426 21.1196 21.1213C20.3512 21.8897 19.1732 21.9862 16.998 21.9983M9 17C9.01211 19.175 9.10856 20.3529 9.87694 21.1213C10.5182 21.7626 11.4447 21.9359 12.998 21.9827" stroke="#E93B50" stroke-width="2" stroke-linecap="round"/>
</svg>
