<svg width="45" height="44" viewBox="0 0 45 44" fill="none" xmlns="http://www.w3.org/2000/svg">
<path d="M22.4987 26.5833V30.25M13.332 18.3861C14.1963 18.3333 15.2618 18.3333 16.632 18.3333H28.3654C29.7356 18.3333 30.8011 18.3333 31.6654 18.3861M13.332 18.3861C12.2534 18.452 11.4882 18.6 10.8351 18.9328C9.80019 19.4601 8.9588 20.3015 8.4315 21.3364C7.83203 22.5129 7.83203 24.053 7.83203 27.1333V29.7C7.83203 32.7803 7.83203 34.3204 8.4315 35.4969C8.9588 36.5318 9.80019 37.3732 10.8351 37.9005C12.0116 38.5 13.5517 38.5 16.632 38.5H28.3654C31.4457 38.5 32.9858 38.5 34.1623 37.9005C35.1972 37.3732 36.0386 36.5318 36.5659 35.4969C37.1654 34.3204 37.1654 32.7803 37.1654 29.7V27.1333C37.1654 24.053 37.1654 22.5129 36.5659 21.3364C36.0386 20.3015 35.1972 19.4601 34.1623 18.9328C33.5092 18.6 32.7439 18.452 31.6654 18.3861M13.332 18.3861V14.6667C13.332 9.60406 17.4361 5.5 22.4987 5.5C27.5613 5.5 31.6654 9.60406 31.6654 14.6667V18.3861" stroke="white" stroke-width="4" stroke-linecap="round" stroke-linejoin="round"/>
</svg>
