<svg width="28" height="28" viewBox="0 0 28 28" fill="none" xmlns="http://www.w3.org/2000/svg">
<g clip-path="url(#clip0_13709_3304)">
<path d="M17.5 22.0675L10.5 23.4675V5.96753L17.5 4.56753V22.0675ZM8.75004 5.88003L2.83505 4.37503C2.7059 4.34225 2.57098 4.33941 2.44057 4.3667C2.31016 4.394 2.18771 4.45071 2.08255 4.53253C1.97469 4.61762 1.88838 4.72692 1.83062 4.85157C1.77285 4.97622 1.74525 5.11272 1.75005 5.25003V21C1.74422 21.1999 1.80704 21.3958 1.92803 21.555C2.04903 21.7142 2.2209 21.8271 2.41505 21.875L8.75004 23.4325V5.88003ZM25.585 6.12503L19.25 4.56753V22.12L25.165 23.625C25.2348 23.6335 25.3053 23.6335 25.375 23.625C25.6071 23.625 25.8297 23.5328 25.9938 23.3687C26.1579 23.2047 26.25 22.9821 26.25 22.75V7.00003C26.2559 6.80015 26.1931 6.6043 26.0721 6.4451C25.9511 6.28589 25.7792 6.17293 25.585 6.12503Z" fill="#C6CDCE"/>
</g>
<defs>
<clipPath id="clip0_13709_3304">
<rect width="28" height="28" fill="white"/>
</clipPath>
</defs>
</svg>
