<svg width="24" height="24" viewBox="0 0 24 24" fill="none" xmlns="http://www.w3.org/2000/svg">
<path d="M6.10595 12.0461C4.90496 11.6188 4.30447 11.4051 4.12555 11.081C3.97051 10.8002 3.96326 10.4611 4.10616 10.1739C4.27106 9.84243 4.86187 9.60329 6.04349 9.12502L17.1812 4.61688C18.345 4.14583 18.9269 3.91031 19.2945 4.03107C19.6136 4.13588 19.8638 4.38613 19.9686 4.7052C20.0894 5.0728 19.8539 5.65469 19.3828 6.81845L14.8747 17.9562C14.3964 19.1378 14.1573 19.7286 13.8258 19.8935C13.5386 20.0364 13.1995 20.0292 12.9187 19.8741C12.5946 19.6952 12.3809 19.0947 11.9536 17.8937L10.6452 14.2168C10.5621 13.9831 10.5205 13.8663 10.4526 13.7687C10.3925 13.6823 10.3174 13.6072 10.231 13.5471C10.1334 13.4792 10.0166 13.4376 9.78293 13.3545L6.10595 12.0461Z" stroke="#2684FC" stroke-width="2" stroke-linecap="round" stroke-linejoin="round"/>
</svg>
