<svg width="12" height="12" viewBox="0 0 12 12" fill="none" xmlns="http://www.w3.org/2000/svg">
<path d="M3.05297 6.02308C2.45248 5.80942 2.15223 5.70258 2.06278 5.54053C1.98526 5.40011 1.98163 5.23057 2.05308 5.08696C2.13553 4.92123 2.43093 4.80166 3.02175 4.56252L8.59062 2.30846C9.1725 2.07293 9.46344 1.95517 9.64724 2.01555C9.80678 2.06796 9.9319 2.19308 9.98431 2.35262C10.0447 2.53642 9.92693 2.82736 9.6914 3.40924L7.43734 8.97811C7.1982 9.56893 7.07863 9.86433 6.91291 9.94678C6.76929 10.0182 6.59975 10.0146 6.45933 9.93708C6.29728 9.84763 6.19044 9.54738 5.97678 8.94689L5.3226 7.1084C5.28104 6.99157 5.26025 6.93316 5.2263 6.88438C5.19623 6.84116 5.1587 6.80363 5.11548 6.77356C5.0667 6.73961 5.00829 6.71882 4.89146 6.67726L3.05297 6.02308Z" stroke="#666E79" stroke-linecap="round" stroke-linejoin="round"/>
</svg>
