<svg width="24" height="24" viewBox="0 0 24 24" fill="none" xmlns="http://www.w3.org/2000/svg">
<path d="M14.3322 5.67375C16.8916 8.05375 19.4422 11.195 19.2322 14.9094C19.1531 16.2263 18.6762 17.4862 17.9635 18.5883C16.9222 20.1944 15.2641 21.2925 13.3829 21.625C16.5106 18.7812 14.4897 13.5969 11.5235 11.4837L11.2172 11.2738C11.3091 12.3767 11.3358 13.3563 10.7622 14.3231C10.3029 15.0936 9.69912 15.7756 9.37975 16.62C8.69331 18.3525 9.18287 20.4219 10.6179 21.625C8.73662 21.2925 7.07412 20.1944 6.03725 18.5888C4.71556 16.5413 4.36162 14.0042 5.28037 11.7156C6.24725 9.10375 8.89456 7.30562 9.35787 4.47938C9.46725 3.77938 9.45412 3.06669 9.31412 2.375C11.1472 3.21062 12.8404 4.32188 14.3322 5.67375Z" fill="white"/>
</svg>
