<svg width="48" height="48" viewBox="0 0 48 48" fill="none" xmlns="http://www.w3.org/2000/svg">
<g clip-path="url(#clip0_7811_22105)">
<rect width="48" height="48" rx="10" fill="#E93B50" fill-opacity="0.2"/>
<g clip-path="url(#clip1_7811_22105)">
<path d="M35.5013 29.9976L27.0233 14.4128C25.6612 12.1196 22.3407 12.1166 20.9767 14.4128L12.4991 29.9976C11.1066 32.3408 12.7925 35.3081 15.5217 35.3081H32.478C35.2049 35.3081 36.8938 32.3432 35.5013 29.9976Z" fill="#E93B50"/>
<path d="M24 32.4956C23.2248 32.4956 22.5938 31.8646 22.5938 31.0894C22.5938 30.3141 23.2248 29.6831 24 29.6831C24.7752 29.6831 25.4063 30.3141 25.4063 31.0894C25.4063 31.8646 24.7752 32.4956 24 32.4956ZM25.4063 26.8706C25.4063 27.6458 24.7752 28.2769 24 28.2769C23.2248 28.2769 22.5938 27.6458 22.5938 26.8706V19.8394C22.5938 19.0641 23.2248 18.4331 24 18.4331C24.7752 18.4331 25.4063 19.0641 25.4063 19.8394V26.8706Z" fill="white"/>
</g>
</g>
<defs>
<clipPath id="clip0_7811_22105">
<rect width="48" height="48" rx="10" fill="white"/>
</clipPath>
<clipPath id="clip1_7811_22105">
<rect width="24" height="24" fill="white" transform="translate(12 12)"/>
</clipPath>
</defs>
</svg>
