<svg width="24" height="24" viewBox="0 0 24 24" fill="none" xmlns="http://www.w3.org/2000/svg">
<path d="M11.6501 12.0003C6.42343 12.0003 2.08915 15.8982 1.28793 21H6.15905C6.8752 18.5992 9.06266 16.8524 11.65 16.8524C12.4845 16.8524 13.2774 17.0341 13.9928 17.3608L17.141 13.5809C15.5437 12.5785 13.6631 12.0003 11.6501 12.0003Z" fill="white"/>
<path d="M19.6229 10.8706C19.6328 10.9439 19.6139 11.0212 19.563 11.0782L18.215 12.7306L18.1731 12.7813L14.3464 17.4692L11.6462 20.7797C11.5582 20.8866 11.4355 20.9535 11.3063 20.9717C11.1579 20.9925 11.001 20.9497 10.8792 20.8423C10.6521 20.6402 10.6335 20.2844 10.837 20.0568L12.279 18.4509L13.4846 17.1171L17.7193 12.4168L17.8767 12.2454L19.1747 10.7294C19.2174 10.6836 19.2722 10.656 19.3296 10.6479C19.344 10.6459 19.3583 10.6439 19.3733 10.6468C19.495 10.6447 19.6004 10.7394 19.6229 10.8706Z" fill="white"/>
<path d="M15.0935 3H8.08579L3.87674 13.8115C5.67599 12.1691 7.97834 11.0869 10.5195 10.8381L11.3875 8.42664H11.7917L12.6598 10.8381C14.17 10.986 15.5958 11.4282 16.8818 12.1074L17.1172 11.8463L17.2675 11.6826L18.0967 10.7142L15.0935 3Z" fill="white"/>
<path d="M18.0602 14.229C20.1263 15.8574 21.5808 18.2543 22.012 21H17.1408C16.7724 19.765 16.0146 18.703 15.0133 17.9628L18.0602 14.229Z" fill="white"/>
</svg>
