<svg width="20" height="20" viewBox="0 0 20 20" fill="none" xmlns="http://www.w3.org/2000/svg">
<path d="M3.06586 9.44444H2.31586H3.06586ZM3.06586 10.8333L2.53762 11.3657C2.83003 11.6559 3.30169 11.6559 3.5941 11.3657L3.06586 10.8333ZM4.99394 9.97685C5.28799 9.68511 5.28985 9.21024 4.99811 8.9162C4.70637 8.62216 4.2315 8.6203 3.93746 8.91204L4.99394 9.97685ZM2.19426 8.91204C1.90022 8.6203 1.42535 8.62216 1.13361 8.9162C0.841866 9.21024 0.843731 9.68511 1.13777 9.97685L2.19426 8.91204ZM15.4058 6.22612C15.6228 6.57899 16.0847 6.68918 16.4375 6.47225C16.7904 6.25532 16.9006 5.79341 16.6837 5.44054L15.4058 6.22612ZM10.0651 1.75C5.79086 1.75 2.31586 5.18938 2.31586 9.44444H3.81586C3.81586 6.02889 6.60816 3.25 10.0651 3.25V1.75ZM2.31586 9.44444L2.31586 10.8333H3.81586L3.81586 9.44444L2.31586 9.44444ZM3.5941 11.3657L4.99394 9.97685L3.93746 8.91204L2.53762 10.3009L3.5941 11.3657ZM3.5941 10.3009L2.19426 8.91204L1.13777 9.97685L2.53762 11.3657L3.5941 10.3009ZM16.6837 5.44054C15.3231 3.22738 12.867 1.75 10.0651 1.75V3.25C12.3281 3.25 14.3087 4.44155 15.4058 6.22612L16.6837 5.44054Z" fill="#061018"/>
<path d="M16.9289 9.16675L17.4561 8.63333C17.164 8.34455 16.6938 8.34455 16.4017 8.63333L16.9289 9.16675ZM14.9965 10.0222C14.7019 10.3134 14.6991 10.7883 14.9903 11.0829C15.2815 11.3775 15.7563 11.3802 16.0509 11.0891L14.9965 10.0222ZM17.8069 11.0891C18.1015 11.3802 18.5763 11.3775 18.8675 11.0829C19.1587 10.7883 19.1559 10.3134 18.8613 10.0222L17.8069 11.0891ZM4.53864 13.7729C4.32111 13.4204 3.85901 13.311 3.50651 13.5285C3.15402 13.746 3.04461 14.2081 3.26214 14.5606L4.53864 13.7729ZM9.90293 18.2501C14.1892 18.2501 17.6789 14.8134 17.6789 10.5556H16.1789C16.1789 13.9685 13.3773 16.7501 9.90293 16.7501V18.2501ZM17.6789 10.5556V9.16675H16.1789V10.5556H17.6789ZM16.4017 8.63333L14.9965 10.0222L16.0509 11.0891L17.4561 9.70016L16.4017 8.63333ZM16.4017 9.70016L17.8069 11.0891L18.8613 10.0222L17.4561 8.63333L16.4017 9.70016ZM3.26214 14.5606C4.62804 16.774 7.09266 18.2501 9.90293 18.2501V16.7501C7.62886 16.7501 5.63984 15.5573 4.53864 13.7729L3.26214 14.5606Z" fill="#061018"/>
</svg>
