<svg width="24" height="24" viewBox="0 0 24 24" fill="none" xmlns="http://www.w3.org/2000/svg">
<g clip-path="url(#clip0_11208_15449)">
<path d="M22.71 1.70625C22.0977 1.01547 21.2937 0.493508 20.3848 0.211426V1.70625H22.71Z" fill="#D81E34"/>
<path d="M20.3848 3.41969H23.7196C23.5019 2.77821 23.1563 2.19942 22.71 1.7063H20.3848V3.41969Z" fill="#E8E8E8"/>
<path d="M23.9858 4.79373C23.9595 4.31565 23.8684 3.8568 23.7196 3.41968H20.3848V5.13934H23.9996V5.08334C23.9996 4.98471 23.9996 4.89277 23.9858 4.79373Z" fill="#D81E34"/>
<path d="M20.3848 5.13928H23.9996V6.85351H20.3848V5.13928Z" fill="#E8E8E8"/>
<path d="M20.3848 6.85315H23.9996V8.5657H20.3848V6.85315Z" fill="#D81E34"/>
<path d="M20.3848 8.56567H23.9996V10.2866H20.3848V8.56567Z" fill="#E8E8E8"/>
<path d="M20.3848 10.2861H23.9996V11.9999H20.3848V10.2861Z" fill="#D81E34"/>
<path d="M20.3848 12H23.9996V13.7134H20.3848V12Z" fill="#E8E8E8"/>
<path d="M0.000976562 13.7139V15.4331H23.9993V13.7139H20.3845H0.000976562Z" fill="#D81E34"/>
<path d="M0.000976562 15.4331H23.9993V17.1477H0.000976562V15.4331Z" fill="#E8E8E8"/>
<path d="M0.000976562 17.1477H23.9993V18.8603H0.000976562V17.1477Z" fill="#D81E34"/>
<path d="M0.000976562 18.9163C0.000976562 19.0153 0.000976598 19.1073 0.0156031 19.2059C0.0423487 19.6852 0.134705 20.1424 0.282641 20.5804H23.7193C23.8677 20.1424 23.9592 19.6852 23.9855 19.2059C23.9993 19.1068 23.9993 19.0153 23.9993 18.9163V18.8599H0.000976562V18.9163Z" fill="#E8E8E8"/>
<path d="M1.28937 22.2937H22.7092C23.1556 21.7998 23.5012 21.2226 23.7189 20.5803H0.282227C0.499952 21.2226 0.846391 21.7998 1.28937 22.2937Z" fill="#D81E34"/>
<path d="M5.08457 24H18.9179C20.4261 24 21.7885 23.3439 22.7099 22.2937H1.29004C2.21318 23.3439 3.57553 24 5.08457 24Z" fill="#E8E8E8"/>
<path d="M20.3845 12V10.2862V8.56528V6.85273V5.1385V3.41884V1.70545V0.211457C19.9202 0.0773114 19.4279 0 18.9176 0H5.08431C2.37674 0 0.155182 2.12168 0.0156031 4.79373C0.000976598 4.89277 0.000976562 4.98471 0.000976562 5.08292V13.7134H20.3841L20.3845 12ZM6.22852 12.0004C6.04966 12.0004 5.87414 11.9912 5.7003 11.9733C4.01156 11.8023 2.56855 10.8148 1.76201 9.41236C1.32948 8.65889 1.07874 7.78631 1.07874 6.85314C1.07874 6.63249 1.09671 6.41686 1.12346 6.20414C1.22542 5.39049 1.51461 4.63493 1.9509 3.98468C2.74909 2.80035 4.02744 1.9704 5.50639 1.7627C5.74209 1.72927 5.98154 1.70629 6.22727 1.70629H6.22811H6.22894C6.47216 1.70629 6.70953 1.72885 6.9448 1.76187C6.94731 1.76187 6.94982 1.76228 6.95316 1.7627C7.43166 1.82998 7.88842 1.96288 8.31552 2.15344C8.80613 2.372 9.26081 2.66077 9.65739 3.01557C9.65238 3.01222 9.64694 3.01013 9.64193 3.00721C9.64611 3.01097 9.65029 3.01389 9.65489 3.01766C9.15549 2.7105 8.59384 2.49904 7.99164 2.4046C7.7664 2.36991 7.53613 2.3486 7.30211 2.3486C4.81602 2.3486 2.79589 4.36538 2.79589 6.85356C2.79589 9.34174 4.81602 11.3585 7.30211 11.3585C7.44419 11.3585 7.5821 11.3418 7.72168 11.3289C7.8972 11.3121 8.06937 11.2858 8.23904 11.2507C8.25199 11.2478 8.2637 11.2432 8.27665 11.2407C8.43336 11.2064 8.58673 11.1663 8.73718 11.117C8.74219 11.1157 8.74553 11.1132 8.7493 11.112C9.06774 11.005 9.37197 10.8637 9.6553 10.689C9.64945 10.6928 9.64569 10.6966 9.64151 10.6999C9.64653 10.6966 9.65196 10.6945 9.65781 10.6911C8.74177 11.5006 7.54198 12.0004 6.22852 12.0004ZM15.5548 5.90075L13.0938 6.85314L15.5548 7.8047H15.5523L15.5565 7.80679L12.9291 7.59659L14.7274 9.53188L12.4477 8.19753L13.2355 10.7175L13.2313 10.7108L13.2329 10.7154L11.7557 8.52474L11.3729 11.1471L11.372 11.1437L11.3712 11.1471L11.0987 9.27153L11.021 8.72784L10.9947 8.53603L10.993 8.52516L9.73763 10.3831L9.51238 10.7175L9.64611 10.2908L10.3056 8.19544L9.84419 8.46498L8.02466 9.5323L8.03134 9.52645L8.0209 9.5323L9.4125 8.04081L9.82539 7.597L7.19304 7.80721L7.19889 7.8047L7.1922 7.80512L9.66032 6.85356L7.1922 5.90117L7.19972 5.90158L7.19345 5.89866L9.82664 6.11012L9.64151 5.90994L8.02131 4.17816L8.02716 4.18193L8.02549 4.18067L9.10117 4.80878L10.306 5.51168L9.66617 3.47609L9.5128 2.98966L9.52993 3.01515L10.9934 5.18029L10.9951 5.16901L11.0214 4.97719L11.0991 4.43517L11.3716 2.56632L11.3725 2.56841L11.3733 2.5634L11.7561 5.18029L13.2334 2.99091L13.2317 2.99593L13.2359 2.98924L12.4481 5.50876L14.7278 4.17775L14.7236 4.18234L14.7278 4.18025L12.9287 6.10928L15.5565 5.89866L15.5506 5.90117L15.5548 5.90075Z" fill="#313F99"/>
<path d="M8.74896 11.1119C8.74478 11.1132 8.74144 11.1157 8.73684 11.1169C8.58682 11.1662 8.43303 11.2063 8.27632 11.2406C8.26336 11.2431 8.25166 11.2477 8.2387 11.2506C8.06904 11.2858 7.89686 11.3121 7.72134 11.3288C7.58177 11.3417 7.44386 11.3585 7.30177 11.3585C4.81569 11.3585 2.79556 9.34168 2.79556 6.8535C2.79556 4.36533 4.81569 2.34854 7.30177 2.34854C7.53622 2.34854 7.76606 2.36985 7.99131 2.40454C8.5864 2.49731 9.14304 2.70376 9.64159 3.00673C9.64661 3.00966 9.65204 3.01175 9.65706 3.01509C9.26047 2.66029 8.8058 2.37194 8.31518 2.15296C7.8885 1.9624 7.43049 1.82993 6.95283 1.76223C6.9499 1.76181 6.94739 1.76139 6.94489 1.76139C6.70961 1.72838 6.47224 1.70581 6.22902 1.70581C6.22819 1.70581 6.22819 1.70581 6.22819 1.70581C5.98246 1.70581 5.74342 1.72879 5.50815 1.76223C4.02878 1.97034 2.74959 2.80071 1.95224 3.98629C1.51553 4.63571 1.22676 5.39085 1.12479 6.20409C1.09805 6.4168 1.08008 6.63202 1.08008 6.85308C1.08008 7.78542 1.33082 8.65674 1.76334 9.41063C2.56989 10.8131 4.01374 11.8023 5.70163 11.9732C5.87548 11.9907 6.051 12.0004 6.22986 12.0004C7.54332 12.0004 8.74311 11.5006 9.65789 10.6911C9.65204 10.6944 9.64661 10.6965 9.64159 10.6999C9.36118 10.8699 9.06239 11.007 8.74896 11.1119Z" fill="#F5D02C"/>
<path d="M12.9292 6.10965L12.9242 6.11007L14.7241 4.18272L14.7278 4.17812L12.4482 5.50913L12.4452 5.51164L13.2317 2.9963L13.2334 2.99087L11.7561 5.18024L11.3733 2.56335L11.3725 2.56837L11.1 4.43722L11.0256 4.9784L10.9956 5.16896L10.9939 5.18024L9.5304 3.0151L9.5141 2.99087L9.66663 3.47605L10.3064 5.51164L9.10205 4.80873L8.02763 4.18188L8.0222 4.17812L9.64198 5.9099L9.82836 6.11007H9.82752L7.19434 5.89861L7.20102 5.90112L9.66162 6.8531L7.20019 7.80424L7.19434 7.80716L9.82669 7.59654L9.82836 7.59612L9.4138 8.04035L8.0222 9.53184L8.03264 9.52599L9.84549 8.46494L10.3064 8.19539L9.64699 10.2907L9.5141 10.7153L9.73851 10.3827L10.9939 8.52512L10.9956 8.53598L11.0256 8.73072L11.1 9.26898L11.3725 11.1441L11.3733 11.147L11.7561 8.52512L13.2334 10.7153L13.2317 10.7107L12.4452 8.19539L12.4482 8.19748L14.7278 9.53184L12.9242 7.59612L12.93 7.59654L15.5574 7.80716L15.5532 7.80466L13.0913 6.8531L15.5515 5.90112L15.5574 5.89861L12.9292 6.10965Z" fill="#F5D02C"/>
</g>
<defs>
<clipPath id="clip0_11208_15449">
<rect width="24" height="24" fill="white"/>
</clipPath>
</defs>
</svg>
