<svg width="24" height="24" viewBox="0 0 24 24" fill="none" xmlns="http://www.w3.org/2000/svg">
<path d="M15.2122 7.33252H9.58789V17.1432H15.2122V7.33252Z" fill="#FF5F00"/>
<path d="M9.94458 12.2405C9.94381 11.2958 10.1644 10.3633 10.5898 9.51363C11.0151 8.66393 11.634 7.91928 12.3997 7.33601C11.4514 6.61268 10.3126 6.16289 9.11342 6.03803C7.91424 5.91318 6.70306 6.1183 5.61831 6.62996C4.53356 7.14162 3.619 7.93917 2.97915 8.93146C2.33931 9.92375 2 11.0707 2 12.2414C2 13.412 2.33931 14.559 2.97915 15.5513C3.619 16.5435 4.53356 17.3411 5.61831 17.8528C6.70306 18.3644 7.91424 18.5695 9.11342 18.4447C10.3126 18.3198 11.4514 17.87 12.3997 17.1467C11.6338 16.5633 11.0147 15.8183 10.5894 14.9683C10.164 14.1183 9.94354 13.1855 9.94458 12.2405Z" fill="#EB001B"/>
<path d="M22.801 12.2405C22.801 13.4112 22.4616 14.5583 21.8216 15.5506C21.1817 16.5429 20.267 17.3405 19.1821 17.852C18.0972 18.3636 16.8859 18.5686 15.6866 18.4436C14.4874 18.3186 13.3486 17.8685 12.4004 17.145C13.1657 16.5612 13.7844 15.8163 14.2099 14.9666C14.6353 14.1168 14.8564 13.1844 14.8564 12.2396C14.8564 11.2949 14.6353 10.3624 14.2099 9.51268C13.7844 8.66294 13.1657 7.91808 12.4004 7.33429C13.3487 6.61065 14.4877 6.16061 15.6871 6.03564C16.8865 5.91067 18.0979 6.11582 19.1829 6.62761C20.2678 7.13941 21.1825 7.9372 21.8223 8.92978C22.4622 9.92236 22.8013 11.0697 22.801 12.2405Z" fill="#F79E1B"/>
<path d="M22.1836 16.1035V15.9024H22.2675V15.8626H22.0586V15.9042H22.1425V16.1052L22.1836 16.1035ZM22.596 16.1035V15.8608H22.5407L22.4657 16.0341L22.3907 15.8608H22.3246V16.1035H22.3621V15.9215L22.4318 16.0792H22.48L22.5496 15.9215V16.1052L22.596 16.1035Z" fill="#F79E1B"/>
</svg>
