<svg width="68" height="68" viewBox="0 0 68 68" fill="none" xmlns="http://www.w3.org/2000/svg">
<g filter="url(#filter0_d_77_414)">
<rect x="12" y="12" width="44" height="44" rx="22" fill="white" shape-rendering="crispEdges"/>
<circle cx="34" cy="34" r="18" fill="#34C759"/>
<path d="M36.3318 27.6738C38.8911 30.0538 41.4418 33.195 41.2318 36.9094C41.1526 38.2263 40.6757 39.4862 39.963 40.5883C38.9218 42.1944 37.2636 43.2925 35.3824 43.625C38.5101 40.7812 36.4893 35.5969 33.523 33.4837L33.2168 33.2738C33.3086 34.3767 33.3353 35.3563 32.7618 36.3231C32.3024 37.0936 31.6986 37.7756 31.3793 38.62C30.6928 40.3525 31.1824 42.4219 32.6174 43.625C30.7361 43.2925 29.0736 42.1944 28.0368 40.5888C26.7151 38.5413 26.3611 36.0042 27.2799 33.7156C28.2468 31.1038 30.8941 29.3056 31.3574 26.4794C31.4668 25.7794 31.4536 25.0667 31.3136 24.375C33.1468 25.2106 34.8399 26.3219 36.3318 27.6738Z" fill="white"/>
</g>
<defs>
<filter id="filter0_d_77_414" x="0" y="0" width="68" height="68" filterUnits="userSpaceOnUse" color-interpolation-filters="sRGB">
<feFlood flood-opacity="0" result="BackgroundImageFix"/>
<feColorMatrix in="SourceAlpha" type="matrix" values="0 0 0 0 0 0 0 0 0 0 0 0 0 0 0 0 0 0 127 0" result="hardAlpha"/>
<feOffset/>
<feGaussianBlur stdDeviation="6"/>
<feComposite in2="hardAlpha" operator="out"/>
<feColorMatrix type="matrix" values="0 0 0 0 0 0 0 0 0 0 0 0 0 0 0 0 0 0 0.08 0"/>
<feBlend mode="normal" in2="BackgroundImageFix" result="effect1_dropShadow_77_414"/>
<feBlend mode="normal" in="SourceGraphic" in2="effect1_dropShadow_77_414" result="shape"/>
</filter>
</defs>
</svg>
