<svg width="28" height="28" viewBox="0 0 28 28" fill="none" xmlns="http://www.w3.org/2000/svg">
    <rect width="28" height="28" rx="6" fill="#F2F2F7"/>
    <path d="M21.5564 13.8807L20.9144 13.4928L20.9144 13.4928L21.5564 13.8807ZM14.1196 6.44399L13.7317 5.80208L13.7317 5.80208L14.1196 6.44399ZM21.5837 14C21.5837 18.1882 18.1885 21.5834 14.0003 21.5834V23.0834C19.0169 23.0834 23.0837 19.0166 23.0837 14H21.5837ZM14.0003 21.5834C9.81217 21.5834 6.41699 18.1882 6.41699 14H4.91699C4.91699 19.0166 8.98374 23.0834 14.0003 23.0834V21.5834ZM6.41699 14C6.41699 9.81186 9.81217 6.41669 14.0003 6.41669V4.91669C8.98374 4.91669 4.91699 8.98343 4.91699 14H6.41699ZM16.917 15.75C14.3397 15.75 12.2503 13.6607 12.2503 11.0834H10.7503C10.7503 14.4891 13.5112 17.25 16.917 17.25V15.75ZM20.9144 13.4928C20.096 14.8473 18.6116 15.75 16.917 15.75V17.25C19.1583 17.25 21.1195 16.0538 22.1983 14.2686L20.9144 13.4928ZM12.2503 11.0834C12.2503 9.38877 13.1531 7.90432 14.5075 7.0859L13.7317 5.80208C11.9465 6.88081 10.7503 8.84203 10.7503 11.0834H12.2503ZM14.0003 6.41669C13.8925 6.41669 13.7735 6.36954 13.6872 6.27969C13.6124 6.20181 13.5908 6.12329 13.5851 6.08094C13.5763 6.01591 13.5916 5.88674 13.7317 5.80208L14.5075 7.0859C14.9776 6.80182 15.1261 6.28401 15.0716 5.88018C15.0147 5.45905 14.6784 4.91669 14.0003 4.91669V6.41669ZM22.1983 14.2686C22.1136 14.4087 21.9844 14.4241 21.9194 14.4153C21.8771 14.4096 21.7985 14.388 21.7207 14.3132C21.6308 14.2268 21.5837 14.1078 21.5837 14H23.0837C23.0837 13.3219 22.5413 12.9857 22.1202 12.9288C21.7163 12.8742 21.1985 13.0227 20.9144 13.4928L22.1983 14.2686Z" fill="#4D5B6E"/>
</svg>
