<svg width="28" height="28" viewBox="0 0 28 28" fill="none" xmlns="http://www.w3.org/2000/svg">
    <path fill-rule="evenodd" clip-rule="evenodd" d="M3.40428 10.4552C3.63656 10.4538 4.32688 10.3916 4.61928 11.3785C4.81625 12.0432 5.13001 13.1321 5.56056 14.6452H5.7359C6.19763 13.05 6.51481 11.9611 6.68744 11.3785C6.98289 10.3813 7.72152 10.4552 8.01698 10.4552L10.2965 10.4552V17.546H7.97315V13.3673H7.81735L6.52222 17.546H4.77423L3.4791 13.3642H3.32331V17.546H1V10.4552L3.40428 10.4552ZM13.6327 10.4552V14.637H13.818L15.3934 11.1983C15.6992 10.514 16.351 10.4552 16.351 10.4552H18.5993V17.546H16.2275V13.3642H16.0421L14.4976 16.8029C14.1918 17.4841 13.5091 17.546 13.5091 17.546H11.2608V10.4552H13.6327ZM26.7974 13.8248C26.4665 14.7623 25.4276 15.4338 24.2773 15.4338H21.7899V17.546H19.5345V13.8248H26.7974Z" fill="#0F754E"/>
    <path fill-rule="evenodd" clip-rule="evenodd" d="M24.3859 10.4552H19.416C19.5343 12.0338 20.8938 13.3853 22.3012 13.3853H26.9539C27.2224 12.0732 26.2981 10.4552 24.3859 10.4552Z" fill="url(#paint0_linear_17161_18968)"/>
    <defs>
        <linearGradient id="paint0_linear_17161_18968" x1="777.772" y1="194.771" x2="19.416" y2="194.771" gradientUnits="userSpaceOnUse">
            <stop stop-color="#1F5CD7"/>
            <stop offset="1" stop-color="#02AEFF"/>
        </linearGradient>
    </defs>
</svg>
