<svg width="16" height="16" viewBox="0 0 16 16" fill="none" xmlns="http://www.w3.org/2000/svg">
<g clip-path="url(#clip0_20964_7129)">
<path d="M9.31936 2.94232L7.31616 0.955013C7.10948 0.748333 6.77561 0.748333 6.56893 0.955013L5.13807 2.40177L7.8726 5.1363L9.31936 3.68954C9.52604 3.48286 9.52604 3.149 9.31936 2.94232ZM15.0428 8.66575L13.0555 6.67845C12.8488 6.47177 12.5149 6.47177 12.3083 6.67845L10.8615 8.1252L13.596 10.8597L15.0428 9.41298C15.2495 9.2063 15.2495 8.87243 15.0428 8.66575ZM10.1143 8.87243L8.28596 10.7007C7.45924 11.5275 6.12378 11.5275 5.29706 10.7007C4.47034 9.87403 4.47034 8.53856 5.29706 7.71184L7.12538 5.88353L4.39085 3.149L2.56253 4.97731C0.22546 7.29849 0.209562 11.0823 2.54663 13.4353C3.67542 14.5641 5.20167 15.2 6.80741 15.2C8.39725 15.2 9.9235 14.5641 11.0364 13.4353L12.8647 11.607L10.1143 8.87243Z" fill="#666E79"/>
</g>
<defs>
<clipPath id="clip0_20964_7129">
<rect width="16" height="16" fill="white"/>
</clipPath>
</defs>
</svg>
