<svg width="20" height="20" viewBox="0 0 20 20" fill="none" xmlns="http://www.w3.org/2000/svg">
    <circle cx="9.99996" cy="9.99996" r="8.54" fill="#E93B50"/>
    <circle cx="9.99996" cy="9.99996" r="8.24" stroke="white" stroke-opacity="0.24" stroke-width="0.6"/>
    <path fill-rule="evenodd" clip-rule="evenodd" d="M10.0029 5.55261C9.45064 5.55261 9.00293 6.00033 9.00293 6.55261V10.312C9.00293 10.8642 9.45064 11.312 10.0029 11.312C10.5552 11.312 11.0029 10.8642 11.0029 10.312V6.55261C11.0029 6.00033 10.5552 5.55261 10.0029 5.55261ZM11.0029 13.4475C11.0029 12.8952 10.5552 12.4475 10.0029 12.4475H9.99729C9.44501 12.4475 8.99729 12.8952 8.99729 13.4475C8.99729 13.9998 9.44501 14.4475 9.99729 14.4475H10.0029C10.5552 14.4475 11.0029 13.9998 11.0029 13.4475Z" fill="white"/>
</svg>
