<svg width="14" height="14" viewBox="0 0 14 14" fill="none" xmlns="http://www.w3.org/2000/svg">
<g opacity="0.4" clip-path="url(#clip0_7761_23327)">
<path d="M13.1641 9.10251C12.444 8.38181 11.4447 8.07649 10.1614 8.42042L5.58515 3.83958L5.64564 3.61087C5.90921 2.62196 5.62442 1.55897 4.90265 0.837205C4.16776 0.10174 3.12301 -0.168116 2.13495 0.103298C1.99405 0.14199 1.88437 0.252705 1.84704 0.39399C1.80972 0.535275 1.85065 0.685447 1.95393 0.788779L3.0558 1.89065C3.37794 2.21358 3.37479 2.73076 3.0566 3.04981C2.74091 3.36634 2.21028 3.36585 1.89585 3.0506L0.793764 1.94843C0.690432 1.84504 0.539822 1.80449 0.398537 1.84203C0.257225 1.87955 0.14692 1.9895 0.108365 2.13054C-0.159084 3.10775 0.104018 4.15898 0.842436 4.8974C1.56229 5.61777 2.56031 5.92418 3.8444 5.57951L8.42095 10.1604C8.07942 11.4433 8.37403 12.4329 9.10386 13.1627C9.83968 13.8991 10.8849 14.167 11.8708 13.8964C12.0118 13.8578 12.1215 13.747 12.1588 13.6058C12.1962 13.4645 12.1553 13.3143 12.0519 13.2109L10.9503 12.1093C10.6282 11.7864 10.6313 11.2691 10.9495 10.9501C11.2691 10.6321 11.7986 10.6372 12.1102 10.9497L13.2124 12.0516C13.3158 12.1549 13.4664 12.1955 13.6076 12.1579C13.7489 12.1204 13.8592 12.0105 13.8978 11.8695C14.1652 10.8924 13.9022 9.84093 13.1641 9.10251Z" fill="#667779"/>
<path d="M4.38984 7.2894L0.479903 11.1998C-0.159968 11.8397 -0.159968 12.8802 0.479903 13.5201C1.11977 14.16 2.16031 14.16 2.80016 13.5201L6.71001 9.60976L4.38984 7.2894ZM2.41483 12.2472C2.25459 12.4074 1.9951 12.4074 1.83487 12.2472C1.67466 12.087 1.67466 11.8274 1.83487 11.6672L4.3226 9.17904C4.48281 9.01884 4.74238 9.01884 4.90256 9.17904C5.06277 9.33925 5.06277 9.5988 4.90256 9.759L2.41483 12.2472Z" fill="#667779"/>
<path d="M13.8794 0.827235L13.1723 0.120153C13.0392 -0.0129295 12.8327 -0.0383592 12.6713 0.0584103L10.4962 1.36334C10.2673 1.50063 10.2285 1.81637 10.4171 2.00507L10.5903 2.17815L7.8291 4.92803L8.98943 6.08836L11.7506 3.33848L11.9945 3.58242C12.1832 3.77106 12.4989 3.73223 12.6362 3.50337L13.9411 1.32825C14.0379 1.16684 14.0125 0.960317 13.8794 0.827235Z" fill="#667779"/>
</g>
<defs>
<clipPath id="clip0_7761_23327">
<rect width="14" height="14" fill="white"/>
</clipPath>
</defs>
</svg>
