<svg width="29" height="28" viewBox="0 0 29 28" fill="none" xmlns="http://www.w3.org/2000/svg">
<path d="M14.1994 1.16666C12.1229 1.16776 10.0934 1.78405 8.36706 2.9377C6.64076 4.09135 5.29516 5.7306 4.50023 7.64839C3.70531 9.56618 3.4967 11.6765 3.90078 13.7127C4.30486 15.749 5.30348 17.6198 6.77052 19.089C8.67266 20.9907 13.1491 23.7417 13.414 26.6315C13.4537 27.0632 13.7676 27.4167 14.1994 27.4167C14.6311 27.4167 14.9462 27.0632 14.9847 26.6315C15.2496 23.7417 19.7226 20.9953 21.6236 19.0948C23.0923 17.6263 24.0926 15.7553 24.498 13.7185C24.9033 11.6817 24.6956 9.57046 23.901 7.65166C23.1064 5.73286 21.7607 4.09265 20.0338 2.93836C18.307 1.78407 16.2766 1.16753 14.1994 1.16666Z" fill="#C6CDCE"/>
<path d="M20.7898 11.2565C20.5633 11.2565 20.3796 11.4401 20.3796 11.6666C20.3796 15.0741 17.6074 17.8463 14.2 17.8463C10.7926 17.8463 8.02035 15.0741 8.02026 11.6667C8.02035 8.25916 10.7925 5.48697 14.1999 5.48697C15.7131 5.48694 17.143 6.02747 18.27 7.01655L16.9823 8.30425C16.2013 7.65571 15.2278 7.30259 14.2 7.30259C11.7936 7.30259 9.83594 9.2603 9.83594 11.6667C9.83594 14.073 11.7936 16.0307 14.2 16.0307C16.6063 16.0307 18.564 14.073 18.564 11.6667C18.564 11.4401 18.3804 11.2565 18.1539 11.2565C17.9274 11.2565 17.7437 11.4401 17.7437 11.6667C17.7437 13.6207 16.154 15.2104 14.2 15.2104C12.246 15.2104 10.6563 13.6207 10.6563 11.6667C10.6563 9.71264 12.246 8.12291 14.2 8.12291C15.0084 8.12291 15.7754 8.392 16.3991 8.88746L15.0973 10.1893C14.8296 10.026 14.5216 9.93859 14.2 9.93859C14.2 9.93859 14.1999 9.93859 14.1999 9.93859C13.247 9.93859 12.4719 10.7138 12.4719 11.6667C12.4719 12.6195 13.2471 13.3948 14.2 13.3948C15.1529 13.3948 15.9281 12.6195 15.9281 11.6667C15.9281 11.3451 15.8407 11.0371 15.6774 10.7693L19.1497 7.29693C19.2298 7.21682 19.2698 7.11182 19.2698 7.00687C19.2698 6.90187 19.2298 6.7969 19.1497 6.71681C17.8275 5.39471 16.0697 4.66663 14.1999 4.66666C12.3302 4.66666 10.5724 5.39479 9.25024 6.71689C7.92814 8.03902 7.20001 9.79689 7.19995 11.6667C7.20001 13.5364 7.92814 15.2942 9.25024 16.6164C10.5724 17.9385 12.3302 18.6666 14.2 18.6667C16.0697 18.6667 17.8276 17.9385 19.1497 16.6164C20.4718 15.2942 21.2 13.5364 21.2 11.6666C21.2 11.4401 21.0163 11.2565 20.7898 11.2565Z" fill="white"/>
</svg>
