<svg width="28" height="28" viewBox="0 0 28 28" fill="none" xmlns="http://www.w3.org/2000/svg">
    <rect width="28" height="28" rx="6" fill="#2684FC"/>
    <path d="M11.5014 18.1667H8.67176C7.62307 18.1667 7.09873 18.1667 6.98841 18.0852C6.86446 17.9938 6.83418 17.9398 6.82076 17.7863C6.80881 17.6497 7.13018 17.1239 7.77293 16.0722C8.43655 14.9863 9.00005 13.4052 9.00005 11.1667C9.00005 9.92899 9.52684 8.742 10.4645 7.86684C11.4022 6.99167 12.674 6.5 14.0001 6.5C15.3261 6.5 16.5979 6.99167 17.5356 7.86684C18.4733 8.742 19.0001 9.92899 19.0001 11.1667C19.0001 13.4052 19.5635 14.9863 20.2272 16.0722C20.8699 17.1239 21.1913 17.6497 21.1793 17.7863C21.1659 17.9398 21.1356 17.9938 21.0117 18.0852C20.9014 18.1667 20.377 18.1667 19.3283 18.1667H16.5001M11.5014 18.1667L11.5001 19C11.5001 20.3807 12.6193 21.5 14.0001 21.5C15.3808 21.5 16.5001 20.3807 16.5001 19V18.1667M11.5014 18.1667H16.5001" stroke="white" stroke-width="1.5" stroke-linecap="round" stroke-linejoin="round"/>
</svg>
