<svg width="28" height="28" viewBox="0 0 28 28" fill="none" xmlns="http://www.w3.org/2000/svg">
<g clip-path="url(#clip0_14156_16329)">
<path d="M27.84 10.2238C27.7031 10.0567 27.4987 9.95923 27.2844 9.95923H24.5592C23.8867 8.18548 23.0106 6.44758 22.0147 5.79157C18.5698 3.52527 9.43215 3.52527 5.98718 5.79157C4.99061 6.4483 4.11807 8.18835 3.44198 9.95923H0.716835C0.500314 9.95923 0.296699 10.0567 0.161194 10.2238C0.0249724 10.3901 -0.0295163 10.6102 0.014935 10.8217L0.418581 12.7776C0.487409 13.111 0.781361 13.349 1.12048 13.349H1.92777C1.14844 14.2481 0.770607 15.3801 0.765588 16.5129C0.760569 17.9124 1.29183 19.1771 2.26331 20.0719C2.27406 20.0812 2.28482 20.0877 2.29486 20.097V22.8336C2.29486 23.4265 2.77665 23.909 3.37029 23.909H5.88394C6.47758 23.909 6.95937 23.4265 6.95937 22.8336V21.7338H21.0411V22.8336C21.0411 23.4265 21.5229 23.909 22.1165 23.909H24.6302C25.2224 23.909 25.7056 23.4265 25.7056 22.8336V20.1508C26.7366 19.2065 27.2292 17.9074 27.2356 16.6104C27.2399 15.4389 26.8449 14.2653 26.0196 13.3476H26.8807C27.2213 13.3476 27.5152 13.1095 27.5826 12.7754L27.987 10.8203C28.0286 10.6102 27.9762 10.3916 27.84 10.2238ZM7.16801 7.58754C9.91395 5.78009 18.0865 5.78009 20.831 7.58754C21.3645 7.93742 22.0506 9.35197 22.6793 11.0841H5.32113C5.94846 9.35269 6.63459 7.93885 7.16801 7.58754ZM3.95174 16.7825C3.95174 15.6139 4.89956 14.6675 6.06748 14.6675C7.23683 14.6675 8.18321 15.6139 8.18321 16.7825C8.18321 17.9511 7.23683 18.8982 6.06748 18.8982C4.89956 18.8982 3.95174 17.9511 3.95174 16.7825ZM21.961 18.8982C20.793 18.8982 19.8452 17.9511 19.8452 16.7825C19.8452 15.6139 20.793 14.6675 21.961 14.6675C23.1303 14.6675 24.0767 15.6139 24.0767 16.7825C24.0767 17.9511 23.1289 18.8982 21.961 18.8982Z" fill="#2684FC"/>
</g>
<defs>
<clipPath id="clip0_14156_16329">
<rect width="28.0007" height="28" fill="white"/>
</clipPath>
</defs>
</svg>
