<svg width="11" height="8" viewBox="0 0 11 8" fill="none" xmlns="http://www.w3.org/2000/svg">
<path d="M0.0219727 4.97012V6.41807C0.0219727 7.01844 0.46894 7.44223 1.01523 7.44223H9.2924C9.8387 7.44223 10.2857 7.01844 10.2857 6.41807V4.97012H0.0219727Z" fill="#1EB53A"/>
<path d="M9.2924 0.0258865H1.01523C0.46894 0.0258865 0.0219727 0.449678 0.0219727 1.05005V2.498H10.2857V1.05005C10.2857 0.449678 9.8387 0.0258865 9.2924 0.0258865Z" fill="#0099B5"/>
<path d="M10.2857 2.49803H0.0219727V4.97015H10.2857V2.49803Z" fill="#F7F8FC"/>
<path d="M10.2857 2.32143H0.0219727V2.49801H10.2857V2.32143Z" fill="#CE1126"/>
<path d="M10.2857 4.97012H0.0219727V5.14669H10.2857V4.97012Z" fill="#CE1126"/>
<path d="M1.57893 0.520336C1.54582 0.520336 1.51271 0.502678 1.4796 0.502678C1.13196 0.502678 0.833984 0.802864 0.833984 1.19134C0.833984 1.57982 1.11541 1.88 1.4796 1.88C1.51271 1.88 1.54582 1.88 1.57893 1.86235C1.28095 1.80937 1.04919 1.52684 1.04919 1.19134C1.04919 0.83818 1.28095 0.57331 1.57893 0.520336Z" fill="white"/>
<path d="M1.89362 1.68567L1.86051 1.59738L1.8274 1.68567H1.74463L1.81085 1.7563L1.79429 1.84459L1.86051 1.79162L1.94328 1.84459L1.91017 1.7563L1.99294 1.68567H1.89362Z" fill="white"/>
<path d="M2.40631 1.68567L2.3732 1.59738L2.3401 1.68567H2.25732L2.32354 1.7563L2.30699 1.84459L2.3732 1.79162L2.45598 1.84459L2.42287 1.7563L2.48908 1.68567H2.40631Z" fill="white"/>
<path d="M2.91925 1.68567L2.88614 1.59738L2.85304 1.68567H2.77026L2.83648 1.7563L2.80337 1.84459L2.88614 1.79162L2.96892 1.84459L2.93581 1.7563L3.00202 1.68567H2.91925Z" fill="white"/>
<path d="M3.43366 1.68567L3.40055 1.59738L3.36744 1.68567H3.28467L3.35089 1.7563L3.31778 1.84459L3.40055 1.79162L3.48332 1.84459L3.45021 1.7563L3.51643 1.68567H3.43366Z" fill="white"/>
<path d="M3.9466 1.68567L3.91349 1.59738L3.88038 1.68567H3.79761L3.86383 1.7563L3.83072 1.84459L3.91349 1.79162L3.97971 1.84459L3.96315 1.7563L4.02937 1.68567H3.9466Z" fill="white"/>
<path d="M2.3732 1.05018L2.35665 1.13847H2.25732L2.3401 1.2091L2.30699 1.29739L2.3732 1.24442L2.45598 1.29739L2.42287 1.2091L2.50564 1.13847H2.40631L2.3732 1.05018Z" fill="white"/>
<path d="M2.88614 1.05018L2.86959 1.13847H2.77026L2.85304 1.2091L2.81993 1.29739L2.88614 1.24442L2.96892 1.29739L2.93581 1.2091L3.01858 1.13847H2.91925L2.88614 1.05018Z" fill="white"/>
<path d="M3.40055 1.05018L3.38399 1.13847H3.28467L3.36744 1.2091L3.33433 1.29739L3.40055 1.24442L3.48332 1.29739L3.45021 1.2091L3.53298 1.13847H3.43366L3.40055 1.05018Z" fill="white"/>
<path d="M3.9466 1.13847L3.91349 1.05018L3.89693 1.13847H3.79761L3.86383 1.2091L3.84727 1.29739L3.91349 1.24442L3.99626 1.29739L3.96315 1.2091L4.04592 1.13847H3.9466Z" fill="white"/>
<path d="M2.83814 0.661584L2.80503 0.749874L2.88781 0.6969L2.95402 0.749874L2.93747 0.661584L3.00369 0.590953H2.92091L2.88781 0.502663L2.8547 0.590953H2.75537L2.83814 0.661584Z" fill="white"/>
<path d="M3.35084 0.661584L3.31773 0.749874L3.4005 0.6969L3.46672 0.749874L3.45016 0.661584L3.51638 0.590953H3.43361L3.4005 0.502663L3.36739 0.590953H3.26807L3.35084 0.661584Z" fill="white"/>
<path d="M3.86378 0.661584L3.83067 0.749874L3.91344 0.6969L3.97966 0.749874L3.9631 0.661584L4.02932 0.590953H3.93L3.91344 0.502663L3.88033 0.590953H3.78101L3.86378 0.661584Z" fill="white"/>
</svg>
