<svg width="29" height="28" viewBox="0 0 29 28" fill="none" xmlns="http://www.w3.org/2000/svg">
<g clip-path="url(#clip0_14156_16260)">
<path d="M17.8999 22.0675L10.8999 23.4675V5.9675L17.8999 4.5675V22.0675ZM9.14995 5.88L3.23495 4.375C3.1058 4.34223 2.97088 4.33938 2.84047 4.36668C2.71006 4.39398 2.58761 4.45069 2.48245 4.5325C2.37459 4.6176 2.28828 4.7269 2.23052 4.85155C2.17275 4.9762 2.14515 5.1127 2.14995 5.25V21C2.14412 21.1999 2.20694 21.3957 2.32793 21.5549C2.44893 21.7141 2.62081 21.8271 2.81495 21.875L9.14995 23.4325V5.88ZM25.9849 6.125L19.6499 4.5675V22.12L25.5649 23.625C25.6347 23.6334 25.7052 23.6334 25.7749 23.625C26.007 23.625 26.2296 23.5328 26.3937 23.3687C26.5578 23.2046 26.6499 22.9821 26.6499 22.75V7C26.6558 6.80012 26.593 6.60428 26.472 6.44507C26.351 6.28587 26.1791 6.17291 25.9849 6.125Z" fill="#2684FC"/>
</g>
<defs>
<clipPath id="clip0_14156_16260">
<rect width="28" height="28" fill="white" transform="translate(0.399902)"/>
</clipPath>
</defs>
</svg>
