<svg width="90" height="90" viewBox="0 0 90 90" fill="none" xmlns="http://www.w3.org/2000/svg">
<rect width="90" height="90" rx="45" fill="#EAF3FF"/>
<path d="M22.2149 43.1082C27.268 36.1653 35.4639 31.6476 44.7022 31.6476C53.9404 31.6476 62.1364 36.1653 67.1895 43.1082" stroke="#ABCFFE" stroke-width="5.40722" stroke-linecap="round"/>
<path d="M29.4011 48.55C32.8432 43.8207 38.4262 40.7433 44.7191 40.7433C51.0121 40.7433 56.595 43.8207 60.0371 48.55" stroke="#ABCFFE" stroke-width="4.91109" stroke-linecap="round"/>
<path d="M36.1575 53.6655C38.1156 50.975 41.2917 49.2243 44.8717 49.2243C48.4517 49.2243 51.6278 50.975 53.5859 53.6655" stroke="#ABCFFE" stroke-width="4.19079" stroke-linecap="round"/>
<path d="M44.7192 64.4844C42.0678 64.4844 39.9151 62.3316 39.9151 59.6802C39.9151 57.0288 42.0678 54.876 44.7192 54.876C47.3707 54.876 49.5234 57.0288 49.5234 59.6802C49.5234 62.3316 47.3707 64.4844 44.7192 64.4844Z" fill="#ABCFFE"/>
<path d="M23.0625 65.25L67.2188 21.0938" stroke="#2684FC" stroke-width="4" stroke-linecap="round"/>
</svg>
