<svg width="28" height="28" viewBox="0 0 28 28" fill="none" xmlns="http://www.w3.org/2000/svg">
<path d="M25.0834 12.7167V4.78334C25.0834 3.03334 24.3367 2.33334 22.4817 2.33334H17.7684C15.9134 2.33334 15.1667 3.03334 15.1667 4.78334V12.7167C15.1667 14.4667 15.9134 15.1667 17.7684 15.1667H22.4817C24.3367 15.1667 25.0834 14.4667 25.0834 12.7167Z" fill="#C6CDCE"/>
<path d="M12.8334 15.2833V23.2167C12.8334 24.9667 12.0867 25.6667 10.2317 25.6667H5.51841C3.66341 25.6667 2.91675 24.9667 2.91675 23.2167V15.2833C2.91675 13.5333 3.66341 12.8333 5.51841 12.8333H10.2317C12.0867 12.8333 12.8334 13.5333 12.8334 15.2833Z" fill="#C6CDCE"/>
<path d="M25.0834 23.2167V19.95C25.0834 18.2 24.3367 17.5 22.4817 17.5H17.7684C15.9134 17.5 15.1667 18.2 15.1667 19.95V23.2167C15.1667 24.9667 15.9134 25.6667 17.7684 25.6667H22.4817C24.3367 25.6667 25.0834 24.9667 25.0834 23.2167Z" fill="#C6CDCE"/>
<path d="M12.8334 8.05V4.78334C12.8334 3.03334 12.0867 2.33334 10.2317 2.33334H5.51841C3.66341 2.33334 2.91675 3.03334 2.91675 4.78334V8.05C2.91675 9.8 3.66341 10.5 5.51841 10.5H10.2317C12.0867 10.5 12.8334 9.8 12.8334 8.05Z" fill="#C6CDCE"/>
</svg>
