<svg width="20" height="20" viewBox="0 0 20 20" fill="none" xmlns="http://www.w3.org/2000/svg">
<path d="M16.2573 8.29483L12.4483 4.48589C12.1715 4.20878 11.788 4.05007 11.3965 4.05007H9.99894V2.9344C9.99894 2.3192 9.49848 1.81873 8.88324 1.81873L5.90801 1.81818C5.29277 1.81818 4.7923 2.31864 4.7923 2.93384V4.04951C3.97223 4.04951 3.30469 4.71667 3.30469 5.53706V16.6937C3.30469 17.5141 3.97223 18.1813 4.7923 18.1813L15.2055 18.1818C16.0256 18.1818 16.6932 17.5147 16.6932 16.6943V9.34659C16.6932 8.95509 16.5341 8.57156 16.2573 8.29483ZM8.88324 15.2069C7.85759 15.2069 7.02374 14.3727 7.02374 13.3474C7.02374 12.4133 8.35955 11.1 8.62757 10.8461C8.77139 10.7103 8.99512 10.7103 9.13894 10.8461C9.40699 11.1 10.7428 12.4133 10.7428 13.3474C10.7427 14.3727 9.90885 15.2069 8.88324 15.2069ZM14.5068 10.7891C14.2961 10.9998 14.0158 11.116 13.7179 11.116C13.4201 11.116 13.1397 10.9998 12.9291 10.7891L9.95389 7.81393C9.51881 7.37884 9.51881 6.67135 9.95389 6.23626C10.3883 5.80117 11.0972 5.80117 11.5316 6.23626L14.5068 9.21145C14.9419 9.64654 14.9419 10.354 14.5068 10.7891Z" fill="white"/>
</svg>
