<svg width="36" height="36" viewBox="0 0 36 36" fill="none" xmlns="http://www.w3.org/2000/svg">
<rect width="36" height="36" rx="8" fill="#E9F2FE"/>
<path d="M9 27.0001L20 27V11.9892C20 10.6252 20 9.94318 19.7187 9.47045C19.472 9.05596 19.0838 8.74457 18.6257 8.59368C18.1032 8.42159 17.4374 8.56954 16.1058 8.86544L13.5058 9.44322C12.6117 9.64191 12.1646 9.74126 11.8309 9.98167C11.5366 10.1937 11.3055 10.4819 11.1623 10.8152C11 11.1931 11 11.6511 11 12.567V27.0001M19.994 11.0001H21.8C22.9201 11.0001 23.4802 11.0001 23.908 11.2181C24.2843 11.4098 24.5903 11.7158 24.782 12.0921C25 12.5199 25 13.08 25 14.2001V27.0001H27M17 18.0001H17.01" stroke="#2684FC" stroke-width="2" stroke-linecap="round" stroke-linejoin="round"/>
</svg>
