<svg width="36" height="36" viewBox="0 0 36 36" fill="none" xmlns="http://www.w3.org/2000/svg">
<rect width="36" height="36" rx="10" fill="#2684FC"/>
<path d="M10.0726 13.2793L14.0721 17.2787C14.9799 16.5525 16.0825 16.0805 17.2969 15.9439V10.2834C14.5312 10.4455 12.0202 11.5468 10.0726 13.2793ZM9.07833 14.2735C7.19925 16.3858 6 19.158 6 22.2009C6 22.5896 6.31448 22.9041 6.70312 22.9041H10.9688C11.3574 22.9041 11.6719 22.5896 11.6719 22.2009C11.6719 20.7097 12.2117 19.3557 13.0778 18.273L9.07833 14.2735ZM23.4327 16.703C23.1958 16.4964 22.8525 16.4696 22.5909 16.6392L16.4887 20.5317C15.6736 21.0522 15.1875 21.9386 15.1875 22.9041C15.1875 24.4552 16.4489 25.7166 18 25.7166C19.0904 25.7166 20.0915 25.078 20.5502 24.0899L23.6064 17.5284C23.6706 17.3905 23.6884 17.2356 23.6571 17.0868C23.6257 16.9379 23.547 16.8033 23.4327 16.703ZM26.9217 14.2735L24.855 16.3402C25.1153 16.8957 25.1495 17.546 24.8809 18.1223L23.9563 20.1072C24.1943 20.761 24.3281 21.4638 24.3281 22.2009C24.3281 22.5896 24.6426 22.9041 25.0312 22.9041H29.2969C29.6855 22.9041 30 22.5896 30 22.2009C30 19.158 28.8008 16.3858 26.9217 14.2735ZM18.7031 10.2834V15.9439C19.2951 16.0105 19.8592 16.1595 20.3884 16.376L21.8349 15.4532C22.4145 15.0777 23.1226 14.9971 23.8602 15.3465L25.9274 13.2793C23.9798 11.5468 21.4688 10.4455 18.7031 10.2834Z" fill="white"/>
</svg>
