<svg width="20" height="20" viewBox="0 0 20 20" fill="none" xmlns="http://www.w3.org/2000/svg">
<path d="M18.5419 10C18.5255 9.41274 18.3464 8.84092 18.0237 8.3491C17.7019 7.85819 17.2492 7.46546 16.7164 7.21637C16.9192 6.66456 16.9619 6.06728 16.8437 5.49183C16.7246 4.91546 16.4464 4.38455 16.0419 3.95819C15.6146 3.55365 15.0846 3.27637 14.5083 3.15637C13.9328 3.03819 13.3355 3.08092 12.7837 3.28365C12.5355 2.75001 12.1437 2.29637 11.6519 1.97455C11.1601 1.65274 10.5883 1.47274 10.0001 1.45819C9.4128 1.47365 8.8428 1.65183 8.35189 1.97455C7.86098 2.29728 7.47098 2.75092 7.22462 3.28365C6.67189 3.08092 6.0728 3.03637 5.49553 3.15637C4.91825 3.27455 4.38643 3.55274 3.95916 3.95819C3.55462 4.38546 3.27825 4.91728 3.16098 5.49274C3.0428 6.06819 3.08825 6.66546 3.29189 7.21637C2.75825 7.46546 2.30371 7.85728 1.98007 8.34819C1.65643 8.8391 1.47552 9.41183 1.45825 10C1.47643 10.5882 1.65643 11.16 1.98007 11.6518C2.30371 12.1427 2.75825 12.5355 3.29189 12.7836C3.08825 13.3346 3.0428 13.9318 3.16098 14.5073C3.27916 15.0836 3.55462 15.6146 3.95825 16.0418C4.38552 16.4446 4.91643 16.7209 5.49189 16.84C6.06734 16.96 6.66462 16.9164 7.21643 16.7164C7.46553 17.2491 7.85734 17.7018 8.34916 18.0246C8.84007 18.3464 9.4128 18.5255 10.0001 18.5418C10.5883 18.5273 11.1601 18.3482 11.6519 18.0264C12.1437 17.7046 12.5355 17.25 12.7837 16.7173C13.3328 16.9346 13.9346 16.9864 14.5137 16.8664C15.0919 16.7464 15.6228 16.46 16.041 16.0418C16.4592 15.6236 16.7464 15.0927 16.8664 14.5136C16.9864 13.9346 16.9346 13.3327 16.7164 12.7836C17.2492 12.5346 17.7019 12.1427 18.0246 11.6509C18.3464 11.16 18.5255 10.5873 18.5419 10Z" fill="#2684FC"/>
<path d="M6.25437 10.9713L8.04489 12.7613C8.44762 13.164 9.1048 13.1495 9.48939 12.7295L13.3894 8.47056C13.6995 8.13186 13.6777 7.60621 13.3406 7.29436C13.0013 6.98053 12.4716 7.00219 12.1591 7.34268L8.7256 11.0836L7.43374 9.79179C7.10725 9.46529 6.57761 9.46621 6.25224 9.79384C5.92844 10.1199 5.92939 10.6465 6.25437 10.9713Z" fill="white"/>
</svg>
