<svg width="8" height="16" viewBox="0 0 8 16" fill="none" xmlns="http://www.w3.org/2000/svg">
    <path d="M0 11.7975V4.20252C0 2.40722 0 1.50957 0.305576 1.07201C0.571013 0.691934 0.971278 0.480798 1.38737 0.501376C1.86638 0.525066 2.42972 1.12556 3.55639 2.32656L6.53223 5.49872C7.34485 6.36494 7.75115 6.79805 7.90117 7.30815C8.03294 7.75618 8.03294 8.24382 7.90117 8.69185C7.75115 9.20195 7.34485 9.63507 6.53223 10.5013L3.55639 13.6734C2.42972 14.8744 1.86638 15.4749 1.38737 15.4986C0.971278 15.5192 0.571013 15.3081 0.305576 14.928C0 14.4904 0 13.5928 0 11.7975Z" fill="#ACB7C1"/>
</svg>
