<svg width="20" height="20" viewBox="0 0 20 20" fill="none" xmlns="http://www.w3.org/2000/svg">
<path fill-rule="evenodd" clip-rule="evenodd" d="M3.33301 4.16667V15.8333C3.33301 17.214 4.4523 18.3333 5.83301 18.3333H14.1663C15.5471 18.3333 16.6663 17.214 16.6663 15.8333V7.5C16.6663 6.11929 15.5471 5 14.1663 5H4.16634C3.7061 5 3.33301 4.6269 3.33301 4.16667ZM6.04134 10C6.04134 9.65482 6.32116 9.375 6.66634 9.375H13.333C13.6782 9.375 13.958 9.65482 13.958 10C13.958 10.3452 13.6782 10.625 13.333 10.625H6.66634C6.32116 10.625 6.04134 10.3452 6.04134 10ZM6.04134 12.9167C6.04134 12.5715 6.32116 12.2917 6.66634 12.2917H11.2497C11.5949 12.2917 11.8747 12.5715 11.8747 12.9167C11.8747 13.2618 11.5949 13.5417 11.2497 13.5417H6.66634C6.32116 13.5417 6.04134 13.2618 6.04134 12.9167Z" fill="white"/>
<path d="M3.67366 3.40592C3.96406 3.53615 4.16634 3.82779 4.16634 4.16667H14.1663C14.4541 4.16667 14.7333 4.20313 14.9997 4.27168V3.58837C14.9997 2.57412 14.1014 1.79501 13.0973 1.93845L4.09934 3.22387C3.93894 3.24679 3.7936 3.31145 3.67366 3.40592Z" fill="white"/>
</svg>
