<svg width="20" height="20" viewBox="0 0 20 20" fill="none" xmlns="http://www.w3.org/2000/svg">
<path d="M9.99999 14.1667H10.0083M9.99999 8.33333V11.6667M5.34338 17.5H14.6566C16.1413 17.5 16.8837 17.5 17.3191 17.1878C17.699 16.9153 17.9471 16.4958 18.0027 16.0316C18.0664 15.4996 17.7087 14.8491 16.9932 13.5482L12.3366 5.08165C11.5747 3.69652 11.1938 3.00396 10.6905 2.77483C10.2518 2.57514 9.74816 2.57514 9.30948 2.77483C8.80615 3.00396 8.42524 3.69652 7.66342 5.08165L3.0068 13.5482C2.29129 14.8491 1.93354 15.4996 1.99728 16.0316C2.0529 16.4958 2.30094 16.9153 2.68088 17.1878C3.11631 17.5 3.85866 17.5 5.34338 17.5Z" stroke="white" stroke-width="1.8" stroke-linecap="round" stroke-linejoin="round"/>
</svg>
