<svg width="15" height="14" viewBox="0 0 15 14" fill="none" xmlns="http://www.w3.org/2000/svg">
<path d="M12.2177 0.93335C10.2166 0.93335 7.53138 2.30628 5.72818 4.66668H4.23335C3.1532 4.66668 2.53412 5.4729 2.10787 6.3255L1.53723 7.46668H2.8844H4.23335L5.63335 8.86668L7.03335 10.2667V11.6156V12.9628L8.17454 12.3923C9.02714 11.9659 9.83335 11.3468 9.83335 10.2667V8.77186C12.1938 6.96866 13.5667 4.28346 13.5667 2.2823V0.93335H12.2177ZM9.83335 3.73335C10.3488 3.73335 10.7667 4.1512 10.7667 4.66668C10.7667 5.18216 10.3488 5.60002 9.83335 5.60002C9.31787 5.60002 8.90002 5.18216 8.90002 4.66668C8.90002 4.1512 9.31787 3.73335 9.83335 3.73335ZM3.76669 9.33335L3.30002 9.80002C2.62596 10.4741 2.36668 12.1333 2.36668 12.1333C2.36668 12.1333 3.95148 11.9485 4.70002 11.2L5.16669 10.7333L3.76669 9.33335Z" fill="#2684FC"/>
</svg>
