<svg width="16" height="16" viewBox="0 0 16 16" fill="none" xmlns="http://www.w3.org/2000/svg">
<g clip-path="url(#clip0_6484_33268)">
<path d="M6.82333 16C7.27739 16 7.64652 15.6309 7.64652 15.1768L7.64652 12.7562C7.64652 10.7276 6.00667 9.08452 3.98136 9.07472C2.92623 9.07146 1.98871 8.3234 1.85804 7.27807C1.70124 6.02368 2.68123 4.95223 3.90296 4.95223L5.74534 4.95223C6.12754 6.83381 7.79026 8.25153 9.78617 8.25153L11.8768 8.25153C12.1741 8.25153 12.4126 8.01307 12.4126 7.7158L12.4126 6.69334L14.9965 6.69334C15.4015 6.69334 15.7609 6.39935 15.8001 5.99755C15.8458 5.53695 15.4832 5.14822 15.0291 5.14822L12.4126 5.14822L12.4126 3.10984L14.9965 3.10984C15.4015 3.10984 15.7609 2.81584 15.8001 2.41078C15.8425 1.95018 15.4832 1.56145 15.0291 1.56145L12.4126 1.56145L12.4126 0.535729C12.4126 0.238465 12.1741 -1.58667e-07 11.8768 -1.7166e-07L9.78617 -2.63046e-07C7.79026 -3.5029e-07 6.12754 1.41772 5.74534 3.29931L3.99769 3.29931C1.98871 3.29931 0.273721 4.85749 0.198588 6.86648C0.120189 8.97672 1.81231 10.7211 3.90622 10.7211L3.93562 10.7211C5.07568 10.7211 5.99687 11.6456 5.99687 12.7824L5.99687 15.1735C6.00014 15.6309 6.36927 16 6.82333 16Z" fill="#E93B50"/>
</g>
<defs>
<clipPath id="clip0_6484_33268">
<rect width="16" height="16" fill="white" transform="translate(16) rotate(90)"/>
</clipPath>
</defs>
</svg>
