<svg width="36" height="36" viewBox="0 0 36 36" fill="none" xmlns="http://www.w3.org/2000/svg">
<rect width="36" height="36" rx="10" fill="#EBC032"/>
<path d="M21.2728 14.7273C20.752 14.7273 20.2525 14.5204 19.8843 14.1521C19.516 13.7839 19.3091 13.2844 19.3091 12.7636V8.18182H12.1091C11.5884 8.18182 11.0889 8.38871 10.7206 8.75696C10.3524 9.12521 10.1455 9.62467 10.1455 10.1455V25.8546C10.1455 26.3753 10.3524 26.8748 10.7206 27.2431C11.0889 27.6113 11.5884 27.8182 12.1091 27.8182H23.891C24.4117 27.8182 24.9112 27.6113 25.2795 27.2431C25.6477 26.8748 25.8546 26.3753 25.8546 25.8546V14.7273H21.2728Z" fill="white"/>
<path d="M20.6182 12.7635C20.6182 12.9371 20.6872 13.1036 20.8099 13.2263C20.9327 13.3491 21.0992 13.418 21.2728 13.418H25.437C25.3866 13.3526 20.6837 8.64968 20.6182 8.59928V12.7635Z" fill="white"/>
</svg>
