
<svg width="36" height="36" viewBox="0 0 36 36" fill="none" xmlns="http://www.w3.org/2000/svg">
<path d="M16.7131 30C13.3719 30 11.7013 30 10.3067 29.2479C8.91217 28.4957 8.02675 27.1171 6.25592 24.36L5.23472 22.77C3.74491 20.4504 3 19.2906 3 18C3 16.7094 3.7449 15.5496 5.23471 13.23L6.25592 11.64C8.02675 8.88287 8.91217 7.50429 10.3067 6.75215C11.7013 6 13.3719 6 16.7131 6L20.6684 6C26.4816 6 29.3882 6 31.1941 7.75736C33 9.51472 33 12.3431 33 18C33 23.6569 33 26.4853 31.1941 28.2426C29.3882 30 26.4816 30 20.6684 30H16.7131Z" stroke="#666E79" stroke-width="2"/>
<path d="M23.25 14.25L15.75 21.75M15.75 14.25L23.2499 21.75" stroke="#666E79" stroke-width="2" stroke-linecap="round"/>
</svg>
