<svg width="32" height="32" viewBox="0 0 32 32" fill="none" xmlns="http://www.w3.org/2000/svg">
<g id="pen-square">
<path id="Icon" d="M14.6673 5.33342H9.60065C8.10718 5.33342 7.36044 5.33342 6.79001 5.62407C6.28824 5.87973 5.8803 6.28768 5.62463 6.78944C5.33398 7.35987 5.33398 8.10661 5.33398 9.60008V22.4001C5.33398 23.8936 5.33398 24.6403 5.62463 25.2107C5.8803 25.7125 6.28824 26.1204 6.79001 26.3761C7.36044 26.6667 8.10718 26.6667 9.60065 26.6667H22.4007C23.8941 26.6667 24.6409 26.6667 25.2113 26.3761C25.7131 26.1204 26.121 25.7125 26.3767 25.2107C26.6673 24.6403 26.6673 23.8936 26.6673 22.4001V16.6668M20.6673 7.33342L24.4386 11.1047M14.351 13.6498L23.2153 4.78544C24.2567 3.74405 25.9451 3.74404 26.9865 4.78544C28.0279 5.82684 28.0279 7.51528 26.9865 8.55668L17.8372 17.706C16.8217 18.7215 16.3139 19.2293 15.7356 19.6331C15.2222 19.9915 14.6686 20.2884 14.086 20.5177C13.4296 20.7761 12.7257 20.9181 11.3179 21.2022L10.6673 21.3334L10.7306 20.8905C10.9545 19.3234 11.0664 18.5398 11.321 17.8082C11.547 17.1591 11.8556 16.5418 12.2394 15.9715C12.6719 15.3289 13.2316 14.7692 14.351 13.6498Z" stroke="white" stroke-width="1.6" stroke-linecap="round" stroke-linejoin="round"/>
</g>
</svg>
