<svg width="68" height="68" viewBox="0 0 68 68" fill="none" xmlns="http://www.w3.org/2000/svg">
<g filter="url(#filter0_d_13635_7838)">
<rect x="12" y="12" width="44" height="44" rx="22" fill="white" shape-rendering="crispEdges"/>
<circle cx="34" cy="34" r="18" fill="#B5C3C4"/>
<path d="M41.6457 28.2662L40.0026 26.6224C39.8729 26.4972 39.6992 26.4279 39.519 26.4295C39.3387 26.431 39.1663 26.5033 39.0388 26.6308C38.9113 26.7583 38.839 26.9307 38.8375 27.111C38.8359 27.2912 38.9052 27.4649 39.0304 27.5946L40.6736 29.2384C40.802 29.3676 40.8744 29.5422 40.875 29.7244V37.2244C40.875 37.3155 40.8388 37.403 40.7743 37.4674C40.7099 37.5319 40.6224 37.5681 40.5313 37.5681C40.4401 37.5681 40.3526 37.5319 40.2882 37.4674C40.2237 37.403 40.1875 37.3155 40.1875 37.2244V33.967C40.1857 33.3946 39.9752 32.8425 39.5956 32.4141C39.2159 31.9857 38.6931 31.7104 38.125 31.6398V26.4375C38.125 25.8905 37.9077 25.3659 37.5209 24.9791C37.1341 24.5923 36.6095 24.375 36.0625 24.375H28.5C27.953 24.375 27.4284 24.5923 27.0416 24.9791C26.6548 25.3659 26.4375 25.8905 26.4375 26.4375V39.6849C26.2286 39.8056 26.0551 39.979 25.9344 40.1879C25.8137 40.3968 25.7501 40.6338 25.75 40.875V42.25C25.75 42.6147 25.8949 42.9644 26.1527 43.2223C26.4106 43.4801 26.7603 43.625 27.125 43.625H37.4375C37.8022 43.625 38.1519 43.4801 38.4098 43.2223C38.6676 42.9644 38.8125 42.6147 38.8125 42.25V40.875C38.8124 40.6338 38.7488 40.3968 38.6281 40.1879C38.5074 39.979 38.3339 39.8056 38.125 39.6849V33.0375C38.3236 33.0997 38.4973 33.2235 38.621 33.391C38.7446 33.5584 38.8116 33.7609 38.8125 33.9691V37.2244C38.8125 37.6802 38.9936 38.1174 39.3159 38.4397C39.6382 38.762 40.0754 38.9431 40.5313 38.9431C40.9871 38.9431 41.4243 38.762 41.7466 38.4397C42.0689 38.1174 42.25 37.6802 42.25 37.2244V29.7244C42.2508 29.4535 42.1979 29.185 42.0941 28.9347C41.9904 28.6844 41.838 28.4572 41.6457 28.2662ZM36.0625 30.5625C36.0625 30.7448 35.9901 30.9197 35.8611 31.0486C35.7322 31.1776 35.5573 31.25 35.375 31.25H29.1875C29.0052 31.25 28.8303 31.1776 28.7014 31.0486C28.5724 30.9197 28.5 30.7448 28.5 30.5625V27.125C28.5 26.9427 28.5724 26.7678 28.7014 26.6389C28.8303 26.5099 29.0052 26.4375 29.1875 26.4375H35.375C35.5573 26.4375 35.7322 26.5099 35.8611 26.6389C35.9901 26.7678 36.0625 26.9427 36.0625 27.125V30.5625Z" fill="white"/>
</g>
<defs>
<filter id="filter0_d_13635_7838" x="0" y="0" width="68" height="68" filterUnits="userSpaceOnUse" color-interpolation-filters="sRGB">
<feFlood flood-opacity="0" result="BackgroundImageFix"/>
<feColorMatrix in="SourceAlpha" type="matrix" values="0 0 0 0 0 0 0 0 0 0 0 0 0 0 0 0 0 0 127 0" result="hardAlpha"/>
<feOffset/>
<feGaussianBlur stdDeviation="6"/>
<feComposite in2="hardAlpha" operator="out"/>
<feColorMatrix type="matrix" values="0 0 0 0 0 0 0 0 0 0 0 0 0 0 0 0 0 0 0.08 0"/>
<feBlend mode="normal" in2="BackgroundImageFix" result="effect1_dropShadow_13635_7838"/>
<feBlend mode="normal" in="SourceGraphic" in2="effect1_dropShadow_13635_7838" result="shape"/>
</filter>
</defs>
</svg>
