<svg width="56" height="57" viewBox="0 0 56 57" fill="none" xmlns="http://www.w3.org/2000/svg">
<rect y="0.731079" width="56" height="56" rx="28" fill="white" fill-opacity="0.2"/>
<path d="M35.9874 24.6607C38.147 26.0104 39.2268 26.6853 39.5971 27.5494C39.9205 28.304 39.9205 29.1582 39.5971 29.9128C39.2268 30.7768 38.147 31.4517 35.9874 32.8015L25.844 39.1411C23.4471 40.6392 22.2486 41.3882 21.2596 41.3087C20.3975 41.2394 19.6073 40.8014 19.0916 40.1071C18.5 39.3105 18.5 37.8973 18.5 35.0707V22.3915C18.5 19.5649 18.5 18.1516 19.0916 17.3551C19.6073 16.6608 20.3975 16.2228 21.2596 16.1535C22.2486 16.074 23.4471 16.823 25.844 18.3211L35.9874 24.6607Z" fill="white" stroke="white" stroke-width="2" stroke-linejoin="round"/>
</svg>
