<svg width="28" height="28" viewBox="0 0 28 28" fill="none" xmlns="http://www.w3.org/2000/svg">
<rect width="28" height="28" rx="6" fill="#EBC032" fill-opacity="0.1"/>
<path d="M16.7278 11.2728C16.2938 11.2728 15.8776 11.1004 15.5707 10.7935C15.2638 10.4866 15.0914 10.0704 15.0914 9.63642V5.81824H9.09144C8.65745 5.81824 8.24124 5.99064 7.93436 6.29752C7.62748 6.60439 7.45508 7.02061 7.45508 7.4546V20.5455C7.45508 20.9795 7.62748 21.3957 7.93436 21.7026C8.24124 22.0095 8.65745 22.1819 9.09144 22.1819H18.9096C19.3436 22.1819 19.7598 22.0095 20.0667 21.7026C20.3736 21.3957 20.546 20.9795 20.546 20.5455V11.2728H16.7278Z" fill="#EBC032"/>
<path d="M16.1823 9.6363C16.1823 9.78096 16.2398 9.9197 16.3421 10.022C16.4444 10.1243 16.5831 10.1818 16.7278 10.1818H20.198C20.156 10.1272 16.2369 6.20812 16.1823 6.16612V9.6363Z" fill="#EBC032"/>
</svg>
