<svg width="28" height="24" viewBox="0 0 28 24" fill="none" xmlns="http://www.w3.org/2000/svg">
<rect width="28" height="24" rx="8" fill="#667779"/>
<path d="M13.3327 6.66671H10.7993C10.0526 6.66671 9.67924 6.66671 9.39403 6.81203C9.14315 6.93986 8.93917 7.14384 8.81134 7.39472C8.66602 7.67994 8.66602 8.05331 8.66602 8.80004V15.2C8.66602 15.9468 8.66602 16.3201 8.81134 16.6054C8.93917 16.8562 9.14315 17.0602 9.39403 17.188C9.67924 17.3334 10.0526 17.3334 10.7993 17.3334H17.1993C17.9461 17.3334 18.3195 17.3334 18.6047 17.188C18.8556 17.0602 19.0595 16.8562 19.1874 16.6054C19.3327 16.3201 19.3327 15.9468 19.3327 15.2V12.3334M16.3327 7.66671L18.2183 9.55233M13.1745 10.8249L17.6067 6.39272C18.1274 5.87202 18.9716 5.87202 19.4923 6.39272C20.013 6.91342 20.013 7.75764 19.4923 8.27834L14.9176 12.853C14.4099 13.3607 14.156 13.6146 13.8668 13.8165C13.6101 13.9957 13.3333 14.1442 13.042 14.2589C12.7138 14.388 12.3619 14.4591 11.658 14.6011L11.3327 14.6667L11.3643 14.4453C11.4763 13.6617 11.5322 13.2699 11.6595 12.9041C11.7725 12.5795 11.9268 12.2709 12.1187 11.9858C12.335 11.6644 12.6148 11.3846 13.1745 10.8249Z" stroke="white" stroke-linecap="round" stroke-linejoin="round"/>
</svg>
