<svg width="24" height="24" viewBox="0 0 24 24" fill="none" xmlns="http://www.w3.org/2000/svg">
    <g clip-path="url(#clip0_18281_25551)">
        <path fill-rule="evenodd" clip-rule="evenodd" d="M12.0003 0.14032C18.5502 0.14032 23.8599 5.45007 23.8599 12C23.8599 18.5499 18.5502 23.8596 12.0003 23.8596C5.45037 23.8596 0.140625 18.5499 0.140625 12C0.140625 5.45007 5.45037 0.14032 12.0003 0.14032ZM16.3207 13.6673L18.0706 15.1218C19.4364 16.6902 15.7232 21.5809 9.17363 15.0285L9.07424 14.9286L8.97485 14.8298C2.42245 8.27513 7.31428 4.56425 8.88161 5.93L10.3334 7.67992C11.431 8.77757 9.01766 10.7175 8.92666 10.7907C8.92503 10.792 8.92404 10.7928 8.92404 10.7928C8.76937 10.948 9.76494 12.196 10.7851 13.2155C11.8052 14.2351 13.0526 15.2312 13.2078 15.0766C13.2078 15.0766 13.2091 15.075 13.2112 15.0724C13.3026 14.9594 15.2291 12.5757 16.3207 13.6673Z" fill="white"/>
    </g>
    <defs>
        <clipPath id="clip0_18281_25551">
            <rect width="24" height="24" fill="white"/>
        </clipPath>
    </defs>
</svg>
