<svg width="58" height="18" viewBox="0 0 58 18" fill="none" xmlns="http://www.w3.org/2000/svg">
<path d="M20.5826 15.6137C20.7084 15.2811 21.0796 15.1222 21.4177 15.2348C21.7468 15.3444 22.0831 15.425 22.4355 15.425C22.9215 15.425 23.338 15.335 23.6851 15.1551C24.3582 14.8453 24.6074 14.0581 24.8931 13.4314L21.5128 4.44314C21.3949 4.12984 21.6272 3.79563 21.9628 3.79563H23.9752C24.25 3.79563 24.4942 3.97033 24.5822 4.22988L26.351 9.4442L28.1198 4.22988C28.2078 3.97033 28.452 3.79563 28.7268 3.79563H30.6109C30.9474 3.79563 31.1797 4.13152 31.0602 4.44515L27.2465 14.449C26.8022 15.5842 26.2191 16.4564 25.4971 17.0656C24.7751 17.6886 23.824 18.0001 22.6438 18.0001C21.9481 18.0001 21.2676 17.8733 20.6143 17.6525C20.214 17.5173 20.0316 17.0701 20.1808 16.6758L20.5826 15.6137Z" fill="#1B9684"/>
<path d="M17.4243 12.58C16.6891 13.313 15.7557 13.519 14.7061 13.5145C12.8409 13.5064 11.2901 12.595 10.6764 10.8356C10.213 9.50714 10.2032 7.90545 10.6764 6.57838C11.2981 4.83468 12.8393 3.79563 14.7168 3.79563C15.7254 3.79563 16.6675 3.93803 17.4243 4.60554V4.43461C17.4243 4.08172 17.7112 3.79563 18.0651 3.79563H20.3464V13.5145H18.0651C17.7112 13.5145 17.4243 13.2284 17.4243 12.8755V12.58ZM17.0285 10.4825C17.4034 9.99798 17.5909 9.38882 17.5909 8.65506C17.5909 7.82439 17.3826 7.19446 16.9661 6.76528C16.1508 5.89634 14.5893 5.88242 13.842 6.84835C13.0803 7.84161 13.0998 9.51699 13.8629 10.5033C14.6268 11.4625 16.2787 11.4518 17.0285 10.4825Z" fill="#1B9684"/>
<path d="M5.20164 0.0576172H2.50377C1.78598 0.0576172 1.42708 0.0576172 1.15292 0.196906C0.911761 0.319428 0.715693 0.51493 0.592817 0.755393C0.453125 1.02876 0.453125 1.38662 0.453125 2.10234V2.54963H4.95172C5.61818 2.54963 6.13191 2.72269 6.49291 3.0688C6.53977 3.11033 6.5837 3.15338 6.6247 3.19794C6.91172 3.50988 7.05523 3.89601 7.05523 4.35634C7.05523 4.39095 7.05456 4.42521 7.0532 4.45912C7.03286 4.96774 6.85998 5.39727 6.53456 5.74771C6.49291 5.79444 6.44833 5.83824 6.40082 5.87913C6.06824 6.16532 5.59215 6.30842 4.97255 6.30842H0.453125V11.4698C0.453125 12.1855 0.453125 12.5433 0.592817 12.8167C0.715693 13.0572 0.911761 13.2527 1.15292 13.3752C1.42708 13.5145 1.78598 13.5145 2.50377 13.5145H3.23591V8.69659H5.26413C5.95835 8.69659 6.5901 8.59968 7.15937 8.40586C7.74252 8.21204 8.24236 7.92822 8.6589 7.55442C9.07544 7.16677 9.39478 6.68914 9.61693 6.12151C9.85297 5.54004 9.97099 4.87551 9.97099 4.1279C9.97099 3.5049 9.85991 2.9442 9.63776 2.44579C9.41561 1.94739 9.09626 1.52514 8.67973 1.17902C8.26319 0.819065 7.7564 0.542175 7.15937 0.348352C6.57622 0.154529 5.92364 0.0576172 5.20164 0.0576172Z" fill="#1B9684"/>
<path d="M47.0316 4.46252C46.8966 4.14642 47.1292 3.79553 47.4738 3.79553H49.5131C49.7787 3.79553 50.0167 3.95883 50.1116 4.20611L51.8909 8.84185L53.6503 4.20826C53.7446 3.95985 53.9832 3.79553 54.2496 3.79553H56.1595C56.5048 3.79553 56.7374 4.1478 56.601 4.4641L52.8282 13.2109C52.7271 13.4455 52.4956 13.5974 52.2395 13.5974H51.3565C51.0996 13.5974 50.8676 13.4445 50.7669 13.2088L47.0316 4.46252Z" fill="#6E7787"/>
<path d="M41.9083 11.2093C42.2693 11.2093 42.5817 11.14 42.8455 11.0016C43.1232 10.8632 43.3523 10.6832 43.5328 10.4617C43.7272 10.2263 43.866 9.95634 43.9493 9.65176C44.0465 9.33334 44.0951 9.00107 44.0951 8.65496C44.0951 8.30884 44.0465 7.9835 43.9493 7.67892C43.866 7.36049 43.7272 7.09053 43.5328 6.86901C43.3523 6.63366 43.1232 6.44676 42.8455 6.30831C42.5817 6.16987 42.2693 6.10064 41.9083 6.10064C41.5473 6.10064 41.2279 6.16987 40.9502 6.30831C40.6864 6.44676 40.4573 6.63366 40.263 6.86901C40.0825 7.09053 39.9436 7.36049 39.8464 7.67892C39.7492 7.9835 39.7006 8.30884 39.7006 8.65496C39.7006 9.00107 39.7492 9.33334 39.8464 9.65176C39.9436 9.95634 40.0825 10.2263 40.263 10.4617C40.4573 10.6832 40.6864 10.8632 40.9502 11.0016C41.2279 11.14 41.5473 11.2093 41.9083 11.2093ZM41.9083 13.8259C41.1169 13.8259 40.4018 13.6944 39.7631 13.4313C39.1383 13.1544 38.5968 12.7875 38.1386 12.3307C37.6943 11.86 37.3541 11.3131 37.1181 10.6901C36.8821 10.0533 36.764 9.37487 36.764 8.65496C36.764 7.93504 36.8821 7.26358 37.1181 6.64058C37.3541 6.01758 37.6943 5.47072 38.1386 5C38.5968 4.52929 39.1383 4.16241 39.7631 3.89936C40.4018 3.62247 41.1169 3.48403 41.9083 3.48403C42.6997 3.48403 43.4078 3.62247 44.0326 3.89936C44.6713 4.16241 45.2128 4.52929 45.6571 5C46.1153 5.47072 46.4624 6.01758 46.6985 6.64058C46.9345 7.26358 47.0525 7.93504 47.0525 8.65496C47.0525 9.37487 46.9345 10.0533 46.6985 10.6901C46.4624 11.3131 46.1153 11.86 45.6571 12.3307C45.2128 12.7875 44.6713 13.1544 44.0326 13.4313C43.4078 13.6944 42.6997 13.8259 41.9083 13.8259Z" fill="#6E7787"/>
<path d="M32.3779 1.27795C32.3779 0.572158 32.9517 0 33.6596 0H35.4603V13.5144H33.6596C32.9517 13.5144 32.3779 12.9422 32.3779 12.2364V1.27795Z" fill="#6E7787"/>
<ellipse cx="5.07703" cy="4.43727" rx="0.88269" ry="0.880144" fill="#FA8231"/>
</svg>
