<svg width="24" height="24" viewBox="0 0 24 24" fill="none" xmlns="http://www.w3.org/2000/svg">
<g clip-path="url(#clip0_162_5223)">
<path d="M9.00195 21H15.002" stroke="#8E9196" stroke-width="1.5" stroke-linecap="round" stroke-linejoin="round"/>
<path d="M17.252 2.25C18.7002 3.17411 19.8749 4.46888 20.6541 6" stroke="#8E9196" stroke-width="1.5" stroke-linecap="round" stroke-linejoin="round"/>
<path d="M3.34961 6C4.12883 4.46888 5.30351 3.17411 6.7518 2.25" stroke="#8E9196" stroke-width="1.5" stroke-linecap="round" stroke-linejoin="round"/>
<path d="M5.25135 10.5C5.25135 8.70979 5.96251 6.9929 7.22838 5.72703C8.49425 4.46116 10.2111 3.75 12.0013 3.75C13.7916 3.75 15.5084 4.46116 16.7743 5.72703C18.0402 6.9929 18.7513 8.70979 18.7513 10.5C18.7513 13.8581 19.5295 15.8063 20.1482 16.875C20.2139 16.9888 20.2486 17.1179 20.2487 17.2493C20.2488 17.3808 20.2144 17.5099 20.1489 17.6239C20.0834 17.7378 19.9891 17.8325 19.8754 17.8985C19.7618 17.9645 19.6328 17.9995 19.5013 18H4.50135C4.37008 17.9992 4.24132 17.964 4.12793 17.8978C4.01454 17.8317 3.9205 17.7369 3.85521 17.6231C3.78992 17.5092 3.75566 17.3801 3.75586 17.2489C3.75606 17.1176 3.79071 16.9887 3.85635 16.875C4.47416 15.8063 5.25135 13.8572 5.25135 10.5Z" stroke="#8E9196" stroke-width="1.5" stroke-linecap="round" stroke-linejoin="round"/>
</g>
<defs>
<clipPath id="clip0_162_5223">
<rect width="24" height="24" fill="white" transform="translate(0.00195312)"/>
</clipPath>
</defs>
</svg>
