<svg width="20" height="20" viewBox="0 0 20 20" fill="none" xmlns="http://www.w3.org/2000/svg">
<g id="fi_4280566">
<g id="Vector">
<path d="M12.7259 7.27272C12.2919 7.27272 11.8756 7.10032 11.5688 6.79344C11.2619 6.48656 11.0895 6.07035 11.0895 5.63636V1.81818H5.08949C4.6555 1.81818 4.23928 1.99058 3.9324 2.29746C3.62553 2.60433 3.45313 3.02055 3.45312 3.45454V16.5454C3.45312 16.9794 3.62553 17.3957 3.9324 17.7025C4.23928 18.0094 4.6555 18.1818 5.08949 18.1818H14.9077C15.3417 18.1818 15.7579 18.0094 16.0648 17.7025C16.3716 17.3957 16.544 16.9794 16.544 16.5454V7.27272H12.7259Z" fill="white"/>
<path d="M12.1804 5.63624C12.1804 5.7809 12.2379 5.91964 12.3402 6.02193C12.4424 6.12423 12.5812 6.18169 12.7259 6.18169H16.196C16.154 6.12715 12.2349 2.20806 12.1804 2.16606V5.63624Z" fill="white"/>
</g>
</g>
</svg>
