<svg width="24" height="24" viewBox="0 0 24 24" fill="none" xmlns="http://www.w3.org/2000/svg">
    <path d="M12 12H10.8C10.8 12.3183 10.9264 12.6235 11.1515 12.8485L12 12ZM13.2 8C13.2 7.33726 12.6627 6.8 12 6.8C11.3373 6.8 10.8 7.33726 10.8 8H13.2ZM13.6515 15.3485C14.1201 15.8172 14.8799 15.8172 15.3485 15.3485C15.8172 14.8799 15.8172 14.1201 15.3485 13.6515L13.6515 15.3485ZM13.2 12V8H10.8V12H13.2ZM11.1515 12.8485L13.6515 15.3485L15.3485 13.6515L12.8485 11.1515L11.1515 12.8485Z" fill="#2684FC"/>
    <path d="M5.60414 5.60423L4.75561 4.7557L4.75561 4.7557L5.60414 5.60423ZM4.33776 6.87061L3.13778 6.87664C3.14108 7.53467 3.6737 8.06729 4.33173 8.0706L4.33776 6.87061ZM6.87728 8.08339C7.54002 8.08672 8.07997 7.55217 8.0833 6.88944C8.08663 6.2267 7.55208 5.68675 6.88934 5.68342L6.87728 8.08339ZM5.52495 4.31903C5.52162 3.6563 4.98167 3.12175 4.31894 3.12508C3.6562 3.12841 3.12165 3.66836 3.12498 4.33109L5.52495 4.31903ZM4.27244 10.8461C4.36244 10.1895 3.90312 9.58428 3.24651 9.49428C2.58991 9.40428 1.98467 9.8636 1.89467 10.5202L4.27244 10.8461ZM19.1804 4.81966C15.1875 0.826759 8.72927 0.782042 4.75561 4.7557L6.45267 6.45276C9.47303 3.4324 14.4116 3.44495 17.4834 6.51672L19.1804 4.81966ZM4.81957 19.1805C8.81248 23.1734 15.2707 23.2181 19.2444 19.2445L17.5473 17.5474C14.527 20.5678 9.58839 20.5552 6.51663 17.4835L4.81957 19.1805ZM19.2444 19.2445C23.218 15.2708 23.1733 8.81257 19.1804 4.81966L17.4834 6.51672C20.5551 9.58849 20.5677 14.5271 17.5473 17.5474L19.2444 19.2445ZM4.75561 4.7557L3.48923 6.02208L5.18629 7.71914L6.45267 6.45276L4.75561 4.7557ZM4.33173 8.0706L6.87728 8.08339L6.88934 5.68342L4.34379 5.67063L4.33173 8.0706ZM5.53775 6.86458L5.52495 4.31903L3.12498 4.33109L3.13778 6.87664L5.53775 6.86458ZM1.89467 10.5202C1.4748 13.5834 2.45274 16.8137 4.81957 19.1805L6.51663 17.4835C4.69903 15.6659 3.9509 13.1919 4.27244 10.8461L1.89467 10.5202Z" fill="#2684FC"/>
</svg>
