<svg width="24" height="24" viewBox="0 0 24 24" fill="none" xmlns="http://www.w3.org/2000/svg">
<path d="M11.9995 1C10.2197 1.00094 8.48006 1.52919 7.00038 2.51803C5.52069 3.50687 4.36733 4.91194 3.68596 6.55577C3.00459 8.19959 2.82579 10.0084 3.17214 11.7538C3.51849 13.4991 4.37445 15.1027 5.63192 16.362C7.26232 17.992 11.0993 20.35 11.3263 22.827C11.3603 23.197 11.6294 23.5 11.9995 23.5C12.3696 23.5 12.6397 23.197 12.6727 22.827C12.8997 20.35 16.7337 17.996 18.3631 16.367C19.622 15.1082 20.4794 13.5046 20.8269 11.7587C21.1743 10.0129 20.9963 8.20326 20.3152 6.55857C19.6341 4.91388 18.4806 3.50799 17.0005 2.5186C15.5203 1.52921 13.78 1.00074 11.9995 1Z" fill="#061018"/>
<g clip-path="url(#clip0_6727_17367)">
<path d="M8.31543 10.307H12.4388L10.6007 16.0001L15.6855 9.69314H11.562L13.4002 4L8.31543 10.307Z" fill="white"/>
</g>
<defs>
<clipPath id="clip0_6727_17367">
<rect width="12" height="12" fill="white" transform="translate(6 4)"/>
</clipPath>
</defs>
</svg>
