<svg width="20" height="20" viewBox="0 0 20 20" fill="none" xmlns="http://www.w3.org/2000/svg">
    <path d="M2.5 7.50002H17.5M5.83333 12.5H7.5M5.16667 15.8334H14.8333C15.7668 15.8334 16.2335 15.8334 16.59 15.6517C16.9036 15.4919 17.1586 15.2369 17.3183 14.9233C17.5 14.5668 17.5 14.1001 17.5 13.1667V6.83335C17.5 5.89993 17.5 5.43322 17.3183 5.0767C17.1586 4.7631 16.9036 4.50813 16.59 4.34834C16.2335 4.16669 15.7668 4.16669 14.8333 4.16669H5.16667C4.23325 4.16669 3.76654 4.16669 3.41002 4.34834C3.09641 4.50813 2.84144 4.7631 2.68166 5.0767C2.5 5.43322 2.5 5.89993 2.5 6.83335V13.1667C2.5 14.1001 2.5 14.5668 2.68166 14.9233C2.84144 15.2369 3.09641 15.4919 3.41002 15.6517C3.76654 15.8334 4.23325 15.8334 5.16667 15.8334Z" stroke="white" stroke-width="1.5" stroke-linecap="round" stroke-linejoin="round"/>
</svg>
