<svg width="24" height="24" viewBox="0 0 24 24" fill="none" xmlns="http://www.w3.org/2000/svg">
<path d="M18 5.25H6C5.55 5.25 5.25 5.55 5.25 6V9.5H18.75V6C18.75 5.55 18.45 5.25 18 5.25Z" fill="#34C759"/>
<path d="M18.75 18V14.5H5.25V18C5.25 18.45 5.55 18.75 6 18.75H18C18.45 18.75 18.75 18.45 18.75 18Z" fill="#34C759"/>
<path d="M5.25 11.25H3.75C3.3 11.25 3 11.55 3 12C3 12.45 3.3 12.75 3.75 12.75H20.25C20.7 12.75 21 12.45 21 12C21 11.55 20.7 11.25 20.25 11.25H5.25Z" fill="black"/>
<path d="M2.25 6C2.7 6 3 5.7 3 5.25V3H5.25C5.7 3 6 2.7 6 2.25C6 1.8 5.7 1.5 5.25 1.5H2.25C1.8 1.5 1.5 1.8 1.5 2.25V5.25C1.5 5.7 1.8 6 2.25 6Z" fill="black"/>
<path d="M21.75 1.5H18.75C18.3 1.5 18 1.8 18 2.25C18 2.7 18.3 3 18.75 3H21V5.25C21 5.7 21.3 6 21.75 6C22.2 6 22.5 5.7 22.5 5.25V2.25C22.5 1.8 22.2 1.5 21.75 1.5Z" fill="black"/>
<path d="M21.75 18C21.3 18 21 18.3 21 18.75V21H18.75C18.3 21 18 21.3 18 21.75C18 22.2 18.3 22.5 18.75 22.5H21.75C22.2 22.5 22.5 22.2 22.5 21.75V18.75C22.5 18.3 22.2 18 21.75 18Z" fill="black"/>
<path d="M5.25 21H3V18.75C3 18.3 2.7 18 2.25 18C1.8 18 1.5 18.3 1.5 18.75V21.75C1.5 22.2 1.8 22.5 2.25 22.5H5.25C5.7 22.5 6 22.2 6 21.75C6 21.3 5.7 21 5.25 21Z" fill="black"/>
</svg>
