<svg width="21" height="20" viewBox="0 0 21 20" fill="none" xmlns="http://www.w3.org/2000/svg">
<path fill-rule="evenodd" clip-rule="evenodd" d="M14.2701 1.66663H14.327C15.0635 1.66662 15.6574 1.66661 16.1356 1.71208C16.6287 1.75896 17.0583 1.85826 17.4446 2.095C17.8357 2.3347 18.1646 2.66356 18.4043 3.05471C18.641 3.44103 18.7403 3.87064 18.7872 4.36373C18.8327 4.84187 18.8327 5.43583 18.8327 6.17232V6.22927C18.8327 6.71318 18.8327 7.11703 18.8015 7.44504C18.7689 7.78795 18.6982 8.10752 18.5185 8.40064C18.3428 8.68748 18.1016 8.92865 17.8148 9.10443C17.5216 9.28405 17.2021 9.35479 16.8592 9.3874C16.5311 9.41859 16.1273 9.41858 15.6434 9.41856L14.7226 9.41857C14.0261 9.41859 13.4453 9.41861 12.9842 9.35662C12.4976 9.29119 12.0582 9.14726 11.7051 8.79418C11.3521 8.4411 11.2081 8.00172 11.1427 7.51506C11.0807 7.05399 11.0807 6.4732 11.0807 5.7767L11.0807 4.856C11.0807 4.37208 11.0807 3.96817 11.1119 3.64015C11.1445 3.29724 11.2153 2.97767 11.3949 2.68456C11.5707 2.39771 11.8118 2.15654 12.0987 1.98077C12.3918 1.80115 12.7114 1.7304 13.0543 1.6978C13.3823 1.66661 13.7862 1.66662 14.2701 1.66663ZM14.9567 6.51159C14.5572 6.51159 14.3574 6.51159 14.2163 6.4115C14.1666 6.37619 14.1231 6.33273 14.0878 6.28296C13.9877 6.14191 13.9877 5.94214 13.9877 5.5426C13.9877 5.14307 13.9877 4.94328 14.0878 4.80223C14.1231 4.75246 14.1666 4.709 14.2163 4.67369C14.3574 4.5736 14.5572 4.5736 14.9567 4.5736C15.3563 4.5736 15.556 4.5736 15.6971 4.67369C15.7469 4.709 15.7903 4.75246 15.8256 4.80223C15.9257 4.94329 15.9257 5.14306 15.9257 5.5426C15.9257 5.94214 15.9257 6.14191 15.8256 6.28296C15.7903 6.33273 15.7469 6.37619 15.6971 6.4115C15.556 6.51159 15.3563 6.51159 14.9567 6.51159Z" fill="#1C274C"/>
<path fill-rule="evenodd" clip-rule="evenodd" d="M8.90003 1.98077C8.60691 1.80115 8.28734 1.7304 7.94443 1.6978C7.61641 1.66661 7.21254 1.66662 6.7286 1.66663H6.67172C5.93524 1.66662 5.34126 1.66661 4.86312 1.71208C4.37003 1.75896 3.94042 1.85826 3.5541 2.095C3.16295 2.3347 2.83409 2.66356 2.59439 3.05471C2.35765 3.44103 2.25835 3.87064 2.21146 4.36373C2.166 4.84187 2.16601 5.43581 2.16602 6.17228V6.22918C2.16601 6.71312 2.166 7.11702 2.19719 7.44504C2.22979 7.78795 2.30054 8.10752 2.48016 8.40064C2.65593 8.68748 2.8971 8.92865 3.18395 9.10443C3.47706 9.28405 3.79663 9.35479 4.13954 9.3874C4.46754 9.41859 4.87138 9.41858 5.35527 9.41856L6.27609 9.41857C6.97258 9.41859 7.55338 9.41861 8.01445 9.35662C8.50111 9.29119 8.94049 9.14726 9.29357 8.79418C9.64665 8.4411 9.79058 8.00172 9.85601 7.51506C9.918 7.05399 9.91798 6.47321 9.91796 5.77672L9.91795 4.85601C9.91797 4.37211 9.91798 3.96815 9.88679 3.64015C9.85418 3.29724 9.78344 2.97767 9.60381 2.68456C9.42804 2.39771 9.18687 2.15654 8.90003 1.98077ZM5.30162 6.4115C5.44268 6.51159 5.64244 6.51159 6.04199 6.51159C6.44152 6.51159 6.6413 6.51159 6.78235 6.4115C6.83212 6.37619 6.87558 6.33273 6.91089 6.28296C7.01098 6.14191 7.01098 5.94214 7.01098 5.5426C7.01098 5.14306 7.01098 4.94329 6.91089 4.80223C6.87558 4.75246 6.83212 4.709 6.78235 4.67369C6.6413 4.5736 6.44152 4.5736 6.04199 4.5736C5.64244 4.5736 5.44268 4.5736 5.30162 4.67369C5.25185 4.709 5.20839 4.75246 5.17308 4.80223C5.07299 4.94329 5.07299 5.14306 5.07299 5.5426C5.07299 5.94214 5.07299 6.14191 5.17308 6.28296C5.20839 6.33273 5.25185 6.37619 5.30162 6.4115Z" fill="#1C274C"/>
<path fill-rule="evenodd" clip-rule="evenodd" d="M8.01445 10.6433C8.50111 10.7087 8.94049 10.8527 9.29357 11.2057C9.64665 11.5588 9.79058 11.9982 9.85601 12.4849C9.918 12.9459 9.91798 13.5267 9.91796 14.2232L9.91795 15.1439C9.91797 15.6279 9.91798 16.0318 9.88679 16.3598C9.85418 16.7027 9.78344 17.0223 9.60381 17.3154C9.42804 17.6022 9.18687 17.8434 8.90003 18.0192C8.60691 18.1988 8.28734 18.2695 7.94443 18.3021C7.61642 18.3333 7.21249 18.3333 6.72857 18.3333H6.6717C5.93522 18.3333 5.34126 18.3333 4.86312 18.2878C4.37003 18.241 3.94042 18.1417 3.5541 17.9049C3.16295 17.6652 2.83409 17.3364 2.59439 16.9452C2.35765 16.5589 2.25835 16.1293 2.21146 15.6362C2.166 15.1581 2.16601 14.5641 2.16602 13.8276V13.7707C2.16601 13.2868 2.166 12.8829 2.19719 12.5549C2.22979 12.212 2.30054 11.8924 2.48016 11.5993C2.65593 11.3124 2.8971 11.0713 3.18395 10.8955C3.47706 10.7159 3.79663 10.6451 4.13954 10.6125C4.46755 10.5813 4.87141 10.5813 5.35532 10.5814L6.27609 10.5814C6.97259 10.5813 7.55338 10.5813 8.01445 10.6433ZM6.04199 15.4263C5.64244 15.4263 5.44268 15.4263 5.30162 15.3262C5.25185 15.2909 5.20839 15.2475 5.17308 15.1977C5.07299 15.0566 5.07299 14.8569 5.07299 14.4573C5.07299 14.0578 5.07299 13.858 5.17308 13.717C5.20839 13.6672 5.25185 13.6237 5.30162 13.5884C5.44267 13.4883 5.64244 13.4883 6.04198 13.4883C6.44151 13.4883 6.6413 13.4883 6.78235 13.5884C6.83212 13.6237 6.87558 13.6672 6.91089 13.717C7.01098 13.858 7.01098 14.0578 7.01098 14.4573C7.01098 14.8569 7.01098 15.0566 6.91089 15.1977C6.87558 15.2475 6.83212 15.2909 6.78235 15.3262C6.6413 15.4263 6.44152 15.4263 6.04199 15.4263Z" fill="#1C274C"/>
<path d="M11.0807 13.8462V13.8759H12.2435C12.2435 13.3195 12.2442 12.9459 12.2732 12.6611C12.3012 12.386 12.3507 12.2589 12.4068 12.1748C12.4775 12.069 12.5684 11.9781 12.6742 11.9074C12.7583 11.8513 12.8854 11.8018 13.1605 11.7738C13.4453 11.7448 13.8189 11.7441 14.3753 11.7441H15.9257V10.5814H14.3456C13.8265 10.5813 13.3934 10.5813 13.0428 10.617C12.6757 10.6543 12.3351 10.7355 12.0282 10.9406C11.7954 11.0962 11.5955 11.296 11.44 11.5288C11.2349 11.8358 11.1537 12.1764 11.1164 12.5434C11.0807 12.894 11.0807 13.3272 11.0807 13.8462Z" fill="#1C274C"/>
<path d="M18.8327 15.4459V15.4263H17.6699C17.6699 15.7955 17.6696 16.0432 17.6565 16.235C17.6438 16.4217 17.6209 16.5125 17.5961 16.5723C17.4978 16.8098 17.3091 16.9984 17.0717 17.0967C17.0119 17.1215 16.921 17.1444 16.7344 17.1571C16.5426 17.1702 16.2949 17.1705 15.9257 17.1705H14.3753V18.3333H15.9453C16.2898 18.3333 16.5775 18.3333 16.8136 18.3172C17.0594 18.3004 17.2916 18.2643 17.5167 18.171C18.039 17.9547 18.454 17.5397 18.6704 17.0173C18.7637 16.7922 18.7998 16.56 18.8166 16.3142C18.8327 16.0781 18.8327 15.7904 18.8327 15.4459Z" fill="#1C274C"/>
<path d="M12.2435 17.7519C12.2435 18.073 11.9832 18.3333 11.6621 18.3333C11.341 18.3333 11.0807 18.073 11.0807 17.7519V15.4263H12.2435V17.7519Z" fill="#1C274C"/>
<path d="M18.2513 10.5814C17.9302 10.5814 17.6699 10.8417 17.6699 11.1627V13.8759H18.8327V11.1627C18.8327 10.8417 18.5724 10.5814 18.2513 10.5814Z" fill="#1C274C"/>
<path d="M13.8961 13.8477C13.8327 14.0009 13.8327 14.195 13.8327 14.5833C13.8327 14.9716 13.8327 15.1657 13.8961 15.3189C13.9807 15.5231 14.1429 15.6853 14.3471 15.7699C14.5003 15.8333 14.6944 15.8333 15.0827 15.8333C15.471 15.8333 15.6651 15.8333 15.8183 15.7699C16.0224 15.6853 16.1847 15.5231 16.2692 15.3189C16.3327 15.1657 16.3327 14.9716 16.3327 14.5833C16.3327 14.195 16.3327 14.0009 16.2692 13.8477C16.1847 13.6435 16.0224 13.4813 15.8183 13.3967C15.6651 13.3333 15.471 13.3333 15.0827 13.3333C14.6944 13.3333 14.5003 13.3333 14.3471 13.3967C14.1429 13.4813 13.9807 13.6435 13.8961 13.8477Z" fill="#1C274C"/>
</svg>
