<svg width="29" height="28" viewBox="0 0 29 28" fill="none" xmlns="http://www.w3.org/2000/svg">
<path fill-rule="evenodd" clip-rule="evenodd" d="M20.0786 2.33334H20.1582C21.1893 2.33333 22.0208 2.33333 22.6902 2.39697C23.3805 2.46261 23.982 2.60163 24.5228 2.93307C25.0704 3.26864 25.5308 3.72906 25.8664 4.27667C26.1979 4.81751 26.3369 5.41897 26.4025 6.1093C26.4662 6.77869 26.4662 7.61023 26.4661 8.64131V8.72104C26.4662 9.39852 26.4662 9.96391 26.4225 10.4231C26.3769 10.9032 26.2778 11.3506 26.0263 11.761C25.7803 12.1625 25.4426 12.5002 25.041 12.7463C24.6307 12.9977 24.1833 13.0968 23.7032 13.1424C23.244 13.1861 22.6786 13.1861 22.0011 13.1861L20.712 13.1861C19.7369 13.1861 18.9238 13.1861 18.2783 13.0993C17.597 13.0077 16.9819 12.8062 16.4876 12.3119C15.9933 11.8176 15.7918 11.2025 15.7002 10.5212C15.6134 9.87565 15.6134 9.06255 15.6134 8.08745L15.6134 6.79847C15.6134 6.12098 15.6134 5.5555 15.6571 5.09628C15.7027 4.6162 15.8018 4.16881 16.0532 3.75845C16.2993 3.35687 16.637 3.01923 17.0385 2.77314C17.4489 2.52167 17.8963 2.42263 18.3764 2.37698C18.8356 2.33332 19.4011 2.33333 20.0786 2.33334ZM21.0398 9.11629C20.4804 9.11629 20.2008 9.11629 20.0033 8.97617C19.9336 8.92673 19.8728 8.86589 19.8233 8.79621C19.6832 8.59874 19.6832 8.31906 19.6832 7.75971C19.6832 7.20037 19.6832 6.92066 19.8233 6.72319C19.8728 6.65351 19.9336 6.59267 20.0033 6.54323C20.2008 6.40311 20.4804 6.40311 21.0398 6.40311C21.5991 6.40311 21.8788 6.40311 22.0763 6.54323C22.146 6.59267 22.2068 6.65351 22.2563 6.72319C22.3964 6.92067 22.3964 7.20034 22.3964 7.7597C22.3964 8.31906 22.3964 8.59873 22.2563 8.79621C22.2068 8.86589 22.146 8.92673 22.0763 8.97617C21.8788 9.11629 21.5991 9.11629 21.0398 9.11629Z" fill="#061018"/>
<path fill-rule="evenodd" clip-rule="evenodd" d="M12.5604 2.77314C12.1501 2.52167 11.7027 2.42263 11.2226 2.37698C10.7634 2.33332 10.1979 2.33333 9.52043 2.33334H9.44079C8.40973 2.33333 7.57815 2.33333 6.90876 2.39697C6.21843 2.46261 5.61698 2.60163 5.07613 2.93307C4.52852 3.26864 4.06811 3.72906 3.73254 4.27667C3.4011 4.81751 3.26208 5.41897 3.19644 6.1093C3.1328 6.77868 3.1328 7.6102 3.13281 8.64127V8.72091C3.1328 9.39843 3.13279 9.96389 3.17645 10.4231C3.2221 10.9032 3.32114 11.3506 3.57261 11.761C3.8187 12.1625 4.15634 12.5002 4.55792 12.7463C4.96828 12.9977 5.41567 13.0968 5.89575 13.1424C6.35495 13.1861 6.92032 13.1861 7.59777 13.1861L8.88692 13.1861C9.862 13.1861 10.6751 13.1861 11.3206 13.0993C12.0019 13.0077 12.6171 12.8062 13.1114 12.3119C13.6057 11.8176 13.8072 11.2025 13.8988 10.5212C13.9856 9.87566 13.9856 9.06256 13.9855 8.08748L13.9855 6.79848C13.9855 6.12102 13.9856 5.55548 13.9419 5.09628C13.8962 4.6162 13.7972 4.16881 13.5457 3.75845C13.2996 3.35687 12.962 3.01923 12.5604 2.77314ZM7.52266 8.97617C7.72014 9.11629 7.99981 9.11629 8.55917 9.11629C9.11853 9.11629 9.3982 9.11629 9.59568 8.97617C9.66536 8.92673 9.7262 8.86589 9.77564 8.79621C9.91576 8.59873 9.91576 8.31906 9.91576 7.7597C9.91576 7.20034 9.91576 6.92067 9.77564 6.72319C9.7262 6.65351 9.66536 6.59267 9.59568 6.54323C9.3982 6.40311 9.11853 6.40311 8.55917 6.40311C7.99981 6.40311 7.72014 6.40311 7.52266 6.54323C7.45298 6.59267 7.39214 6.65351 7.3427 6.72319C7.20258 6.92067 7.20258 7.20034 7.20258 7.7597C7.20258 8.31906 7.20258 8.59873 7.3427 8.79621C7.39214 8.86589 7.45298 8.92673 7.52266 8.97617Z" fill="#061018"/>
<path fill-rule="evenodd" clip-rule="evenodd" d="M11.3206 14.9007C12.0019 14.9923 12.6171 15.1938 13.1114 15.6881C13.6057 16.1824 13.8072 16.7975 13.8988 17.4789C13.9856 18.1244 13.9856 18.9375 13.9855 19.9126L13.9855 21.2016C13.9855 21.8791 13.9856 22.4445 13.9419 22.9037C13.8962 23.3838 13.7972 23.8312 13.5457 24.2416C13.2996 24.6432 12.962 24.9808 12.5604 25.2269C12.1501 25.4783 11.7027 25.5774 11.2226 25.623C10.7634 25.6667 10.1979 25.6667 9.5204 25.6667H9.44078C8.4097 25.6667 7.57816 25.6667 6.90876 25.603C6.21843 25.5374 5.61698 25.3984 5.07613 25.067C4.52852 24.7314 4.06811 24.271 3.73254 23.7234C3.4011 23.1825 3.26208 22.5811 3.19644 21.8907C3.1328 21.2213 3.1328 20.3898 3.13281 19.3587V19.2791C3.1328 18.6016 3.13279 18.0361 3.17645 17.5769C3.2221 17.0968 3.32114 16.6494 3.57261 16.2391C3.8187 15.8375 4.15634 15.4998 4.55792 15.2538C4.96828 15.0023 5.41567 14.9032 5.89575 14.8576C6.35496 14.8139 6.92037 14.8139 7.59784 14.814L8.88692 14.814C9.86202 14.8139 10.6751 14.8139 11.3206 14.9007ZM8.55917 21.5969C7.99981 21.5969 7.72014 21.5969 7.52266 21.4568C7.45298 21.4074 7.39214 21.3465 7.3427 21.2768C7.20258 21.0794 7.20258 20.7997 7.20258 20.2403C7.20258 19.681 7.20258 19.4013 7.3427 19.2038C7.39214 19.1341 7.45298 19.0733 7.52266 19.0238C7.72013 18.8837 7.99981 18.8837 8.55916 18.8837C9.1185 18.8837 9.39821 18.8837 9.59568 19.0238C9.66536 19.0733 9.7262 19.1341 9.77564 19.2038C9.91576 19.4013 9.91576 19.681 9.91576 20.2403C9.91576 20.7997 9.91576 21.0794 9.77564 21.2768C9.7262 21.3465 9.66536 21.4074 9.59568 21.4568C9.3982 21.5969 9.11853 21.5969 8.55917 21.5969Z" fill="#061018"/>
<path d="M15.6134 19.3847V19.4264H17.2413C17.2413 18.6473 17.2423 18.1243 17.2829 17.7256C17.3221 17.3404 17.3913 17.1625 17.47 17.0448C17.5689 16.8967 17.6961 16.7695 17.8442 16.6705C17.9619 16.5919 18.1399 16.5226 18.525 16.4834C18.9238 16.4429 19.4468 16.4419 20.2258 16.4419H22.3964V14.814H20.1842C19.4575 14.8139 18.8512 14.8139 18.3603 14.8639C17.8464 14.9161 17.3696 15.0298 16.9398 15.3169C16.614 15.5347 16.3342 15.8145 16.1164 16.1404C15.8293 16.5701 15.7156 17.047 15.6633 17.5608C15.6134 18.0517 15.6134 18.6581 15.6134 19.3847Z" fill="#061018"/>
<path d="M26.4661 21.6243V21.5969H24.8382C24.8382 22.1137 24.8378 22.4606 24.8195 22.7291C24.8016 22.9904 24.7697 23.1176 24.735 23.2013C24.5973 23.5337 24.3332 23.7978 24.0008 23.9355C23.9171 23.9702 23.7898 24.0022 23.5286 24.02C23.26 24.0383 22.9132 24.0388 22.3964 24.0388H20.2258V25.6667H22.4238C22.9061 25.6667 23.3088 25.6667 23.6394 25.6441C23.9835 25.6207 24.3086 25.57 24.6238 25.4395C25.355 25.1366 25.9361 24.5556 26.239 23.8243C26.3695 23.5091 26.4201 23.1841 26.4436 22.8399C26.4662 22.5093 26.4662 22.1067 26.4661 21.6243Z" fill="#061018"/>
<path d="M17.2413 24.8527C17.2413 25.3023 16.8769 25.6667 16.4274 25.6667C15.9779 25.6667 15.6134 25.3023 15.6134 24.8527V21.5969H17.2413V24.8527Z" fill="#061018"/>
<path d="M25.6522 14.814C25.2027 14.814 24.8382 15.1784 24.8382 15.6279V19.4264H26.4661V15.6279C26.4661 15.1784 26.1017 14.814 25.6522 14.814Z" fill="#061018"/>
<path d="M19.555 19.3869C19.4661 19.6013 19.4661 19.8731 19.4661 20.4167C19.4661 20.9603 19.4661 21.2321 19.555 21.4465C19.6734 21.7323 19.9005 21.9595 20.1863 22.0779C20.4007 22.1667 20.6725 22.1667 21.2161 22.1667C21.7597 22.1667 22.0315 22.1667 22.2459 22.0779C22.5318 21.9595 22.7589 21.7323 22.8773 21.4465C22.9661 21.2321 22.9661 20.9603 22.9661 20.4167C22.9661 19.8731 22.9661 19.6013 22.8773 19.3869C22.7589 19.101 22.5318 18.8739 22.2459 18.7555C22.0315 18.6667 21.7597 18.6667 21.2161 18.6667C20.6725 18.6667 20.4007 18.6667 20.1863 18.7555C19.9005 18.8739 19.6734 19.101 19.555 19.3869Z" fill="#061018"/>
</svg>
