<svg width="20" height="20" viewBox="0 0 20 20" fill="none" xmlns="http://www.w3.org/2000/svg">
<path d="M7.14313 10C7.8496 10 8.54021 9.7905 9.12762 9.39799C9.71502 9.00548 10.1728 8.44759 10.4432 7.79488C10.7135 7.14217 10.7842 6.42395 10.6463 5.73106C10.5084 5.03816 10.1682 4.40172 9.6686 3.90221C9.169 3.40269 8.5325 3.06256 7.83958 2.92481C7.14666 2.78705 6.42846 2.85788 5.77579 3.12832C5.12313 3.39876 4.56532 3.85668 4.17292 4.44415C3.78051 5.03163 3.57113 5.72227 3.57125 6.42875C3.57224 7.37571 3.9489 8.28359 4.61856 8.95313C5.28822 9.62267 6.19617 9.99917 7.14313 10ZM11.8156 12.9506C10.9105 12.0222 9.7492 11.3847 8.48003 11.1195C7.21086 10.8544 5.89145 10.9735 4.69033 11.4618C3.48921 11.9501 2.46091 12.7854 1.73679 13.8609C1.01266 14.9364 0.625586 16.2034 0.625 17.5C0.625 17.6658 0.690848 17.8247 0.808058 17.9419C0.925268 18.0592 1.08424 18.125 1.25 18.125H13.0375C13.2033 18.125 13.3622 18.0592 13.4794 17.9419C13.5967 17.8247 13.6625 17.6658 13.6625 17.5C13.6649 16.8373 13.5626 16.1783 13.3594 15.5475C13.0568 14.5723 12.5278 13.6824 11.8156 12.9506Z" fill="white"/>
<path d="M14.6875 10.3125C16.1545 10.3125 17.3438 9.12326 17.3438 7.65625C17.3438 6.18924 16.1545 5 14.6875 5C13.2205 5 12.0312 6.18924 12.0312 7.65625C12.0312 9.12326 13.2205 10.3125 14.6875 10.3125Z" fill="white"/>
<path d="M14.6873 11.0437C13.8496 11.0469 13.028 11.2751 12.3086 11.7044C12.4442 11.8256 12.5811 11.945 12.7092 12.0762C13.5602 12.951 14.1924 14.0145 14.5542 15.18C14.6781 15.5637 14.7695 15.9572 14.8273 16.3562H18.7498C18.9156 16.3562 19.0746 16.2904 19.1918 16.1732C19.309 16.056 19.3748 15.897 19.3748 15.7312C19.3735 14.4885 18.8792 13.2969 18.0004 12.4181C17.1217 11.5394 15.9301 11.0451 14.6873 11.0437Z" fill="white"/>
</svg>
