<svg width="24" height="24" viewBox="0 0 24 24" fill="none" xmlns="http://www.w3.org/2000/svg">
    <g clip-path="url(#clip0_18281_25548)">
        <path d="M12 0C9.62663 0 7.30655 0.703788 5.33316 2.02236C3.35977 3.34094 1.8217 5.21509 0.913451 7.4078C0.00519943 9.60051 -0.232441 12.0133 0.230582 14.3411C0.693605 16.6689 1.83649 18.8071 3.51472 20.4853C5.19295 22.1635 7.33115 23.3064 9.65892 23.7694C11.9867 24.2324 14.3995 23.9948 16.5922 23.0866C18.7849 22.1783 20.6591 20.6402 21.9776 18.6668C23.2962 16.6935 24 14.3734 24 12C24 8.8174 22.7357 5.76516 20.4853 3.51472C18.2348 1.26428 15.1826 0 12 0ZM12 19.1105C10.3704 19.1117 8.78981 18.553 7.52297 17.5279C6.25613 16.5028 5.37994 15.0736 5.04111 13.4796C4.70229 11.8856 4.9214 10.2235 5.66176 8.77179C6.40212 7.32005 7.61878 6.16674 9.10801 5.505L8.33701 5.105C8.10182 4.9824 7.92498 4.7714 7.84537 4.51842C7.76576 4.26543 7.78991 3.99118 7.91251 3.756C8.0351 3.52082 8.2461 3.34397 8.49909 3.26436C8.75208 3.18475 9.02633 3.2089 9.26151 3.3315L12.4615 5.0015C12.578 5.06225 12.6815 5.14537 12.7659 5.24611C12.8502 5.34685 12.9139 5.46324 12.9533 5.58862C12.9927 5.714 13.007 5.84591 12.9953 5.97681C12.9837 6.10771 12.9464 6.23503 12.8855 6.3515L11.2185 9.547C11.1589 9.66539 11.0764 9.77076 10.9757 9.85697C10.875 9.94318 10.7582 10.0085 10.6321 10.0492C10.5059 10.0898 10.3729 10.105 10.2408 10.0938C10.1088 10.0826 9.98024 10.0453 9.86273 9.98399C9.74522 9.92268 9.64106 9.83862 9.55632 9.7367C9.47159 9.63478 9.40796 9.51703 9.36914 9.3903C9.33031 9.26356 9.31707 9.13038 9.33018 8.99848C9.34329 8.86658 9.38249 8.73861 9.44551 8.622L10.1705 7.2315C9.14226 7.62691 8.26939 8.34413 7.68209 9.27617C7.09478 10.2082 6.8245 11.3051 6.91157 12.4033C6.99864 13.5016 7.43839 14.5422 8.16523 15.37C8.89207 16.1979 9.86705 16.7686 10.9447 16.9971C12.0225 17.2255 13.1451 17.0994 14.1453 16.6377C15.1455 16.1759 15.9697 15.4032 16.4948 14.4348C17.02 13.4663 17.218 12.3541 17.0593 11.2639C16.9007 10.1738 16.3939 9.16409 15.6145 8.3855C15.5217 8.29262 15.448 8.18237 15.3978 8.06103C15.3476 7.93969 15.3217 7.80965 15.3217 7.67832C15.3218 7.547 15.3476 7.41696 15.3979 7.29564C15.4482 7.17432 15.5219 7.0641 15.6148 6.97125C15.7076 6.87841 15.8179 6.80476 15.9392 6.75453C16.0606 6.7043 16.1906 6.67845 16.3219 6.67848C16.4533 6.6785 16.5833 6.70439 16.7046 6.75467C16.8259 6.80494 16.9362 6.87862 17.029 6.9715C18.0225 7.96642 18.6988 9.23346 18.9726 10.6126C19.2463 11.9917 19.1052 13.421 18.5671 14.7199C18.029 16.0189 17.1179 17.1292 15.9491 17.9107C14.7802 18.6921 13.406 19.1097 12 19.1105Z" fill="white"/>
    </g>
    <defs>
        <clipPath id="clip0_18281_25548">
            <rect width="24" height="24" fill="white"/>
        </clipPath>
    </defs>
</svg>
