<svg width="20" height="20" viewBox="0 0 20 20" fill="none" xmlns="http://www.w3.org/2000/svg">
<g id="fi_2062582">
<g id="Vector">
<path d="M4.71166 11.3483C4.5412 11.5906 4.60118 11.9242 4.8434 12.0926L5.20948 12.3468C4.61198 12.9233 3.81068 13.2495 2.97377 13.2495H1.9745V12.0954C1.9745 11.8012 1.73601 11.5628 1.44184 11.5628C1.14767 11.5628 0.90918 11.8012 0.90918 12.0954V17.5285C0.90918 17.8227 1.14767 18.0612 1.44184 18.0612C1.73601 18.0612 1.9745 17.8227 1.9745 17.5285V16.4455H2.6965C4.60811 16.4455 6.47753 15.6416 7.80548 14.1497L8.33835 14.5197C8.58029 14.6887 8.91593 14.6267 9.0823 14.3819L9.44735 13.8461L5.12606 10.7599L4.71166 11.3483Z" fill="white"/>
<path d="M18.8586 11.3957L18.6622 11.2614L14.5767 14.5259L15.7457 15.3675C15.974 15.5318 16.2933 15.4903 16.4712 15.2695L18.9726 12.1702C19.1687 11.9271 19.1141 11.5699 18.8586 11.3957Z" fill="white"/>
<path d="M18.031 9.53768L7.78872 2.14103C7.32868 1.80872 6.68991 1.89508 6.33452 2.33748L2.96844 6.52719C2.58563 7.00378 2.68226 7.706 3.17983 8.06136L12.2411 14.5323C12.4347 14.6706 12.697 14.6637 12.8831 14.5149L18.0516 10.3857C18.3262 10.1663 18.3168 9.74403 18.031 9.53768ZM14.2609 10.4796C13.9667 10.4796 13.7283 10.2411 13.7283 9.94697C13.7283 9.6528 13.9667 9.41431 14.2609 9.41431C14.5551 9.41431 14.7936 9.6528 14.7936 9.94697C14.7936 10.2411 14.5551 10.4796 14.2609 10.4796Z" fill="white"/>
</g>
</g>
</svg>
