<svg width="24" height="24" viewBox="0 0 24 24" fill="none" xmlns="http://www.w3.org/2000/svg">
    <path fill-rule="evenodd" clip-rule="evenodd" d="M13 8C13 7.57928 13.2186 7.07833 13.6565 6.66345C14.0881 6.25457 14.6616 6 15.25 6C16.5212 6 17.5 7.02299 17.5 8V9H19.5V8C19.5 5.77701 17.4788 4 15.25 4C14.0884 4 13.0369 4.49543 12.281 5.21155C11.5314 5.92167 11 6.92072 11 8V16C11 16.9477 10.1977 18 8.75 18C7.30229 18 6.50002 16.9477 6.50001 16L6.5 15L4.5 15.0004L4.50001 16C4.50003 18.0523 6.19769 20 8.75 20C11.3023 20 13 18.0523 13 16V8ZM9 9.5C9 11.433 7.433 13 5.5 13C3.567 13 2 11.433 2 9.5C2 7.567 3.567 6 5.5 6C7.433 6 9 7.567 9 9.5ZM5.5 11C6.32843 11 7 10.3284 7 9.5C7 8.67157 6.32843 8 5.5 8C4.67157 8 4 8.67157 4 9.5C4 10.3284 4.67157 11 5.5 11ZM22 14.5C22 16.433 20.433 18 18.5 18C16.567 18 15 16.433 15 14.5C15 12.567 16.567 11 18.5 11C20.433 11 22 12.567 22 14.5ZM18.5 16C19.3284 16 20 15.3284 20 14.5C20 13.6716 19.3284 13 18.5 13C17.6716 13 17 13.6716 17 14.5C17 15.3284 17.6716 16 18.5 16Z" fill="white"/>
</svg>
