<svg width="24" height="25" viewBox="0 0 24 25" fill="none" xmlns="http://www.w3.org/2000/svg">
    <path d="M9 11.5H15M9 7.5H13M9 15.5H15M5 6.7V21.5L7.5 19.5L10 21.5L12 19.5L14 21.5L16.5 19.5L19 21.5V6.7C19 5.5799 19 5.01984 18.782 4.59202C18.5903 4.21569 18.2843 3.90973 17.908 3.71799C17.4802 3.5 16.9201 3.5 15.8 3.5H8.2C7.0799 3.5 6.51984 3.5 6.09202 3.71799C5.71569 3.90973 5.40973 4.21569 5.21799 4.59202C5 5.01984 5 5.5799 5 6.7Z" stroke="#4D5B6E" stroke-width="2" stroke-linecap="round" stroke-linejoin="round"/>
</svg>
