<svg width="20" height="20" viewBox="0 0 20 20" fill="none" xmlns="http://www.w3.org/2000/svg">
<path d="M13.4084 4.82966C13.8848 4.82936 14.3416 4.63999 14.6785 4.30313C15.0153 3.96628 15.2047 3.50949 15.205 3.0331C15.1215 0.655465 11.6969 0.65579 11.6118 3.03313C11.6127 3.50936 11.8022 3.96584 12.139 4.30257C12.4757 4.63931 12.9322 4.82885 13.4084 4.82966Z" fill="#C6CDCE"/>
<path d="M17.258 8.06297C17.1091 7.83357 16.8805 7.66738 16.6164 7.59641C16.3523 7.52545 16.0712 7.55474 15.8274 7.67864L14.6836 8.25514C14.6473 8.27384 14.6078 8.28521 14.5671 8.28859C14.5265 8.29197 14.4856 8.28729 14.4467 8.27482C14.4079 8.26235 14.3719 8.24234 14.3409 8.21593C14.3098 8.18952 14.2842 8.15723 14.2657 8.12093L13.2713 6.16878C13.095 5.82767 12.8293 5.5409 12.5026 5.33912L11.8255 4.92122C11.5091 4.72768 11.147 4.62139 10.7762 4.61316L8.07065 4.5491C6.7625 4.49639 6.23775 5.85044 5.5054 6.71781C5.40667 6.85255 5.33693 7.00627 5.30056 7.16929C5.2642 7.33231 5.26199 7.5011 5.29409 7.66501C5.32619 7.82893 5.39189 7.98442 5.48706 8.12169C5.58223 8.25895 5.7048 8.37501 5.84705 8.46256C6.10283 8.62459 6.41114 8.68202 6.70812 8.62297C7.00509 8.56391 7.26797 8.39289 7.4423 8.14533L7.95474 7.41633C8.06905 7.25272 8.22234 7.12018 8.40075 7.0307C8.57917 6.94123 8.77707 6.89764 8.97656 6.90388L9.11993 6.90693L6.96647 11.2596C6.95854 11.2743 6.94522 11.2854 6.92929 11.2906C6.91337 11.2957 6.89608 11.2944 6.88105 11.2871L4.46833 10.1158C4.30874 10.0369 4.13474 9.99131 3.95696 9.98187C3.77918 9.97243 3.60134 9.99931 3.43429 10.0609C3.19649 10.1505 2.98909 10.3059 2.83633 10.509C2.68356 10.7121 2.59175 10.9545 2.5716 11.2078C2.55145 11.4611 2.60381 11.715 2.72255 11.9396C2.84129 12.1643 3.02151 12.3506 3.24216 12.4767L5.56945 13.7669C6.1368 14.0782 6.79829 14.1715 7.42962 14.0294C8.06095 13.8873 8.61864 13.5195 8.99791 12.9952C9.35782 12.5098 12.0238 8.94144 12.0238 8.94144L12.9358 10.375C13.0949 10.626 13.3412 10.8091 13.6274 10.8891C13.9135 10.9691 14.2192 10.9403 14.4853 10.8082L16.8187 9.65823C16.9577 9.58784 17.0805 9.48916 17.1791 9.36854C17.2777 9.24792 17.35 9.10801 17.3914 8.9578C17.4327 8.80759 17.4422 8.65038 17.4192 8.49628C17.3963 8.34218 17.3413 8.19459 17.258 8.06297Z" fill="#C6CDCE"/>
<path d="M11.3432 12.1411L10.7362 11.6897C10.7362 11.6897 9.43238 13.4888 9.11963 13.7852L9.70831 14.1421C9.81166 14.2104 9.89643 14.3033 9.95499 14.4124C10.0136 14.5216 10.0441 14.6435 10.0438 14.7674L10.0621 17.5401C10.0673 17.8601 10.1971 18.1656 10.4238 18.3915C10.6506 18.6174 10.9565 18.746 11.2766 18.7499C11.5966 18.7539 11.9057 18.6329 12.1379 18.4127C12.3702 18.1925 12.5075 17.8904 12.5206 17.5706L12.6091 14.7583C12.6253 14.2522 12.5186 13.7498 12.2981 13.294C12.0776 12.8382 11.75 12.4426 11.3432 12.1411Z" fill="#C6CDCE"/>
</svg>
