<svg width="16" height="16" viewBox="0 0 16 16" fill="none" xmlns="http://www.w3.org/2000/svg">
<g id="refresh-ccw-alt-2">
<path id="Icon" d="M8.66699 1.33325L7.33366 2.66355L7.3731 2.70308M7.33366 12L8.66699 13.2738L8.64722 13.2944M7.3731 2.70308L8.66699 3.99992M7.3731 2.70308C7.57882 2.67898 7.78813 2.66659 8.00033 2.66659C10.9458 2.66659 13.3337 5.0544 13.3337 7.99992C13.3337 9.68418 12.5529 11.1861 11.3337 12.1635M4.66699 3.83634C3.44771 4.81375 2.66699 6.31566 2.66699 7.99992C2.66699 10.9454 5.05481 13.3333 8.00033 13.3333C8.21929 13.3333 8.43517 13.3201 8.64722 13.2944M7.33366 14.6666L8.64722 13.2944" stroke="white" stroke-width="1.5" stroke-linecap="round" stroke-linejoin="round"/>
</g>
</svg>
