<svg width="36" height="36" viewBox="0 0 36 36" fill="none" xmlns="http://www.w3.org/2000/svg">
<rect width="36" height="36" rx="8" fill="#E9F2FE"/>
<path d="M16.9144 26H11.2031V9.99998H16.9616C18.5822 9.99998 19.9772 10.3203 21.1467 10.9609C22.3163 11.5963 23.2157 12.5104 23.8451 13.7031C24.4797 14.8958 24.797 16.3229 24.797 17.9844C24.797 19.651 24.4797 21.0833 23.8451 22.2812C23.2157 23.4792 22.311 24.3984 21.131 25.0391C19.9562 25.6797 18.5507 26 16.9144 26ZM14.6094 23.1016H16.7728C17.7797 23.1016 18.6267 22.9245 19.3138 22.5703C20.0061 22.2109 20.5253 21.6562 20.8714 20.9062C21.2228 20.151 21.3985 19.1771 21.3985 17.9844C21.3985 16.8021 21.2228 15.8359 20.8714 15.0859C20.5253 14.3359 20.0087 13.7838 19.3216 13.4297C18.6346 13.0755 17.7876 12.8984 16.7807 12.8984H14.6094V23.1016Z" fill="#2684FC"/>
</svg>
