<svg width="151" height="24" viewBox="0 0 151 24" fill="none" xmlns="http://www.w3.org/2000/svg">
<g clip-path="url(#clip0_13731_18661)">
<path d="M18.7804 0H9.24856L3.52344 14.4148C5.97076 12.225 9.10242 10.7821 12.5588 10.4504L13.7396 7.23526H14.2894L15.4655 10.4365C18.2352 10.6731 20.8009 11.6219 22.9814 13.0996L23.0255 13.0648L23.4477 12.7145L23.7353 12.4779L18.7804 0Z" fill="#061018"/>
<path d="M21.6757 14.1782L16.6743 18.3166L16.157 18.7457C15.5005 18.5648 14.8092 18.4697 14.0947 18.4697C10.6221 18.4697 7.67834 20.7384 6.66462 23.8747C6.6507 23.9164 6.63678 23.9582 6.62518 23.9999H0C0.00695922 23.9582 0.0139185 23.9164 0.0208777 23.8747C0.104388 23.3759 0.215736 22.8888 0.350281 22.4086C0.617051 21.4552 0.981251 20.5412 1.4336 19.6806C3.49585 15.7278 7.35358 12.8606 11.9281 12.1646C12.6356 12.0556 13.3571 11.9999 14.0947 11.9999C14.7721 11.9999 15.4402 12.0463 16.092 12.1391C18.1218 12.4221 20.0147 13.1343 21.6757 14.1782Z" fill="#061018"/>
<path d="M28.1927 23.9999H21.5676C21.556 23.9582 21.542 23.9164 21.5281 23.8747C21.1152 22.5988 20.3822 21.4668 19.4241 20.5714C19.2826 20.4391 19.1341 20.3092 18.981 20.1886C18.8279 20.0633 18.6702 19.9473 18.5078 19.836L23.3584 15.4123C23.5069 15.5375 23.653 15.6674 23.7945 15.7997C23.936 15.9319 24.0775 16.0664 24.2121 16.2033C24.9776 16.9711 25.6549 17.8248 26.2279 18.7504C27.1094 20.1677 27.7497 21.7498 28.0907 23.4409C28.1208 23.5847 28.1463 23.7285 28.1719 23.8747C28.1788 23.9164 28.1858 23.9582 28.1927 23.9999Z" fill="#2684FC"/>
<path d="M26.6706 12.2548C26.6706 12.3545 26.6289 12.4496 26.5546 12.5169L24.4489 14.4426L24.3839 14.5029L23.2496 15.5375L18.399 19.9613L17.4038 20.8683L14.177 23.8097C14.0379 23.9373 13.8616 23.9999 13.6876 23.9999C13.4834 23.9999 13.2816 23.9164 13.1378 23.7494C12.8687 23.4409 12.9081 22.9723 13.2236 22.7102L15.4506 20.8683L17.3064 19.3349L22.5629 14.9878L23.8388 13.9346L24.0777 13.7374L26.093 11.9857C26.1556 11.9323 26.2345 11.9045 26.3134 11.9045C26.3319 11.9045 26.3505 11.9068 26.3691 11.9091C26.5407 11.9346 26.6683 12.0808 26.6706 12.2548Z" fill="#2684FC"/>
</g>
<path d="M26.1562 0.333333H33.8229L38.4896 16.6667H39.1563L43.8229 0.333333H51.4896L43.7896 23.6667H33.8563L26.1562 0.333333Z" fill="black"/>
<path d="M59.8988 6.33333H52.3321V0.333333H74.7988V6.33333H67.2321V23.6667H59.8988V6.33333Z" fill="black"/>
<path d="M88.4597 24C86.5486 24 84.8264 23.7333 83.2931 23.2C81.7597 22.6667 80.4486 21.8889 79.3597 20.8667C78.2708 19.8444 77.4264 18.5889 76.8264 17.1C76.2486 15.6111 75.9597 13.9111 75.9597 12C75.9597 10.0889 76.2486 8.38889 76.8264 6.9C77.4264 5.41111 78.2708 4.15555 79.3597 3.13333C80.4486 2.11111 81.7597 1.33333 83.2931 0.799999C84.8264 0.266666 86.5486 0 88.4597 0C90.3486 0 92.0597 0.266666 93.5931 0.799999C95.1486 1.33333 96.4709 2.11111 97.5597 3.13333C98.6486 4.15555 99.482 5.41111 100.06 6.9C100.66 8.38889 100.96 10.0889 100.96 12C100.96 13.9111 100.66 15.6111 100.06 17.1C99.482 18.5889 98.6486 19.8444 97.5597 20.8667C96.4709 21.8889 95.1486 22.6667 93.5931 23.2C92.0597 23.7333 90.3486 24 88.4597 24ZM88.4597 17.7667C89.3486 17.7667 90.0931 17.6222 90.6931 17.3333C91.3153 17.0222 91.8153 16.6111 92.1931 16.1C92.5708 15.5889 92.8486 14.9778 93.0264 14.2667C93.2042 13.5556 93.2931 12.8 93.2931 12C93.2931 11.2 93.2042 10.4444 93.0264 9.73333C92.8486 9.02222 92.5708 8.41111 92.1931 7.9C91.8153 7.38889 91.3153 6.98889 90.6931 6.7C90.0931 6.38889 89.3486 6.23333 88.4597 6.23333C87.5708 6.23333 86.8153 6.38889 86.1931 6.7C85.5931 6.98889 85.0931 7.38889 84.6931 7.9C84.3153 8.41111 84.0375 9.02222 83.8597 9.73333C83.7042 10.4444 83.6264 11.2 83.6264 12C83.6264 12.8 83.7042 13.5556 83.8597 14.2667C84.0375 14.9778 84.3153 15.5889 84.6931 16.1C85.0931 16.6111 85.5931 17.0222 86.1931 17.3333C86.8153 17.6222 87.5708 17.7667 88.4597 17.7667Z" fill="black"/>
<path d="M104.279 19C104.279 17.6222 104.624 16.5 105.313 15.6333C106.024 14.7667 106.902 14.0667 107.946 13.5333C109.013 12.9778 110.157 12.5333 111.379 12.2C112.602 11.8444 113.735 11.5 114.779 11.1667C115.846 10.8111 116.724 10.4 117.413 9.93333C118.124 9.44444 118.479 8.8 118.479 8C118.479 7.35555 118.246 6.84444 117.779 6.46666C117.313 6.08889 116.502 5.9 115.346 5.9C114.679 5.9 114.146 5.98889 113.746 6.16666C113.346 6.34444 113.024 6.56667 112.779 6.83333C112.557 7.1 112.402 7.4 112.313 7.73333C112.246 8.06666 112.213 8.37777 112.213 8.66666V9.9H104.879V8.66666C104.879 5.6 105.746 3.38889 107.479 2.03333C109.213 0.677777 111.835 0 115.346 0C118.857 0 121.479 0.644445 123.213 1.93333C124.946 3.22222 125.813 5.24444 125.813 8C125.813 9.35555 125.49 10.5111 124.846 11.4667C124.202 12.4 123.39 13.2 122.413 13.8667C121.457 14.5111 120.413 15.0444 119.279 15.4667C118.168 15.8667 117.124 16.2111 116.146 16.5C115.19 16.7667 114.39 17.0222 113.746 17.2667C113.102 17.4889 112.779 17.7333 112.779 18H125.779V23.6667H104.279V19Z" fill="#2684FC"/>
<path d="M140.303 19.3333H127.469V13.6667L137.969 0.333333H147.636V13.6667H150.636V19.3333H147.636V23.6667H140.303V19.3333ZM140.403 13.7667V7.4V6.86209V6.09357L139.369 7.4L134.336 13.6V13.7667H140.403Z" fill="#2684FC"/>
<defs>
<clipPath id="clip0_13731_18661">
<rect width="28.1918" height="24" fill="white"/>
</clipPath>
</defs>
</svg>
