<svg width="21" height="20" viewBox="0 0 21 20" fill="none" xmlns="http://www.w3.org/2000/svg">
<g clip-path="url(#clip0_5939_15800)">
<path fill-rule="evenodd" clip-rule="evenodd" d="M10.5 0C16.0229 0 20.5 4.47715 20.5 10C20.5 15.5229 16.0229 20 10.5 20C4.97715 20 0.5 15.5229 0.5 10C0.5 4.47715 4.97715 0 10.5 0ZM6.84164 5.925C6.61215 5.925 6.42496 6.11215 6.42496 6.34164V13.6584C6.42496 13.8879 6.61215 14.075 6.84164 14.075H14.1584C14.3879 14.075 14.575 13.8879 14.575 13.6584V6.34164C14.575 6.11215 14.3879 5.925 14.1584 5.925H6.84164Z" fill="#E93B50"/>
</g>
<defs>
<clipPath id="clip0_5939_15800">
<rect width="20" height="20" fill="white" transform="translate(0.5)"/>
</clipPath>
</defs>
</svg>
