<svg width="20" height="20" viewBox="0 0 20 20" fill="none" xmlns="http://www.w3.org/2000/svg">
<path d="M4.27272 2.36365C3.57864 2.36365 3 2.94229 3 3.63637V17C3.00004 17.3514 3.28492 17.6363 3.63636 17.6363H11.2727C11.6241 17.6363 11.909 17.3514 11.9091 17V14.1363C11.9091 13.9606 12.0515 13.8182 12.2272 13.8182H12.5454C12.9044 13.8182 13.1818 14.0955 13.1818 14.4545V15.0909C13.1818 16.1377 14.0441 17 15.0909 17C16.1377 17 17 16.1377 17 15.0909V6.81818C17 6.21784 16.7171 5.65087 16.2368 5.29066L14.1997 3.76315C13.8888 3.53002 13.4914 3.64278 13.3086 3.89116C13.1001 4.17435 13.155 4.57166 13.4366 4.78232L14.1997 5.35405C14.3602 5.47427 14.4546 5.66311 14.4545 5.86364V7.45454C14.4545 8.0415 14.8663 8.54496 15.4128 8.68749C15.5824 8.73174 15.7272 8.86972 15.7272 9.04545V15.0909C15.7272 15.4499 15.4499 15.7272 15.0909 15.7272C14.7319 15.7272 14.4545 15.4499 14.4545 15.0909V14.4545C14.4545 13.4077 13.5922 12.5454 12.5454 12.5454H12.2272C12.0515 12.5454 11.9091 12.403 11.9091 12.2273V3.63637C11.9091 2.94229 11.3304 2.36365 10.6363 2.36365L4.27272 2.36365ZM7.45453 6.18182C7.53175 6.18174 7.60803 6.19881 7.67785 6.2318C7.74767 6.26478 7.80931 6.31285 7.8583 6.37254C7.90729 6.43223 7.94241 6.50206 7.96114 6.57697C7.97987 6.65189 7.98174 6.73003 7.9666 6.80575L7.51668 9.05166C7.50911 9.08952 7.51004 9.12859 7.51941 9.16605C7.52877 9.20351 7.54634 9.23842 7.57083 9.26826C7.59533 9.29811 7.62614 9.32215 7.66105 9.33864C7.69597 9.35513 7.7341 9.36366 7.77271 9.36363H8.72726C8.80147 9.36371 8.87466 9.381 8.94107 9.41414C9.00748 9.44729 9.0653 9.49538 9.10998 9.55463C9.15467 9.61389 9.185 9.68271 9.1986 9.75567C9.2122 9.82863 9.2087 9.90375 9.18837 9.97513L8.26614 13.2067C8.21569 13.3829 8.10918 13.538 7.96274 13.6483C7.81629 13.7587 7.63789 13.8183 7.45453 13.8182C7.37731 13.8182 7.30104 13.8012 7.23121 13.7682C7.16139 13.7352 7.09976 13.6871 7.05077 13.6274C7.00178 13.5677 6.96665 13.4979 6.94792 13.423C6.92919 13.3481 6.92733 13.27 6.94246 13.1942L7.39239 10.9483C7.39995 10.9105 7.39902 10.8714 7.38966 10.8339C7.38029 10.7965 7.36273 10.7616 7.33823 10.7317C7.31374 10.7019 7.28292 10.6778 7.24801 10.6613C7.2131 10.6448 7.17496 10.6363 7.13635 10.6364H6.18181C6.10759 10.6363 6.0344 10.619 5.96799 10.5858C5.90159 10.5527 5.84377 10.5046 5.79908 10.4453C5.7544 10.3861 5.72406 10.3173 5.71046 10.2443C5.69686 10.1713 5.70036 10.0962 5.7207 10.0248L6.64292 6.79332C6.69338 6.61704 6.79989 6.462 6.94633 6.35166C7.09277 6.24133 7.27118 6.1817 7.45453 6.18182Z" fill="#C6CDCE"/>
</svg>
