<svg width="20" height="20" viewBox="0 0 20 20" fill="none" xmlns="http://www.w3.org/2000/svg">
<g id="send">
<path id="Icon" d="M8.58427 11.4125L16.7518 3.24789M8.81642 11.7796L10.6684 15.4837C11.116 16.3788 11.3398 16.8263 11.6217 16.9464C11.8663 17.0505 12.146 17.0317 12.3745 16.8956C12.6377 16.7389 12.7994 16.2653 13.1228 15.3182L16.6221 5.07033C16.9039 4.24511 17.0448 3.8325 16.9483 3.55956C16.8644 3.3221 16.6777 3.13533 16.4402 3.05143C16.1673 2.955 15.7547 3.09589 14.9294 3.37767L4.68152 6.87696C3.73444 7.20035 3.26091 7.36205 3.10415 7.6253C2.96811 7.85376 2.94926 8.13343 3.05341 8.37808C3.17342 8.65999 3.62098 8.88377 4.51609 9.33133L8.22013 11.1833C8.36763 11.2571 8.44138 11.294 8.50528 11.3432C8.56199 11.3869 8.61283 11.4378 8.65654 11.4945C8.7058 11.5584 8.74267 11.6321 8.81642 11.7796Z" stroke="#061018" stroke-width="1.5" stroke-linecap="round" stroke-linejoin="round"/>
</g>
</svg>
