<svg width="20" height="20" viewBox="0 0 20 20" fill="none" xmlns="http://www.w3.org/2000/svg">
    <circle cx="10" cy="10" r="2.5" stroke="white" stroke-width="1.5" stroke-linecap="round" stroke-linejoin="round"/>
    <path d="M11.4715 1.79355C11.1653 1.66669 10.777 1.66669 10.0004 1.66669C9.22383 1.66669 8.83554 1.66669 8.52926 1.79355C8.12088 1.96271 7.79642 2.28717 7.62726 2.69555C7.55005 2.88197 7.51983 3.09877 7.508 3.41501C7.49062 3.87975 7.25229 4.30993 6.84953 4.54246C6.44677 4.77499 5.95506 4.7663 5.5439 4.54899C5.26411 4.4011 5.06124 4.31887 4.86119 4.29253C4.42294 4.23484 3.97972 4.3536 3.62904 4.62269C3.36603 4.8245 3.17188 5.16077 2.7836 5.8333C2.39532 6.50583 2.20117 6.84209 2.1579 7.17077C2.10021 7.60902 2.21896 8.05224 2.48805 8.40292C2.61088 8.56299 2.78349 8.69754 3.0514 8.86587C3.44524 9.11334 3.69865 9.5349 3.69862 10C3.6986 10.4651 3.4452 10.8866 3.05139 11.1341C2.78345 11.3024 2.61081 11.437 2.48797 11.5971C2.21888 11.9477 2.10012 12.391 2.15782 12.8292C2.20109 13.1579 2.39523 13.4942 2.78352 14.1667C3.1718 14.8392 3.36595 15.1755 3.62896 15.3773C3.97964 15.6464 4.42286 15.7651 4.8611 15.7075C5.06115 15.6811 5.26401 15.5989 5.54377 15.451C5.95497 15.2337 6.44671 15.225 6.84949 15.4576C7.25227 15.6901 7.49062 16.1203 7.508 16.5851C7.51983 16.9013 7.55005 17.1181 7.62726 17.3045C7.79642 17.7129 8.12088 18.0373 8.52926 18.2065C8.83554 18.3334 9.22383 18.3334 10.0004 18.3334C10.777 18.3334 11.1653 18.3334 11.4715 18.2065C11.8799 18.0373 12.2044 17.7129 12.3735 17.3045C12.4508 17.1181 12.481 16.9013 12.4928 16.585C12.5102 16.1203 12.7485 15.6901 13.1512 15.4576C13.554 15.225 14.0458 15.2336 14.457 15.451C14.7367 15.5988 14.9396 15.6811 15.1396 15.7074C15.5779 15.7651 16.0211 15.6463 16.3718 15.3772C16.6348 15.1754 16.8289 14.8392 17.2172 14.1666C17.6055 13.4941 17.7996 13.1578 17.8429 12.8292C17.9006 12.3909 17.7818 11.9477 17.5127 11.597C17.3899 11.4369 17.2173 11.3024 16.9494 11.134C16.5555 10.8866 16.3021 10.465 16.3022 9.99995C16.3022 9.53489 16.5556 9.11342 16.9494 8.86601C17.2173 8.69764 17.39 8.56307 17.5128 8.40298C17.7819 8.05229 17.9007 7.60908 17.843 7.17083C17.7997 6.84215 17.6056 6.50588 17.2173 5.83335C16.829 5.16083 16.6348 4.82456 16.3718 4.62274C16.0212 4.35365 15.5779 4.2349 15.1397 4.29259C14.9396 4.31893 14.7368 4.40115 14.457 4.54902C14.0458 4.76635 13.5541 4.77504 13.1513 4.54249C12.7485 4.30994 12.5102 3.87974 12.4928 3.41497C12.481 3.09875 12.4507 2.88196 12.3735 2.69555C12.2044 2.28717 11.8799 1.96271 11.4715 1.79355Z" stroke="white" stroke-width="1.5" stroke-linecap="round" stroke-linejoin="round"/>
</svg>
