<svg width="50" height="50" viewBox="0 0 50 50" fill="none" xmlns="http://www.w3.org/2000/svg">
<rect x="8" y="16" width="34" height="18" rx="9" fill="#061018"/>
<path d="M24.6829 36.8421C25.0813 37.4067 25.9187 37.4067 26.3171 36.8421L29.1506 32.8266C29.6181 32.1641 29.1443 31.25 28.3336 31.25H22.6664C21.8557 31.25 21.3819 32.1641 21.8494 32.8266L24.6829 36.8421Z" fill="#061018"/>
<path d="M17.9038 29.1328C17.2866 29.1302 16.7593 28.9674 16.3218 28.6445C15.8843 28.3216 15.5496 27.8516 15.3179 27.2344C15.0861 26.6172 14.9702 25.8737 14.9702 25.0039C14.9702 24.1367 15.0861 23.3958 15.3179 22.7812C15.5522 22.1667 15.8882 21.6979 16.3257 21.375C16.7658 21.0521 17.2918 20.8906 17.9038 20.8906C18.5158 20.8906 19.0405 21.0534 19.478 21.3789C19.9155 21.7018 20.2502 22.1706 20.4819 22.7852C20.7163 23.3971 20.8335 24.1367 20.8335 25.0039C20.8335 25.8763 20.7176 26.6211 20.4858 27.2383C20.2541 27.8529 19.9194 28.3229 19.4819 28.6484C19.0444 28.9714 18.5184 29.1328 17.9038 29.1328ZM17.9038 28.0898C18.4455 28.0898 18.8687 27.8255 19.1733 27.2969C19.4806 26.7682 19.6343 26.0039 19.6343 25.0039C19.6343 24.3398 19.564 23.7786 19.4233 23.3203C19.2853 22.8594 19.0861 22.5104 18.8257 22.2734C18.5679 22.0339 18.2606 21.9141 17.9038 21.9141C17.3647 21.9141 16.9416 22.1797 16.6343 22.7109C16.327 23.2422 16.172 24.0065 16.1694 25.0039C16.1694 25.6706 16.2384 26.2344 16.3765 26.6953C16.5171 27.1536 16.7163 27.5013 16.9741 27.7383C17.2319 27.9727 17.5418 28.0898 17.9038 28.0898ZM25.0044 29.1328C24.3872 29.1302 23.8599 28.9674 23.4224 28.6445C22.9849 28.3216 22.6502 27.8516 22.4185 27.2344C22.1867 26.6172 22.0708 25.8737 22.0708 25.0039C22.0708 24.1367 22.1867 23.3958 22.4185 22.7812C22.6528 22.1667 22.9888 21.6979 23.4263 21.375C23.8664 21.0521 24.3924 20.8906 25.0044 20.8906C25.6164 20.8906 26.1411 21.0534 26.5786 21.3789C27.0161 21.7018 27.3507 22.1706 27.5825 22.7852C27.8169 23.3971 27.9341 24.1367 27.9341 25.0039C27.9341 25.8763 27.8182 26.6211 27.5864 27.2383C27.3547 27.8529 27.02 28.3229 26.5825 28.6484C26.145 28.9714 25.619 29.1328 25.0044 29.1328ZM25.0044 28.0898C25.5461 28.0898 25.9692 27.8255 26.2739 27.2969C26.5812 26.7682 26.7349 26.0039 26.7349 25.0039C26.7349 24.3398 26.6646 23.7786 26.5239 23.3203C26.3859 22.8594 26.1867 22.5104 25.9263 22.2734C25.6685 22.0339 25.3612 21.9141 25.0044 21.9141C24.4653 21.9141 24.0422 22.1797 23.7349 22.7109C23.4276 23.2422 23.2726 24.0065 23.27 25.0039C23.27 25.6706 23.339 26.2344 23.4771 26.6953C23.6177 27.1536 23.8169 27.5013 24.0747 27.7383C24.3325 27.9727 24.6424 28.0898 25.0044 28.0898ZM32.105 29.1328C31.4878 29.1302 30.9604 28.9674 30.5229 28.6445C30.0854 28.3216 29.7508 27.8516 29.519 27.2344C29.2873 26.6172 29.1714 25.8737 29.1714 25.0039C29.1714 24.1367 29.2873 23.3958 29.519 22.7812C29.7534 22.1667 30.0894 21.6979 30.5269 21.375C30.967 21.0521 31.493 20.8906 32.105 20.8906C32.717 20.8906 33.2417 21.0534 33.6792 21.3789C34.1167 21.7018 34.4513 22.1706 34.6831 22.7852C34.9175 23.3971 35.0347 24.1367 35.0347 25.0039C35.0347 25.8763 34.9188 26.6211 34.687 27.2383C34.4552 27.8529 34.1206 28.3229 33.6831 28.6484C33.2456 28.9714 32.7196 29.1328 32.105 29.1328ZM32.105 28.0898C32.6466 28.0898 33.0698 27.8255 33.3745 27.2969C33.6818 26.7682 33.8354 26.0039 33.8354 25.0039C33.8354 24.3398 33.7651 23.7786 33.6245 23.3203C33.4865 22.8594 33.2873 22.5104 33.0269 22.2734C32.769 22.0339 32.4618 21.9141 32.105 21.9141C31.5659 21.9141 31.1427 22.1797 30.8354 22.7109C30.5282 23.2422 30.3732 24.0065 30.3706 25.0039C30.3706 25.6706 30.4396 26.2344 30.5776 26.6953C30.7183 27.1536 30.9175 27.5013 31.1753 27.7383C31.4331 27.9727 31.743 28.0898 32.105 28.0898Z" fill="white"/>
</svg>
