<svg width="24" height="24" viewBox="0 0 24 24" fill="none" xmlns="http://www.w3.org/2000/svg">
<circle cx="12" cy="12" r="3" stroke="#2684FC" stroke-width="1.5"/>
<path d="M13.4979 3.13702C13.1861 3 12.7907 3 12 3C11.2093 3 10.8139 3 10.5021 3.13702C10.0862 3.31971 9.75587 3.67012 9.58363 4.11117C9.505 4.31251 9.47423 4.54665 9.46219 4.88819C9.44449 5.39011 9.20182 5.8547 8.79172 6.10584C8.38162 6.35697 7.88096 6.34759 7.4623 6.11288C7.17742 5.95317 6.97085 5.86436 6.76715 5.83591C6.32092 5.7736 5.86963 5.90186 5.51255 6.19248C5.24475 6.41044 5.04707 6.77361 4.65171 7.49994C4.25635 8.22627 4.05867 8.58944 4.01461 8.94441C3.95586 9.41772 4.07678 9.89639 4.35078 10.2751C4.47584 10.448 4.6516 10.5933 4.92438 10.7751C5.3254 11.0424 5.58343 11.4977 5.5834 12C5.58338 12.5023 5.32536 12.9575 4.92438 13.2248C4.65155 13.4066 4.47577 13.5519 4.35069 13.7248C4.0767 14.1035 3.95578 14.5822 4.01452 15.0555C4.05859 15.4105 4.25627 15.7737 4.65162 16.5C5.04698 17.2263 5.24466 17.5895 5.51247 17.8075C5.86954 18.0981 6.32083 18.2263 6.76707 18.164C6.97076 18.1356 7.17731 18.0468 7.46217 17.8871C7.88086 17.6524 8.38156 17.643 8.79168 17.8941C9.2018 18.1453 9.44449 18.6099 9.46219 19.1119C9.47423 19.4534 9.505 19.6875 9.58363 19.8888C9.75587 20.3299 10.0862 20.6803 10.5021 20.863C10.8139 21 11.2093 21 12 21C12.7907 21 13.1861 21 13.4979 20.863C13.9138 20.6803 14.2441 20.3299 14.4164 19.8888C14.495 19.6875 14.5258 19.4533 14.5378 19.1118C14.5555 18.6099 14.7982 18.1453 15.2082 17.8941C15.6184 17.6429 16.1191 17.6523 16.5378 17.887C16.8226 18.0467 17.0292 18.1355 17.2329 18.164C17.6791 18.2263 18.1304 18.098 18.4874 17.8074C18.7553 17.5894 18.9529 17.2263 19.3483 16.4999C19.7437 15.7736 19.9413 15.4104 19.9854 15.0555C20.0441 14.5822 19.9232 14.1035 19.6492 13.7247C19.5242 13.5519 19.3484 13.4065 19.0756 13.2247C18.6746 12.9575 18.4166 12.5022 18.4166 11.9999C18.4166 11.4977 18.6746 11.0425 19.0756 10.7753C19.3484 10.5934 19.5242 10.4481 19.6493 10.2752C19.9233 9.89645 20.0442 9.41778 19.9855 8.94448C19.9414 8.5895 19.7437 8.22633 19.3484 7.5C18.953 6.77367 18.7553 6.4105 18.4875 6.19254C18.1305 5.90192 17.6792 5.77366 17.2329 5.83598C17.0292 5.86442 16.8227 5.95322 16.5378 6.11292C16.1191 6.34763 15.6184 6.35702 15.2083 6.10587C14.7982 5.85471 14.5555 5.39009 14.5378 4.88814C14.5258 4.54663 14.495 4.3125 14.4164 4.11117C14.2441 3.67012 13.9138 3.31971 13.4979 3.13702Z" stroke="#2684FC" stroke-width="1.5"/>
</svg>
