<svg width="251" height="585" viewBox="0 0 251 585" fill="none" xmlns="http://www.w3.org/2000/svg">
<mask id="path-1-inside-1_8_2" fill="white">
<path fill-rule="evenodd" clip-rule="evenodd" d="M240.531 9.67401C246.719 15.8653 250.197 24.2615 250.2 33.0173V585H0.800049V33.0173C0.803198 24.2615 4.28099 15.8653 10.469 9.67401C16.657 3.48275 25.0489 0.00315037 33.8 0H217.2C225.951 0.00315037 234.343 3.48275 240.531 9.67401ZM40.4 78.4316H210.6V21.6207H40.4V78.4316ZM120.571 72L124.914 54.4H107L131.429 28L127.086 45.6H145L120.571 72Z"/>
</mask>
<path d="M250.2 33.0173L251.2 33.0173L251.2 33.0169L250.2 33.0173ZM240.531 9.67401L239.824 10.3809L239.824 10.3809L240.531 9.67401ZM250.2 585V586H251.2V585H250.2ZM0.800049 585H-0.199951V586H0.800049V585ZM0.800049 33.0173L-0.199951 33.0169V33.0173H0.800049ZM10.469 9.67401L11.1763 10.3809L11.1763 10.3809L10.469 9.67401ZM33.8 0L33.8 -1L33.7997 -1L33.8 0ZM217.2 0L217.2 -1H217.2V0ZM210.6 78.4316V79.4316H211.6V78.4316H210.6ZM40.4 78.4316H39.4V79.4316H40.4V78.4316ZM210.6 21.6207H211.6V20.6207H210.6V21.6207ZM40.4 21.6207V20.6207H39.4V21.6207H40.4ZM124.914 54.4L125.885 54.6396L126.191 53.4H124.914V54.4ZM120.571 72L119.601 71.7604L121.305 72.6792L120.571 72ZM107 54.4L106.266 53.7208L104.712 55.4H107V54.4ZM131.429 28L132.399 28.2396L130.695 27.3208L131.429 28ZM127.086 45.6L126.115 45.3604L125.809 46.6H127.086V45.6ZM145 45.6L145.734 46.2792L147.288 44.6H145V45.6ZM251.2 33.0169C251.197 23.9963 247.614 15.3458 241.238 8.96708L239.824 10.3809C245.824 16.3847 249.197 24.5268 249.2 33.0177L251.2 33.0169ZM251.2 585V33.0173H249.2V585H251.2ZM0.800049 586H250.2V584H0.800049V586ZM-0.199951 33.0173V585H1.80005V33.0173H-0.199951ZM9.76171 8.96708C3.3863 15.3458 -0.196707 23.9963 -0.199951 33.0169L1.80005 33.0177C1.8031 24.5268 5.17567 16.3847 11.1763 10.3809L9.76171 8.96708ZM33.7997 -1C24.7832 -0.996754 16.1371 2.58833 9.76171 8.96708L11.1763 10.3809C17.1769 4.37718 25.3145 1.00305 33.8004 1L33.7997 -1ZM217.2 -1H33.8V1H217.2V-1ZM241.238 8.96708C234.863 2.58832 226.217 -0.996754 217.2 -1L217.2 1C225.686 1.00305 233.823 4.37718 239.824 10.3809L241.238 8.96708ZM210.6 77.4316H40.4V79.4316H210.6V77.4316ZM209.6 21.6207V78.4316H211.6V21.6207H209.6ZM40.4 22.6207H210.6V20.6207H40.4V22.6207ZM41.4 78.4316V21.6207H39.4V78.4316H41.4ZM123.943 54.1604L119.601 71.7604L121.542 72.2396L125.885 54.6396L123.943 54.1604ZM107 55.4H124.914V53.4H107V55.4ZM130.695 27.3208L106.266 53.7208L107.734 55.0792L132.163 28.6792L130.695 27.3208ZM128.057 45.8396L132.399 28.2396L130.458 27.7604L126.115 45.3604L128.057 45.8396ZM145 44.6H127.086V46.6H145V44.6ZM121.305 72.6792L145.734 46.2792L144.266 44.9208L119.837 71.3208L121.305 72.6792Z" fill="#C8C9CF" mask="url(#path-1-inside-1_8_2)"/>
</svg>
