<svg width="20" height="20" viewBox="0 0 20 20" fill="none" xmlns="http://www.w3.org/2000/svg">
<path d="M3.33398 5.83301V4.99967C3.33398 4.55765 3.50958 4.13372 3.82214 3.82116C4.1347 3.5086 4.55862 3.33301 5.00065 3.33301H6.66732M3.33398 14.1663V14.9997C3.33398 15.4417 3.50958 15.8656 3.82214 16.1782C4.1347 16.4907 4.55862 16.6663 5.00065 16.6663H6.66732M13.334 3.33301H15.0007C15.4427 3.33301 15.8666 3.5086 16.1792 3.82116C16.4917 4.13372 16.6673 4.55765 16.6673 4.99967V5.83301M13.334 16.6663H15.0007C15.4427 16.6663 15.8666 16.4907 16.1792 16.1782C16.4917 15.8656 16.6673 15.4417 16.6673 14.9997V14.1663M4.16732 9.99967H15.834" stroke="#1F1F24" stroke-width="1.5" stroke-linecap="round" stroke-linejoin="round"/>
</svg>
