<svg width="24" height="24" viewBox="0 0 24 24" fill="none" xmlns="http://www.w3.org/2000/svg">
<path d="M19.6457 6.26625L18.0026 4.62244C17.8729 4.4972 17.6992 4.42791 17.519 4.42947C17.3387 4.43104 17.1663 4.50334 17.0388 4.63081C16.9113 4.75828 16.839 4.93071 16.8375 5.11097C16.8359 5.29123 16.9052 5.4649 17.0304 5.59456L18.6736 7.23838C18.802 7.36762 18.8744 7.54224 18.875 7.72444V15.2244C18.875 15.3155 18.8388 15.403 18.7743 15.4674C18.7099 15.5319 18.6224 15.5681 18.5313 15.5681C18.4401 15.5681 18.3526 15.5319 18.2882 15.4674C18.2237 15.403 18.1875 15.3155 18.1875 15.2244V11.967C18.1857 11.3946 17.9752 10.8425 17.5956 10.4141C17.2159 9.98567 16.6931 9.7104 16.125 9.63981V4.4375C16.125 3.89049 15.9077 3.36589 15.5209 2.97909C15.1341 2.5923 14.6095 2.375 14.0625 2.375H6.5C5.95299 2.375 5.42839 2.5923 5.04159 2.97909C4.6548 3.36589 4.4375 3.89049 4.4375 4.4375V17.6849C4.22858 17.8056 4.05507 17.979 3.9344 18.1879C3.81372 18.3968 3.75013 18.6338 3.75 18.875V20.25C3.75 20.6147 3.89487 20.9644 4.15273 21.2223C4.41059 21.4801 4.76033 21.625 5.125 21.625H15.4375C15.8022 21.625 16.1519 21.4801 16.4098 21.2223C16.6676 20.9644 16.8125 20.6147 16.8125 20.25V18.875C16.8124 18.6338 16.7488 18.3968 16.6281 18.1879C16.5074 17.979 16.3339 17.8056 16.125 17.6849V11.0375C16.3236 11.0997 16.4973 11.2235 16.621 11.391C16.7446 11.5584 16.8116 11.7609 16.8125 11.9691V15.2244C16.8125 15.6802 16.9936 16.1174 17.3159 16.4397C17.6382 16.762 18.0754 16.9431 18.5313 16.9431C18.9871 16.9431 19.4243 16.762 19.7466 16.4397C20.0689 16.1174 20.25 15.6802 20.25 15.2244V7.72444C20.2508 7.45347 20.1979 7.18504 20.0941 6.93472C19.9904 6.6844 19.838 6.45718 19.6457 6.26625ZM14.0625 8.5625C14.0625 8.74484 13.9901 8.9197 13.8611 9.04864C13.7322 9.17757 13.5573 9.25 13.375 9.25H7.1875C7.00516 9.25 6.8303 9.17757 6.70136 9.04864C6.57243 8.9197 6.5 8.74484 6.5 8.5625V5.125C6.5 4.94266 6.57243 4.7678 6.70136 4.63886C6.8303 4.50993 7.00516 4.4375 7.1875 4.4375H13.375C13.5573 4.4375 13.7322 4.50993 13.8611 4.63886C13.9901 4.7678 14.0625 4.94266 14.0625 5.125V8.5625Z" fill="#4D696E"/>
</svg>
