<svg width="50" height="50" viewBox="0 0 50 50" fill="none" xmlns="http://www.w3.org/2000/svg">
<rect x="2" y="16" width="46" height="18" rx="9" fill="#061018"/>
<path d="M24.6829 36.8421C25.0813 37.4067 25.9187 37.4067 26.3171 36.8421L29.1506 32.8266C29.6181 32.1641 29.1443 31.25 28.3336 31.25H22.6664C21.8557 31.25 21.3819 32.1641 21.8494 32.8266L24.6829 36.8421Z" fill="#061018"/>
<path d="M4 25C4 21.134 7.13401 18 11 18C14.866 18 18 21.134 18 25C18 28.866 14.866 32 11 32C7.13401 32 4 28.866 4 25Z" fill="#EE171C"/>
<path d="M7.42977 21.4414C7.56326 21.3059 7.72254 21.1983 7.8983 21.1249C8.07406 21.0514 8.26277 21.0136 8.45339 21.0136C8.64401 21.0136 8.83272 21.0514 9.00848 21.1249C9.18423 21.1983 9.34351 21.3059 9.477 21.4414C9.62562 21.5719 9.74582 21.7313 9.83017 21.9098C9.91453 22.0883 9.96126 22.2821 9.96747 22.4792C9.97369 22.6764 9.93927 22.8728 9.86632 23.0562C9.79338 23.2396 9.68346 23.4062 9.54336 23.5457C9.40325 23.6851 9.23592 23.7946 9.0517 23.8672C8.86747 23.9398 8.67025 23.9741 8.47221 23.9679C8.27416 23.9617 8.07949 23.9152 7.90021 23.8312C7.72092 23.7472 7.56081 23.6276 7.42977 23.4796C7.29369 23.3467 7.1856 23.1881 7.1118 23.0131C7.03801 22.8382 7 22.6503 7 22.4605C7 22.2707 7.03801 22.0829 7.1118 21.9079C7.1856 21.7329 7.29369 21.5743 7.42977 21.4414ZM9.08745 28.6864C9.01026 28.7837 8.91206 28.8624 8.80014 28.9167C8.68822 28.9709 8.56545 28.9994 8.44095 29C8.28411 29.0005 8.13033 28.9567 7.99749 28.8737C7.86464 28.7907 7.75819 28.6719 7.69048 28.531C7.62278 28.3902 7.59661 28.2331 7.61502 28.078C7.63342 27.9229 7.69565 27.7762 7.79446 27.655L12.9084 21.3094C13.0451 21.1394 13.2439 21.0301 13.4613 21.0053C13.6786 20.9806 13.897 21.0424 14.0688 21.1774C14.1545 21.2449 14.226 21.3286 14.2791 21.4237C14.3323 21.5188 14.366 21.6235 14.3783 21.7316C14.3906 21.8398 14.3813 21.9493 14.351 22.0538C14.3206 22.1584 14.2698 22.2559 14.2014 22.3409L9.08745 28.6864ZM14.5661 28.5544C14.4326 28.6899 14.2733 28.7975 14.0975 28.871C13.9218 28.9444 13.7331 28.9823 13.5425 28.9823C13.3518 28.9823 13.1631 28.9444 12.9874 28.871C12.8116 28.7975 12.6523 28.6899 12.5188 28.5544C12.2748 28.2789 12.1455 27.9212 12.157 27.5541C12.1686 27.1869 12.3203 26.838 12.5812 26.5783C12.842 26.3185 13.1925 26.1676 13.5613 26.156C13.93 26.1445 14.2893 26.2733 14.5661 26.5162C14.7027 26.6486 14.8114 26.8067 14.8859 26.9814C14.9604 27.1561 14.9992 27.3438 15 27.5336C15.0008 27.7234 14.9635 27.9114 14.8904 28.0867C14.8173 28.2619 14.7099 28.421 14.5744 28.5544H14.5661Z" fill="white"/>
<path d="M23.9038 29.1328C23.2866 29.1302 22.7593 28.9674 22.3218 28.6445C21.8843 28.3216 21.5496 27.8516 21.3179 27.2344C21.0861 26.6172 20.9702 25.8737 20.9702 25.0039C20.9702 24.1367 21.0861 23.3958 21.3179 22.7812C21.5522 22.1667 21.8882 21.6979 22.3257 21.375C22.7658 21.0521 23.2918 20.8906 23.9038 20.8906C24.5158 20.8906 25.0405 21.0534 25.478 21.3789C25.9155 21.7018 26.2502 22.1706 26.4819 22.7852C26.7163 23.3971 26.8335 24.1367 26.8335 25.0039C26.8335 25.8763 26.7176 26.6211 26.4858 27.2383C26.2541 27.8529 25.9194 28.3229 25.4819 28.6484C25.0444 28.9714 24.5184 29.1328 23.9038 29.1328ZM23.9038 28.0898C24.4455 28.0898 24.8687 27.8255 25.1733 27.2969C25.4806 26.7682 25.6343 26.0039 25.6343 25.0039C25.6343 24.3398 25.564 23.7786 25.4233 23.3203C25.2853 22.8594 25.0861 22.5104 24.8257 22.2734C24.5679 22.0339 24.2606 21.9141 23.9038 21.9141C23.3647 21.9141 22.9416 22.1797 22.6343 22.7109C22.327 23.2422 22.172 24.0065 22.1694 25.0039C22.1694 25.6706 22.2384 26.2344 22.3765 26.6953C22.5171 27.1536 22.7163 27.5013 22.9741 27.7383C23.2319 27.9727 23.5418 28.0898 23.9038 28.0898ZM31.0044 29.1328C30.3872 29.1302 29.8599 28.9674 29.4224 28.6445C28.9849 28.3216 28.6502 27.8516 28.4185 27.2344C28.1867 26.6172 28.0708 25.8737 28.0708 25.0039C28.0708 24.1367 28.1867 23.3958 28.4185 22.7812C28.6528 22.1667 28.9888 21.6979 29.4263 21.375C29.8664 21.0521 30.3924 20.8906 31.0044 20.8906C31.6164 20.8906 32.1411 21.0534 32.5786 21.3789C33.0161 21.7018 33.3507 22.1706 33.5825 22.7852C33.8169 23.3971 33.9341 24.1367 33.9341 25.0039C33.9341 25.8763 33.8182 26.6211 33.5864 27.2383C33.3547 27.8529 33.02 28.3229 32.5825 28.6484C32.145 28.9714 31.619 29.1328 31.0044 29.1328ZM31.0044 28.0898C31.5461 28.0898 31.9692 27.8255 32.2739 27.2969C32.5812 26.7682 32.7349 26.0039 32.7349 25.0039C32.7349 24.3398 32.6646 23.7786 32.5239 23.3203C32.3859 22.8594 32.1867 22.5104 31.9263 22.2734C31.6685 22.0339 31.3612 21.9141 31.0044 21.9141C30.4653 21.9141 30.0422 22.1797 29.7349 22.7109C29.4276 23.2422 29.2726 24.0065 29.27 25.0039C29.27 25.6706 29.339 26.2344 29.4771 26.6953C29.6177 27.1536 29.8169 27.5013 30.0747 27.7383C30.3325 27.9727 30.6424 28.0898 31.0044 28.0898ZM38.105 29.1328C37.4878 29.1302 36.9604 28.9674 36.5229 28.6445C36.0854 28.3216 35.7508 27.8516 35.519 27.2344C35.2873 26.6172 35.1714 25.8737 35.1714 25.0039C35.1714 24.1367 35.2873 23.3958 35.519 22.7812C35.7534 22.1667 36.0894 21.6979 36.5269 21.375C36.967 21.0521 37.493 20.8906 38.105 20.8906C38.717 20.8906 39.2417 21.0534 39.6792 21.3789C40.1167 21.7018 40.4513 22.1706 40.6831 22.7852C40.9175 23.3971 41.0347 24.1367 41.0347 25.0039C41.0347 25.8763 40.9188 26.6211 40.687 27.2383C40.4552 27.8529 40.1206 28.3229 39.6831 28.6484C39.2456 28.9714 38.7196 29.1328 38.105 29.1328ZM38.105 28.0898C38.6466 28.0898 39.0698 27.8255 39.3745 27.2969C39.6818 26.7682 39.8354 26.0039 39.8354 25.0039C39.8354 24.3398 39.7651 23.7786 39.6245 23.3203C39.4865 22.8594 39.2873 22.5104 39.0269 22.2734C38.769 22.0339 38.4618 21.9141 38.105 21.9141C37.5659 21.9141 37.1427 22.1797 36.8354 22.7109C36.5282 23.2422 36.3732 24.0065 36.3706 25.0039C36.3706 25.6706 36.4396 26.2344 36.5776 26.6953C36.7183 27.1536 36.9175 27.5013 37.1753 27.7383C37.4331 27.9727 37.743 28.0898 38.105 28.0898Z" fill="white"/>
</svg>
