<svg width="50" height="50" viewBox="0 0 50 50" fill="none" xmlns="http://www.w3.org/2000/svg">
<path fill-rule="evenodd" clip-rule="evenodd" d="M25 49.2777C38.4083 49.2777 49.2778 38.4082 49.2778 24.9999C49.2778 11.5917 38.4083 0.722168 25 0.722168C11.5918 0.722168 0.722229 11.5917 0.722229 24.9999C0.722229 38.4082 11.5918 49.2777 25 49.2777Z" fill="white"/>
<path fill-rule="evenodd" clip-rule="evenodd" d="M31.8458 8.47282C30.4645 7.90068 29.0202 7.50525 27.5469 7.29334C26.1499 7.0924 25 5.96695 25 4.55556C25 3.14416 26.1476 1.98533 27.5503 2.14183C29.6952 2.38114 31.8 2.92163 33.8017 3.75077C36.5922 4.90663 39.1277 6.6008 41.2635 8.73655C43.3992 10.8723 45.0934 13.4078 46.2492 16.1983C47.4051 18.9888 48 21.9796 48 25C48 28.0204 47.4051 31.0112 46.2492 33.8017C45.0934 36.5922 43.3992 39.1277 41.2635 41.2635C39.1277 43.3992 36.5922 45.0934 33.8017 46.2492C31.8 47.0784 29.6952 47.6189 27.5503 47.8582C26.1476 48.0147 25 46.8558 25 45.4444C25 44.0331 26.1499 42.9076 27.5469 42.7067C29.0201 42.4947 30.4645 42.0993 31.8458 41.5272C34.0162 40.6282 35.9882 39.3105 37.6494 37.6494C39.3105 35.9882 40.6282 34.0162 41.5272 31.8458C42.4262 29.6754 42.8889 27.3492 42.8889 25C42.8889 22.6508 42.4262 20.3246 41.5272 18.1542C40.6282 15.9838 39.3105 14.0118 37.6494 12.3506C35.9882 10.6895 34.0162 9.37182 31.8458 8.47282Z" fill="#B5C3C4" stroke="white" stroke-width="2"/>
<path fill-rule="evenodd" clip-rule="evenodd" d="M25 4.55556C25 5.96695 23.85 7.09235 22.453 7.29328C18.6502 7.84025 15.0993 9.60204 12.3506 12.3506C8.99583 15.7055 7.11111 20.2556 7.11111 25C7.11111 29.7444 8.99583 34.2945 12.3506 37.6494C15.0993 40.398 18.6502 42.1598 22.453 42.7067C23.85 42.9076 25 44.0331 25 45.4444C25 46.8558 23.8522 48.0147 22.4495 47.8582C17.2879 47.2824 12.4444 44.9713 8.73654 41.2635C4.42321 36.9501 2 31.1 2 25C2 18.9 4.42321 13.0499 8.73654 8.73654C12.4444 5.02868 17.2879 2.71755 22.4495 2.14177C23.8522 1.9853 25 3.14416 25 4.55556Z" fill="#00C2FF" stroke="white" stroke-width="2"/>
<rect x="10" y="10" width="30" height="30" rx="15" fill="white"/>
<circle cx="25" cy="25" r="15" fill="#00C2FF"/>
<path d="M23 23.5116H29.5273L26.6176 33L34.6667 22.4885H28.1394L31.0491 13L23 23.5116Z" fill="white"/>
<path d="M15 26.5116H21.5273L18.6176 36L26.6667 25.4885H20.1394L23.0491 16L15 26.5116Z" fill="white"/>
</svg>
