<svg width="24" height="24" viewBox="0 0 24 24" fill="none" xmlns="http://www.w3.org/2000/svg">
    <path d="M12 24C5.37258 24 1.5307e-06 18.6274 0 12C9.51313e-07 5.37258 5.37258 1.5307e-06 12 0C18.6274 9.51313e-07 24 5.37258 24 12C24 18.6274 18.6274 24 12 24Z" fill="#4489F7"/>
    <rect width="24" height="24" rx="4" fill="#4489F7"/>
    <path d="M8.82293 9.95818C8.74488 10.0108 8.66882 10.0652 8.59478 10.1214C8.53873 10.1506 8.48446 10.1844 8.43209 10.2229C7.34362 11.0228 6.4095 12.036 5.66968 13.0047L4.57431 11.9127C3.37499 10.7171 3.76107 9.50505 5.43683 9.22661L8.05724 8.79258C8.49261 8.71888 9.01834 8.33398 9.21549 7.9327L10.6612 5.05007C11.4498 3.48591 12.7313 3.48591 13.5117 5.05007L14.9574 7.9327C15.1546 8.33398 15.6803 8.71888 16.1239 8.79258L18.7443 9.22661C20.42 9.50505 20.8143 10.7171 19.6068 11.9127L17.5696 13.9436C17.2246 14.2876 17.0357 14.9509 17.1425 15.4259L17.7257 17.94C18.1857 19.93 17.126 20.6998 15.3599 19.6598L13.223 18.3986C13.3747 18.3075 13.5018 18.2225 13.6041 18.1466C13.7927 18.052 13.9774 17.9442 14.1571 17.8231C16.378 16.3261 16.9842 13.3519 15.5113 11.1801C14.0383 9.00821 11.0438 8.46116 8.82293 9.95818Z" fill="white"/>
    <path fill-rule="evenodd" clip-rule="evenodd" d="M9.08412 11.5077C9.13563 11.4686 9.18855 11.4307 9.24287 11.3941C10.7884 10.3523 12.8772 10.7402 13.9082 12.2605C14.9393 13.7808 14.5223 15.8577 12.9768 16.8995C12.8517 16.9838 12.7231 17.0587 12.5918 17.1245C12.0592 17.5204 10.562 18.2631 8.0873 18.5672L10.1741 16.6174L4.41636 18.7451L8.74293 13.92L5.85845 15.4453C6.21913 14.6539 7.34658 12.7725 8.97089 11.5783C9.00732 11.5515 9.0451 11.528 9.08412 11.5077Z" fill="white"/>
</svg>
