<svg width="24" height="24" viewBox="0 0 24 24" fill="none" xmlns="http://www.w3.org/2000/svg">
<path d="M14.85 21C14.85 21.4142 15.1858 21.75 15.6 21.75C16.0142 21.75 16.35 21.4142 16.35 21H14.85ZM3.15 21C3.15 21.4142 3.48579 21.75 3.9 21.75C4.31421 21.75 4.65 21.4142 4.65 21H3.15ZM10.3931 10.5859C10.6062 10.2307 10.4911 9.76999 10.1359 9.55688C9.78069 9.34377 9.31999 9.45894 9.10688 9.81413L10.3931 10.5859ZM8.4 12.45L7.75688 12.0641C7.61786 12.2958 7.61422 12.5844 7.74735 12.8195C7.88048 13.0547 8.1298 13.2 8.4 13.2V12.45ZM11.1 12.45L11.7431 12.8359C11.8821 12.6042 11.8858 12.3156 11.7526 12.0805C11.6195 11.8453 11.3702 11.7 11.1 11.7V12.45ZM9.10688 14.3141C8.89377 14.6693 9.00894 15.13 9.36413 15.3431C9.71931 15.5562 10.18 15.4411 10.3931 15.0859L9.10688 14.3141ZM16.5 21.75C16.9142 21.75 17.25 21.4142 17.25 21C17.25 20.5858 16.9142 20.25 16.5 20.25V21.75ZM3 20.25C2.58579 20.25 2.25 20.5858 2.25 21C2.25 21.4142 2.58579 21.75 3 21.75V20.25ZM19.2185 4.21435C18.8951 3.95559 18.4231 4.00803 18.1643 4.33148C17.9056 4.65493 17.958 5.12689 18.2815 5.38565L19.2185 4.21435ZM19.8598 5.68782L20.3283 5.10217L19.8598 5.68782ZM15.6 15.75C15.1858 15.75 14.85 16.0858 14.85 16.5C14.85 16.9142 15.1858 17.25 15.6 17.25V15.75ZM20.1023 5.88724L19.6016 6.4457L20.1023 5.88724ZM20.9958 7.74628L21.7446 7.70422L21.7446 7.70422L20.9958 7.74628ZM21 9.15C21.4142 9.15 21.75 8.81421 21.75 8.4C21.75 7.98579 21.4142 7.65 21 7.65V9.15ZM19.2231 13.2077L18.9859 13.9192L19.2231 13.2077ZM20.7628 14.5115C21.1558 14.6425 21.5805 14.4301 21.7115 14.0372C21.8425 13.6442 21.6301 13.2195 21.2372 13.0885L20.7628 14.5115ZM9.3 3.75H10.2V2.25H9.3V3.75ZM14.85 8.4V21H16.35V8.4H14.85ZM4.65 21V8.4H3.15V21H4.65ZM10.2 3.75C11.494 3.75 12.389 3.75159 13.0627 3.84216C13.7148 3.92983 14.046 4.08831 14.2789 4.32114L15.3395 3.26048C14.7815 2.7025 14.081 2.46557 13.2626 2.35554C12.4657 2.24841 11.4516 2.25 10.2 2.25V3.75ZM16.35 8.4C16.35 7.14841 16.3516 6.13427 16.2445 5.33743C16.1344 4.51902 15.8975 3.81846 15.3395 3.26048L14.2789 4.32114C14.5117 4.55397 14.6702 4.88522 14.7578 5.5373C14.8484 6.21096 14.85 7.10601 14.85 8.4H16.35ZM9.3 2.25C8.04841 2.25 7.03427 2.24841 6.23743 2.35554C5.41902 2.46557 4.71846 2.7025 4.16048 3.26048L5.22114 4.32114C5.45397 4.08831 5.78522 3.92983 6.4373 3.84216C7.11096 3.75159 8.00601 3.75 9.3 3.75V2.25ZM4.65 8.4C4.65 7.10601 4.65159 6.21096 4.74216 5.5373C4.82983 4.88522 4.98831 4.55397 5.22114 4.32114L4.16048 3.26048C3.6025 3.81846 3.36557 4.51902 3.25554 5.33743C3.14841 6.13427 3.15 7.14841 3.15 8.4H4.65ZM9.10688 9.81413L7.75688 12.0641L9.04312 12.8359L10.3931 10.5859L9.10688 9.81413ZM8.4 13.2H11.1V11.7H8.4V13.2ZM10.4569 12.0641L9.10688 14.3141L10.3931 15.0859L11.7431 12.8359L10.4569 12.0641ZM16.5 20.25H3V21.75H16.5V20.25ZM18.2815 5.38565L19.3913 6.27347L20.3283 5.10217L19.2185 4.21435L18.2815 5.38565ZM20.25 8.0602V17.85H21.75V8.0602H20.25ZM19.05 17.85V17.7857H17.55V17.85H19.05ZM17.0143 15.75H15.6V17.25H17.0143V15.75ZM19.05 17.7857C19.05 16.6614 18.1386 15.75 17.0143 15.75V17.25C17.3102 17.25 17.55 17.4898 17.55 17.7857H19.05ZM19.65 18.45C19.3186 18.45 19.05 18.1814 19.05 17.85H17.55C17.55 19.0098 18.4902 19.95 19.65 19.95V18.45ZM20.25 17.85C20.25 18.1814 19.9814 18.45 19.65 18.45V19.95C20.8098 19.95 21.75 19.0098 21.75 17.85H20.25ZM19.3913 6.27347C19.522 6.37804 19.5646 6.41247 19.6016 6.4457L20.6029 5.32879C20.5271 5.26087 20.4457 5.19607 20.3283 5.10217L19.3913 6.27347ZM21.75 8.0602C21.75 7.90988 21.7503 7.8058 21.7446 7.70422L20.2469 7.78833C20.2497 7.83804 20.25 7.89281 20.25 8.0602H21.75ZM19.6016 6.4457C19.9859 6.79021 20.218 7.27303 20.2469 7.78833L21.7446 7.70422C21.6934 6.79252 21.2828 5.93831 20.6029 5.32879L19.6016 6.4457ZM21 7.65H19.65V9.15H21V7.65ZM17.55 9.75V11.927H19.05V9.75H17.55ZM18.9859 13.9192L20.7628 14.5115L21.2372 13.0885L19.4603 12.4962L18.9859 13.9192ZM17.55 11.927C17.55 12.8309 18.1284 13.6334 18.9859 13.9192L19.4603 12.4962C19.2153 12.4145 19.05 12.1852 19.05 11.927H17.55ZM19.65 7.65C18.4902 7.65 17.55 8.5902 17.55 9.75H19.05C19.05 9.41863 19.3186 9.15 19.65 9.15V7.65Z" fill="#2684FC"/>
</svg>
