<svg width="24" height="24" viewBox="0 0 24 24" fill="none" xmlns="http://www.w3.org/2000/svg">
    <g clip-path="url(#clip0_18281_25545)">
        <path d="M22.2343 3.99994C22.2343 5.79492 20.7794 7.25006 18.9844 7.25006C17.1894 7.25006 15.7344 5.79492 15.7344 3.99994C15.7344 2.20514 17.1894 0.75 18.9844 0.75C20.7794 0.75 22.2343 2.20514 22.2343 3.99994Z" fill="white"/>
        <path d="M18.9844 8.00006C16.7783 8.00006 14.9844 6.20599 14.9844 3.99994C14.9844 1.79407 16.7783 0 18.9844 0C21.1904 0 22.9843 1.79407 22.9843 3.99994C22.9843 6.20599 21.1904 8.00006 18.9844 8.00006ZM18.9844 1.5C17.6054 1.5 16.4844 2.62207 16.4844 3.99994C16.4844 5.37799 17.6054 6.50006 18.9844 6.50006C20.3633 6.50006 21.4843 5.37799 21.4843 3.99994C21.4843 2.62207 20.3633 1.5 18.9844 1.5Z" fill="white"/>
        <path d="M22.2343 20.0001C22.2343 21.7949 20.7794 23.25 18.9844 23.25C17.1894 23.25 15.7344 21.7949 15.7344 20.0001C15.7344 18.2051 17.1894 16.7499 18.9844 16.7499C20.7794 16.7499 22.2343 18.2051 22.2343 20.0001Z" fill="white"/>
        <path d="M18.9844 24C16.7783 24 14.9844 22.2059 14.9844 20.0001C14.9844 17.794 16.7783 15.9999 18.9844 15.9999C21.1904 15.9999 22.9843 17.794 22.9843 20.0001C22.9843 22.2059 21.1904 24 18.9844 24ZM18.9844 17.4999C17.6054 17.4999 16.4844 18.622 16.4844 20.0001C16.4844 21.3779 17.6054 22.5 18.9844 22.5C20.3633 22.5 21.4843 21.3779 21.4843 20.0001C21.4843 18.622 20.3633 17.4999 18.9844 17.4999Z" fill="white"/>
        <path d="M8.23444 12C8.23444 13.795 6.7793 15.2499 4.98431 15.2499C3.18951 15.2499 1.73438 13.795 1.73438 12C1.73438 10.205 3.18951 8.75006 4.98431 8.75006C6.7793 8.75006 8.23444 10.205 8.23444 12Z" fill="white"/>
        <path d="M4.98431 15.9999C2.77844 15.9999 0.984375 14.2061 0.984375 12C0.984375 9.79394 2.77844 8.00006 4.98431 8.00006C7.19037 8.00006 8.98444 9.79394 8.98444 12C8.98444 14.2061 7.19037 15.9999 4.98431 15.9999ZM4.98431 9.50006C3.60535 9.50006 2.48438 10.6219 2.48438 12C2.48438 13.3781 3.60535 14.4999 4.98431 14.4999C6.36346 14.4999 7.48444 13.3781 7.48444 12C7.48444 10.6219 6.36346 9.50006 4.98431 9.50006Z" fill="white"/>
        <path d="M7.34546 11.5201C6.99738 11.5201 6.65936 11.339 6.47534 11.0151C6.20233 10.5361 6.37042 9.92505 6.84943 9.65094L16.1283 4.36102C16.6073 4.086 17.2183 4.25409 17.4924 4.73492C17.7654 5.21393 17.5974 5.82495 17.1183 6.09906L7.83929 11.389C7.68329 11.478 7.51337 11.5201 7.34546 11.5201Z" fill="white"/>
        <path d="M16.6234 19.7701C16.4553 19.7701 16.2854 19.728 16.1294 19.639L6.85034 14.3491C6.37134 14.076 6.20343 13.465 6.47644 12.9849C6.74835 12.505 7.36029 12.336 7.84039 12.611L17.1194 17.9009C17.5984 18.174 17.7664 18.785 17.4933 19.2651C17.3084 19.589 16.9704 19.7701 16.6234 19.7701Z" fill="white"/>
    </g>
    <defs>
        <clipPath id="clip0_18281_25545">
            <rect width="24" height="24" fill="white"/>
        </clipPath>
    </defs>
</svg>
