<svg width="20" height="20" viewBox="0 0 20 20" fill="none" xmlns="http://www.w3.org/2000/svg">
<path d="M6.66602 14.1667H13.3327M6.66602 14.1667C6.66602 15.0872 5.91982 15.8334 4.99935 15.8334C4.07887 15.8334 3.33268 15.0872 3.33268 14.1667M6.66602 14.1667C6.66602 13.2462 5.91982 12.5 4.99935 12.5C4.07887 12.5 3.33268 13.2462 3.33268 14.1667M13.3327 14.1667C13.3327 15.0872 14.0789 15.8334 14.9993 15.8334C15.9198 15.8334 16.666 15.0872 16.666 14.1667M13.3327 14.1667C13.3327 13.2462 14.0789 12.5 14.9993 12.5C15.9198 12.5 16.666 13.2462 16.666 14.1667M8.33268 4.16669V9.16669M3.33268 9.16669L3.60895 7.50909C3.80686 6.32163 3.90581 5.7279 4.2021 5.28235C4.46328 4.8896 4.83023 4.57875 5.26057 4.3857C5.74876 4.16669 6.35068 4.16669 7.55452 4.16669H10.3586C11.1413 4.16669 11.5326 4.16669 11.8879 4.27456C12.2023 4.37007 12.4949 4.52664 12.7488 4.73532C13.0356 4.97104 13.2527 5.29666 13.6868 5.94789L15.8327 9.16669M3.33268 14.1667H2.99935C2.53264 14.1667 2.29928 14.1667 2.12102 14.0759C1.96422 13.996 1.83674 13.8685 1.75684 13.7117C1.66602 13.5334 1.66602 13.3001 1.66602 12.8334V11.8334C1.66602 10.8999 1.66602 10.4332 1.84767 10.0767C2.00746 9.7631 2.26243 9.50813 2.57603 9.34834C2.93255 9.16669 3.39926 9.16669 4.33268 9.16669H14.3327C14.952 9.16669 15.2617 9.16669 15.5208 9.20773C16.9471 9.43363 18.0657 10.5523 18.2916 11.9786C18.3327 12.2377 18.3327 12.5473 18.3327 13.1667C18.3327 13.3215 18.3327 13.3989 18.3224 13.4637C18.2659 13.8203 17.9863 14.1 17.6297 14.1564C17.5649 14.1667 17.4875 14.1667 17.3327 14.1667H16.666" stroke="#2684FC" stroke-width="1.5" stroke-linecap="round" stroke-linejoin="round"/>
</svg>
