<svg width="14" height="16" viewBox="0 0 14 16" fill="none" xmlns="http://www.w3.org/2000/svg">
<path d="M13.3296 0.329575C13.3443 0.436778 13.3161 0.549869 13.2402 0.633113L11.2274 3.05026L11.1647 3.1244L5.45083 9.98177L1.41905 14.8242C1.28761 14.9806 1.10445 15.0785 0.911488 15.105C0.689934 15.1355 0.455625 15.073 0.273862 14.9159C-0.0652793 14.6202 -0.0930493 14.0997 0.210751 13.7668L2.36398 11.4177L4.16408 9.46668L10.4871 2.59121L10.7221 2.3405L12.6604 0.122904C12.724 0.0559166 12.8059 0.0155532 12.8916 0.0037782C12.9131 0.000834437 12.9345 -0.00210882 12.9569 0.0020943C13.1385 -0.000996352 13.2959 0.13759 13.3296 0.329575Z" fill="#2684FC"/>
</svg>
