<svg width="50" height="50" viewBox="0 0 50 50" fill="none" xmlns="http://www.w3.org/2000/svg">
<path d="M46.5 25C46.5 20.0294 42.4706 16 37.5 16H11.5C6.52944 16 2.5 20.0294 2.5 25C2.5 29.9706 6.52944 34 11.5 34H37.5C42.4706 34 46.5 29.9706 46.5 25Z" fill="#061018"/>
<path d="M24.8171 36.8421C24.4187 37.4067 23.5813 37.4067 23.1829 36.8421L20.3494 32.8266C19.8819 32.1641 20.3557 31.25 21.1664 31.25H26.8336C27.6443 31.25 28.1181 32.1641 27.6506 32.8266L24.8171 36.8421Z" fill="#061018"/>
<path d="M22.4038 29.1328C21.7866 29.1302 21.2593 28.9674 20.8218 28.6445C20.3843 28.3216 20.0496 27.8516 19.8179 27.2344C19.5861 26.6172 19.4702 25.8737 19.4702 25.0039C19.4702 24.1367 19.5861 23.3958 19.8179 22.7812C20.0522 22.1667 20.3882 21.6979 20.8257 21.375C21.2658 21.0521 21.7918 20.8906 22.4038 20.8906C23.0158 20.8906 23.5405 21.0534 23.978 21.3789C24.4155 21.7018 24.7502 22.1706 24.9819 22.7852C25.2163 23.3971 25.3335 24.1367 25.3335 25.0039C25.3335 25.8763 25.2176 26.6211 24.9858 27.2383C24.7541 27.8529 24.4194 28.3229 23.9819 28.6484C23.5444 28.9714 23.0184 29.1328 22.4038 29.1328ZM22.4038 28.0898C22.9455 28.0898 23.3687 27.8255 23.6733 27.2969C23.9806 26.7682 24.1343 26.0039 24.1343 25.0039C24.1343 24.3398 24.064 23.7786 23.9233 23.3203C23.7853 22.8594 23.5861 22.5104 23.3257 22.2734C23.0679 22.0339 22.7606 21.9141 22.4038 21.9141C21.8647 21.9141 21.4416 22.1797 21.1343 22.7109C20.827 23.2422 20.672 24.0065 20.6694 25.0039C20.6694 25.6706 20.7384 26.2344 20.8765 26.6953C21.0171 27.1536 21.2163 27.5013 21.4741 27.7383C21.7319 27.9727 22.0418 28.0898 22.4038 28.0898ZM29.5044 29.1328C28.8872 29.1302 28.3599 28.9674 27.9224 28.6445C27.4849 28.3216 27.1502 27.8516 26.9185 27.2344C26.6867 26.6172 26.5708 25.8737 26.5708 25.0039C26.5708 24.1367 26.6867 23.3958 26.9185 22.7812C27.1528 22.1667 27.4888 21.6979 27.9263 21.375C28.3664 21.0521 28.8924 20.8906 29.5044 20.8906C30.1164 20.8906 30.6411 21.0534 31.0786 21.3789C31.5161 21.7018 31.8507 22.1706 32.0825 22.7852C32.3169 23.3971 32.4341 24.1367 32.4341 25.0039C32.4341 25.8763 32.3182 26.6211 32.0864 27.2383C31.8547 27.8529 31.52 28.3229 31.0825 28.6484C30.645 28.9714 30.119 29.1328 29.5044 29.1328ZM29.5044 28.0898C30.0461 28.0898 30.4692 27.8255 30.7739 27.2969C31.0812 26.7682 31.2349 26.0039 31.2349 25.0039C31.2349 24.3398 31.1646 23.7786 31.0239 23.3203C30.8859 22.8594 30.6867 22.5104 30.4263 22.2734C30.1685 22.0339 29.8612 21.9141 29.5044 21.9141C28.9653 21.9141 28.5422 22.1797 28.2349 22.7109C27.9276 23.2422 27.7726 24.0065 27.77 25.0039C27.77 25.6706 27.839 26.2344 27.9771 26.6953C28.1177 27.1536 28.3169 27.5013 28.5747 27.7383C28.8325 27.9727 29.1424 28.0898 29.5044 28.0898ZM36.605 29.1328C35.9878 29.1302 35.4604 28.9674 35.0229 28.6445C34.5854 28.3216 34.2508 27.8516 34.019 27.2344C33.7873 26.6172 33.6714 25.8737 33.6714 25.0039C33.6714 24.1367 33.7873 23.3958 34.019 22.7812C34.2534 22.1667 34.5894 21.6979 35.0269 21.375C35.467 21.0521 35.993 20.8906 36.605 20.8906C37.217 20.8906 37.7417 21.0534 38.1792 21.3789C38.6167 21.7018 38.9513 22.1706 39.1831 22.7852C39.4175 23.3971 39.5347 24.1367 39.5347 25.0039C39.5347 25.8763 39.4188 26.6211 39.187 27.2383C38.9552 27.8529 38.6206 28.3229 38.1831 28.6484C37.7456 28.9714 37.2196 29.1328 36.605 29.1328ZM36.605 28.0898C37.1466 28.0898 37.5698 27.8255 37.8745 27.2969C38.1818 26.7682 38.3354 26.0039 38.3354 25.0039C38.3354 24.3398 38.2651 23.7786 38.1245 23.3203C37.9865 22.8594 37.7873 22.5104 37.5269 22.2734C37.269 22.0339 36.9618 21.9141 36.605 21.9141C36.0659 21.9141 35.6427 22.1797 35.3354 22.7109C35.0282 23.2422 34.8732 24.0065 34.8706 25.0039C34.8706 25.6706 34.9396 26.2344 35.0776 26.6953C35.2183 27.1536 35.4175 27.5013 35.6753 27.7383C35.9331 27.9727 36.243 28.0898 36.605 28.0898Z" fill="white"/>
<path d="M10.3193 29.9697C10.4451 30.0312 10.5929 29.9962 10.678 29.8901L15.3655 24.0112C15.4359 23.9231 15.4494 23.8027 15.4007 23.7011C15.3518 23.5998 15.2494 23.5352 15.1367 23.5352H13.267L14.8128 20.424C14.8583 20.3333 14.8534 20.2254 14.7999 20.139C14.7464 20.0526 14.6523 20 14.5507 20H11.0351C10.9006 20 10.7836 20.0916 10.751 20.222L9.57914 24.929C9.55711 25.0166 9.57685 25.1093 9.63236 25.1802C9.68787 25.2515 9.77312 25.2929 9.86324 25.2929H11.2457L10.1651 29.6361C10.1316 29.7697 10.1957 29.9085 10.3193 29.9697Z" fill="#FEE409"/>
</svg>
