<svg width="24" height="24" viewBox="0 0 24 24" fill="none" xmlns="http://www.w3.org/2000/svg">
<path d="M16.4013 0H16.572C16.709 1.69253 16.063 2.95719 15.2778 3.87301C14.5074 4.78251 13.4525 5.6646 11.7463 5.53076C11.6325 3.86247 12.2795 2.69161 13.0636 1.77789C13.7908 0.92636 15.124 0.168621 16.4013 0ZM21.5663 17.6167V17.6641C21.0868 19.1163 20.4028 20.361 19.5682 21.516C18.8062 22.5646 17.8725 23.9758 16.2052 23.9758C14.7646 23.9758 13.8077 23.0494 12.3312 23.0241C10.7693 22.9988 9.91042 23.7987 8.48241 24H7.99552C6.94691 23.8482 6.10065 23.0178 5.48413 22.2695C3.66618 20.0585 2.26136 17.2025 2 13.5476V12.4737C2.11066 9.85799 3.38164 7.73126 5.07101 6.70057C5.96259 6.15255 7.18825 5.68568 8.55302 5.89435C9.13793 5.98498 9.73548 6.18522 10.2593 6.38335C10.7556 6.5741 11.3764 6.9124 11.9644 6.89448C12.3628 6.88289 12.7591 6.67527 13.1606 6.52878C14.3367 6.10407 15.4897 5.61718 17.0094 5.84587C18.8357 6.12199 20.132 6.93347 20.9329 8.18548C19.388 9.16875 18.1665 10.6505 18.3752 13.1809C18.5607 15.4794 19.897 16.8241 21.5663 17.6167Z" fill="black"/>
</svg>
