
<svg width="16" height="16" viewBox="0 0 16 16" fill="none" xmlns="http://www.w3.org/2000/svg">
<path d="M1.59961 5.15555L3.53516 6.7685C3.66296 6.875 3.82405 6.93332 3.9904 6.93332H12.0088C12.1752 6.93332 12.3363 6.875 12.4641 6.7685L14.3996 5.15555M4.0885 9.42221H4.09561M11.9107 9.42221H11.9178M5.2694 2.66666H10.7298C11.2402 2.66666 11.7114 2.94013 11.9647 3.38326L14.0248 6.98858C14.2704 7.41837 14.3996 7.90481 14.3996 8.39982V12.6222C14.3996 13.0149 14.0812 13.3333 13.6885 13.3333H12.9774C12.5847 13.3333 12.2663 13.0149 12.2663 12.6222V11.9111H3.73294V12.6222C3.73294 13.0149 3.41457 13.3333 3.02183 13.3333H2.31072C1.91798 13.3333 1.59961 13.0149 1.59961 12.6222V8.39982C1.59961 7.90481 1.72879 7.41837 1.97438 6.98858L4.03457 3.38326C4.28778 2.94013 4.75903 2.66666 5.2694 2.66666ZM4.44405 9.42221C4.44405 9.61858 4.28487 9.77777 4.0885 9.77777C3.89213 9.77777 3.73294 9.61858 3.73294 9.42221C3.73294 9.22584 3.89213 9.06666 4.0885 9.06666C4.28487 9.06666 4.44405 9.22584 4.44405 9.42221ZM12.2663 9.42221C12.2663 9.61858 12.1071 9.77777 11.9107 9.77777C11.7144 9.77777 11.5552 9.61858 11.5552 9.42221C11.5552 9.22584 11.7144 9.06666 11.9107 9.06666C12.1071 9.06666 12.2663 9.22584 12.2663 9.42221Z" stroke="#4489F7" stroke-linecap="round" stroke-linejoin="round"/>
</svg>
