<svg width="44" height="44" viewBox="0 0 44 44" fill="none" xmlns="http://www.w3.org/2000/svg">
<rect width="44" height="44" rx="22" fill="white"/>
<circle cx="22" cy="22" r="18" fill="#DFE3E8"/>
<path d="M21.8819 30.239H16V13.761H21.9306C23.5995 13.761 25.0363 14.0909 26.2407 14.7506C27.4452 15.405 28.3715 16.3464 29.0197 17.5747C29.6732 18.8031 30 20.2728 30 21.9839C30 23.7004 29.6732 25.1754 29.0197 26.4091C28.3715 27.6429 27.4398 28.5896 26.2245 29.2493C25.0147 29.9091 23.5671 30.239 21.8819 30.239ZM19.5081 27.254H21.7361C22.7731 27.254 23.6454 27.0716 24.353 26.7068C25.066 26.3367 25.6007 25.7655 25.9572 24.9931C26.3191 24.2153 26.5 23.2122 26.5 21.9839C26.5 20.7663 26.3191 19.7713 25.9572 18.9989C25.6007 18.2265 25.0687 17.6579 24.3611 17.2931C23.6535 16.9284 22.7812 16.746 21.7442 16.746H19.5081V27.254Z" fill="#061018"/>
</svg>
