<svg width="28" height="28" viewBox="0 0 28 28" fill="none" xmlns="http://www.w3.org/2000/svg">
<path d="M13.9994 1.16667C11.923 1.16777 9.89341 1.78406 8.16711 2.93771C6.44081 4.09136 5.09521 5.73061 4.30028 7.6484C3.50535 9.56619 3.29675 11.6765 3.70083 13.7127C4.1049 15.749 5.10353 17.6199 6.57057 19.089C8.47271 20.9907 12.9492 23.7417 13.2141 26.6315C13.2537 27.0632 13.5676 27.4167 13.9994 27.4167C14.4312 27.4167 14.7463 27.0632 14.7848 26.6315C15.0497 23.7417 19.5226 20.9953 21.4236 19.0948C22.8924 17.6263 23.8926 15.7553 24.298 13.7185C24.7034 11.6817 24.4957 9.57047 23.7011 7.65167C22.9065 5.73287 21.5607 4.09266 19.8339 2.93837C18.107 1.78408 16.0767 1.16754 13.9994 1.16667Z" fill="#0077FF"/>
<path d="M20.5898 11.149C20.3633 11.149 20.1797 11.3327 20.1797 11.5592C20.1797 14.9667 17.4075 17.7389 14.0001 17.7389C10.5926 17.7389 7.82039 14.9667 7.82031 11.5592C7.82039 8.15172 10.5926 5.37953 13.9999 5.37953C15.5131 5.3795 16.9431 5.92004 18.07 6.90911L16.7823 8.19681C16.0013 7.54827 15.0279 7.19516 14.0001 7.19516C11.5937 7.19516 9.63599 9.15286 9.63599 11.5592C9.63599 13.9656 11.5937 15.9233 14.0001 15.9233C16.4064 15.9233 18.3641 13.9656 18.3641 11.5592C18.3641 11.3327 18.1804 11.1491 17.9539 11.1491C17.7274 11.1491 17.5438 11.3327 17.5438 11.5592C17.5438 13.5133 15.9541 15.103 14.0001 15.103C12.046 15.103 10.4563 13.5133 10.4563 11.5592C10.4563 9.60521 12.046 8.01547 14.0001 8.01547C14.8084 8.01547 15.5755 8.28456 16.1991 8.78003L14.8974 10.0818C14.6297 9.91857 14.3217 9.83115 14.0001 9.83115C14 9.83115 13.9999 9.83115 13.9999 9.83115C13.0471 9.83115 12.2719 10.6063 12.2719 11.5592C12.2719 12.5121 13.0472 13.2873 14 13.2873C14.9529 13.2873 15.7282 12.5121 15.7282 11.5592C15.7282 11.2377 15.6407 10.9296 15.4774 10.6619L18.9497 7.1895C19.0298 7.10938 19.0699 7.00438 19.0698 6.89943C19.0698 6.79443 19.0298 6.68946 18.9497 6.60937C17.6276 5.28727 15.8697 4.55919 13.9999 4.55922C12.1302 4.55922 10.3724 5.28736 9.05029 6.60945C7.72819 7.93158 7.00005 9.68945 7 11.5592C7.00005 13.429 7.72819 15.1868 9.05029 16.5089C10.3724 17.8311 12.1303 18.5592 14.0001 18.5592C15.8698 18.5592 17.6276 17.8311 18.9497 16.509C20.2719 15.1868 21 13.4289 21 11.5592C21 11.3326 20.8164 11.149 20.5898 11.149Z" fill="white"/>
</svg>
