<svg width="25" height="24" viewBox="0 0 25 24" fill="none" xmlns="http://www.w3.org/2000/svg">
<path d="M5.62688 2.83643C4.79398 2.83643 4.09961 3.53079 4.09961 4.36369V20.4C4.09965 20.8217 4.44152 21.1636 4.86324 21.1636H14.0269C14.4486 21.1636 14.7904 20.8217 14.7905 20.4V16.9637C14.7905 16.7528 14.9614 16.5818 15.1723 16.5818H15.5541C15.9849 16.5818 16.3178 16.9147 16.3178 17.3455V18.1091C16.3178 19.3653 17.3525 20.4 18.6087 20.4C19.8648 20.4 20.8996 19.3653 20.8996 18.1091V8.18187C20.8996 7.46146 20.5601 6.78109 19.9838 6.34884L17.5393 4.51582C17.1662 4.23607 16.6893 4.37138 16.4699 4.66945C16.2197 5.00927 16.2856 5.48604 16.6235 5.73883L17.5393 6.42491C17.7319 6.56917 17.8452 6.79579 17.845 7.03641V8.9455C17.845 9.64985 18.3392 10.254 18.9949 10.425C19.1985 10.4781 19.3723 10.6437 19.3723 10.8546V18.1091C19.3723 18.5399 19.0394 18.8727 18.6087 18.8727C18.1779 18.8727 17.845 18.5399 17.845 18.1091V17.3455C17.845 16.0893 16.8103 15.0546 15.5541 15.0546H15.1723C14.9614 15.0546 14.7905 14.8836 14.7905 14.6728V4.36369C14.7905 3.53079 14.0961 2.83643 13.2632 2.83643L5.62688 2.83643ZM9.44505 7.41823C9.53771 7.41814 9.62924 7.43863 9.71303 7.47821C9.79682 7.51778 9.87078 7.57547 9.92956 7.6471C9.98835 7.71873 10.0305 7.80252 10.053 7.89242C10.0755 7.98232 10.0777 8.07608 10.0595 8.16695L9.51962 10.862C9.51054 10.9075 9.51166 10.9544 9.5229 10.9993C9.53414 11.0443 9.55521 11.0862 9.58461 11.122C9.614 11.1578 9.65098 11.1866 9.69287 11.2064C9.73477 11.2262 9.78053 11.2364 9.82687 11.2364H10.9723C11.0614 11.2365 11.1492 11.2573 11.2289 11.297C11.3086 11.3368 11.378 11.3945 11.4316 11.4656C11.4852 11.5367 11.5216 11.6193 11.5379 11.7069C11.5543 11.7944 11.5501 11.8846 11.5257 11.9702L10.419 15.848C10.3584 16.0596 10.2306 16.2456 10.0549 16.378C9.87916 16.5104 9.66508 16.582 9.44505 16.5818C9.35238 16.5819 9.26085 16.5614 9.17707 16.5219C9.09328 16.4823 9.01932 16.4246 8.96053 16.353C8.90174 16.2813 8.85959 16.1976 8.83712 16.1077C8.81464 16.0178 8.8124 15.924 8.83056 15.8331L9.37047 13.138C9.37956 13.0926 9.37844 13.0457 9.3672 13.0008C9.35596 12.9558 9.33488 12.9139 9.30549 12.8781C9.27609 12.8423 9.23912 12.8134 9.19722 12.7937C9.15533 12.7739 9.10956 12.7636 9.06323 12.7637H7.91778C7.82872 12.7636 7.74089 12.7428 7.6612 12.7031C7.58151 12.6633 7.51213 12.6056 7.45851 12.5345C7.40489 12.4634 7.36849 12.3808 7.35216 12.2932C7.33584 12.2057 7.34005 12.1155 7.36444 12.0299L8.47112 8.15204C8.53166 7.9405 8.65947 7.75445 8.8352 7.62204C9.01094 7.48964 9.22502 7.41809 9.44505 7.41823Z" fill="white"/>
</svg>
