<svg width="16" height="16" viewBox="0 0 16 16" fill="none" xmlns="http://www.w3.org/2000/svg">
<path d="M11.3334 2.33325H4.66671C2.66671 2.33325 1.33337 3.33325 1.33337 5.66659V10.3333C1.33337 12.6666 2.66671 13.6666 4.66671 13.6666H11.3334C13.3334 13.6666 14.6667 12.6666 14.6667 10.3333V5.66659C14.6667 3.33325 13.3334 2.33325 11.3334 2.33325ZM11.6467 6.39325L9.56004 8.05992C9.12004 8.41325 8.56004 8.58659 8.00004 8.58659C7.44004 8.58659 6.87337 8.41325 6.44004 8.05992L4.35337 6.39325C4.14004 6.21992 4.10671 5.89992 4.27337 5.68659C4.44671 5.47325 4.76004 5.43325 4.97337 5.60659L7.06004 7.27325C7.56671 7.67992 8.42671 7.67992 8.93337 7.27325L11.02 5.60659C11.2334 5.43325 11.5534 5.46659 11.72 5.68659C11.8934 5.89992 11.86 6.21992 11.6467 6.39325Z" fill="#667779"/>
</svg>
