<svg width="31" height="32" viewBox="0 0 31 32" fill="none" xmlns="http://www.w3.org/2000/svg">
<g id="01_sunny_color" clip-path="url(#clip0_14739_21943)">
<path id="&#229;&#189;&#162;&#231;&#138;&#182;" d="M15.5 7.28125C20.3152 7.28125 24.2188 11.1848 24.2188 16C24.2188 20.8152 20.3152 24.7188 15.5 24.7188C10.6848 24.7188 6.78125 20.8152 6.78125 16C6.78125 11.1848 10.6848 7.28125 15.5 7.28125Z" fill="url(#paint0_radial_14739_21943)"/>
<path id="&#229;&#189;&#162;&#231;&#138;&#182;_2" d="M15.5 26.1719C16.3026 26.1719 16.9531 26.8224 16.9531 27.625V29.0781C16.9531 29.8807 16.3026 30.5312 15.5 30.5312C14.6974 30.5312 14.0469 29.8807 14.0469 29.0781V27.625C14.0469 26.8224 14.6974 26.1719 15.5 26.1719ZM24.7477 23.1927L25.7752 24.2202C26.3426 24.7876 26.3426 25.7076 25.7752 26.2752C25.2077 26.8426 24.2876 26.8426 23.7202 26.2752L22.6927 25.2477C22.1252 24.6801 22.1252 23.7601 22.6927 23.1927C23.2601 22.6251 24.1802 22.6251 24.7477 23.1927ZM6.25229 23.1927C6.81977 22.6251 7.73985 22.6251 8.30732 23.1927C8.83114 23.7165 8.87144 24.5408 8.4282 25.1108L8.30732 25.2477L7.2798 26.2752C6.71233 26.8426 5.79225 26.8426 5.22478 26.2752C4.70094 25.7514 4.66065 24.9271 5.10389 24.3571L5.22478 24.2202L6.25229 23.1927ZM3.875 14.5469C4.67753 14.5469 5.32812 15.1974 5.32812 16C5.32812 16.7452 4.76715 17.3594 4.04446 17.4433L3.875 17.4531H2.42188C1.61934 17.4531 0.96875 16.8026 0.96875 16C0.96875 15.2548 1.52972 14.6406 2.25241 14.5567L2.42188 14.5469H3.875ZM28.5781 14.5469C29.3807 14.5469 30.0312 15.1974 30.0312 16C30.0312 16.8026 29.3807 17.4531 28.5781 17.4531H27.125C26.3224 17.4531 25.6719 16.8026 25.6719 16C25.6719 15.1974 26.3224 14.5469 27.125 14.5469H28.5781ZM5.22482 5.72478C5.74864 5.20096 6.57291 5.16066 7.14295 5.6039L7.27985 5.72478L8.30737 6.7523C8.87484 7.31977 8.87484 8.23985 8.30737 8.80732C7.78353 9.33114 6.95928 9.37144 6.38923 8.9282L6.25233 8.80732L5.22482 7.7798C4.65733 7.21233 4.65733 6.29225 5.22482 5.72478ZM25.7752 5.72481C26.3426 6.29228 26.3426 7.21236 25.7752 7.77983L24.7477 8.80735C24.1801 9.37483 23.2601 9.37483 22.6927 8.80735C22.1251 8.23986 22.1251 7.3198 22.6927 6.75232L23.7202 5.72481C24.2876 5.15732 25.2076 5.15732 25.7752 5.72481ZM15.5 1.46875C16.3026 1.46875 16.9531 2.11934 16.9531 2.92188V4.375C16.9531 5.17753 16.3026 5.82812 15.5 5.82812C14.6974 5.82812 14.0469 5.17753 14.0469 4.375V2.92188C14.0469 2.11934 14.6974 1.46875 15.5 1.46875Z" fill="url(#paint1_linear_14739_21943)"/>
</g>
<defs>
<radialGradient id="paint0_radial_14739_21943" cx="0" cy="0" r="1" gradientUnits="userSpaceOnUse" gradientTransform="translate(9.44531 9.46094) rotate(43.0203) scale(20.2055)">
<stop offset="0.193671" stop-color="#FFE475"/>
<stop offset="0.529275" stop-color="#FFB029"/>
<stop offset="0.780467" stop-color="#FF9100"/>
</radialGradient>
<linearGradient id="paint1_linear_14739_21943" x1="0.787108" y1="1.28711" x2="30.2129" y2="30.7129" gradientUnits="userSpaceOnUse">
<stop offset="0.166667" stop-color="#FFE475"/>
<stop offset="0.798611" stop-color="#FFBF29"/>
</linearGradient>
<clipPath id="clip0_14739_21943">
<rect width="31" height="31" fill="white" transform="translate(0 0.5)"/>
</clipPath>
</defs>
</svg>
