<svg width="44" height="44" viewBox="0 0 44 44" fill="none" xmlns="http://www.w3.org/2000/svg">
<rect width="44" height="44" rx="22" fill="white"/>
<circle cx="22" cy="22" r="18" fill="#FC5511"/>
<path d="M24.3319 15.6738C26.8913 18.0538 29.4419 21.195 29.2319 24.9094C29.1527 26.2263 28.6758 27.4862 27.9631 28.5883C26.9219 30.1944 25.2638 31.2925 23.3825 31.625C26.5102 28.7812 24.4894 23.5969 21.5231 21.4837L21.2169 21.2738C21.3088 22.3767 21.3354 23.3563 20.7619 24.3231C20.3025 25.0936 19.6988 25.7756 19.3794 26.62C18.6929 28.3525 19.1825 30.4219 20.6175 31.625C18.7363 31.2925 17.0738 30.1944 16.0369 28.5888C14.7152 26.5413 14.3613 24.0042 15.28 21.7156C16.2469 19.1038 18.8942 17.3056 19.3575 14.4794C19.4669 13.7794 19.4538 13.0667 19.3138 12.375C21.1469 13.2106 22.84 14.3219 24.3319 15.6738Z" fill="white"/>
</svg>
