<svg width="44" height="44" viewBox="0 0 44 44" fill="none" xmlns="http://www.w3.org/2000/svg">
<rect width="44" height="44" rx="22" fill="white"/>
<circle cx="22" cy="22" r="18" fill="#2684FC"/>
<path d="M29.6457 16.2662L28.0026 14.6224C27.8729 14.4972 27.6992 14.4279 27.519 14.4295C27.3387 14.431 27.1663 14.5033 27.0388 14.6308C26.9113 14.7583 26.839 14.9307 26.8375 15.111C26.8359 15.2912 26.9052 15.4649 27.0304 15.5946L28.6736 17.2384C28.802 17.3676 28.8744 17.5422 28.875 17.7244V25.2244C28.875 25.3155 28.8388 25.403 28.7743 25.4674C28.7099 25.5319 28.6224 25.5681 28.5313 25.5681C28.4401 25.5681 28.3526 25.5319 28.2882 25.4674C28.2237 25.403 28.1875 25.3155 28.1875 25.2244V21.967C28.1857 21.3946 27.9752 20.8425 27.5956 20.4141C27.2159 19.9857 26.6931 19.7104 26.125 19.6398V14.4375C26.125 13.8905 25.9077 13.3659 25.5209 12.9791C25.1341 12.5923 24.6095 12.375 24.0625 12.375H16.5C15.953 12.375 15.4284 12.5923 15.0416 12.9791C14.6548 13.3659 14.4375 13.8905 14.4375 14.4375V27.6849C14.2286 27.8056 14.0551 27.979 13.9344 28.1879C13.8137 28.3968 13.7501 28.6338 13.75 28.875V30.25C13.75 30.6147 13.8949 30.9644 14.1527 31.2223C14.4106 31.4801 14.7603 31.625 15.125 31.625H25.4375C25.8022 31.625 26.1519 31.4801 26.4098 31.2223C26.6676 30.9644 26.8125 30.6147 26.8125 30.25V28.875C26.8124 28.6338 26.7488 28.3968 26.6281 28.1879C26.5074 27.979 26.3339 27.8056 26.125 27.6849V21.0375C26.3236 21.0997 26.4973 21.2235 26.621 21.391C26.7446 21.5584 26.8116 21.7609 26.8125 21.9691V25.2244C26.8125 25.6802 26.9936 26.1174 27.3159 26.4397C27.6382 26.762 28.0754 26.9431 28.5313 26.9431C28.9871 26.9431 29.4243 26.762 29.7466 26.4397C30.0689 26.1174 30.25 25.6802 30.25 25.2244V17.7244C30.2508 17.4535 30.1979 17.185 30.0941 16.9347C29.9904 16.6844 29.838 16.4572 29.6457 16.2662ZM24.0625 18.5625C24.0625 18.7448 23.9901 18.9197 23.8611 19.0486C23.7322 19.1776 23.5573 19.25 23.375 19.25H17.1875C17.0052 19.25 16.8303 19.1776 16.7014 19.0486C16.5724 18.9197 16.5 18.7448 16.5 18.5625V15.125C16.5 14.9427 16.5724 14.7678 16.7014 14.6389C16.8303 14.5099 17.0052 14.4375 17.1875 14.4375H23.375C23.5573 14.4375 23.7322 14.5099 23.8611 14.6389C23.9901 14.7678 24.0625 14.9427 24.0625 15.125V18.5625Z" fill="white"/>
</svg>
