<svg width="12" height="13" viewBox="0 0 12 13" fill="none" xmlns="http://www.w3.org/2000/svg">
<path d="M6.00129 9.00003H6.00629M6.00129 5.50003V7.50003M3.20733 11H8.79526C9.68609 11 10.1315 11 10.3928 10.8127C10.6207 10.6492 10.7695 10.3975 10.8029 10.119C10.8412 9.7998 10.6265 9.40952 10.1972 8.62897L7.40324 3.54903C6.94615 2.71795 6.7176 2.30241 6.4156 2.16494C6.15239 2.04512 5.8502 2.04512 5.58699 2.16494C5.28499 2.30241 5.05644 2.71795 4.59935 3.54902L1.80538 8.62897C1.37608 9.40952 1.16142 9.7998 1.19967 10.119C1.23304 10.3975 1.38186 10.6492 1.60983 10.8127C1.87108 11 2.3165 11 3.20733 11Z" stroke="white" stroke-width="1.2" stroke-linecap="round" stroke-linejoin="round"/>
</svg>
