<svg width="25" height="24" viewBox="0 0 25 24" fill="none" xmlns="http://www.w3.org/2000/svg">
<path d="M18.5 6L17.6991 18.0129C17.629 19.065 17.5939 19.5911 17.3667 19.99C17.1666 20.3412 16.8648 20.6235 16.5011 20.7998C16.088 21 15.5607 21 14.5062 21H10.4938C9.43927 21 8.91202 21 8.49889 20.7998C8.13517 20.6235 7.83339 20.3412 7.63332 19.99C7.40607 19.5911 7.371 19.065 7.30086 18.0129L6.5 6M4.5 6H20.5M16.5 6L16.2294 5.18807C15.9671 4.40125 15.8359 4.00784 15.5927 3.71698C15.3779 3.46013 15.1021 3.26132 14.7905 3.13878C14.4376 3 14.023 3 13.1936 3H11.8064C10.977 3 10.5624 3 10.2095 3.13878C9.89792 3.26132 9.62208 3.46013 9.40729 3.71698C9.16405 4.00784 9.03292 4.40125 8.77064 5.18807L8.5 6M14.5 10V17M10.5 10V17" stroke="#E93B50" stroke-width="2" stroke-linecap="round" stroke-linejoin="round"/>
</svg>
