<svg width="20" height="20" viewBox="0 0 20 20" fill="none" xmlns="http://www.w3.org/2000/svg">
    <path d="M10.0002 14.1667H10.0085M10.0002 8.33333V11.6667M5.34359 17.5H14.6568C16.1415 17.5 16.8839 17.5 17.3193 17.1878C17.6993 16.9153 17.9473 16.4958 18.0029 16.0316C18.0667 15.4996 17.7089 14.8491 16.9934 13.5482L12.3368 5.08165C11.575 3.69652 11.194 3.00396 10.6907 2.77483C10.252 2.57514 9.74838 2.57514 9.30969 2.77483C8.80636 3.00396 8.42545 3.69652 7.66363 5.08165L3.00702 13.5482C2.29151 14.8491 1.93375 15.4996 1.99749 16.0316C2.05311 16.4958 2.30115 16.9153 2.6811 17.1878C3.11652 17.5 3.85888 17.5 5.34359 17.5Z" stroke="white" stroke-width="1.5" stroke-linecap="round" stroke-linejoin="round"/>
</svg>
