<svg width="24" height="24" viewBox="0 0 24 24" fill="none" xmlns="http://www.w3.org/2000/svg">
<path fill-rule="evenodd" clip-rule="evenodd" d="M3.63283 10.9755C8.46367 8.87754 11.6796 7.48349 13.2945 6.80717C17.8907 4.88864 18.8569 4.55738 19.478 4.54358C19.616 4.54358 19.9197 4.57118 20.1267 4.73681C20.2923 4.87484 20.3337 5.05427 20.3614 5.19229C20.389 5.33032 20.4166 5.62017 20.389 5.84101C20.1405 8.46346 19.0639 14.8264 18.5118 17.7525C18.2772 18.9947 17.8217 19.4088 17.38 19.4502C16.4139 19.533 15.6823 18.8153 14.7576 18.208C13.2945 17.2556 12.4802 16.6621 11.0585 15.7235C9.41604 14.6469 10.4788 14.0534 11.4174 13.0873C11.6658 12.8388 15.9032 8.97415 15.986 8.62909C15.9998 8.58769 15.9998 8.42206 15.9032 8.33924C15.8066 8.25643 15.6685 8.28403 15.5581 8.31164C15.4063 8.33924 13.0875 9.88511 8.57409 12.9354C7.91157 13.3909 7.31807 13.6118 6.77978 13.598C6.18627 13.5842 5.05448 13.2667 4.19873 12.9907C3.16355 12.6594 2.3354 12.48 2.40441 11.9003C2.44582 11.5966 2.85989 11.293 3.63283 10.9755Z" fill="#2684FC"/>
</svg>
