<svg width="64" height="64" viewBox="0 0 64 64" fill="none" xmlns="http://www.w3.org/2000/svg">
    <rect width="64" height="64" rx="16" fill="#E93B50"/>
    <path d="M46.5434 23.3281C47.3704 23.3281 47.9438 22.4921 47.6337 21.7255C46.5327 19.0035 43.8622 17.0781 40.7502 17.0781H39.3116C38.7751 14.2443 36.2905 12 33.2502 12H30.7502C27.7118 12 25.2256 14.2428 24.6888 17.0781H23.2502C20.1381 17.0781 17.4677 19.0035 16.3666 21.7255C16.0566 22.4921 16.6299 23.3281 17.4569 23.3281H46.5434ZM30.7502 14.3438H33.2502C34.9611 14.3438 36.4134 15.4948 36.9023 17.0781H27.098C27.5869 15.4948 29.0392 14.3438 30.7502 14.3438ZM20.6762 48.7341C20.8066 50.5655 22.347 52 24.1829 52H39.8174C41.6533 52 43.1937 50.5655 43.3241 48.7341L44.9665 25.6719H19.0338L20.6762 48.7341ZM35.2048 31.9415C35.2371 31.2951 35.7883 30.7966 36.4337 30.8296C37.0801 30.862 37.5779 31.4122 37.5456 32.0585L36.9206 44.5585C36.8892 45.185 36.3714 45.6719 35.7511 45.6719C35.0763 45.6719 34.5464 45.1076 34.5797 44.4415L35.2048 31.9415ZM27.5666 30.8296C28.2122 30.7972 28.7633 31.2952 28.7956 31.9415L29.4206 44.4415C29.4538 45.1079 28.9235 45.6719 28.2491 45.6719C27.6288 45.6719 27.111 45.185 27.0797 44.5585L26.4547 32.0585C26.4224 31.4122 26.9202 30.862 27.5666 30.8296Z" fill="white"/>
</svg>
