<svg width="36" height="36" viewBox="0 0 36 36" fill="none" xmlns="http://www.w3.org/2000/svg">
<rect width="36" height="36" rx="10" fill="#061018"/>
<g clip-path="url(#clip0_17959_11277)">
<path fill-rule="evenodd" clip-rule="evenodd" d="M21.8825 11.6472H29.2941C29.684 11.6472 30 11.9632 30 12.3531V23.6469C30 24.0368 29.684 24.3528 29.2941 24.3528H6.70643C6.22187 24.3528 5.88136 23.8757 6.03891 23.4175C8.72329 15.6084 14.0461 11.6472 21.8825 11.6472ZM22.5884 16.2354C22.1175 16.2351 21.6466 16.2499 21.1767 16.2799L19.7649 16.4213C15.2422 17.0427 11.7063 19.2205 9.20322 22.9411H7.71617C10.2924 16.32 14.9782 13.059 21.8825 13.059H28.5882V16.2354H22.5884Z" fill="#D9D9D9"/>
</g>
<defs>
<clipPath id="clip0_17959_11277">
<rect width="24" height="24" fill="white" transform="translate(6 6)"/>
</clipPath>
</defs>
</svg>
