<svg width="36" height="36" viewBox="0 0 36 36" fill="none" xmlns="http://www.w3.org/2000/svg">
<rect width="36" height="36" rx="10" fill="#EBA132"/>
<path d="M27.8284 12.096C27.762 11.886 27.5906 11.7263 27.3763 11.6742C27.1628 11.6221 26.9368 11.6851 26.7814 11.8406L24.1194 14.5018L22.0817 13.9186L21.4985 11.8809L24.1605 9.21893C24.3168 9.06348 24.379 8.83745 24.3269 8.62402C24.2748 8.40975 24.1152 8.23917 23.9051 8.17195C23.3673 8.00305 22.7951 7.9165 22.2027 7.9165C18.9592 7.9165 16.3207 10.555 16.3207 13.7984C16.3207 14.485 16.4359 15.1479 16.6636 15.7748L8.65741 23.7809C8.18014 24.2574 7.91797 24.8901 7.91797 25.5623C7.91797 26.2346 8.18014 26.8673 8.65741 27.3437C9.13385 27.821 9.76658 28.0832 10.4388 28.0832C11.111 28.0832 11.7438 27.821 12.2202 27.3437L20.2264 19.3376C20.8532 19.5653 21.5162 19.6804 22.2027 19.6804C25.4462 19.6804 28.0846 17.0419 28.0846 13.7984C28.0846 13.2061 27.9981 12.6338 27.8284 12.096Z" fill="white"/>
</svg>
