<svg width="20" height="21" viewBox="0 0 20 21" fill="none" xmlns="http://www.w3.org/2000/svg">
<g id="Frame" clip-path="url(#clip0_14695_24883)">
<g id="Group">
<path id="Vector" fill-rule="evenodd" clip-rule="evenodd" d="M13.2354 5.20599H19.4118C19.7366 5.20599 20 5.46935 20 5.79422V15.2057C20 15.5306 19.7366 15.794 19.4118 15.794H0.588691C0.184895 15.794 -0.0988687 15.3964 0.0324289 15.0145C2.26941 8.50698 6.70508 5.20599 13.2354 5.20599ZM13.8237 9.02944C13.4312 9.02921 13.0389 9.0416 12.6472 9.06659L11.4707 9.1844C7.70182 9.70224 4.75529 11.5171 2.66935 14.6175H1.43014C3.57703 9.09999 7.48183 6.38245 13.2354 6.38245H18.8235V9.02944H13.8237Z" fill="#D9D9D9"/>
</g>
</g>
<defs>
<clipPath id="clip0_14695_24883">
<rect width="20" height="20" fill="white" transform="translate(0 0.5)"/>
</clipPath>
</defs>
</svg>
