<svg width="28" height="28" viewBox="0 0 28 28" fill="none" xmlns="http://www.w3.org/2000/svg">
<path fill-rule="evenodd" clip-rule="evenodd" d="M2.2835 13.2909C9.02409 10.4637 13.5189 8.59987 15.7678 7.69936C22.1891 5.1282 23.5234 4.68156 24.3931 4.66681C24.5844 4.66357 25.012 4.7092 25.2891 4.92561C25.523 5.10833 25.5873 5.35517 25.6181 5.52842C25.6489 5.70166 25.6873 6.09632 25.6568 6.40469C25.3088 9.92441 23.8032 18.4658 23.0372 22.408C22.713 24.0761 22.0702 24.4331 21.4523 24.4878C20.1096 24.6068 19.0946 23.8358 17.7941 23.0151C15.759 21.7309 15.011 21.385 13.0356 20.1319C10.7528 18.6836 11.9983 17.9256 13.2993 16.6247C13.6397 16.2843 19.598 10.981 19.7125 10.511C19.7268 10.4522 19.5308 9.8646 19.3956 9.74892C19.2604 9.63323 19.0609 9.67279 18.9169 9.70425C18.7128 9.74885 15.4617 11.8175 9.16379 15.9101C8.241 16.5201 7.40516 16.8173 6.65628 16.8018C5.8307 16.7846 4.24261 16.3524 3.06203 15.9829C1.614 15.5298 1.07949 15.3164 1.1797 14.5468C1.2319 14.146 1.59983 13.7274 2.2835 13.2909Z" fill="url(#paint0_linear_14159_18612)"/>
<defs>
<linearGradient id="paint0_linear_14159_18612" x1="4.75599" y1="7.57125" x2="18.4728" y2="24.5155" gradientUnits="userSpaceOnUse">
<stop stop-color="#33BEF0"/>
<stop offset="1" stop-color="#0A85D9"/>
</linearGradient>
</defs>
</svg>
