<svg width="20" height="20" viewBox="0 0 20 20" fill="none" xmlns="http://www.w3.org/2000/svg">
<path d="M18.1896 5.08003C18.1343 4.90497 17.9915 4.77193 17.8129 4.72851C17.6351 4.6851 17.4467 4.73761 17.3172 4.86716L15.0988 7.08479L13.4008 6.59883L12.9148 4.90077L15.1331 2.68244C15.2634 2.55289 15.3152 2.36453 15.2718 2.18667C15.2284 2.00811 15.0953 1.86597 14.9203 1.80995C14.4721 1.6692 13.9953 1.59708 13.5016 1.59708C10.7987 1.59708 8.59997 3.7958 8.59997 6.4987C8.59997 7.07079 8.6959 7.62327 8.88566 8.14564L2.21386 14.8174C1.81613 15.2145 1.59766 15.7417 1.59766 16.3019C1.59766 16.8621 1.81613 17.3894 2.21386 17.7864C2.61089 18.1842 3.13817 18.4026 3.69835 18.4026C4.25854 18.4026 4.78581 18.1842 5.18284 17.7864L11.8546 11.1146C12.377 11.3044 12.9295 11.4003 13.5016 11.4003C16.2045 11.4003 18.4032 9.20159 18.4032 6.4987C18.4032 6.00503 18.3311 5.52818 18.1896 5.08003Z" fill="white"/>
</svg>
