<svg width="16" height="16" viewBox="0 0 16 16" fill="none" xmlns="http://www.w3.org/2000/svg">
<path fill-rule="evenodd" clip-rule="evenodd" d="M10.7576 3.15224L11.9774 4.372C13.77 6.16466 14.6663 7.06098 14.6663 8.1748C14.6663 9.28861 13.77 10.1849 11.9774 11.9776C10.1847 13.7703 9.28837 14.6666 8.17455 14.6666C7.06074 14.6666 6.16441 13.7703 4.37176 11.9776L3.152 10.7578C2.12164 9.72749 1.60646 9.21231 1.41477 8.5439C1.22307 7.8755 1.3869 7.16558 1.71455 5.74575L1.9035 4.92697C2.17916 3.73246 2.31698 3.1352 2.72597 2.72622C3.13496 2.31723 3.73221 2.1794 4.92672 1.90375L5.74551 1.71479C7.16534 1.38714 7.87525 1.22331 8.54366 1.41501C9.21206 1.60671 9.72724 2.12189 10.7576 3.15224ZM7.43079 9.55221C6.98215 9.10357 6.98595 8.45984 7.25425 7.94969C7.12017 7.75492 7.13973 7.48625 7.31294 7.31304C7.48552 7.14046 7.75286 7.12041 7.94746 7.25289C8.17404 7.13248 8.42298 7.0688 8.67106 7.07114C8.94719 7.07374 9.16892 7.2997 9.16632 7.57583C9.16372 7.85196 8.93776 8.0737 8.66163 8.0711C8.5437 8.06998 8.38868 8.12291 8.25575 8.25585C7.99739 8.5142 8.06534 8.77255 8.1379 8.8451C8.21045 8.91766 8.4688 8.98561 8.72715 8.72725C9.24984 8.20456 10.1523 8.03108 10.7306 8.6094C11.1793 9.05804 11.1755 9.70177 10.9072 10.2119C11.0412 10.4067 11.0217 10.6754 10.8485 10.8486C10.6759 11.0212 10.4084 11.0412 10.2138 10.9086C9.90923 11.0705 9.56272 11.1312 9.23236 11.0633C8.96187 11.0077 8.78766 10.7434 8.84324 10.4729C8.89883 10.2024 9.16317 10.0282 9.43366 10.0838C9.55176 10.108 9.74216 10.0693 9.90566 9.90576C10.164 9.64741 10.0961 9.38906 10.0235 9.31651C9.95096 9.24395 9.69262 9.176 9.43426 9.43436C8.91157 9.95705 8.00911 10.1305 7.43079 9.55221ZM6.68032 6.862C7.20101 6.3413 7.20101 5.49708 6.68032 4.97638C6.15962 4.45568 5.3154 4.45568 4.7947 4.97638C4.274 5.49708 4.274 6.3413 4.7947 6.862C5.3154 7.3827 6.15962 7.3827 6.68032 6.862Z" fill="#EBC032"/>
</svg>
