<svg width="24" height="24" viewBox="0 0 24 24" fill="none" xmlns="http://www.w3.org/2000/svg">
<g clip-path="url(#clip0_11208_15265)">
<path d="M0 18.75C0 21.6495 2.3505 24 5.25 24H18.75C21.6495 24 24 21.6495 24 18.75V16H0V18.75Z" fill="#73AF00"/>
<path d="M18.75 0H5.25C2.3505 0 0 2.3505 0 5.25V8.00002H24V5.25C24 2.3505 21.6495 0 18.75 0Z" fill="#FF4B55"/>
<path d="M24 8.00012H0V16.0003H24V8.00012Z" fill="#F5F5F5"/>
<path d="M9.93005 14.2563C10.1926 14.1239 10.3463 13.9059 10.4284 13.7485C10.8989 14.0558 11.3019 13.9514 11.512 13.8531C11.717 13.7571 11.8857 13.6005 11.9984 13.4409C12.1111 13.6005 12.2799 13.7571 12.4848 13.8531C12.6947 13.9514 13.0979 14.0556 13.5684 13.7485C13.6505 13.9059 13.8041 14.1239 14.0667 14.2563C14.2181 14.3325 14.385 14.3708 14.5661 14.3708C14.7521 14.3708 14.953 14.3305 15.1676 14.25L15.0634 13.972C14.722 14.1 14.4325 14.107 14.203 13.9925C13.8819 13.8324 13.7748 13.4795 13.7739 13.4766L13.7113 13.2574L13.5361 13.4032C13.2272 13.6605 12.9073 13.7235 12.6107 13.5842C12.3094 13.4432 12.1468 13.1576 12.1468 13.072V11.7908C12.211 11.6495 12.3528 11.5505 12.5179 11.5505C12.5747 11.5505 12.6308 11.5628 12.6846 11.587L12.8683 11.6699L12.8406 11.4702C12.7823 11.0506 12.4203 10.7341 11.9985 10.7341C11.5766 10.7341 11.2146 11.0506 11.1564 11.4702L11.1286 11.6699L11.3124 11.587C11.3661 11.5628 11.4222 11.5505 11.479 11.5505C11.6441 11.5505 11.7858 11.6495 11.8501 11.7908V13.072C11.8501 13.1577 11.6875 13.4432 11.3862 13.5842C11.0896 13.7235 10.7696 13.6606 10.4607 13.4032L10.287 13.2592L10.2232 13.4759C10.2221 13.4794 10.115 13.8324 9.79388 13.9924C9.56429 14.1069 9.27479 14.1001 8.93349 13.972L8.8291 14.25C9.0437 14.3305 9.2447 14.3708 9.43065 14.3708C9.61173 14.3708 9.77865 14.3325 9.93005 14.2563ZM11.4789 11.3279C11.4611 11.3279 11.4434 11.3286 11.4258 11.3302C11.5252 11.1087 11.7474 10.9568 11.9984 10.9568C12.2493 10.9568 12.4716 11.1087 12.5709 11.3302C12.3401 11.3099 12.1218 11.4227 11.9984 11.6013C11.8844 11.4362 11.694 11.3279 11.4789 11.3279Z" fill="#FFCD5A"/>
<path d="M9.42773 15.2L9.52181 15.4815C10.1529 15.2709 11.0556 15.15 11.9982 15.15C12.9407 15.15 13.8434 15.2709 14.4745 15.4815L14.5686 15.2C13.9083 14.9795 12.9714 14.8531 11.9982 14.8531C11.0249 14.8531 10.088 14.9796 9.42773 15.2Z" fill="#FFCD5A"/>
<path d="M11.9987 14.5562C12.1535 14.5567 12.2898 14.4647 12.3822 14.3409C12.3207 14.3029 12.2388 14.2808 12.146 14.2693C12.146 14.2659 12.1471 14.2628 12.1471 14.2594C12.1471 14.1321 12.087 14.0222 11.9987 13.9625C11.9103 14.0222 11.8502 14.1321 11.8502 14.2594C11.8502 14.2628 11.8513 14.2659 11.8514 14.2693C11.7586 14.2808 11.6766 14.3029 11.6152 14.3409C11.7076 14.4648 11.8439 14.5567 11.9987 14.5562Z" fill="#FFCD5A"/>
<path d="M10.6356 14.6965C10.7873 14.666 10.9025 14.5487 10.9682 14.4088C10.9005 14.3839 10.8157 14.3786 10.7225 14.3859C10.7219 14.3825 10.7223 14.3793 10.7216 14.3759C10.6962 14.2512 10.6153 14.1556 10.5168 14.1147C10.4422 14.1909 10.4053 14.3106 10.4308 14.4353C10.4315 14.4387 10.4331 14.4415 10.4339 14.4448C10.3453 14.4746 10.2694 14.5127 10.2168 14.5622C10.3321 14.6652 10.484 14.7279 10.6356 14.6965Z" fill="#FFCD5A"/>
<path d="M13.4797 14.1149C13.3811 14.1557 13.3003 14.2514 13.2749 14.3761C13.2742 14.3794 13.2746 14.3826 13.274 14.386C13.1809 14.3787 13.0961 14.384 13.0283 14.4089C13.094 14.5488 13.2093 14.6661 13.3609 14.6966C13.5125 14.728 13.6645 14.6653 13.7797 14.5623C13.7271 14.5128 13.6512 14.4747 13.5626 14.4449C13.5634 14.4416 13.5651 14.4388 13.5657 14.4354C13.5912 14.3108 13.5543 14.191 13.4797 14.1149Z" fill="#FFCD5A"/>
<path d="M11.9584 8.64801L11.8584 8.94782L11.5423 8.95026C11.5014 8.95058 11.4845 9.0028 11.5174 9.02708L11.7716 9.21482L11.6763 9.51613C11.6639 9.55513 11.7083 9.58743 11.7416 9.56362L11.9987 9.37982L12.2558 9.56362C12.2891 9.58743 12.3335 9.55513 12.3212 9.51613L12.2258 9.21482L12.4801 9.02708C12.513 9.00276 12.496 8.95054 12.4551 8.95026L12.1391 8.94782L12.0391 8.64801C12.0262 8.60919 11.9713 8.60919 11.9584 8.64801Z" fill="#FFCD5A"/>
<path d="M10.1498 9.14276L10.0498 9.44257L9.73375 9.44501C9.69283 9.44533 9.67586 9.49755 9.70877 9.52183L9.96302 9.70957L9.86767 10.0109C9.85534 10.0499 9.89973 10.0822 9.93302 10.0584L10.1901 9.87457L10.4472 10.0584C10.4805 10.0822 10.525 10.0499 10.5126 10.0109L10.4172 9.70957L10.6715 9.52183C10.7044 9.49751 10.6874 9.44533 10.6465 9.44501L10.3305 9.44257L10.2305 9.14276C10.2176 9.10394 10.1627 9.10394 10.1498 9.14276Z" fill="#FFCD5A"/>
<path d="M8.81969 10.4787L8.7197 10.7785L8.40367 10.7809C8.36275 10.7813 8.34578 10.8335 8.37869 10.8578L8.63294 11.0455L8.53759 11.3468C8.52527 11.3858 8.56966 11.4181 8.60294 11.3943L8.86005 11.2105L9.11716 11.3943C9.15044 11.4181 9.19487 11.3858 9.1825 11.3468L9.08716 11.0455L9.34141 10.8578C9.37431 10.8335 9.35734 10.7813 9.31642 10.7809L9.00039 10.7785L8.90041 10.4787C8.88752 10.4399 8.83262 10.4399 8.81969 10.4787Z" fill="#FFCD5A"/>
<path d="M8.33141 12.2846L8.23142 12.5844L7.91539 12.5869C7.87447 12.5872 7.8575 12.6394 7.89041 12.6637L8.14466 12.8514L8.04931 13.1527C8.03698 13.1917 8.08137 13.224 8.11466 13.2002L8.37177 13.0164L8.62887 13.2002C8.66216 13.224 8.70659 13.1917 8.69427 13.1527L8.59892 12.8514L8.85317 12.6637C8.88608 12.6394 8.86911 12.5872 8.82819 12.5869L8.51216 12.5844L8.41217 12.2846C8.39928 12.2458 8.34439 12.2458 8.33141 12.2846Z" fill="#FFCD5A"/>
<path d="M13.8506 9.14276L13.9506 9.44257L14.2666 9.44501C14.3075 9.44533 14.3245 9.49755 14.2916 9.52183L14.0374 9.70957L14.1327 10.0109C14.145 10.0499 14.1006 10.0822 14.0674 10.0584L13.8102 9.87457L13.5531 10.0584C13.5199 10.0822 13.4754 10.0499 13.4878 10.0109L13.5831 9.70957L13.3289 9.52183C13.296 9.49751 13.3129 9.44533 13.3539 9.44501L13.6699 9.44257L13.7699 9.14276C13.7827 9.10394 13.8377 9.10394 13.8506 9.14276Z" fill="#FFCD5A"/>
<path d="M15.1797 10.4787L15.2797 10.7785L15.5957 10.7809C15.6366 10.7813 15.6536 10.8335 15.6207 10.8578L15.3665 11.0455L15.4618 11.3468C15.4741 11.3858 15.4297 11.4181 15.3965 11.3943L15.1393 11.2105L14.8822 11.3943C14.849 11.4181 14.8045 11.3858 14.8169 11.3468L14.9122 11.0455L14.658 10.8578C14.6251 10.8335 14.642 10.7813 14.683 10.7809L14.999 10.7785L15.099 10.4787C15.1119 10.4399 15.1668 10.4399 15.1797 10.4787Z" fill="#FFCD5A"/>
<path d="M15.669 12.2846L15.769 12.5844L16.085 12.5869C16.1259 12.5872 16.1429 12.6394 16.11 12.6637L15.8558 12.8514L15.9511 13.1527C15.9634 13.1917 15.919 13.224 15.8858 13.2002L15.6286 13.0164L15.3715 13.2002C15.3383 13.224 15.2938 13.1917 15.3061 13.1527L15.4015 12.8514L15.1472 12.6637C15.1143 12.6394 15.1313 12.5872 15.1722 12.5869L15.4883 12.5844L15.5882 12.2846C15.6011 12.2458 15.656 12.2458 15.669 12.2846Z" fill="#FFCD5A"/>
</g>
<defs>
<clipPath id="clip0_11208_15265">
<rect width="24" height="24" fill="white"/>
</clipPath>
</defs>
</svg>
