<svg width="36" height="36" viewBox="0 0 36 36" fill="none" xmlns="http://www.w3.org/2000/svg">
<rect width="36" height="36" rx="8" fill="#F2F2F7"/>
<path d="M20.3319 11.6738C22.8913 14.0538 25.4419 17.195 25.2319 20.9094C25.1527 22.2263 24.6758 23.4862 23.9631 24.5883C22.9219 26.1944 21.2638 27.2925 19.3825 27.625C22.5102 24.7812 20.4894 19.5969 17.5231 17.4837L17.2169 17.2738C17.3088 18.3767 17.3354 19.3563 16.7619 20.3231C16.3025 21.0936 15.6988 21.7756 15.3794 22.62C14.6929 24.3525 15.1825 26.4219 16.6175 27.625C14.7363 27.2925 13.0738 26.1944 12.0369 24.5888C10.7152 22.5413 10.3613 20.0042 11.28 17.7156C12.2469 15.1038 14.8942 13.3056 15.3575 10.4794C15.4669 9.77938 15.4538 9.06669 15.3138 8.375C17.1469 9.21062 18.84 10.3219 20.3319 11.6738Z" fill="#666E79"/>
</svg>
