<svg width="20" height="32" viewBox="0 0 20 32" fill="none" xmlns="http://www.w3.org/2000/svg">
<path d="M-0.000488281 10.4082V13.2297C-0.000488281 14.3996 0.870479 15.2254 1.935 15.2254H18.064C19.1285 15.2254 19.9995 14.3996 19.9995 13.2297V10.4082H-0.000488281Z" fill="#1BCC18"/>
<path d="M18.064 0.774536H1.935C0.870479 0.774536 -0.000488281 1.60034 -0.000488281 2.77024V5.59174H19.9995V2.77024C19.9995 1.60034 19.1285 0.774536 18.064 0.774536Z" fill="#0099B5"/>
<path d="M19.9995 5.5918H-0.000488281V10.409H19.9995V5.5918Z" fill="#F7F8FC"/>
<path d="M19.9995 5.24744H-0.000488281V5.59152H19.9995V5.24744Z" fill="#CE1126"/>
<path d="M19.9995 10.4082H-0.000488281V10.7523H19.9995V10.4082Z" fill="#CE1126"/>
<path d="M3.03364 1.73729C2.96912 1.73729 2.90461 1.70288 2.84009 1.70288C2.16268 1.70288 1.58203 2.28783 1.58203 3.04482C1.58203 3.80181 2.13042 4.38676 2.84009 4.38676C2.90461 4.38676 2.96912 4.38676 3.03364 4.35235C2.453 4.24912 2.00139 3.69859 2.00139 3.04482C2.00139 2.35665 2.453 1.84052 3.03364 1.73729Z" fill="white"/>
<path d="M3.64619 4.00776L3.58181 3.83606L3.51742 4.00776H3.35645L3.48522 4.14512L3.45303 4.31683L3.58181 4.21381L3.74278 4.31683L3.67839 4.14512L3.83936 4.00776H3.64619Z" fill="white"/>
<path d="M4.64619 4.00776L4.58181 3.83606L4.51742 4.00776H4.35645L4.48522 4.14512L4.45303 4.31683L4.58181 4.21381L4.74278 4.31683L4.67839 4.14512L4.80717 4.00776H4.64619Z" fill="white"/>
<path d="M5.64644 4.00776L5.58205 3.83606L5.51766 4.00776H5.35669L5.48547 4.14512L5.42108 4.31683L5.58205 4.21381L5.74302 4.31683L5.67863 4.14512L5.80741 4.00776H5.64644Z" fill="white"/>
<path d="M6.64888 4.00776L6.58449 3.83606L6.5201 4.00776H6.35913L6.48791 4.14512L6.42352 4.31683L6.58449 4.21381L6.74546 4.31683L6.68107 4.14512L6.80985 4.00776H6.64888Z" fill="white"/>
<path d="M7.64742 4.00776L7.58303 3.83606L7.51864 4.00776H7.35767L7.48644 4.14512L7.42206 4.31683L7.58303 4.21381L7.71181 4.31683L7.67961 4.14512L7.80839 4.00776H7.64742Z" fill="white"/>
<path d="M4.58181 2.76953L4.54961 2.94123H4.35645L4.51742 3.0786L4.45303 3.2503L4.58181 3.14728L4.74278 3.2503L4.67839 3.0786L4.83936 2.94123H4.64619L4.58181 2.76953Z" fill="white"/>
<path d="M5.58205 2.76892L5.54986 2.94062H5.35669L5.51766 3.07799L5.45327 3.24969L5.58205 3.14667L5.74302 3.24969L5.67863 3.07799L5.8396 2.94062H5.64644L5.58205 2.76892Z" fill="white"/>
<path d="M6.58449 2.76892L6.5523 2.94062H6.35913L6.5201 3.07799L6.45571 3.24969L6.58449 3.14667L6.74546 3.24969L6.68107 3.07799L6.84204 2.94062H6.64888L6.58449 2.76892Z" fill="white"/>
<path d="M7.64742 2.94123L7.58303 2.76953L7.55083 2.94123H7.35767L7.48644 3.0786L7.45425 3.2503L7.58303 3.14728L7.744 3.2503L7.67961 3.0786L7.84059 2.94123H7.64742Z" fill="white"/>
<path d="M5.48714 2.01195L5.42275 2.18365L5.58373 2.08063L5.7125 2.18365L5.68031 2.01195L5.80909 1.87458H5.64811L5.58373 1.70288L5.51934 1.87458H5.32617L5.48714 2.01195Z" fill="white"/>
<path d="M6.48495 2.01195L6.42056 2.18365L6.58153 2.08063L6.71031 2.18365L6.67811 2.01195L6.80689 1.87458H6.64592L6.58153 1.70288L6.51714 1.87458H6.32397L6.48495 2.01195Z" fill="white"/>
<path d="M7.48495 2.01195L7.42056 2.18365L7.58153 2.08063L7.71031 2.18365L7.67811 2.01195L7.80689 1.87458H7.61372L7.58153 1.70288L7.51714 1.87458H7.32397L7.48495 2.01195Z" fill="white"/>
<path d="M7.61841 22H9.48669V28.5515C9.48669 29.3058 9.32364 29.9404 8.99754 30.4553C8.67144 30.9657 8.22758 31.3519 7.66597 31.6138C7.10435 31.8713 6.46574 32 5.75014 32C5.02547 32 4.38007 31.8713 3.81392 31.6138C3.24778 31.3519 2.80392 30.9657 2.48235 30.4553C2.16078 29.9404 2 29.3058 2 28.5515V22H3.86827V28.5515C3.86827 29.0122 3.94527 29.3893 4.09926 29.6829C4.25325 29.972 4.47065 30.1865 4.75146 30.3266C5.03227 30.4666 5.36516 30.5366 5.75014 30.5366C6.13964 30.5366 6.47254 30.4666 6.74881 30.3266C7.02962 30.1865 7.24476 29.972 7.39422 29.6829C7.54368 29.3893 7.61841 29.0122 7.61841 28.5515V22Z" fill="#273140"/>
<path d="M18 30.4011V31.8645H11.0568V30.4011H18ZM17.8709 23.0908L11.8245 31.8645H10.5405V30.7466L16.6141 22H17.8709V23.0908ZM17.2051 22V23.4702H10.5609V22H17.2051Z" fill="#273140"/>
</svg>
