<svg width="20" height="20" viewBox="0 0 20 20" fill="none" xmlns="http://www.w3.org/2000/svg">
    <path d="M10.8333 16.6666V15C10.8333 12.6988 8.96785 10.8333 6.66667 10.8333C4.36548 10.8333 2.5 12.6988 2.5 15V16.6666H10.8333ZM10.8333 16.6666H17.5V15.8333C17.5 13.3787 15.6345 11.6666 13.3333 11.6666C12.1556 11.6666 11.0919 12.1879 10.3341 13.0259M9.16667 5.83331C9.16667 7.21402 8.04738 8.33331 6.66667 8.33331C5.28595 8.33331 4.16667 7.21402 4.16667 5.83331C4.16667 4.4526 5.28595 3.33331 6.66667 3.33331C8.04738 3.33331 9.16667 4.4526 9.16667 5.83331ZM15 7.49998C15 8.42045 14.2538 9.16665 13.3333 9.16665C12.4129 9.16665 11.6667 8.42045 11.6667 7.49998C11.6667 6.57951 12.4129 5.83331 13.3333 5.83331C14.2538 5.83331 15 6.57951 15 7.49998Z" stroke="white" stroke-width="1.5" stroke-linecap="round" stroke-linejoin="round"/>
</svg>
