<svg width="24" height="24" viewBox="0 0 24 24" fill="none" xmlns="http://www.w3.org/2000/svg">
<path fill-rule="evenodd" clip-rule="evenodd" d="M19 12.5429C19 15.063 18.4196 16.9409 17.2594 18.1647C16.0992 19.3885 14.307 20 11.8905 20C9.63291 20 7.91973 19.3881 6.75197 18.1647C5.58388 16.9412 5 15.096 5 12.629V4.35223C5.00069 4.15814 5.15893 4.00117 5.35424 4.00049H9.4479C9.64355 4.00117 9.8018 4.15814 9.80248 4.35223V12.8098C9.80248 13.817 9.99024 14.5924 10.3726 15.1392C11.0609 16.0443 12.3584 16.2244 13.2707 15.5417C13.4077 15.4392 13.5313 15.3204 13.6384 15.1876C14.0122 14.6744 14.1982 13.9182 14.1972 12.9188V11.3351H19V12.5425V12.5429Z" fill="#203E7A"/>
<path fill-rule="evenodd" clip-rule="evenodd" d="M18.6283 10.4102H14.1973V4.36858C14.198 4.1653 14.3637 4.00083 14.5683 4.00049H15.2315C15.2329 6.0633 16.9189 7.73486 18.9984 7.73486H18.9994V10.4102H18.628H18.6283Z" fill="#203E7A"/>
<path fill-rule="evenodd" clip-rule="evenodd" d="M16.1761 4.00034H18.629C18.8339 4.00102 18.9997 4.16549 19.0001 4.36843V6.80478C17.4403 6.80478 16.1758 5.55034 16.1758 4.00306V4L16.1761 4.00034Z" fill="#F4821F"/>
</svg>
