<svg width="9" height="7" viewBox="0 0 9 7" fill="none" xmlns="http://www.w3.org/2000/svg">
<path d="M3.00276 0.978638H3.96749V4.37097C3.96749 4.76154 3.88329 5.09013 3.7149 5.35674C3.54651 5.62102 3.31732 5.82098 3.02732 5.95663C2.73731 6.08994 2.40755 6.15659 2.03803 6.15659C1.66384 6.15659 1.33057 6.08994 1.03822 5.95663C0.745883 5.82098 0.516687 5.62102 0.350637 5.35674C0.184587 5.09013 0.101562 4.76154 0.101562 4.37097V0.978638H1.06629V4.37097C1.06629 4.60952 1.10605 4.8048 1.18556 4.95682C1.26508 5.1065 1.37734 5.21759 1.52234 5.29009C1.66734 5.36259 1.83924 5.39884 2.03803 5.39884C2.23916 5.39884 2.41106 5.36259 2.55372 5.29009C2.69872 5.21759 2.80981 5.1065 2.88699 4.95682C2.96417 4.8048 3.00276 4.60952 3.00276 4.37097V0.978638Z" fill="#273140"/>
<path d="M8.36353 5.32868V6.08643H4.77826V5.32868H8.36353ZM8.29688 1.54344L5.17467 6.08643H4.51164V5.50759L7.64788 0.978638H8.29688V1.54344ZM7.95309 0.978638V1.73989H4.52217V0.978638H7.95309Z" fill="#273140"/>
</svg>
