<svg width="36" height="36" viewBox="0 0 36 36" fill="none" xmlns="http://www.w3.org/2000/svg">
<rect width="36" height="36" rx="8" fill="#F2F2F7"/>
<path d="M25.6457 12.2662L24.0026 10.6224C23.8729 10.4972 23.6992 10.4279 23.519 10.4295C23.3387 10.431 23.1663 10.5033 23.0388 10.6308C22.9113 10.7583 22.839 10.9307 22.8375 11.111C22.8359 11.2912 22.9052 11.4649 23.0304 11.5946L24.6736 13.2384C24.802 13.3676 24.8744 13.5422 24.875 13.7244V21.2244C24.875 21.3155 24.8388 21.403 24.7743 21.4674C24.7099 21.5319 24.6224 21.5681 24.5313 21.5681C24.4401 21.5681 24.3527 21.5319 24.2882 21.4674C24.2237 21.403 24.1875 21.3155 24.1875 21.2244V17.967C24.1857 17.3946 23.9752 16.8425 23.5956 16.4141C23.2159 15.9857 22.6931 15.7104 22.125 15.6398V10.4375C22.125 9.89049 21.9077 9.36589 21.5209 8.97909C21.1341 8.5923 20.6095 8.375 20.0625 8.375H12.5C11.953 8.375 11.4284 8.5923 11.0416 8.97909C10.6548 9.36589 10.4375 9.89049 10.4375 10.4375V23.6849C10.2286 23.8056 10.0551 23.979 9.9344 24.1879C9.81372 24.3968 9.75013 24.6338 9.75 24.875V26.25C9.75 26.6147 9.89487 26.9644 10.1527 27.2223C10.4106 27.4801 10.7603 27.625 11.125 27.625H21.4375C21.8022 27.625 22.1519 27.4801 22.4098 27.2223C22.6676 26.9644 22.8125 26.6147 22.8125 26.25V24.875C22.8124 24.6338 22.7488 24.3968 22.6281 24.1879C22.5074 23.979 22.3339 23.8056 22.125 23.6849V17.0375C22.3237 17.0997 22.4974 17.2235 22.621 17.391C22.7446 17.5584 22.8116 17.7609 22.8125 17.9691V21.2244C22.8125 21.6802 22.9936 22.1174 23.3159 22.4397C23.6382 22.762 24.0754 22.9431 24.5313 22.9431C24.9871 22.9431 25.4243 22.762 25.7466 22.4397C26.0689 22.1174 26.25 21.6802 26.25 21.2244V13.7244C26.2509 13.4535 26.1979 13.185 26.0941 12.9347C25.9904 12.6844 25.838 12.4572 25.6457 12.2662ZM20.0625 14.5625C20.0625 14.7448 19.9901 14.9197 19.8611 15.0486C19.7322 15.1776 19.5573 15.25 19.375 15.25H13.1875C13.0052 15.25 12.8303 15.1776 12.7014 15.0486C12.5724 14.9197 12.5 14.7448 12.5 14.5625V11.125C12.5 10.9427 12.5724 10.7678 12.7014 10.6389C12.8303 10.5099 13.0052 10.4375 13.1875 10.4375H19.375C19.5573 10.4375 19.7322 10.5099 19.8611 10.6389C19.9901 10.7678 20.0625 10.9427 20.0625 11.125V14.5625Z" fill="#666E79"/>
</svg>
