<svg width="24" height="24" viewBox="0 0 24 24" fill="none" xmlns="http://www.w3.org/2000/svg">
<path d="M5.49167 19.9546L6.022 19.4243L5.49167 19.9546ZM19.9546 5.49167L19.4243 6.022V6.022L19.9546 5.49167ZM22 8.38426H21.25H22ZM12.7231 4.04537L12.1928 3.51504L12.7231 4.04537ZM18.5083 4.04537L19.0387 3.51504V3.51504L18.5083 4.04537ZM15.6157 2V1.25V2ZM4.04537 12.7231L4.5757 13.2535L4.04537 12.7231ZM4.04537 18.5083L3.51504 19.0387H3.51504L4.04537 18.5083ZM2 15.6157H1.25H2ZM4.5757 13.2535L13.2535 4.5757L12.1928 3.51504L3.51504 12.1928L4.5757 13.2535ZM17.978 4.5757L19.4243 6.022L20.485 4.96134L19.0387 3.51504L17.978 4.5757ZM19.4243 10.7465L10.7465 19.4243L11.8072 20.485L20.485 11.8072L19.4243 10.7465ZM6.022 19.4243L4.5757 17.978L3.51504 19.0387L4.96134 20.485L6.022 19.4243ZM10.7465 19.4243C10.0497 20.1211 9.57938 20.5892 9.18198 20.8924C8.8019 21.1824 8.57795 21.25 8.38426 21.25V22.75C9.03779 22.75 9.57834 22.4767 10.0919 22.0849C10.5881 21.7063 11.1404 21.1518 11.8072 20.485L10.7465 19.4243ZM4.96134 20.485C5.62814 21.1518 6.18046 21.7063 6.67666 22.0849C7.19017 22.4767 7.73073 22.75 8.38426 22.75V21.25C8.19057 21.25 7.96662 21.1824 7.58653 20.8924C7.18914 20.5892 6.71878 20.1211 6.022 19.4243L4.96134 20.485ZM19.4243 6.022C20.1211 6.71878 20.5892 7.18914 20.8924 7.58653C21.1824 7.96662 21.25 8.19057 21.25 8.38426H22.75C22.75 7.73073 22.4767 7.19017 22.0849 6.67666C21.7063 6.18046 21.1518 5.62814 20.485 4.96134L19.4243 6.022ZM20.485 11.8072C21.1518 11.1404 21.7063 10.5881 22.0849 10.0919C22.4767 9.57834 22.75 9.03779 22.75 8.38426H21.25C21.25 8.57795 21.1824 8.8019 20.8924 9.18198C20.5892 9.57938 20.1211 10.0497 19.4243 10.7465L20.485 11.8072ZM13.2535 4.5757C13.9503 3.87892 14.4206 3.41081 14.818 3.10761C15.1981 2.81761 15.422 2.75 15.6157 2.75V1.25C14.9622 1.25 14.4217 1.52328 13.9081 1.91508C13.4119 2.29367 12.8596 2.84824 12.1928 3.51504L13.2535 4.5757ZM19.0387 3.51504C18.3719 2.84824 17.8195 2.29367 17.3233 1.91508C16.8098 1.52328 16.2693 1.25 15.6157 1.25V2.75C15.8094 2.75 16.0334 2.81762 16.4135 3.10761C16.8109 3.41081 17.2812 3.87892 17.978 4.5757L19.0387 3.51504ZM3.51504 12.1928C2.84824 12.8596 2.29367 13.4119 1.91508 13.9081C1.52328 14.4217 1.25 14.9622 1.25 15.6157H2.75C2.75 15.422 2.81761 15.1981 3.10761 14.818C3.41081 14.4206 3.87892 13.9503 4.5757 13.2535L3.51504 12.1928ZM4.5757 17.978C3.87892 17.2812 3.41081 16.8109 3.10761 16.4135C2.81762 16.0334 2.75 15.8094 2.75 15.6157H1.25C1.25 16.2693 1.52328 16.8098 1.91508 17.3233C2.29367 17.8195 2.84824 18.3719 3.51504 19.0387L4.5757 17.978Z" fill="#4D696E"/>
<path d="M8.46484 8.46448L9.87906 9.87869" stroke="#4D696E" stroke-width="1.5" stroke-linecap="round"/>
<path d="M12.707 4.2218L14.1212 5.63602" stroke="#4D696E" stroke-width="1.5" stroke-linecap="round"/>
<path d="M4.22168 12.7071L5.63589 14.1213" stroke="#4D696E" stroke-width="1.5" stroke-linecap="round"/>
<path d="M6.34277 10.5858L8.46409 12.7071" stroke="#4D696E" stroke-width="1.5" stroke-linecap="round"/>
<path d="M10.5859 6.34314L12.7073 8.46446" stroke="#4D696E" stroke-width="1.5" stroke-linecap="round"/>
</svg>
