<svg width="36" height="36" viewBox="0 0 36 36" fill="none" xmlns="http://www.w3.org/2000/svg">
<path d="M0 12C0 8.27247 0 6.4087 0.608964 4.93853C1.42092 2.97831 2.97831 1.42092 4.93853 0.608964C6.4087 0 8.27247 0 12 0H24C27.7275 0 29.5913 0 31.0615 0.608964C33.0217 1.42092 34.5791 2.97831 35.391 4.93853C36 6.4087 36 8.27247 36 12V24C36 27.7275 36 29.5913 35.391 31.0615C34.5791 33.0217 33.0217 34.5791 31.0615 35.391C29.5913 36 27.7275 36 24 36H12C8.27247 36 6.4087 36 4.93853 35.391C2.97831 34.5791 1.42092 33.0217 0.608964 31.0615C0 29.5913 0 27.7275 0 24V12Z" fill="#F2F2F7"/>
<path d="M10.8333 18.6139H18.6661L15.1744 30L24.8333 17.3862H17.0006L20.4922 6L10.8333 18.6139Z" fill="#666E79"/>
</svg>
