<svg width="24" height="24" viewBox="0 0 24 24" fill="none" xmlns="http://www.w3.org/2000/svg">
<path fill-rule="evenodd" clip-rule="evenodd" d="M8.05287 1.74307H15.9474C16.4904 1.74305 16.9571 1.74303 17.3412 1.77441C17.746 1.80749 18.1463 1.88036 18.5308 2.07627C19.106 2.36937 19.5737 2.83704 19.8668 3.41227C20.0627 3.79676 20.1356 4.19703 20.1687 4.6019C20.2 4.98598 20.2 5.45269 20.2 5.99565V21.257C20.2 21.6316 19.9907 21.9748 19.6576 22.1462C19.3245 22.3176 18.9236 22.2885 18.6188 22.0707L12.0001 17.3432L5.3815 22.0707C5.07668 22.2885 4.67575 22.3176 4.34268 22.1462C4.00961 21.9748 3.80026 21.6316 3.80026 21.257L3.80026 5.99567C3.80024 5.45271 3.80023 4.98598 3.83161 4.6019C3.86469 4.19703 3.93756 3.79676 4.13347 3.41227C4.42656 2.83704 4.89424 2.36937 5.46947 2.07627C5.85396 1.88036 6.25423 1.80749 6.6591 1.77441C7.04318 1.74303 7.5099 1.74305 8.05287 1.74307ZM6.82196 3.76777C6.54077 3.79075 6.433 3.82998 6.37745 3.85828C6.17854 3.95963 6.01683 4.12135 5.91548 4.32026C5.88717 4.37581 5.84794 4.48358 5.82497 4.76476C5.80104 5.05762 5.80026 5.44189 5.80026 6.03443V19.3138L11.4189 15.3005C11.7666 15.0522 12.2337 15.0522 12.5814 15.3005L18.2 19.3138V6.03443C18.2 5.44189 18.1992 5.05762 18.1753 4.76476C18.1523 4.48358 18.1131 4.37581 18.0848 4.32026C17.9834 4.12135 17.8217 3.95963 17.6228 3.85828C17.5673 3.82998 17.4595 3.79075 17.1783 3.76777C16.8854 3.74384 16.5012 3.74307 15.9086 3.74307H8.09163C7.49909 3.74307 7.11482 3.74384 6.82196 3.76777Z" fill="#667779"/>
</svg>
