<svg width="20" height="20" viewBox="0 0 20 20" fill="none" xmlns="http://www.w3.org/2000/svg">
    <path d="M18.5416 9.99995C18.5253 9.41268 18.3462 8.84086 18.0235 8.34904C17.7016 7.85813 17.2489 7.4654 16.7162 7.21631C16.9189 6.66449 16.9616 6.06722 16.8435 5.49177C16.7244 4.9154 16.4462 4.38449 16.0416 3.95813C15.6144 3.55358 15.0844 3.27631 14.508 3.15631C13.9326 3.03813 13.3353 3.08086 12.7835 3.28358C12.5353 2.74995 12.1435 2.29631 11.6516 1.97449C11.1598 1.65268 10.588 1.47268 9.99983 1.45813C9.41255 1.47358 8.84255 1.65177 8.35164 1.97449C7.86074 2.29722 7.47074 2.75086 7.22437 3.28358C6.67164 3.08086 6.07255 3.03631 5.49528 3.15631C4.91801 3.27449 4.38619 3.55268 3.95892 3.95813C3.55437 4.3854 3.27801 4.91722 3.16074 5.49268C3.04255 6.06813 3.08801 6.6654 3.29164 7.21631C2.75801 7.4654 2.30346 7.85722 1.97983 8.34813C1.65619 8.83904 1.47528 9.41177 1.45801 9.99995C1.47619 10.5881 1.65619 11.1599 1.97983 11.6518C2.30346 12.1427 2.75801 12.5354 3.29164 12.7836C3.08801 13.3345 3.04255 13.9318 3.16074 14.5072C3.27892 15.0836 3.55437 15.6145 3.95801 16.0418C4.38528 16.4445 4.91619 16.7209 5.49164 16.8399C6.0671 16.96 6.66437 16.9163 7.21619 16.7163C7.46528 17.249 7.8571 17.7018 8.34892 18.0245C8.83983 18.3463 9.41255 18.5254 9.99983 18.5418C10.588 18.5272 11.1598 18.3481 11.6516 18.0263C12.1435 17.7045 12.5353 17.2499 12.7835 16.7172C13.3326 16.9345 13.9344 16.9863 14.5135 16.8663C15.0916 16.7463 15.6226 16.4599 16.0407 16.0418C16.4589 15.6236 16.7462 15.0927 16.8662 14.5136C16.9862 13.9345 16.9344 13.3327 16.7162 12.7836C17.2489 12.5345 17.7016 12.1427 18.0244 11.6509C18.3462 11.1599 18.5253 10.5872 18.5416 9.99995Z" fill="#2684FC"/>
    <path d="M18.2415 9.99995C18.2416 9.99716 18.2417 9.99438 18.2418 9.99159L18.5416 9.99995C18.5253 9.41268 18.3462 8.84086 18.0235 8.34904C17.7016 7.85813 17.2489 7.4654 16.7162 7.21631C16.9189 6.66449 16.9616 6.06722 16.8435 5.49177M18.2415 9.99995C18.2252 9.4711 18.0632 8.95649 17.7726 8.51363L17.7726 8.51351C17.4812 8.0691 17.0714 7.71355 16.5891 7.48807L16.3396 7.37141L16.4346 7.11286C16.6178 6.61409 16.6567 6.07358 16.5496 5.55212M18.2415 9.99995C18.2252 10.529 18.0632 11.0445 17.7735 11.4864C17.4813 11.9316 17.0715 12.2863 16.5891 12.5118L16.333 12.6316L16.4374 12.8944C16.6338 13.3887 16.6806 13.9308 16.5724 14.4527C16.4644 14.9743 16.2056 15.4527 15.8286 15.8296C15.4518 16.2064 14.9735 16.4644 14.4526 16.5726C13.9307 16.6807 13.3884 16.634 12.8938 16.4383L12.6309 16.3342L12.5115 16.5905C12.2867 17.073 11.932 17.4843 11.4874 17.7753C11.0442 18.0652 10.5296 18.2271 10.0003 18.2417C9.47112 18.2255 8.95541 18.0634 8.51339 17.7736C8.06818 17.4814 7.71349 17.0716 7.48795 16.5892L7.37179 16.3408L7.11397 16.4343C6.61416 16.6154 6.07348 16.6548 5.55289 16.5463L5.55244 16.5462C5.03419 16.4389 4.55588 16.1908 4.17013 15.8294C3.80824 15.444 3.56105 14.966 3.45462 14.447L3.4546 14.4469C3.3477 13.9263 3.38881 13.386 3.57304 12.8876L3.66892 12.6282L3.41815 12.5116C2.93518 12.2869 2.52355 11.9314 2.23043 11.4869L18.2415 9.99995ZM16.5496 5.55212C16.5496 5.55224 16.5496 5.55235 16.5497 5.55247L16.8435 5.49177M16.5496 5.55212L16.8435 5.49177M16.5496 5.55212C16.4424 5.03347 16.1927 4.55534 15.8295 4.17045M16.8435 5.49177C16.7244 4.9154 16.4462 4.38449 16.0416 3.95813M16.0416 3.95813L15.8354 4.17598C15.8334 4.17413 15.8315 4.17229 15.8295 4.17045M16.0416 3.95813C15.6144 3.55358 15.0844 3.27631 14.508 3.15631M16.0416 3.95813L15.824 4.16462C15.8259 4.16656 15.8277 4.16851 15.8295 4.17045M15.8295 4.17045C15.4437 3.8072 14.9663 3.55822 14.4472 3.45008M14.508 3.15631L14.4477 3.45018C14.4475 3.45015 14.4473 3.45012 14.4472 3.45008M14.508 3.15631C13.9326 3.03813 13.3353 3.08086 12.7835 3.28358C12.5353 2.74995 12.1435 2.29631 11.6516 1.97449C11.1598 1.65268 10.588 1.47268 9.99983 1.45813M14.508 3.15631L14.4469 3.45001C14.447 3.45004 14.4471 3.45006 14.4472 3.45008M14.4472 3.45008C13.9259 3.34311 13.3855 3.382 12.8869 3.56518L12.6278 3.66036L12.5114 3.41009C12.2868 2.92699 11.9322 2.51657 11.4874 2.22553C11.0439 1.93535 10.5292 1.77275 10.0001 1.75824M10.0001 1.75824C10.0026 1.75816 10.0052 1.75809 10.0077 1.75803L9.99983 1.45813M10.0001 1.75824C9.99751 1.75817 9.99496 1.7581 9.99241 1.75804L9.99983 1.45813M10.0001 1.75824C9.47116 1.77357 8.95835 1.93466 8.51644 2.22517C8.07247 2.51704 7.71962 2.92739 7.49666 3.40951L7.38062 3.66044L7.12107 3.56524C6.62078 3.38174 6.07862 3.34146 5.55634 3.45003L5.55545 3.45022C5.03602 3.55656 4.55704 3.80618 4.17125 4.17023M9.99983 1.45813C9.41255 1.47358 8.84255 1.65177 8.35164 1.97449C7.86074 2.29722 7.47074 2.75086 7.22437 3.28358C6.67164 3.08086 6.07255 3.03631 5.49528 3.15631C4.91801 3.27449 4.38619 3.55268 3.95892 3.95813M4.17125 4.17023C4.17309 4.16828 4.17492 4.16633 4.17676 4.16439L3.95892 3.95813M4.17125 4.17023C4.16931 4.17206 4.16736 4.1739 4.16542 4.17575L3.95892 3.95813M4.17125 4.17023C3.80826 4.55578 3.56024 5.03467 3.45469 5.55258L3.4546 5.55303C3.3477 6.07357 3.38881 6.6139 3.57304 7.1123L3.66879 7.37134L3.41854 7.48816C2.93495 7.71388 2.52327 8.06886 2.23029 8.51325C1.93901 8.95509 1.77538 9.47034 1.75816 9.99972M3.95892 3.95813C3.55437 4.3854 3.27801 4.91722 3.16074 5.49268C3.04255 6.06813 3.08801 6.6654 3.29164 7.21631C2.75801 7.4654 2.30346 7.85722 1.97983 8.34813C1.65619 8.83904 1.47528 9.41177 1.45801 9.99995L1.75786 9.99068C1.75796 9.99369 1.75806 9.99671 1.75816 9.99972M1.75816 9.99972C1.77619 10.5295 1.93906 11.044 2.23029 11.4866L1.75816 9.99972Z" stroke="white" stroke-opacity="0.24" stroke-width="0.6"/>
    <path d="M6.25413 10.9713L8.04464 12.7613C8.44738 13.1639 9.10455 13.1494 9.48915 12.7294L13.3891 8.4705C13.6993 8.1318 13.6775 7.60615 13.3404 7.2943C13.0011 6.98047 12.4714 7.00213 12.1589 7.34262L8.72536 11.0836L7.4335 9.79173C7.107 9.46523 6.57736 9.46615 6.252 9.79378C5.92819 10.1198 5.92914 10.6464 6.25413 10.9713Z" fill="white"/>
</svg>
