<svg width="139" height="27" viewBox="0 0 139 27" fill="none" xmlns="http://www.w3.org/2000/svg">
<path d="M0.91333 0.367857H9.37407L14.5241 18.3929H15.2598L20.4098 0.367857H28.8706L20.373 26.1179H9.41086L0.91333 0.367857Z" fill="#061018"/>
<path d="M38.1506 6.98929H29.8003V0.367857H54.5939V6.98929H46.2435V26.1179H38.1506V6.98929Z" fill="#061018"/>
<path d="M69.6698 26.4857C67.5607 26.4857 65.6601 26.1915 63.968 25.6029C62.2758 25.0143 60.8289 24.156 59.6272 23.0279C58.4256 21.8998 57.4937 20.5142 56.8315 18.8711C56.1939 17.228 55.8751 15.3519 55.8751 13.2429C55.8751 11.1338 56.1939 9.25775 56.8315 7.61465C57.4937 5.97155 58.4256 4.58596 59.6272 3.45786C60.8289 2.32976 62.2758 1.47143 63.968 0.882857C65.6601 0.294286 67.5607 0 69.6698 0C71.7543 0 73.6426 0.294286 75.3348 0.882857C77.0515 1.47143 78.5106 2.32976 79.7123 3.45786C80.914 4.58596 81.8336 5.97155 82.4712 7.61465C83.1334 9.25775 83.4645 11.1338 83.4645 13.2429C83.4645 15.3519 83.1334 17.228 82.4712 18.8711C81.8336 20.5142 80.914 21.8998 79.7123 23.0279C78.5106 24.156 77.0515 25.0143 75.3348 25.6029C73.6426 26.1915 71.7543 26.4857 69.6698 26.4857ZM69.6698 19.6068C70.6507 19.6068 71.4723 19.4474 72.1344 19.1286C72.8211 18.7853 73.3729 18.3316 73.7898 17.7675C74.2067 17.2035 74.5132 16.5291 74.7094 15.7443C74.9056 14.9595 75.0037 14.1257 75.0037 13.2429C75.0037 12.36 74.9056 11.5262 74.7094 10.7414C74.5132 9.95667 74.2067 9.28227 73.7898 8.71822C73.3729 8.15417 72.8211 7.71274 72.1344 7.39394C71.4723 7.0506 70.6507 6.87894 69.6698 6.87894C68.6888 6.87894 67.855 7.0506 67.1683 7.39394C66.5062 7.71274 65.9544 8.15417 65.513 8.71822C65.0961 9.28227 64.7895 9.95667 64.5933 10.7414C64.4217 11.5262 64.3358 12.36 64.3358 13.2429C64.3358 14.1257 64.4217 14.9595 64.5933 15.7443C64.7895 16.5291 65.0961 17.2035 65.513 17.7675C65.9544 18.3316 66.5062 18.7853 67.1683 19.1286C67.855 19.4474 68.6888 19.6068 69.6698 19.6068Z" fill="#061018"/>
<path d="M87.1285 20.9679C87.1285 19.4474 87.5086 18.2089 88.2688 17.2525C89.0536 16.2961 90.0223 15.5236 91.1749 14.935C92.3521 14.3219 93.615 13.8314 94.9639 13.4636C96.3127 13.0712 97.5634 12.6911 98.716 12.3232C99.8932 11.9308 100.862 11.4772 101.622 10.9622C102.407 10.4226 102.799 9.71144 102.799 8.82858C102.799 8.11739 102.542 7.55334 102.027 7.13643C101.512 6.71953 100.617 6.51108 99.3414 6.51108C98.6056 6.51108 98.0171 6.60917 97.5756 6.80536C97.1342 7.00155 96.7786 7.24679 96.5089 7.54108C96.2636 7.83536 96.092 8.16644 95.9939 8.53429C95.9203 8.90215 95.8835 9.24548 95.8835 9.56429V10.9254H87.7906V9.56429C87.7906 6.18001 88.7471 3.73988 90.6599 2.24393C92.5728 0.747977 95.4666 0 99.3414 0C103.216 0 106.11 0.711191 108.023 2.13357C109.936 3.55596 110.892 5.78762 110.892 8.82858C110.892 10.3245 110.537 11.5998 109.825 12.6543C109.114 13.6843 108.219 14.5672 107.14 15.3029C106.085 16.0141 104.933 16.6026 103.682 17.0686C102.456 17.51 101.303 17.8901 100.224 18.2089C99.1697 18.5032 98.2868 18.7853 97.5756 19.055C96.8645 19.3003 96.5089 19.57 96.5089 19.8643H110.855V26.1179H87.1285V20.9679Z" fill="#2684FC"/>
<path d="M126.883 21.3357H112.72V15.0822L124.308 0.367857H134.976V15.0822H138.287V21.3357H134.976V26.1179H126.883V21.3357ZM126.993 15.1925V8.16644V7.57282V6.72469L125.853 8.16644L120.298 15.0086V15.1925H126.993Z" fill="#2684FC"/>
</svg>
