<svg width="24" height="24" viewBox="0 0 24 24" fill="none" xmlns="http://www.w3.org/2000/svg">
<path d="M9.1125 8.49175L5.97 15.988H3.92L2.37375 10.0055C2.28 9.63675 2.19875 9.50175 1.9125 9.34675C1.44625 9.09425 0.67625 8.85675 0 8.70925L0.04625 8.49175H3.34625C3.76625 8.49175 4.145 8.77175 4.24 9.25675L5.05625 13.5942L7.075 8.49175H9.1125ZM17.145 13.5405C17.1537 11.5617 14.4087 11.453 14.4275 10.5692C14.4337 10.3005 14.69 10.0142 15.25 9.94175C15.5275 9.9055 16.2938 9.878 17.1625 10.2767L17.5025 8.68675C17.0362 8.51675 16.4363 8.35425 15.6888 8.35425C13.7712 8.35425 12.4225 9.373 12.4113 10.833C12.3988 11.9117 13.3737 12.5142 14.1087 12.873C14.865 13.2405 15.1187 13.4767 15.115 13.8042C15.11 14.3067 14.5125 14.5292 13.9538 14.538C12.9788 14.553 12.4137 14.2742 11.9625 14.0642L11.6113 15.7067C12.0638 15.9142 12.9013 16.0955 13.7675 16.1055C15.8063 16.1055 17.1388 15.0992 17.145 13.5405ZM22.2063 15.988H24L22.4338 8.49175H20.7788C20.4062 8.49175 20.0925 8.708 19.9538 9.04175L17.0438 15.988H19.08L19.485 14.868H21.9725L22.2063 15.988ZM20.0425 13.3317L21.0637 10.5167L21.6513 13.3317H20.0425ZM11.8837 8.49175L10.28 15.988H8.34L9.945 8.49175H11.8837Z" fill="#1434CB"/>
</svg>
