<svg width="20" height="20" viewBox="0 0 20 20" fill="none" xmlns="http://www.w3.org/2000/svg">
<mask id="mask0_16664_25535" style="mask-type:luminance" maskUnits="userSpaceOnUse" x="1" y="1" width="18" height="18">
<path d="M1 0.999998H19V19H1V0.999998Z" fill="white"/>
</mask>
<g mask="url(#mask0_16664_25535)">
<path d="M14.7813 1.70312H5.21875C3.27711 1.70312 1.70312 3.2771 1.70312 5.21875V14.7812C1.70312 16.7229 3.27711 18.2969 5.21875 18.2969H14.7813C16.7229 18.2969 18.2969 16.7229 18.2969 14.7812V5.21875C18.2969 3.2771 16.7229 1.70312 14.7813 1.70312Z" fill="#2684FC" stroke="#2684FC" stroke-width="1.5" stroke-miterlimit="10" stroke-linecap="round" stroke-linejoin="round"/>
<path d="M4.90234 7.57422L5.0808 11.7694C5.30186 12.6407 6.2387 12.6459 6.46546 11.7771C6.64729 10.9824 7.0004 9.96653 7.0004 9.96653C7.0004 9.96653 7.34025 10.9171 7.52553 11.7694C7.74663 12.6407 8.68347 12.6459 8.91019 11.7771L9.12109 7.57422" stroke="white" stroke-width="1.5" stroke-miterlimit="10" stroke-linecap="round" stroke-linejoin="round"/>
<path d="M15.0608 8.73437C14.8948 8.00625 14.2433 7.50391 13.4649 7.50391C12.561 7.50391 11.8281 8.2367 11.8281 9.14068V10.8593C11.8281 11.7633 12.561 12.4961 13.4649 12.4961C14.2349 12.4961 14.8863 12.0171 15.0608 11.3008" stroke="white" stroke-width="1.5" stroke-miterlimit="10" stroke-linecap="round" stroke-linejoin="round"/>
</g>
</svg>
