<svg width="24" height="24" viewBox="0 0 24 24" fill="none" xmlns="http://www.w3.org/2000/svg">
<g clip-path="url(#clip0_162_5213)">
<path d="M12.002 21C16.9725 21 21.002 16.9706 21.002 12C21.002 7.02944 16.9725 3 12.002 3C7.03139 3 3.00195 7.02944 3.00195 12C3.00195 16.9706 7.03139 21 12.002 21Z" stroke="#8E9196" stroke-width="1.5" stroke-linecap="round" stroke-linejoin="round"/>
<path d="M15.752 12C15.752 18 12.002 21 12.002 21C12.002 21 8.25195 18 8.25195 12C8.25195 6 12.002 3 12.002 3C12.002 3 15.752 6 15.752 12Z" stroke="#8E9196" stroke-width="1.5" stroke-linecap="round" stroke-linejoin="round"/>
<path d="M3.51367 9H20.4899" stroke="#8E9196" stroke-width="1.5" stroke-linecap="round" stroke-linejoin="round"/>
<path d="M3.51367 15H20.4899" stroke="#8E9196" stroke-width="1.5" stroke-linecap="round" stroke-linejoin="round"/>
</g>
<defs>
<clipPath id="clip0_162_5213">
<rect width="24" height="24" fill="white" transform="translate(0.00195312)"/>
</clipPath>
</defs>
</svg>
