<svg width="24" height="24" viewBox="0 0 24 24" fill="none" xmlns="http://www.w3.org/2000/svg">
<g clip-path="url(#clip0_11193_15223)">
<path d="M18.75 0H5.25C2.3505 0 0 2.3505 0 5.25V18.75C0 21.6495 2.3505 24 5.25 24H18.75C21.6495 24 24 21.6495 24 18.75V5.25C24 2.3505 21.6495 0 18.75 0Z" fill="#FF4B55"/>
<path d="M5.34456 4.0866L5.9409 5.87469L7.82575 5.88932C8.06978 5.89119 8.17098 6.20263 7.97467 6.34762L6.45836 7.46732L7.0269 9.26446C7.1005 9.49715 6.83561 9.68962 6.63704 9.54768L5.10357 8.4516L3.57011 9.54768C3.37159 9.68957 3.10665 9.4971 3.18025 9.26446L3.74879 7.46732L2.23248 6.34762C2.03617 6.20263 2.13737 5.89124 2.3814 5.88932L4.26625 5.87469L4.86259 4.0866C4.93989 3.85508 5.26736 3.85508 5.34456 4.0866Z" fill="#FFE15A"/>
<path d="M12.1886 4.52731L12.6162 5.11043L13.3064 4.89462C13.3957 4.86668 13.4692 4.96854 13.4145 5.04452L12.9921 5.6314L13.4106 6.22109C13.4648 6.29745 13.3906 6.39879 13.3014 6.37029L12.6127 6.14988L12.1812 6.7301C12.1254 6.80524 12.006 6.76601 12.0056 6.6724L12.0024 5.94931L11.3173 5.71826C11.2285 5.68835 11.229 5.56273 11.3179 5.53338L12.0046 5.30693L12.0126 4.58388C12.0137 4.49023 12.1333 4.45179 12.1886 4.52731Z" fill="#FFE15A"/>
<path d="M9.58579 2.78911L10.3047 2.86725L10.6113 2.2124C10.651 2.12761 10.7758 2.14214 10.7949 2.23383L10.9428 2.94164L11.6603 3.03094C11.7532 3.04251 11.7779 3.16565 11.6967 3.21215L11.0692 3.57145L11.206 4.28147C11.2237 4.37339 11.1142 4.43498 11.0449 4.37208L10.5093 3.88631L9.87628 4.23586C9.79434 4.28109 9.70195 4.19601 9.74029 4.11061L10.0367 3.45108L9.50868 2.95706C9.44034 2.89317 9.49275 2.77898 9.58579 2.78911Z" fill="#FFE15A"/>
<path d="M10.7222 9.79671L10.2946 10.3798L9.60447 10.164C9.51512 10.1361 9.44162 10.2379 9.49633 10.3139L9.91876 10.9008L9.50026 11.4905C9.44608 11.5669 9.52023 11.6682 9.60944 11.6397L10.2981 11.4193L10.7296 11.9995C10.7855 12.0747 10.9048 12.0354 10.9052 11.9418L10.9084 11.2187L11.5936 10.9877C11.6822 10.9578 11.6818 10.8321 11.593 10.8028L10.9062 10.5764L10.8982 9.85334C10.8972 9.75964 10.7776 9.7212 10.7222 9.79671Z" fill="#FFE15A"/>
<path d="M13.3251 8.16338L12.6062 8.24152L12.2995 7.58668C12.2598 7.50188 12.135 7.51641 12.1159 7.60805L11.9681 8.31586L11.2505 8.40516C11.1576 8.41674 11.1329 8.53988 11.2141 8.58638L11.8417 8.94568L11.7048 9.65569C11.6871 9.74761 11.7966 9.80921 11.8659 9.7463L12.4016 9.26054L13.0346 9.61008C13.1165 9.65532 13.2089 9.57024 13.1706 9.48483L12.8741 8.8253L13.4022 8.33129C13.4705 8.26744 13.4181 8.15325 13.3251 8.16338Z" fill="#FFE15A"/>
</g>
<defs>
<clipPath id="clip0_11193_15223">
<rect width="24" height="24" fill="white"/>
</clipPath>
</defs>
</svg>
