<svg width="16" height="16" viewBox="0 0 16 16" fill="none" xmlns="http://www.w3.org/2000/svg">
<path d="M6.00016 14.6667H10.0002C13.3335 14.6667 14.6668 13.3334 14.6668 10V6.00004C14.6668 2.66671 13.3335 1.33337 10.0002 1.33337H6.00016C2.66683 1.33337 1.3335 2.66671 1.3335 6.00004V10C1.3335 13.3334 2.66683 14.6667 6.00016 14.6667Z" fill="#667779" stroke="#667779" stroke-width="1.5" stroke-linecap="round" stroke-linejoin="round"/>
<path d="M7.99984 10.3333C9.2885 10.3333 10.3332 9.28862 10.3332 7.99996C10.3332 6.71129 9.2885 5.66663 7.99984 5.66663C6.71117 5.66663 5.6665 6.71129 5.6665 7.99996C5.6665 9.28862 6.71117 10.3333 7.99984 10.3333Z" stroke="white" stroke-width="1.5" stroke-linecap="round" stroke-linejoin="round"/>
<path d="M11.7576 4.66671H11.7653" stroke="white" stroke-width="2" stroke-linecap="round" stroke-linejoin="round"/>
</svg>
