<svg width="24" height="24" viewBox="0 0 24 24" fill="none" xmlns="http://www.w3.org/2000/svg">
<path d="M16.5005 8.37C16.4555 8.3625 16.403 8.3625 16.358 8.37C15.323 8.3325 14.498 7.485 14.498 6.435C14.498 5.3625 15.3605 4.5 16.433 4.5C17.5055 4.5 18.368 5.37 18.368 6.435C18.3605 7.485 17.5355 8.3325 16.5005 8.37Z" stroke="#8E9BA8" stroke-width="1.5" stroke-linecap="round" stroke-linejoin="round"/>
<path d="M15.7276 13.83C16.7551 14.0025 17.8876 13.8225 18.6826 13.29C19.7401 12.585 19.7401 11.43 18.6826 10.725C17.8801 10.1925 16.7326 10.0125 15.7051 10.1925" stroke="#8E9BA8" stroke-width="1.5" stroke-linecap="round" stroke-linejoin="round"/>
<path d="M7.47688 8.37C7.52188 8.3625 7.57438 8.3625 7.61938 8.37C8.65438 8.3325 9.47937 7.485 9.47937 6.435C9.47937 5.3625 8.61688 4.5 7.54438 4.5C6.47188 4.5 5.60938 5.37 5.60938 6.435C5.61687 7.485 6.44188 8.3325 7.47688 8.37Z" stroke="#8E9BA8" stroke-width="1.5" stroke-linecap="round" stroke-linejoin="round"/>
<path d="M8.25008 13.83C7.22258 14.0025 6.09008 13.8225 5.29508 13.29C4.23758 12.585 4.23758 11.43 5.29508 10.725C6.09758 10.1925 7.24508 10.0125 8.27258 10.1925" stroke="#8E9BA8" stroke-width="1.5" stroke-linecap="round" stroke-linejoin="round"/>
<path d="M11.9986 13.9725C11.9536 13.965 11.9011 13.965 11.8561 13.9725C10.8211 13.935 9.99609 13.0875 9.99609 12.0375C9.99609 10.965 10.8586 10.1025 11.9311 10.1025C13.0036 10.1025 13.8661 10.9725 13.8661 12.0375C13.8586 13.0875 13.0336 13.9425 11.9986 13.9725Z" stroke="#8E9BA8" stroke-width="1.5" stroke-linecap="round" stroke-linejoin="round"/>
<path d="M9.81656 16.335C8.75906 17.04 8.75906 18.195 9.81656 18.9C11.0166 19.7025 12.9816 19.7025 14.1816 18.9C15.2391 18.195 15.2391 17.04 14.1816 16.335C12.9891 15.54 11.0166 15.54 9.81656 16.335Z" stroke="#8E9BA8" stroke-width="1.5" stroke-linecap="round" stroke-linejoin="round"/>
</svg>
