<svg width="20" height="20" viewBox="0 0 20 20" fill="none" xmlns="http://www.w3.org/2000/svg">
<path d="M16.8913 13.554L17.4793 10.1542C17.6261 9.30501 16.9731 8.52834 16.1123 8.52834H11.7947C11.3668 8.52834 11.041 8.14424 11.1102 7.72149L11.6625 4.35102C11.7522 3.80346 11.7265 3.24317 11.5872 2.70611C11.4718 2.2612 11.1286 1.90396 10.6771 1.75894L10.5563 1.72013C10.2835 1.63249 9.98572 1.65288 9.72849 1.77683C9.44537 1.91326 9.23823 2.16212 9.16146 2.45808L8.76504 3.98629C8.6389 4.47253 8.45517 4.94188 8.21828 5.38535C7.87216 6.03331 7.337 6.55189 6.78072 7.03125L5.58178 8.06441C5.24373 8.35571 5.0662 8.79197 5.10467 9.23684L5.78147 17.0641C5.84355 17.782 6.4438 18.3332 7.16362 18.3332H11.0375C13.9385 18.3332 16.4144 16.3118 16.8913 13.554Z" fill="#34C759"/>
<path fill-rule="evenodd" clip-rule="evenodd" d="M2.47305 7.9044C2.80744 7.88997 3.09384 8.14152 3.12268 8.47498L3.93234 17.8387C3.98435 18.4402 3.51057 18.9586 2.90559 18.9586C2.33574 18.9586 1.875 18.4964 1.875 17.9276V8.52882C1.875 8.19412 2.13867 7.91883 2.47305 7.9044Z" fill="#34C759"/>
</svg>
