<svg width="20" height="20" viewBox="0 0 20 20" fill="none" xmlns="http://www.w3.org/2000/svg">
<g opacity="0.4">
<path d="M16.8913 13.5541L17.4793 10.1543C17.6261 9.30513 16.9731 8.52846 16.1123 8.52846H11.7947C11.3668 8.52846 11.041 8.14436 11.1102 7.72161L11.6625 4.35114C11.7522 3.80358 11.7265 3.24329 11.5872 2.70623C11.4718 2.26133 11.1286 1.90408 10.6771 1.75906L10.5563 1.72025C10.2835 1.63261 9.98572 1.653 9.72849 1.77695C9.44537 1.91339 9.23823 2.16224 9.16146 2.4582L8.76504 3.98641C8.6389 4.47265 8.45517 4.942 8.21828 5.38547C7.87216 6.03344 7.337 6.55201 6.78072 7.03137L5.58178 8.06453C5.24373 8.35583 5.0662 8.79209 5.10467 9.23696L5.78147 17.0642C5.84355 17.7821 6.4438 18.3333 7.16362 18.3333H11.0375C13.9385 18.3333 16.4144 16.312 16.8913 13.5541Z" fill="white"/>
<path fill-rule="evenodd" clip-rule="evenodd" d="M2.47305 7.90428C2.80744 7.88985 3.09384 8.1414 3.12268 8.47485L3.93234 17.8386C3.98435 18.4401 3.51057 18.9585 2.90559 18.9585C2.33574 18.9585 1.875 18.4962 1.875 17.9275V8.5287C1.875 8.194 2.13867 7.91871 2.47305 7.90428Z" fill="white"/>
</g>
</svg>
