<svg width="221" height="221" viewBox="0 0 221 221" fill="none" xmlns="http://www.w3.org/2000/svg">
<circle cx="103.996" cy="103.996" r="106.996" transform="matrix(1 0 0 -1 6.50391 214.496)" fill="white" stroke="#2684FC" stroke-width="6"/>
<g clip-path="url(#clip0_169_918)">
<path d="M53.7801 98H44.2483L38.5232 112.415C40.9705 110.225 44.1022 108.782 47.5586 108.45L48.7393 105.235H49.2891L50.4652 108.436C53.235 108.673 55.8006 109.622 57.9812 111.1L58.0253 111.065L58.4475 110.714L58.7351 110.478L53.7801 98Z" fill="#061018"/>
<path d="M56.6759 112.178L51.6745 116.317L51.1572 116.746C50.5008 116.565 49.8095 116.47 49.095 116.47C45.6223 116.47 42.6786 118.738 41.6649 121.875C41.6509 121.916 41.637 121.958 41.6254 122H35.0002C35.0072 121.958 35.0142 121.916 35.0211 121.875C35.1046 121.376 35.216 120.889 35.3505 120.409C35.6173 119.455 35.9815 118.541 36.4338 117.681C38.4961 113.728 42.3538 110.861 46.9284 110.165C47.6359 110.056 48.3573 110 49.095 110C49.7724 110 50.4404 110.046 51.0923 110.139C53.1221 110.422 55.015 111.134 56.6759 112.178Z" fill="#061018"/>
<path d="M63.1918 122H56.5666C56.555 121.958 56.5411 121.916 56.5271 121.875C56.1142 120.599 55.3812 119.467 54.4231 118.571C54.2816 118.439 54.1332 118.309 53.9801 118.189C53.827 118.063 53.6692 117.947 53.5068 117.836L58.3574 113.412C58.5059 113.537 58.652 113.667 58.7935 113.8C58.935 113.932 59.0765 114.066 59.2111 114.203C59.9766 114.971 60.654 115.825 61.2269 116.75C62.1084 118.168 62.7487 119.75 63.0897 121.441C63.1198 121.585 63.1454 121.728 63.1709 121.875C63.1778 121.916 63.1848 121.958 63.1918 122Z" fill="#2684FC"/>
<path d="M61.6699 110.255C61.6699 110.354 61.6281 110.45 61.5539 110.517L59.4481 112.443L59.3832 112.503L58.2488 113.537L53.3982 117.961L52.4031 118.868L49.1763 121.81C49.0371 121.937 48.8608 122 48.6868 122C48.4827 122 48.2809 121.916 48.1371 121.749C47.868 121.441 47.9074 120.972 48.2229 120.71L50.4498 118.868L52.3056 117.335L57.5622 112.988L58.838 111.935L59.077 111.737L61.0923 109.986C61.1549 109.932 61.2338 109.904 61.3127 109.904C61.3312 109.904 61.3498 109.907 61.3683 109.909C61.54 109.935 61.6676 110.081 61.6699 110.255Z" fill="#2684FC"/>
</g>
<path d="M61.1558 98.3333H68.8224L73.4891 114.667H74.1558L78.8225 98.3333H86.4891L78.7891 121.667H68.8558L61.1558 98.3333Z" fill="black"/>
<path d="M94.8983 104.333H87.3316V98.3333H109.798V104.333H102.232V121.667H94.8983V104.333Z" fill="black"/>
<path d="M123.459 122C121.548 122 119.826 121.733 118.293 121.2C116.759 120.667 115.448 119.889 114.359 118.867C113.27 117.844 112.426 116.589 111.826 115.1C111.248 113.611 110.959 111.911 110.959 110C110.959 108.089 111.248 106.389 111.826 104.9C112.426 103.411 113.27 102.156 114.359 101.133C115.448 100.111 116.759 99.3333 118.293 98.8C119.826 98.2667 121.548 98 123.459 98C125.348 98 127.059 98.2667 128.593 98.8C130.148 99.3333 131.47 100.111 132.559 101.133C133.648 102.156 134.481 103.411 135.059 104.9C135.659 106.389 135.959 108.089 135.959 110C135.959 111.911 135.659 113.611 135.059 115.1C134.481 116.589 133.648 117.844 132.559 118.867C131.47 119.889 130.148 120.667 128.593 121.2C127.059 121.733 125.348 122 123.459 122ZM123.459 115.767C124.348 115.767 125.093 115.622 125.693 115.333C126.315 115.022 126.815 114.611 127.193 114.1C127.57 113.589 127.848 112.978 128.026 112.267C128.204 111.556 128.293 110.8 128.293 110C128.293 109.2 128.204 108.444 128.026 107.733C127.848 107.022 127.57 106.411 127.193 105.9C126.815 105.389 126.315 104.989 125.693 104.7C125.093 104.389 124.348 104.233 123.459 104.233C122.57 104.233 121.815 104.389 121.193 104.7C120.593 104.989 120.093 105.389 119.693 105.9C119.315 106.411 119.037 107.022 118.859 107.733C118.704 108.444 118.626 109.2 118.626 110C118.626 110.8 118.704 111.556 118.859 112.267C119.037 112.978 119.315 113.589 119.693 114.1C120.093 114.611 120.593 115.022 121.193 115.333C121.815 115.622 122.57 115.767 123.459 115.767Z" fill="black"/>
<path d="M139.279 117C139.279 115.622 139.624 114.5 140.312 113.633C141.024 112.767 141.901 112.067 142.946 111.533C144.012 110.978 145.157 110.533 146.379 110.2C147.601 109.844 148.735 109.5 149.779 109.167C150.846 108.811 151.724 108.4 152.412 107.933C153.124 107.444 153.479 106.8 153.479 106C153.479 105.356 153.246 104.844 152.779 104.467C152.312 104.089 151.501 103.9 150.346 103.9C149.679 103.9 149.146 103.989 148.746 104.167C148.346 104.344 148.024 104.567 147.779 104.833C147.557 105.1 147.401 105.4 147.312 105.733C147.246 106.067 147.212 106.378 147.212 106.667V107.9H139.879V106.667C139.879 103.6 140.746 101.389 142.479 100.033C144.212 98.6778 146.835 98 150.346 98C153.857 98 156.479 98.6444 158.212 99.9333C159.946 101.222 160.812 103.244 160.812 106C160.812 107.356 160.49 108.511 159.846 109.467C159.201 110.4 158.39 111.2 157.412 111.867C156.457 112.511 155.412 113.044 154.279 113.467C153.168 113.867 152.124 114.211 151.146 114.5C150.19 114.767 149.39 115.022 148.746 115.267C148.101 115.489 147.779 115.733 147.779 116H160.779V121.667H139.279V117Z" fill="#2684FC"/>
<path d="M175.303 117.333H162.469V111.667L172.969 98.3333H182.636V111.667H185.636V117.333H182.636V121.667H175.303V117.333ZM175.403 111.767V105.4V104.862V104.094L174.369 105.4L169.336 111.6V111.767H175.403Z" fill="#2684FC"/>
<defs>
<clipPath id="clip0_169_918">
<rect width="28.1918" height="24" fill="white" transform="translate(35 98)"/>
</clipPath>
</defs>
</svg>
