<svg width="170" height="135" viewBox="0 0 170 135" fill="none" xmlns="http://www.w3.org/2000/svg">
<path d="M78.7737 132.271C116.447 132.271 146.94 102.716 146.94 66.2498C146.94 29.784 116.447 0.334961 78.7737 0.334961C41.2107 0.334961 10.6078 29.8903 10.6078 66.3561C10.6078 102.822 41.2107 132.271 78.7737 132.271Z" fill="#EAEEF9"/>
<path d="M111.455 133.047C100.93 133.37 88.2763 133.047 79.3182 132.939C70.4721 133.262 57.7069 133.37 47.1812 133.047C57.5949 127.324 61.2901 116.636 61.738 109.618H96.6744C97.4583 116.528 101.153 127.324 111.455 133.047Z" fill="#D5DDEA"/>
<g filter="url(#filter0_d_12251_198718)">
<path d="M145.527 21.2853V109.494C145.527 111.762 143.736 113.381 141.72 113.381H18.0988C15.9713 113.381 14.2916 111.654 14.2916 109.494V21.2853C14.2916 19.2339 16.0832 17.3984 18.0988 17.3984H141.496C143.848 17.5064 145.527 19.2339 145.527 21.2853Z" fill="white"/>
</g>
<path d="M145.854 20.8142V96.4115H14.0842V20.8142C14.0842 18.7552 15.9293 16.9902 17.9282 16.9902H141.857C144.163 16.9902 145.854 18.7552 145.854 20.8142Z" fill="#989FB0"/>
<g filter="url(#filter1_d_12251_198718)">
<path d="M140.369 22H18.0001V92.4724H140.523V22H140.369Z" fill="url(#paint0_linear_12251_198718)"/>
</g>
<path opacity="0.1" d="M38.8523 88H24.1363C22.9495 88 22.0001 87.0506 22.0001 85.8638V29.1362C22.0001 27.9494 22.9495 27 24.1363 27H38.8523C40.039 27 40.9884 27.9494 40.9884 29.1362V85.8638C40.9884 87.0506 40.039 88 38.8523 88Z" fill="#8E98AB"/>
<path opacity="0.34" d="M31.4945 38.3926C33.4608 38.3926 35.0548 36.7986 35.0548 34.8323C35.0548 32.866 33.4608 31.272 31.4945 31.272C29.5282 31.272 27.9342 32.866 27.9342 34.8323C27.9342 36.7986 29.5282 38.3926 31.4945 38.3926Z" fill="#8E98AB"/>
<path opacity="0.34" d="M37.7842 43.6146H25.2044C24.9671 43.6146 24.8484 43.4959 24.8484 43.2586V42.3092C24.8484 42.0718 24.9671 41.9531 25.2044 41.9531H37.6655C37.9029 41.9531 38.0215 42.0718 38.0215 42.3092V42.7382C38.0215 43.0804 38.1264 43.6146 37.7842 43.6146Z" fill="#8E98AB"/>
<path opacity="0.34" d="M37.7842 48.599H25.2044C24.9671 48.599 24.8484 48.4803 24.8484 48.243V47.2935C24.8484 47.0562 24.9671 46.9375 25.2044 46.9375H37.6655C37.9029 46.9375 38.0215 47.0562 38.0215 47.2935V47.7225C38.0215 48.0648 38.1264 48.599 37.7842 48.599Z" fill="#8E98AB"/>
<path opacity="0.34" d="M37.7842 53.5834H25.2044C24.9671 53.5834 24.8484 53.4647 24.8484 53.2273V52.2779C24.8484 52.0405 24.9671 51.9219 25.2044 51.9219H37.6655C37.9029 51.9219 38.0215 52.0405 38.0215 52.2779V52.7069C38.0215 53.0491 38.1264 53.5834 37.7842 53.5834Z" fill="#8E98AB"/>
<path opacity="0.34" d="M37.7842 58.6864H25.2044C24.9671 58.6864 24.8484 58.5677 24.8484 58.3304V57.3809C24.8484 57.1436 24.9671 57.0249 25.2044 57.0249H37.6655C37.9029 57.0249 38.0215 57.1436 38.0215 57.3809V57.8303C38.0215 58.1505 38.1044 58.6864 37.7842 58.6864Z" fill="#8E98AB"/>
<path opacity="0.34" d="M37.7842 63.6712H25.2044C24.9671 63.6712 24.8484 63.5526 24.8484 63.3152V62.3658C24.8484 62.1284 24.9671 62.0098 25.2044 62.0098H37.6655C37.9029 62.0098 38.0215 62.1284 38.0215 62.3658V62.8151C38.0215 63.1353 38.1044 63.6712 37.7842 63.6712Z" fill="#8E98AB"/>
<path opacity="0.34" d="M37.7842 68.6551H25.2044C24.9671 68.6551 24.8484 68.5365 24.8484 68.2991V67.3497C24.8484 67.1123 24.9671 66.9937 25.2044 66.9937H37.6655C37.9029 66.9937 38.0215 67.1123 38.0215 67.3497V67.7787C38.0215 68.1209 38.1264 68.6551 37.7842 68.6551Z" fill="#8E98AB"/>
<path opacity="0.34" d="M35.5296 73.64H27.5782C27.3408 73.64 27.2222 73.5213 27.2222 73.284V72.3345C27.2222 72.0972 27.3408 71.9785 27.5782 71.9785H35.5296C35.7669 71.9785 35.8856 72.0972 35.8856 72.3345V73.284C35.8856 73.5213 35.6482 73.64 35.5296 73.64Z" fill="#8E98AB"/>
<path d="M79.4289 108.091C81.2205 108.091 82.6762 106.795 82.6762 104.96C82.6762 103.232 81.3325 101.829 79.4289 101.829C77.6373 101.829 76.1816 103.124 76.1816 104.96C76.1816 106.687 77.5253 108.091 79.4289 108.091Z" fill="#D6DDE8"/>
<path d="M13.9808 132.67L138.712 132.67" stroke="#D6DDE8" stroke-width="1.29157" stroke-miterlimit="10" stroke-linecap="round" stroke-linejoin="round"/>
<g filter="url(#filter2_d_12251_198718)">
<path d="M147.422 78.6697C147.422 82.5357 144.288 85.6697 140.422 85.6697L53.927 85.6697C50.061 85.6697 46.927 82.5357 46.927 78.6697L46.927 17.8872C46.927 14.0212 50.061 10.8872 53.927 10.8872L140.422 10.8872C144.288 10.8872 147.422 14.0212 147.422 17.8872L147.422 78.6697Z" fill="white"/>
</g>
<path d="M142 75C142 77.7614 139.761 80 137 80L58.0037 80C55.2411 80 53.002 77.7871 53.0035 75.0244C53.01 63.2963 53.0243 34.0132 53.0134 22.0975C53.0108 19.294 55.3058 17.0122 58.1093 17.0271L137.026 17.4452C139.777 17.4598 142 19.6941 142 22.4452L142 75Z" fill="#EFF3FB"/>
<rect x="67.2703" y="25" width="10.5398" height="10.5809" rx="2.4" transform="rotate(0.880762 67.2703 25)" fill="#4489F7"/>
<path fill-rule="evenodd" clip-rule="evenodd" d="M70.5559 33.1204C72.1124 32.9428 73.0615 32.4852 73.4023 32.2383C73.4867 32.1973 73.5694 32.1504 73.6499 32.0975C74.6457 31.4438 74.9351 30.119 74.2964 29.1385C73.6578 28.158 72.3328 27.8932 71.3371 28.5469C71.3021 28.5699 71.268 28.5937 71.2347 28.6183C71.2097 28.631 71.1853 28.6457 71.1618 28.6625C70.1776 29.3677 69.4655 30.4641 69.185 31.0115C68.8999 29.6343 69.4697 28.1507 70.7293 27.3236C72.3657 26.2493 74.5465 26.6898 75.6003 28.3076C76.6541 29.9254 76.1819 32.1078 74.5455 33.1821C73.284 34.0104 71.6988 33.9383 70.5559 33.1204Z" fill="white"/>
<path fill-rule="evenodd" clip-rule="evenodd" d="M71.4423 29.241C71.4654 29.2239 71.4892 29.2074 71.5135 29.1914C72.2065 28.7364 73.1306 28.924 73.5777 29.6103C74.0248 30.2966 73.8255 31.2218 73.1325 31.6768C73.0765 31.7136 73.0189 31.7462 72.9602 31.7747C72.7211 31.9479 72.0517 32.2696 70.9515 32.3886L71.8909 31.5316L69.3214 32.443L71.2744 30.3166L69.984 30.9785C70.1494 30.6273 70.6626 29.7943 71.3916 29.2718C71.4079 29.2601 71.4249 29.2499 71.4423 29.241Z" fill="white"/>
<path d="M81.8031 34.5034C81.4397 34.4979 81.0881 34.4552 80.7481 34.3755C80.4155 34.2959 80.1315 34.191 79.8961 34.0608L80.0614 32.723C80.3111 32.8832 80.5873 33.014 80.8898 33.1155C81.1924 33.2169 81.4772 33.2697 81.7442 33.2738C81.9963 33.2777 82.2083 33.2363 82.3803 33.1496C82.5523 33.0554 82.6397 32.919 82.6425 32.7403C82.6447 32.5989 82.587 32.49 82.4695 32.4137C82.3521 32.33 82.1274 32.226 81.7956 32.1018L81.4969 31.9855C81.1799 31.8614 80.922 31.7458 80.7234 31.6385C80.5249 31.5237 80.3458 31.3534 80.186 31.1276C80.0263 30.9017 79.9493 30.6064 79.9549 30.2416C79.9638 29.6609 80.1858 29.2138 80.6208 28.9002C81.0634 28.5794 81.6333 28.4243 82.3304 28.435C82.8792 28.4435 83.4559 28.5603 84.0607 28.7856L83.829 30.1112C83.6158 29.9814 83.3727 29.8771 83.0994 29.7984C82.8337 29.7124 82.5822 29.6676 82.3449 29.664C82.1001 29.6602 81.903 29.6981 81.7534 29.7777C81.6112 29.8575 81.5389 29.9755 81.5365 30.1318C81.5343 30.2807 81.5919 30.3933 81.7094 30.4696C81.8269 30.5459 82.0258 30.6346 82.3061 30.7357C82.5273 30.821 82.6564 30.8714 82.6932 30.8869C83.0028 31.0182 83.2604 31.145 83.4663 31.2674C83.6721 31.3897 83.851 31.5711 84.0031 31.8118C84.1553 32.045 84.2286 32.344 84.223 32.7088C84.2136 33.3192 83.9878 33.7737 83.5455 34.0723C83.1033 34.3708 82.5225 34.5145 81.8031 34.5034Z" fill="#022F5E"/>
<path d="M85.488 26.2384L87.0564 26.2625L87.0067 29.5011C87.2418 29.1621 87.5089 28.9168 87.808 28.765C88.1071 28.6058 88.4495 28.5291 88.8352 28.535C89.4507 28.5445 89.9299 28.738 90.2727 29.1156C90.6157 29.4858 90.7821 29.9985 90.772 30.6536L90.7133 34.4729L89.1448 34.4488L89.1997 30.8752C89.2043 30.5774 89.1337 30.3455 88.9879 30.1794C88.8422 30.0059 88.6433 29.9172 88.3912 29.9133C88.1168 29.9091 87.852 30.0018 87.5969 30.1915C87.3493 30.3739 87.1452 30.6202 86.9847 30.9305L86.9311 34.4147L85.3626 34.3906L85.488 26.2384Z" fill="#022F5E"/>
<path d="M93.818 34.6882C93.2247 34.679 92.7577 34.4187 92.4169 33.907C92.0761 33.3954 91.9124 32.7041 91.9258 31.833C91.9421 30.7759 92.2214 29.9759 92.7639 29.4332C93.3064 28.883 94.0782 28.6156 95.0794 28.631C95.643 28.6397 96.3017 28.7392 97.0554 28.9295L96.9687 34.569L95.478 34.5461L95.5255 33.6309L95.481 33.6302C95.2828 33.9772 95.0414 34.2415 94.7567 34.4233C94.4794 34.6052 94.1665 34.6935 93.818 34.6882ZM94.1728 33.3197C94.4027 33.3232 94.6308 33.2039 94.8571 32.9616C95.0833 32.7193 95.296 32.3949 95.4951 31.9884L95.524 30.1123C95.2877 30.0417 95.0509 30.0045 94.8136 30.0009C94.3686 29.994 94.0288 30.1415 93.7942 30.4432C93.5671 30.745 93.4489 31.1937 93.4397 31.7893C93.4325 32.2583 93.4935 32.6316 93.6228 32.9091C93.7522 33.1792 93.9355 33.316 94.1728 33.3197Z" fill="#022F5E"/>
<path d="M98.5856 28.8413L100.154 28.8654L100.14 29.8035L100.229 29.8049C100.45 29.4285 100.665 29.1525 100.876 28.977C101.093 28.8017 101.362 28.7164 101.681 28.7213C101.814 28.7234 101.925 28.74 102.014 28.7711L101.821 30.466C101.629 30.4109 101.473 30.3825 101.355 30.3807C101.184 30.3781 101.032 30.4092 100.897 30.4742C100.77 30.5392 100.654 30.6268 100.548 30.7369C100.45 30.8471 100.306 31.0161 100.118 31.2441L100.066 34.6167L98.4972 34.5925L98.5856 28.8413Z" fill="#022F5E"/>
<path d="M103.032 26.5081L104.601 26.5322L104.551 29.7708C104.786 29.4318 105.053 29.1865 105.352 29.0347C105.651 28.8755 105.994 28.7988 106.379 28.8047C106.995 28.8142 107.474 29.0077 107.817 29.3854C108.16 29.7555 108.326 30.2682 108.316 30.9233L108.258 34.7426L106.689 34.7185L106.744 31.1449C106.749 30.8471 106.678 30.6152 106.532 30.4491C106.387 30.2756 106.188 30.1869 105.935 30.183C105.661 30.1788 105.396 30.2715 105.141 30.4612C104.894 30.6436 104.69 30.8899 104.529 31.2002L104.475 34.6844L102.907 34.6603L103.032 26.5081Z" fill="#022F5E"/>
<rect x="109.331" y="26.1468" width="17.7375" height="3.70263" rx="0.5" transform="rotate(0.880762 109.331 26.1468)" fill="#614EB4"/>
<rect x="109.331" y="26.1468" width="17.7375" height="3.70263" rx="0.5" transform="rotate(0.880762 109.331 26.1468)" stroke="#614EB4"/>
<path d="M110.618 26.8447L111.402 26.8567C111.629 26.8602 111.807 26.9182 111.937 27.0307C112.069 27.1409 112.133 27.2901 112.13 27.4782C112.127 27.6921 112.032 27.8552 111.845 27.9676C112.089 28.0701 112.21 28.246 112.206 28.4952C112.204 28.6363 112.167 28.7615 112.095 28.8709C112.023 28.978 111.923 29.0611 111.796 29.1203C111.671 29.1795 111.53 29.2079 111.373 29.2055L110.582 29.1934L110.618 26.8447ZM111.268 27.8106C111.385 27.8124 111.475 27.7867 111.539 27.7336C111.606 27.6806 111.64 27.6058 111.641 27.5094C111.644 27.3355 111.538 27.2468 111.322 27.2435L111.101 27.2401L111.092 27.8079L111.268 27.8106ZM111.301 28.8129C111.428 28.8148 111.527 28.7869 111.598 28.7292C111.671 28.6716 111.709 28.5934 111.71 28.4946C111.712 28.4053 111.682 28.3355 111.622 28.2852C111.562 28.2349 111.475 28.2088 111.36 28.2071L111.086 28.2029L111.077 28.8094L111.301 28.8129Z" fill="white"/>
<path d="M113.558 29.285C113.364 29.282 113.193 29.2382 113.047 29.1537C112.901 29.0691 112.788 28.9521 112.708 28.8028C112.631 28.6511 112.594 28.4777 112.597 28.2825L112.618 26.8754L113.131 26.8833L113.11 28.2516C113.108 28.4256 113.146 28.5649 113.227 28.6696C113.31 28.772 113.422 28.8243 113.565 28.8265C113.708 28.8287 113.822 28.7799 113.908 28.6801C113.994 28.578 114.039 28.4399 114.041 28.2659L114.062 26.8976L114.572 26.9054L114.55 28.3125C114.547 28.5077 114.503 28.6798 114.419 28.8291C114.337 28.9759 114.222 29.0894 114.073 29.1694C113.924 29.2494 113.753 29.288 113.558 29.285Z" fill="white"/>
<path d="M115.646 29.3171C115.51 29.315 115.38 29.2977 115.257 29.2652C115.135 29.2328 115.031 29.19 114.942 29.1369L114.992 28.665C115.096 28.7325 115.205 28.7859 115.32 28.8253C115.436 28.8623 115.544 28.8816 115.642 28.8831C115.754 28.8849 115.846 28.8628 115.917 28.8168C115.988 28.7709 116.024 28.7091 116.025 28.6315C116.026 28.568 116.004 28.5195 115.957 28.4859C115.911 28.4499 115.838 28.4111 115.738 28.3696L115.654 28.333C115.642 28.3282 115.63 28.3233 115.616 28.3183C115.602 28.3111 115.585 28.3038 115.567 28.2964C115.436 28.2403 115.332 28.1882 115.253 28.1399C115.174 28.0893 115.106 28.0201 115.049 27.9322C114.994 27.8443 114.967 27.7311 114.97 27.5924C114.973 27.3667 115.052 27.1903 115.206 27.0634C115.36 26.9364 115.573 26.875 115.845 26.8792C116.051 26.8823 116.261 26.9279 116.475 27.0158L116.391 27.4802C116.305 27.4295 116.212 27.3892 116.112 27.3595C116.014 27.3297 115.92 27.3142 115.831 27.3128C115.721 27.3111 115.635 27.3322 115.574 27.3759C115.512 27.4173 115.481 27.4744 115.48 27.5473C115.479 27.6108 115.499 27.6605 115.541 27.6964C115.582 27.7323 115.65 27.7709 115.743 27.8124L115.886 27.871C116.021 27.9248 116.133 27.9771 116.221 28.0278C116.309 28.0786 116.384 28.1514 116.446 28.2464C116.508 28.3391 116.537 28.4595 116.535 28.6076C116.532 28.8357 116.452 29.012 116.295 29.1366C116.139 29.2611 115.922 29.3213 115.646 29.3171Z" fill="white"/>
<path d="M116.993 26.9427L117.502 26.9505L117.466 29.2992L116.957 29.2914L116.993 26.9427Z" fill="white"/>
<path d="M118.022 26.9585L118.619 26.9677L119.563 28.6295L119.588 26.9826L120.055 26.9898L120.019 29.3384L119.429 29.3294L118.478 27.6569L118.453 29.3144L117.985 29.3072L118.022 26.9585Z" fill="white"/>
<path d="M120.546 26.9973L121.969 27.0192L121.962 27.4635L121.042 27.4494L121.035 27.9184L121.797 27.9301L121.79 28.3604L121.028 28.3486L121.019 28.9094L121.94 28.9235L121.933 29.3679L120.51 29.346L120.546 26.9973Z" fill="white"/>
<path d="M122.991 29.43C122.855 29.4279 122.725 29.4106 122.601 29.3781C122.48 29.3457 122.375 29.3029 122.287 29.2498L122.337 28.7779C122.441 28.8454 122.55 28.8988 122.664 28.9382C122.781 28.9752 122.888 28.9945 122.987 28.996C123.099 28.9978 123.191 28.9757 123.262 28.9297C123.333 28.8838 123.369 28.822 123.37 28.7444C123.371 28.681 123.348 28.6324 123.302 28.5988C123.256 28.5628 123.183 28.524 123.082 28.4825L122.999 28.446C122.987 28.4411 122.974 28.4362 122.96 28.4313C122.946 28.424 122.93 28.4167 122.911 28.4093C122.781 28.3533 122.677 28.3011 122.598 28.2528C122.519 28.2022 122.451 28.133 122.393 28.0451C122.339 27.9573 122.312 27.844 122.314 27.7053C122.318 27.4796 122.397 27.3032 122.551 27.1763C122.705 27.0493 122.918 26.9879 123.19 26.9921C123.396 26.9952 123.606 27.0408 123.82 27.1288L123.736 27.5931C123.65 27.5424 123.557 27.5021 123.456 27.4724C123.358 27.4427 123.265 27.4271 123.176 27.4257C123.066 27.424 122.98 27.4451 122.919 27.4888C122.857 27.5302 122.826 27.5873 122.825 27.6602C122.824 27.7237 122.844 27.7734 122.886 27.8093C122.927 27.8452 122.994 27.8839 123.088 27.9253L123.231 27.9839C123.366 28.0377 123.477 28.09 123.566 28.1407C123.654 28.1915 123.729 28.2643 123.791 28.3594C123.852 28.452 123.882 28.5724 123.88 28.7205C123.876 28.9486 123.796 29.1249 123.64 29.2495C123.483 29.3741 123.267 29.4342 122.991 29.43Z" fill="white"/>
<path d="M124.857 29.4587C124.721 29.4566 124.591 29.4393 124.468 29.4068C124.346 29.3744 124.242 29.3316 124.153 29.2785L124.203 28.8066C124.307 28.8741 124.416 28.9275 124.531 28.9669C124.647 29.0039 124.755 29.0232 124.853 29.0247C124.965 29.0265 125.057 29.0044 125.128 28.9584C125.199 28.9125 125.235 28.8507 125.236 28.7731C125.237 28.7097 125.215 28.6611 125.168 28.6275C125.122 28.5915 125.049 28.5527 124.949 28.5112L124.865 28.4746C124.853 28.4698 124.84 28.4649 124.826 28.4599C124.813 28.4527 124.796 28.4454 124.778 28.438C124.647 28.3819 124.543 28.3298 124.464 28.2815C124.385 28.2309 124.317 28.1617 124.26 28.0738C124.205 27.9859 124.178 27.8727 124.181 27.734C124.184 27.5083 124.263 27.3319 124.417 27.205C124.571 27.078 124.784 27.0166 125.056 27.0208C125.262 27.0239 125.472 27.0695 125.686 27.1574L125.602 27.6218C125.516 27.5711 125.423 27.5308 125.323 27.5011C125.225 27.4713 125.131 27.4558 125.042 27.4544C124.932 27.4527 124.846 27.4738 124.785 27.5175C124.723 27.5589 124.692 27.616 124.691 27.6889C124.69 27.7524 124.71 27.8021 124.752 27.838C124.793 27.8739 124.861 27.9125 124.954 27.954L125.097 28.0126C125.232 28.0664 125.344 28.1187 125.432 28.1694C125.52 28.2202 125.595 28.293 125.657 28.3881C125.719 28.4807 125.748 28.6011 125.746 28.7492C125.743 28.9773 125.663 29.1536 125.506 29.2782C125.35 29.4027 125.133 29.4629 124.857 29.4587Z" fill="white"/>
<path d="M107.606 50.6253L103.763 65.1327C103.489 66.2159 102.509 66.9548 101.389 66.9382L87.2481 66.7285C85.623 66.7044 84.4843 65.0943 84.9918 63.541L89.7383 49.0579C90.0654 48.0509 91.0121 47.3652 92.0668 47.3808L105.304 47.5771C106.327 47.5922 107.168 48.2291 107.51 49.0953C107.708 49.5611 107.743 50.0891 107.606 50.6253Z" stroke="#4489F7" stroke-width="1.8" stroke-miterlimit="10"/>
<path d="M100.981 66.9318L106.125 67.0081C107.513 67.0286 108.618 65.8717 108.541 64.4819L107.693 49.8081" stroke="#4489F7" stroke-width="1.8" stroke-miterlimit="10" stroke-linecap="round" stroke-linejoin="round"/>
<path d="M94.4283 50.0208L95.6165 45.3882" stroke="#4489F7" stroke-width="1.8" stroke-miterlimit="10" stroke-linecap="round" stroke-linejoin="round"/>
<path d="M101.639 50.1385L102.72 45.4828" stroke="#4489F7" stroke-width="1.8" stroke-miterlimit="10" stroke-linecap="round" stroke-linejoin="round"/>
<path d="M92.2076 56.0376L100.817 56.1653" stroke="#4489F7" stroke-width="1.8" stroke-miterlimit="10" stroke-linecap="round" stroke-linejoin="round"/>
<path d="M91.0676 60.3262L99.6773 60.4538" stroke="#4489F7" stroke-width="1.8" stroke-miterlimit="10" stroke-linecap="round" stroke-linejoin="round"/>
<defs>
<filter id="filter0_d_12251_198718" x="0.0843973" y="10.2948" width="159.65" height="124.397" filterUnits="userSpaceOnUse" color-interpolation-filters="sRGB">
<feFlood flood-opacity="0" result="BackgroundImageFix"/>
<feColorMatrix in="SourceAlpha" type="matrix" values="0 0 0 0 0 0 0 0 0 0 0 0 0 0 0 0 0 0 127 0" result="hardAlpha"/>
<feOffset dy="7.10361"/>
<feGaussianBlur stdDeviation="7.10361"/>
<feColorMatrix type="matrix" values="0 0 0 0 0.397708 0 0 0 0 0.47749 0 0 0 0 0.575 0 0 0 0.27 0"/>
<feBlend mode="normal" in2="BackgroundImageFix" result="effect1_dropShadow_12251_198718"/>
<feBlend mode="normal" in="SourceGraphic" in2="effect1_dropShadow_12251_198718" result="shape"/>
</filter>
<filter id="filter1_d_12251_198718" x="3.79289" y="14.8964" width="150.938" height="98.8866" filterUnits="userSpaceOnUse" color-interpolation-filters="sRGB">
<feFlood flood-opacity="0" result="BackgroundImageFix"/>
<feColorMatrix in="SourceAlpha" type="matrix" values="0 0 0 0 0 0 0 0 0 0 0 0 0 0 0 0 0 0 127 0" result="hardAlpha"/>
<feOffset dy="7.10361"/>
<feGaussianBlur stdDeviation="7.10361"/>
<feColorMatrix type="matrix" values="0 0 0 0 0.397708 0 0 0 0 0.47749 0 0 0 0 0.575 0 0 0 0.27 0"/>
<feBlend mode="normal" in2="BackgroundImageFix" result="effect1_dropShadow_12251_198718"/>
<feBlend mode="normal" in="SourceGraphic" in2="effect1_dropShadow_12251_198718" result="shape"/>
</filter>
<filter id="filter2_d_12251_198718" x="24.927" y="5.88721" width="144.495" height="118.783" filterUnits="userSpaceOnUse" color-interpolation-filters="sRGB">
<feFlood flood-opacity="0" result="BackgroundImageFix"/>
<feColorMatrix in="SourceAlpha" type="matrix" values="0 0 0 0 0 0 0 0 0 0 0 0 0 0 0 0 0 0 127 0" result="hardAlpha"/>
<feOffset dy="17"/>
<feGaussianBlur stdDeviation="11"/>
<feColorMatrix type="matrix" values="0 0 0 0 0.397708 0 0 0 0 0.47749 0 0 0 0 0.575 0 0 0 0.37 0"/>
<feBlend mode="normal" in2="BackgroundImageFix" result="effect1_dropShadow_12251_198718"/>
<feBlend mode="normal" in="SourceGraphic" in2="effect1_dropShadow_12251_198718" result="shape"/>
</filter>
<linearGradient id="paint0_linear_12251_198718" x1="65.3031" y1="19.3181" x2="65.3031" y2="94.2591" gradientUnits="userSpaceOnUse">
<stop stop-color="#F3F6FB"/>
<stop offset="0.9964" stop-color="#ECF0F5"/>
</linearGradient>
</defs>
</svg>
