<svg width="16" height="20" viewBox="0 0 16 20" fill="none" xmlns="http://www.w3.org/2000/svg">
<path d="M10.3318 3.67375C12.8911 6.05375 15.4418 9.195 15.2318 12.9094C15.1526 14.2263 14.6757 15.4862 13.963 16.5883C12.9218 18.1944 11.2636 19.2925 9.38238 19.625C12.5101 16.7812 10.4893 11.5969 7.52301 9.48375L7.21676 9.27375C7.30863 10.3767 7.33532 11.3563 6.76176 12.3231C6.30238 13.0936 5.69863 13.7756 5.37926 14.62C4.69282 16.3525 5.18238 18.4219 6.61738 19.625C4.73613 19.2925 3.07363 18.1944 2.03676 16.5888C0.71507 14.5413 0.361132 12.0042 1.27988 9.71562C2.24676 7.10375 4.89407 5.30562 5.35738 2.47938C5.46676 1.77938 5.45363 1.06669 5.31363 0.375C7.14676 1.21062 8.83988 2.32188 10.3318 3.67375Z" fill="#34C759"/>
</svg>
