<svg width="100" height="100" viewBox="0 0 100 100" fill="none" xmlns="http://www.w3.org/2000/svg">
<path d="M92.247 22.0296C94.242 22.0296 95.8593 20.4328 95.8593 18.463C95.8593 16.4933 94.242 14.8965 92.247 14.8965C90.2519 14.8965 88.6346 16.4933 88.6346 18.463C88.6346 20.4328 90.2519 22.0296 92.247 22.0296Z" fill="#EAEEF9"/>
<path d="M97.5331 8.11113C98.8956 8.11113 100 7.02063 100 5.67544C100 4.33024 98.8956 3.23975 97.5331 3.23975C96.1707 3.23975 95.0662 4.33024 95.0662 5.67544C95.0662 7.02063 96.1707 8.11113 97.5331 8.11113Z" fill="#EAEEF9"/>
<path d="M2.46696 28.1189C3.82943 28.1189 4.93392 27.0284 4.93392 25.6833C4.93392 24.3381 3.82943 23.2476 2.46696 23.2476C1.1045 23.2476 0 24.3381 0 25.6833C0 27.0284 1.1045 28.1189 2.46696 28.1189Z" fill="#EAEEF9"/>
<path d="M16.035 95.7964C18.5653 95.7964 20.6165 93.7712 20.6165 91.2729C20.6165 88.7747 18.5653 86.7495 16.035 86.7495C13.5047 86.7495 11.4535 88.7747 11.4535 91.2729C11.4535 93.7712 13.5047 95.7964 16.035 95.7964Z" fill="#EAEEF9"/>
<path fill-rule="evenodd" clip-rule="evenodd" d="M33.7574 26.1548C33.9639 25.3526 34.7899 24.8676 35.6023 25.0715L41.347 26.5132C42.1594 26.7171 42.6506 27.5327 42.4441 28.3348C42.2376 29.137 41.4116 29.622 40.5991 29.4181L34.8545 27.9764C34.042 27.7725 33.5508 26.9569 33.7574 26.1548Z" fill="#C6CFD7"/>
<path fill-rule="evenodd" clip-rule="evenodd" d="M38.6382 10.2034C39.3318 9.73856 40.2757 9.91688 40.7465 10.6017L47.6138 20.5906C48.0846 21.2754 47.904 22.2074 47.2104 22.6722C46.5168 23.137 45.5729 22.9587 45.1021 22.2739L38.2348 12.285C37.764 11.6002 37.9446 10.6682 38.6382 10.2034Z" fill="#C6CFD7"/>
<path fill-rule="evenodd" clip-rule="evenodd" d="M51.3772 5.69795C52.1995 5.53725 52.9981 6.06515 53.1608 6.87705L55.535 18.7201C55.6978 19.532 55.1631 20.3204 54.3408 20.4811C53.5185 20.6418 52.7199 20.1139 52.5571 19.302L50.1829 7.459C50.0202 6.6471 50.5548 5.85865 51.3772 5.69795Z" fill="#C6CFD7"/>
<path fill-rule="evenodd" clip-rule="evenodd" d="M53.1178 27.5189V29.3845H51.2256H49.3335V38.8058V48.2271H47.4413H45.5492V50.1082V51.9894H43.657H41.7648V53.8703V55.7512L39.8961 55.7592L38.0274 55.7672L38.0194 57.6251L38.0113 59.4829H34.149H30.2868V57.6173V55.7517H28.3946H26.5025V53.8705V51.9894H24.6103H22.7182V48.2271V44.4648H20.826H18.9338V53.8861V63.3074H20.826H22.7182V65.1393C22.7182 66.1469 22.7267 66.9934 22.7371 67.0205C22.7542 67.0646 22.9569 67.0697 24.7075 67.0697H26.6588V68.9353V70.8009H28.551H30.4432V72.6665V74.5321H32.3302H34.2172L34.238 77.3538C34.2494 78.9057 34.2587 82.2638 34.2587 84.8162L34.2588 89.4569H38.0431H41.8274V87.5757V85.6946H39.9352H38.0431V83.8756V82.0567H39.9352H41.8274V80.1755V78.2944H43.6883H45.5492V79.9376C45.5492 80.8414 45.5583 81.6879 45.5694 81.8188L45.5896 82.0567H47.4772H49.3647V85.819V89.5813H53.1491H56.9334V87.6846V85.7879H55.0569H53.1803V78.2944V70.8009H55.0725H56.9647V68.9353V67.0697H58.7943C59.9931 67.0697 60.6239 67.0589 60.6239 67.0386C60.6239 67.0215 60.645 67.0075 60.6708 67.0075C60.7122 67.0075 60.7177 66.5722 60.7177 63.2763V59.5451H62.6099H64.502V61.4107V63.2763H66.316H68.13V59.514V55.7517H64.4238H60.7177V52.005V48.2583L68.169 48.2505L75.6204 48.2426V46.3615V44.4803L70.0612 44.4725L64.502 44.4646V42.5991V40.7336H72.0707H79.6394L79.6316 35.0668L79.6236 29.4001L77.7393 29.392L75.855 29.384V27.5187V25.6533H64.4864H53.1178V27.5189ZM60.7177 31.2812V33.1468H58.8255H56.9334V31.2812V29.4156H58.8255H60.7177V31.2812ZM20.581 78.854V79.2151C20.581 79.3763 20.7117 79.507 20.8729 79.507H25.8808C26.2414 79.507 26.5337 79.2147 26.5337 78.854C26.5337 78.4934 26.2414 78.2011 25.8808 78.2011H20.8729C20.7117 78.2011 20.581 78.3318 20.581 78.493V78.854ZM60.4747 78.8774C60.4794 79.2522 60.7846 79.5536 61.1595 79.5536H69.9127H78.6658C79.0407 79.5536 79.3459 79.2522 79.3506 78.8774C79.3553 78.5052 79.0549 78.2011 78.6827 78.2011H69.9127H61.1426C60.7705 78.2011 60.4701 78.5052 60.4747 78.8774ZM24.6399 83.9309C24.6315 83.9528 24.6284 84.2501 24.6331 84.5916C24.6378 84.9363 24.918 85.2134 25.2626 85.2144L27.4642 85.2206L29.6181 85.2266C29.9871 85.2277 30.2868 84.9288 30.2868 84.5598C30.2868 84.1905 29.9874 83.8912 29.6181 83.8912H27.471C25.2141 83.8912 24.6522 83.8991 24.6399 83.9309Z" fill="#C6CFD7"/>
</svg>
