<svg width="80" height="69" viewBox="0 0 80 69" fill="none" xmlns="http://www.w3.org/2000/svg">
    <g filter="url(#filter0_i_160_658)">
        <path d="M40.0005 34.0361C19.8242 34.0361 3.09285 48.7766 -6.10352e-05 68.07H18.8037C21.5682 58.9912 30.0123 52.3851 40.0002 52.3851C43.2216 52.3851 46.2823 53.0723 49.0438 54.3079L61.1969 40.0134C55.0306 36.2226 47.771 34.0361 40.0005 34.0361Z" fill="#2684FC"/>
        <path d="M70.777 29.7642C70.8151 30.0413 70.7422 30.3337 70.5459 30.5489L65.3422 36.7979L65.1803 36.9896L39.985 67.2368C39.6452 67.6412 39.1716 67.8944 38.6728 67.9629C38.1 68.0415 37.4942 67.88 37.0243 67.4739C36.1476 66.7095 36.0758 65.3639 36.8612 64.5031L42.4279 58.4302L47.0817 53.3861L63.4285 35.6111L64.0361 34.9629L69.047 29.2299C69.2115 29.0567 69.4231 28.9523 69.6448 28.9219C69.7002 28.9143 69.7557 28.9067 69.8136 28.9175C70.2832 28.9095 70.69 29.2678 70.777 29.7642Z" fill="#2684FC"/>
    </g>
    <g filter="url(#filter1_i_160_658)">
        <path d="M53.2924 0H26.241L9.99304 40.8857C16.9386 34.6746 25.8263 30.582 35.6356 29.6412L38.9866 20.5218H40.5469L43.8978 29.6412C49.7274 30.2003 55.2314 31.8726 60.1958 34.4411L61.1044 33.4537L61.6845 32.8348L64.8856 29.1725L53.2924 0Z" fill="white"/>
        <path d="M53.2924 0H26.241L9.99304 40.8857C16.9386 34.6746 25.8263 30.582 35.6356 29.6412L38.9866 20.5218H40.5469L43.8978 29.6412C49.7274 30.2003 55.2314 31.8726 60.1958 34.4411L61.1044 33.4537L61.6845 32.8348L64.8856 29.1725L53.2924 0Z" fill="url(#paint0_linear_160_658)"/>
    </g>
    <g filter="url(#filter2_i_160_658)">
        <path d="M64.745 42.4648C72.7209 48.6228 78.3355 57.6873 80 68.0704H61.1959C59.7737 63.4 56.8485 59.3839 52.9833 56.585L64.745 42.4648Z" fill="white"/>
        <path d="M64.745 42.4648C72.7209 48.6228 78.3355 57.6873 80 68.0704H61.1959C59.7737 63.4 56.8485 59.3839 52.9833 56.585L64.745 42.4648Z" fill="url(#paint1_linear_160_658)"/>
    </g>
    <defs>
        <filter id="filter0_i_160_658" x="-0.118225" y="27.8604" width="70.905" height="40.2096" filterUnits="userSpaceOnUse" color-interpolation-filters="sRGB">
            <feFlood flood-opacity="0" result="BackgroundImageFix"/>
            <feBlend mode="normal" in="SourceGraphic" in2="BackgroundImageFix" result="shape"/>
            <feColorMatrix in="SourceAlpha" type="matrix" values="0 0 0 0 0 0 0 0 0 0 0 0 0 0 0 0 0 0 127 0" result="hardAlpha"/>
            <feOffset dx="-0.118164" dy="-1.05166"/>
            <feGaussianBlur stdDeviation="0.732619"/>
            <feComposite in2="hardAlpha" operator="arithmetic" k2="-1" k3="1"/>
            <feColorMatrix type="matrix" values="0 0 0 0 0.0767062 0 0 0 0 0.318073 0 0 0 0 0.626201 0 0 0 1 0"/>
            <feBlend mode="normal" in2="shape" result="effect1_innerShadow_160_658"/>
        </filter>
        <filter id="filter1_i_160_658" x="8.5278" y="-1.05166" width="56.3578" height="41.9374" filterUnits="userSpaceOnUse" color-interpolation-filters="sRGB">
            <feFlood flood-opacity="0" result="BackgroundImageFix"/>
            <feBlend mode="normal" in="SourceGraphic" in2="BackgroundImageFix" result="shape"/>
            <feColorMatrix in="SourceAlpha" type="matrix" values="0 0 0 0 0 0 0 0 0 0 0 0 0 0 0 0 0 0 127 0" result="hardAlpha"/>
            <feOffset dx="-1.71327" dy="-1.05166"/>
            <feGaussianBlur stdDeviation="0.732619"/>
            <feComposite in2="hardAlpha" operator="arithmetic" k2="-1" k3="1"/>
            <feColorMatrix type="matrix" values="0 0 0 0 0.654623 0 0 0 0 0.654623 0 0 0 0 0.654623 0 0 0 0.64 0"/>
            <feBlend mode="normal" in2="shape" result="effect1_innerShadow_160_658"/>
        </filter>
        <filter id="filter2_i_160_658" x="51.518" y="41.4132" width="28.482" height="26.6571" filterUnits="userSpaceOnUse" color-interpolation-filters="sRGB">
            <feFlood flood-opacity="0" result="BackgroundImageFix"/>
            <feBlend mode="normal" in="SourceGraphic" in2="BackgroundImageFix" result="shape"/>
            <feColorMatrix in="SourceAlpha" type="matrix" values="0 0 0 0 0 0 0 0 0 0 0 0 0 0 0 0 0 0 127 0" result="hardAlpha"/>
            <feOffset dx="-1.71327" dy="-1.05166"/>
            <feGaussianBlur stdDeviation="0.732619"/>
            <feComposite in2="hardAlpha" operator="arithmetic" k2="-1" k3="1"/>
            <feColorMatrix type="matrix" values="0 0 0 0 0.654623 0 0 0 0 0.654623 0 0 0 0 0.654623 0 0 0 0.64 0"/>
            <feBlend mode="normal" in2="shape" result="effect1_innerShadow_160_658"/>
        </filter>
        <linearGradient id="paint0_linear_160_658" x1="28.9577" y1="5.06707" x2="34.9921" y2="29.8046" gradientUnits="userSpaceOnUse">
            <stop offset="0.0245846" stop-color="white"/>
            <stop offset="1" stop-color="white" stop-opacity="0"/>
        </linearGradient>
        <linearGradient id="paint1_linear_160_658" x1="62.3172" y1="45.6382" x2="66.9644" y2="60.61" gradientUnits="userSpaceOnUse">
            <stop offset="0.0245846" stop-color="white"/>
            <stop offset="1" stop-color="white" stop-opacity="0"/>
        </linearGradient>
    </defs>
</svg>
