<svg width="24" height="24" viewBox="0 0 24 24" fill="none" xmlns="http://www.w3.org/2000/svg">
    <path d="M22.2501 12.0001C22.2305 11.2953 22.0156 10.6091 21.6283 10.019C21.2421 9.42988 20.6988 8.95861 20.0596 8.6597C20.3028 7.99751 20.3541 7.28079 20.2123 6.59024C20.0694 5.8986 19.7356 5.26151 19.2501 4.74988C18.7374 4.26442 18.1014 3.9317 17.4098 3.7877C16.7192 3.64588 16.0025 3.69715 15.3403 3.94042C15.0425 3.30006 14.5723 2.7557 13.9821 2.36951C13.3919 1.98333 12.7058 1.76733 11.9999 1.74988C11.2952 1.76842 10.6112 1.98224 10.0221 2.36951C9.43303 2.75679 8.96503 3.30115 8.66939 3.94042C8.00612 3.69715 7.28721 3.6437 6.59448 3.7877C5.90176 3.92951 5.26357 4.26333 4.75085 4.74988C4.26539 5.26261 3.93376 5.90079 3.79303 6.59133C3.65121 7.28188 3.70576 7.99861 3.95012 8.6597C3.30976 8.95861 2.7643 9.42879 2.37594 10.0179C1.98757 10.607 1.77048 11.2942 1.74976 12.0001C1.77157 12.7059 1.98757 13.3921 2.37594 13.9822C2.7643 14.5713 3.30976 15.0426 3.95012 15.3404C3.70576 16.0015 3.65121 16.7182 3.79303 17.4088C3.93485 18.1004 4.26539 18.7375 4.74976 19.2502C5.26248 19.7335 5.89957 20.0652 6.59012 20.2081C7.28066 20.3521 7.99739 20.2997 8.65957 20.0597C8.95848 20.699 9.42866 21.2422 10.0188 21.6295C10.6079 22.0157 11.2952 22.2306 11.9999 22.2502C12.7058 22.2328 13.3919 22.0179 13.9821 21.6317C14.5723 21.2455 15.0425 20.7001 15.3403 20.0608C15.9992 20.3215 16.7214 20.3837 17.4163 20.2397C18.1101 20.0957 18.7472 19.7521 19.249 19.2502C19.7508 18.7484 20.0956 18.1113 20.2396 17.4164C20.3836 16.7215 20.3214 15.9993 20.0596 15.3404C20.6988 15.0415 21.2421 14.5713 21.6294 13.9812C22.0156 13.3921 22.2305 12.7048 22.2501 12.0001Z" fill="url(#paint0_linear_5579_38956)"/>
    <path d="M21.3775 10.1836L21.3774 10.1834C21.0217 9.64085 20.5213 9.20675 19.9325 8.93146L19.683 8.81479L19.778 8.55624C20.0017 7.94722 20.0491 7.28739 19.9185 6.65095C19.7875 6.01689 19.4822 5.43246 19.038 4.96221C18.5668 4.51804 17.9833 4.21359 17.3489 4.08146C16.7125 3.95086 16.0527 3.9983 15.4438 4.22202L15.1847 4.3172L15.0683 4.06693C14.794 3.4771 14.361 2.97596 13.8179 2.62055C13.276 2.26601 12.6469 2.06741 12.0002 2.04998C11.3538 2.06841 10.727 2.26514 10.1869 2.6202C9.64477 2.97661 9.21392 3.47769 8.94169 4.06635L8.82564 4.31727L8.56609 4.22208C7.95526 3.99804 7.29328 3.94885 6.65554 4.08142L6.65465 4.0816C6.01977 4.21158 5.43443 4.51684 4.96318 4.96197C4.51928 5.43298 4.21599 6.01824 4.08699 6.65124L4.0869 6.65168C3.95636 7.28731 4.00656 7.94711 4.23151 8.55568L4.32726 8.81473L4.07701 8.93154C3.4867 9.20709 2.9841 9.64042 2.62641 10.183C2.27039 10.723 2.07058 11.3528 2.0499 11.9998C2.07157 12.6473 2.27048 13.2762 2.62651 13.8173L21.3775 10.1836ZM21.3775 10.1836C21.7326 10.7248 21.9304 11.3538 21.95 12.0001C21.9304 12.6465 21.7326 13.2765 21.3786 13.8166C21.0219 14.3602 20.5214 14.7933 19.9325 15.0687L19.6764 15.1884L19.7808 15.4512C20.0208 16.0554 20.078 16.7178 19.9458 17.3556C19.8137 17.9929 19.4975 18.5775 19.0369 19.0381C18.5765 19.4985 17.992 19.8138 17.3554 19.9459C16.7177 20.0781 16.0551 20.021 15.4507 19.7818L15.1878 19.6778L15.0684 19.9341C14.7939 20.5231 14.3609 21.0254 13.8179 21.3807C13.2764 21.735 12.6474 21.9327 12.0004 21.9501C11.3538 21.9307 10.7236 21.7328 10.1834 21.3787C9.63981 21.022 9.20671 20.5216 8.93133 19.9326L8.81518 19.6842L8.55735 19.7776C7.94719 19.9988 7.28705 20.0469 6.65136 19.9144L6.65092 19.9143C6.01757 19.7832 5.43308 19.4798 4.96188 19.0379C4.51926 18.567 4.21698 17.9829 4.08691 17.3485L4.0869 17.3484C3.95636 16.7128 4.00656 16.053 4.23151 15.4444L4.3274 15.185M21.3775 10.1836L4.3274 15.185M4.3274 15.185L4.07663 15.0684M4.3274 15.185L4.07663 15.0684M4.07663 15.0684C3.48693 14.7941 2.98438 14.36 2.62655 13.8173L4.07663 15.0684Z" stroke="white" stroke-opacity="0.24" stroke-width="0.6"/>
    <path d="M6.79956 12.4604L10.5403 16.2L16.7399 9.42983L15.2705 8.07056L10.4705 13.3004L8.21011 11.04L6.79956 12.4604Z" fill="white"/>
    <defs>
        <linearGradient id="paint0_linear_5579_38956" x1="2.49994" y1="6.11691e-05" x2="19.9999" y2="27.0001" gradientUnits="userSpaceOnUse">
            <stop stop-color="#8E9BA8"/>
            <stop offset="0.213542" stop-color="#AFB8C0"/>
            <stop offset="0.578125" stop-color="#727F8C"/>
            <stop offset="0.828125" stop-color="#AFB8C0"/>
            <stop offset="1" stop-color="#8E9BA8"/>
        </linearGradient>
    </defs>
</svg>
