<svg width="20" height="21" viewBox="0 0 20 21" fill="none" xmlns="http://www.w3.org/2000/svg">
<path d="M18.5418 10.4999C18.5254 9.91268 18.3463 9.34086 18.0236 8.84904C17.7018 8.35813 17.249 7.9654 16.7163 7.71631C16.919 7.16449 16.9618 6.56722 16.8436 5.99177C16.7245 5.4154 16.4463 4.88449 16.0418 4.45813C15.6145 4.05358 15.0845 3.77631 14.5081 3.65631C13.9327 3.53813 13.3354 3.58086 12.7836 3.78358C12.5354 3.24995 12.1436 2.79631 11.6518 2.47449C11.1599 2.15268 10.5881 1.97268 9.99995 1.95813C9.41268 1.97358 8.84268 2.15177 8.35177 2.47449C7.86086 2.79722 7.47086 3.25086 7.22449 3.78358C6.67177 3.58086 6.07268 3.53631 5.4954 3.65631C4.91813 3.77449 4.38631 4.05268 3.95904 4.45813C3.55449 4.8854 3.27813 5.41722 3.16086 5.99268C3.04268 6.56813 3.08813 7.1654 3.29177 7.71631C2.75813 7.9654 2.30358 8.35722 1.97995 8.84813C1.65631 9.33904 1.4754 9.91177 1.45813 10.4999C1.47631 11.0881 1.65631 11.6599 1.97995 12.1518C2.30358 12.6427 2.75813 13.0354 3.29177 13.2836C3.08813 13.8345 3.04268 14.4318 3.16086 15.0072C3.27904 15.5836 3.55449 16.1145 3.95813 16.5418C4.3854 16.9445 4.91631 17.2209 5.49177 17.3399C6.06722 17.46 6.66449 17.4163 7.21631 17.2163C7.4654 17.749 7.85722 18.2018 8.34904 18.5245C8.83995 18.8463 9.41268 19.0254 9.99995 19.0418C10.5881 19.0272 11.1599 18.8481 11.6518 18.5263C12.1436 18.2045 12.5354 17.7499 12.7836 17.2172C13.3327 17.4345 13.9345 17.4863 14.5136 17.3663C15.0918 17.2463 15.6227 16.9599 16.0409 16.5418C16.459 16.1236 16.7463 15.5927 16.8663 15.0136C16.9863 14.4345 16.9345 13.8327 16.7163 13.2836C17.249 13.0345 17.7018 12.6427 18.0245 12.1509C18.3463 11.6599 18.5254 11.0872 18.5418 10.4999Z" fill="url(#paint0_linear_1442_16519)"/>
<path d="M18.2416 10.4999C18.2417 10.4972 18.2418 10.4944 18.2419 10.4916L18.5418 10.4999C18.5254 9.91268 18.3463 9.34086 18.0236 8.84904C17.7018 8.35813 17.249 7.9654 16.7163 7.71631C16.919 7.16449 16.9618 6.56722 16.8436 5.99177M18.2416 10.4999C18.2254 9.9711 18.0634 9.45649 17.7728 9.01363L17.7727 9.01351C17.4814 8.5691 17.0715 8.21355 16.5892 7.98807L16.3397 7.87141L16.4347 7.61286C16.618 7.11409 16.6568 6.57358 16.5497 6.05212M18.2416 10.4999C18.2254 11.029 18.0633 11.5445 17.7736 11.9864C17.4814 12.4316 17.0716 12.7863 16.5892 13.0118L16.3331 13.1316L16.4375 13.3944C16.6339 13.8887 16.6807 14.4308 16.5726 14.9527C16.4645 15.4743 16.2057 15.9527 15.8287 16.3296C15.4519 16.7064 14.9736 16.9644 14.4527 17.0726C13.9308 17.1807 13.3885 17.134 12.894 16.9383L12.6311 16.8342L12.5116 17.0905C12.2869 17.573 11.9321 17.9843 11.4875 18.2753C11.0444 18.5652 10.5297 18.7271 10.0004 18.7417C9.47124 18.7255 8.95553 18.5634 8.51351 18.2736C8.06831 17.9814 7.71361 17.5716 7.48807 17.0892L7.37192 16.8408L7.11409 16.9343C6.61429 17.1154 6.0736 17.1548 5.55301 17.0463L5.55256 17.0462C5.03431 16.9389 4.556 16.6908 4.17025 16.3294C3.80836 15.944 3.56118 15.466 3.45474 14.947L3.45472 14.9469C3.34782 14.4263 3.38893 13.886 3.57316 13.3876L3.66904 13.1282L3.41828 13.0116C2.9353 12.7869 2.52367 12.4314 2.23056 11.9869L18.2416 10.4999ZM16.5497 6.05212C16.5497 6.05224 16.5498 6.05235 16.5498 6.05247L16.8436 5.99177M16.5497 6.05212L16.8436 5.99177M16.5497 6.05212C16.4425 5.53347 16.1928 5.05534 15.8297 4.67045M16.8436 5.99177C16.7245 5.4154 16.4463 4.88449 16.0418 4.45813M16.0418 4.45813L15.8355 4.67598C15.8336 4.67413 15.8316 4.67229 15.8297 4.67045M16.0418 4.45813C15.6145 4.05358 15.0845 3.77631 14.5081 3.65631M16.0418 4.45813L15.8241 4.66462C15.826 4.66656 15.8278 4.66851 15.8297 4.67045M15.8297 4.67045C15.4438 4.3072 14.9664 4.05822 14.4473 3.95008M14.5081 3.65631L14.4478 3.95018C14.4476 3.95015 14.4475 3.95012 14.4473 3.95008M14.5081 3.65631C13.9327 3.53813 13.3354 3.58086 12.7836 3.78358C12.5354 3.24995 12.1436 2.79631 11.6518 2.47449C11.1599 2.15268 10.5881 1.97268 9.99995 1.95813M14.5081 3.65631L14.447 3.95001C14.4471 3.95004 14.4472 3.95006 14.4473 3.95008M14.4473 3.95008C13.926 3.84311 13.3857 3.882 12.887 4.06518L12.628 4.16036L12.5116 3.91009C12.2869 3.42699 11.9323 3.01657 11.4875 2.72553C11.044 2.43535 10.5293 2.27275 10.0002 2.25824M10.0002 2.25824C10.0027 2.25816 10.0053 2.25809 10.0078 2.25803L9.99995 1.95813M10.0002 2.25824C9.99763 2.25817 9.99508 2.2581 9.99253 2.25804L9.99995 1.95813M10.0002 2.25824C9.47128 2.27357 8.95847 2.43466 8.51657 2.72517C8.0726 3.01704 7.71974 3.42739 7.49679 3.90951L7.38074 4.16044L7.12119 4.06524C6.6209 3.88174 6.07874 3.84146 5.55646 3.95003L5.55557 3.95022C5.03615 4.05656 4.55716 4.30618 4.17137 4.67023M9.99995 1.95813C9.41268 1.97358 8.84268 2.15177 8.35177 2.47449C7.86086 2.79722 7.47086 3.25086 7.22449 3.78358C6.67177 3.58086 6.07268 3.53631 5.4954 3.65631C4.91813 3.77449 4.38631 4.05268 3.95904 4.45813M4.17137 4.67023C4.17321 4.66828 4.17505 4.66633 4.17689 4.66439L3.95904 4.45813M4.17137 4.67023C4.16943 4.67206 4.16748 4.6739 4.16554 4.67575L3.95904 4.45813M4.17137 4.67023C3.80839 5.05578 3.56036 5.53467 3.45482 6.05258L3.45472 6.05303C3.34782 6.57357 3.38893 7.1139 3.57316 7.6123L3.66891 7.87134L3.41866 7.98816C2.93507 8.21388 2.52339 8.56886 2.23042 9.01325C1.93913 9.45509 1.7755 9.97034 1.75828 10.4997M3.95904 4.45813C3.55449 4.8854 3.27813 5.41722 3.16086 5.99268C3.04268 6.56813 3.08813 7.1654 3.29177 7.71631C2.75813 7.9654 2.30358 8.35722 1.97995 8.84813C1.65631 9.33904 1.4754 9.91177 1.45813 10.4999L1.75799 10.4907C1.75808 10.4937 1.75818 10.4967 1.75828 10.4997M1.75828 10.4997C1.77631 11.0295 1.93918 11.544 2.23042 11.9866L1.75828 10.4997Z" stroke="white" stroke-opacity="0.24" stroke-width="0.6"/>
<path d="M5.66626 10.8836L8.78353 14L13.9499 8.35819L12.7254 7.22546L8.72535 11.5836L6.84171 9.70001L5.66626 10.8836Z" fill="white"/>
<defs>
<linearGradient id="paint0_linear_1442_16519" x1="2.08328" y1="0.499949" x2="16.6666" y2="22.9999" gradientUnits="userSpaceOnUse">
<stop stop-color="#4489F7"/>
<stop offset="0.218559" stop-color="#74A9FE"/>
<stop offset="0.564557" stop-color="#568BE0"/>
<stop offset="0.853432" stop-color="#74A9FE"/>
<stop offset="1" stop-color="#4489F7"/>
</linearGradient>
</defs>
</svg>
