<svg width="18" height="18" viewBox="0 0 18 18" fill="none" xmlns="http://www.w3.org/2000/svg">
<g clip-path="url(#clip0_15333_7868)">
<path d="M16.2 0H1.8C0.805887 0 0 0.805887 0 1.8V16.2C0 17.1941 0.805887 18 1.8 18H16.2C17.1941 18 18 17.1941 18 16.2V1.8C18 0.805887 17.1941 0 16.2 0Z" fill="#73CF11"/>
<path d="M9.94009 4.37952L10.8978 6.29498C11.0284 6.56162 11.3767 6.81738 11.6705 6.86636L13.4064 7.15476C14.5165 7.33978 14.7777 8.14514 13.9778 8.93962L12.6283 10.2892C12.3997 10.5177 12.2746 10.9585 12.3453 11.2741L12.7317 12.9447C13.0364 14.267 12.3344 14.7785 11.1645 14.0874L9.53741 13.1243C9.24356 12.9501 8.75925 12.9501 8.45996 13.1243L6.83291 14.0874C5.6684 14.7785 4.96098 14.2616 5.26571 12.9447L5.65207 11.2741C5.72281 10.9585 5.59765 10.5177 5.3691 10.2892L4.01958 8.93962C3.2251 8.14514 3.48085 7.33978 4.59095 7.15476L6.32683 6.86636C6.61524 6.81738 6.96351 6.56162 7.09411 6.29498L8.05184 4.37952C8.57423 3.34017 9.42313 3.34017 9.94009 4.37952Z" fill="white"/>
</g>
<defs>
<clipPath id="clip0_15333_7868">
<rect width="18" height="18" rx="4" fill="white"/>
</clipPath>
</defs>
</svg>
