<svg width="20" height="20" viewBox="0 0 20 20" fill="none" xmlns="http://www.w3.org/2000/svg">
<g clip-path="url(#clip0_22006_22973)">
<path d="M4.16663 6.66669C4.16663 4.30966 4.16663 3.13115 4.89886 2.39892C5.63109 1.66669 6.8096 1.66669 9.16663 1.66669H10.8333C13.1903 1.66669 14.3688 1.66669 15.1011 2.39892C15.8333 3.13115 15.8333 4.30966 15.8333 6.66669V13.3334C15.8333 15.6904 15.8333 16.8689 15.1011 17.6011C14.3688 18.3334 13.1903 18.3334 10.8333 18.3334H9.16663C6.8096 18.3334 5.63109 18.3334 4.89886 17.6011C4.16663 16.8689 4.16663 15.6904 4.16663 13.3334V6.66669Z" stroke="#4D5B6E" stroke-width="1.5"/>
<path d="M12.0833 15.8333H7.91663" stroke="#4D5B6E" stroke-width="1.5" stroke-linecap="round"/>
<path d="M18.3334 5L17.6864 6.29399C17.5691 6.5286 17.5691 6.80474 17.6864 7.03934L18.147 7.96066C18.2643 8.19526 18.2643 8.47141 18.147 8.70601L17.6864 9.62732C17.5691 9.86193 17.5691 10.1381 17.6864 10.3727L18.147 11.294C18.2643 11.5286 18.2643 11.8047 18.147 12.0393L17.6864 12.9607C17.5691 13.1953 17.5691 13.4714 17.6864 13.706L18.3334 15" stroke="#4D5B6E" stroke-width="1.5" stroke-linecap="round" stroke-linejoin="round"/>
<path d="M1.66663 5L2.31362 6.29399C2.43092 6.5286 2.43092 6.80474 2.31362 7.03934L1.85296 7.96066C1.73566 8.19526 1.73566 8.47141 1.85296 8.70601L2.31362 9.62732C2.43092 9.86193 2.43092 10.1381 2.31362 10.3727L1.85296 11.294C1.73566 11.5286 1.73566 11.8047 1.85296 12.0393L2.31362 12.9607C2.43092 13.1953 2.43092 13.4714 2.31362 13.706L1.66663 15" stroke="#4D5B6E" stroke-width="1.5" stroke-linecap="round" stroke-linejoin="round"/>
</g>
<defs>
<clipPath id="clip0_22006_22973">
<rect width="20" height="20" fill="white"/>
</clipPath>
</defs>
</svg>
