<svg width="20" height="20" viewBox="0 0 20 20" fill="none" xmlns="http://www.w3.org/2000/svg">
<path fill-rule="evenodd" clip-rule="evenodd" d="M10 2.70837C10.3452 2.70837 10.625 2.9882 10.625 3.33337L10.625 16.6667C10.625 17.0119 10.3452 17.2917 10 17.2917C9.65486 17.2917 9.37504 17.0119 9.37504 16.6667L9.37504 3.33337C9.37504 2.9882 9.65486 2.70837 10 2.70837ZM6.66671 5.20837C7.01189 5.20837 7.29171 5.4882 7.29171 5.83337V14.1667C7.29171 14.5119 7.01189 14.7917 6.66671 14.7917C6.32153 14.7917 6.04171 14.5119 6.04171 14.1667V5.83337C6.04171 5.4882 6.32153 5.20837 6.66671 5.20837ZM13.3334 5.20837C13.6786 5.20837 13.9584 5.4882 13.9584 5.83337V14.1667C13.9584 14.5119 13.6786 14.7917 13.3334 14.7917C12.9882 14.7917 12.7084 14.5119 12.7084 14.1667V5.83337C12.7084 5.4882 12.9882 5.20837 13.3334 5.20837ZM3.33337 8.54171C3.67855 8.54171 3.95837 8.82153 3.95837 9.16671L3.95837 10.8334C3.95837 11.1786 3.67855 11.4584 3.33337 11.4584C2.9882 11.4584 2.70837 11.1786 2.70837 10.8334L2.70837 9.16671C2.70837 8.82153 2.9882 8.54171 3.33337 8.54171ZM16.6667 8.54171C17.0119 8.54171 17.2917 8.82153 17.2917 9.16671V10.8334C17.2917 11.1786 17.0119 11.4584 16.6667 11.4584C16.3215 11.4584 16.0417 11.1786 16.0417 10.8334V9.16671C16.0417 8.82153 16.3215 8.54171 16.6667 8.54171Z" fill="#1C274C"/>
</svg>
