<svg width="20" height="20" viewBox="0 0 20 20" fill="none" xmlns="http://www.w3.org/2000/svg">
<path fill-rule="evenodd" clip-rule="evenodd" d="M2.3166 9.37502H3.33329C3.67847 9.37502 3.95829 9.65484 3.95829 10C3.95829 10.3452 3.67847 10.625 3.33329 10.625H2.3166C2.44971 12.284 3.10806 13.7947 4.12524 14.9909L4.97468 14.1414C5.21876 13.8973 5.61449 13.8973 5.85857 14.1414C6.10265 14.3855 6.10265 14.7812 5.85857 15.0253L5.00912 15.8747C6.35391 17.0183 8.09635 17.7084 9.99996 17.7084C11.9036 17.7084 13.646 17.0183 14.9908 15.8747L14.1414 15.0253C13.8973 14.7812 13.8973 14.3855 14.1414 14.1414C14.3854 13.8973 14.7812 13.8973 15.0252 14.1414L15.8747 14.9909C16.8919 13.7947 17.5502 12.284 17.6833 10.625H16.6664C16.3213 10.625 16.0414 10.3452 16.0414 10C16.0414 9.65484 16.3213 9.37502 16.6664 9.37502H17.6833C17.5502 7.71608 16.8919 6.20533 15.8747 5.00918L15.0252 5.85863C14.7812 6.10271 14.3854 6.10271 14.1414 5.85863C13.8973 5.61455 13.8973 5.21882 14.1414 4.97475L14.9908 4.1253C13.7946 3.10812 12.2839 2.44977 10.625 2.31666V3.33353C10.625 3.67871 10.3451 3.95853 9.99996 3.95853C9.65478 3.95853 9.37496 3.67871 9.37496 3.33353V2.31666C7.71602 2.44977 6.20527 3.10812 5.00912 4.1253L5.85857 4.97475C6.10265 5.21882 6.10265 5.61455 5.85857 5.85863C5.61449 6.10271 5.21876 6.10271 4.97468 5.85863L4.12524 5.00918C3.10806 6.20533 2.44971 7.71608 2.3166 9.37502ZM1.04163 10C1.04163 5.05247 5.05241 1.04169 9.99996 1.04169C14.9475 1.04169 18.9583 5.05247 18.9583 10C18.9583 14.9476 14.9475 18.9584 9.99996 18.9584C5.05241 18.9584 1.04163 14.9476 1.04163 10ZM7.5043 7.99242C8.72468 6.77203 10.7033 6.77203 11.9237 7.99242C13.1441 9.2128 13.1441 11.1914 11.9237 12.4118C11.6483 12.6872 11.2692 12.8831 10.8979 13.0287C10.5159 13.1786 10.0856 13.2964 9.66099 13.3899C9.64261 13.3939 9.62429 13.3979 9.60602 13.402C9.04576 13.5253 8.53739 13.6373 8.10971 13.6447C7.61523 13.6534 7.16473 13.5257 6.77758 13.1386C6.39043 12.7514 6.26277 12.3009 6.2714 11.8064C6.27886 11.3787 6.3908 10.8704 6.51417 10.3101C6.51819 10.2918 6.52222 10.2735 6.52626 10.2551C6.61969 9.83055 6.73757 9.40025 6.88738 9.01821C7.03298 8.64691 7.22889 8.26782 7.5043 7.99242ZM11.0398 8.8763C10.3076 8.14407 9.12041 8.14407 8.38818 8.8763C8.29221 8.97227 8.17275 9.16433 8.05111 9.47454C7.93369 9.774 7.83248 10.1356 7.74706 10.5238C7.60769 11.1572 7.52622 11.5411 7.52121 11.8282C7.51712 12.0625 7.56461 12.1578 7.66146 12.2547C7.75831 12.3515 7.85367 12.399 8.08791 12.3949C8.37501 12.3899 8.75893 12.3084 9.39238 12.1691C9.78057 12.0837 10.1421 11.9824 10.4416 11.865C10.7518 11.7434 10.9439 11.6239 11.0398 11.5279C11.7721 10.7957 11.7721 9.60853 11.0398 8.8763Z" fill="#4D5B6E"/>
</svg>
