<svg width="20" height="20" viewBox="0 0 20 20" fill="none" xmlns="http://www.w3.org/2000/svg">
<path fill-rule="evenodd" clip-rule="evenodd" d="M2.3166 9.37502H3.33329C3.67847 9.37502 3.95829 9.65484 3.95829 10C3.95829 10.3452 3.67847 10.625 3.33329 10.625H2.3166C2.44971 12.284 3.10806 13.7947 4.12524 14.9909L4.97468 14.1414C5.21876 13.8973 5.61449 13.8973 5.85857 14.1414C6.10265 14.3855 6.10265 14.7812 5.85857 15.0253L5.00912 15.8747C6.35391 17.0183 8.09635 17.7084 9.99996 17.7084C11.9036 17.7084 13.646 17.0183 14.9908 15.8747L14.1414 15.0253C13.8973 14.7812 13.8973 14.3855 14.1414 14.1414C14.3854 13.8973 14.7812 13.8973 15.0252 14.1414L15.8747 14.9909C16.8919 13.7947 17.5502 12.284 17.6833 10.625H16.6664C16.3213 10.625 16.0414 10.3452 16.0414 10C16.0414 9.65484 16.3213 9.37502 16.6664 9.37502H17.6833C17.5502 7.71608 16.8919 6.20533 15.8747 5.00918L15.0252 5.85863C14.7812 6.10271 14.3854 6.10271 14.1414 5.85863C13.8973 5.61455 13.8973 5.21882 14.1414 4.97475L14.9908 4.1253C13.7946 3.10812 12.2839 2.44977 10.625 2.31666V3.33353C10.625 3.67871 10.3451 3.95853 9.99996 3.95853C9.65478 3.95853 9.37496 3.67871 9.37496 3.33353V2.31666C7.71602 2.44977 6.20527 3.10812 5.00912 4.1253L5.85857 4.97475C6.10265 5.21882 6.10265 5.61455 5.85857 5.85863C5.61449 6.10271 5.21876 6.10271 4.97468 5.85863L4.12524 5.00918C3.10806 6.20533 2.44971 7.71608 2.3166 9.37502ZM1.04163 10C1.04163 5.05247 5.05241 1.04169 9.99996 1.04169C14.9475 1.04169 18.9583 5.05247 18.9583 10C18.9583 14.9476 14.9475 18.9584 9.99996 18.9584C5.05241 18.9584 1.04163 14.9476 1.04163 10ZM11.5279 8.8763C10.7957 8.14407 9.6085 8.14407 8.87627 8.8763C8.14404 9.60853 8.14404 10.7957 8.87627 11.5279C8.97223 11.6239 9.1643 11.7434 9.47451 11.865C9.77396 11.9824 10.1355 12.0837 10.5237 12.1691C11.1572 12.3084 11.5411 12.3899 11.8282 12.3949C12.0624 12.399 12.1578 12.3515 12.2546 12.2547C12.3515 12.1578 12.399 12.0625 12.3949 11.8282C12.3899 11.5411 12.3084 11.1572 12.169 10.5238C12.0836 10.1356 11.9824 9.774 11.865 9.47454C11.7433 9.16433 11.6239 8.97227 11.5279 8.8763ZM7.99238 7.99242C9.21277 6.77203 11.1914 6.77203 12.4118 7.99242C12.6872 8.26782 12.8831 8.64691 13.0287 9.01821C13.1785 9.40025 13.2964 9.83055 13.3898 10.2551C13.3939 10.2735 13.3979 10.2918 13.4019 10.3101C13.5253 10.8704 13.6372 11.3787 13.6447 11.8064C13.6533 12.3009 13.5257 12.7514 13.1385 13.1386C12.7514 13.5257 12.3009 13.6534 11.8064 13.6447C11.3787 13.6373 10.8703 13.5253 10.3101 13.402C10.2918 13.3979 10.2735 13.3939 10.2551 13.3899C9.83052 13.2964 9.40022 13.1786 9.01818 13.0287C8.64688 12.8831 8.26779 12.6872 7.99238 12.4118C6.772 11.1914 6.772 9.2128 7.99238 7.99242Z" fill="#4D5B6E"/>
</svg>
