<svg width="16" height="16" viewBox="0 0 16 16" fill="none" xmlns="http://www.w3.org/2000/svg">
<path d="M2.15422 7.72539C5.56873 6.31497 7.8456 5.38513 8.98484 4.93588C12.2376 3.65318 12.9135 3.43036 13.354 3.42292C13.4509 3.42138 13.6676 3.44415 13.8079 3.55211C13.9264 3.64327 13.959 3.76641 13.9746 3.85284C13.9902 3.93927 14.0096 4.13615 13.9942 4.28999C13.8179 6.04592 13.0552 10.3071 12.6672 12.2737C12.503 13.1059 12.1797 13.3849 11.8667 13.4122C11.1865 13.4716 10.67 12.9861 10.0113 12.5766C8.98038 11.936 8.398 11.5371 7.39736 10.912C6.24094 10.1895 6.9906 9.79235 7.64964 9.14338C7.82211 8.97354 10.819 6.38914 10.877 6.15469C10.8843 6.12537 10.891 6.01608 10.8225 5.95836C10.754 5.90065 10.6529 5.92039 10.58 5.93608C10.4766 5.95833 8.82977 6.99032 5.6395 9.03206C5.17205 9.33638 4.74865 9.48466 4.36929 9.47689C3.95109 9.46832 3.14663 9.2527 2.5486 9.0684C1.81508 8.84234 1.2321 8.72282 1.28287 8.33891C1.30931 8.13894 1.59976 7.93443 2.15422 7.72539Z" fill="#667779"/>
</svg>
