<svg width="214" height="133" viewBox="0 0 214 133" fill="none" xmlns="http://www.w3.org/2000/svg">
<g id="Frame 2087326454">
<g id="Group">
<g id="Group_2">
<g id="Group_3">
<path id="Vector" d="M182.285 37.39C181.131 36.2772 179.917 35.2293 178.648 34.254C170.474 27.9638 160.066 24.6646 149.245 26.2551C117.985 30.8506 105.48 12.563 75.9767 3.75195C45.2961 -5.40999 29.2822 9.53224 21.0101 25.554C7.79208 51.1563 14.2099 82.5208 36.2373 101.089C66.3355 126.46 119.288 134.382 161.323 112.659C203.789 90.7144 201.039 55.4777 182.285 37.39Z" fill="#CCE4F7"/>
</g>
<g id="Group_4">
<path id="Vector_2" d="M206.532 106.144H23.5938C19.9536 106.144 17.0026 108.582 17.0026 111.591C17.0026 112.462 17.251 113.284 17.6906 114.014H7.2817C3.64144 114.014 0.69043 116.453 0.69043 119.461C0.69043 122.47 3.64144 124.909 7.2817 124.909H85.334C85.0179 125.546 84.8425 126.243 84.8425 126.974C84.8425 129.982 87.7935 132.421 91.4337 132.421H176.311C179.952 132.421 182.903 129.982 182.903 126.974C182.903 126.243 182.727 125.546 182.411 124.909H190.22C193.86 124.909 196.811 122.47 196.811 119.461C196.811 118.591 196.562 117.768 196.123 117.038H206.532C210.172 117.038 213.123 114.599 213.123 111.591C213.123 108.582 210.172 106.144 206.532 106.144Z" fill="#BCE6FB"/>
</g>
<g id="Group_5">
<g id="XMLID_790_">
<g id="Group_6">
<g id="Group_7">
<g id="XMLID_72_">
<g id="XMLID_1259_">
<path id="Vector_3" d="M187.225 102.39C187.225 102.39 188.337 97.4481 187.603 92.1549C186.802 86.3971 183.822 80.2273 174.855 79.5159C174.855 79.5159 153.243 75.1482 147.325 72.1143C136.564 66.5962 118.329 55.0766 91.5935 56.5746C80.0477 57.2235 60.9956 56.9813 45.5625 61.1305C45.5625 61.1305 44.8432 62.0535 44.5217 63.3393C44.5217 63.3393 33.8372 74.6436 33.2184 75.2162C32.7019 75.6927 32.2004 76.1633 31.7295 76.6377C30.9913 77.3734 30.3192 78.1114 29.7608 78.8896C27.9753 81.3619 27.3052 84.2194 29.1779 88.5395C29.1779 88.5395 24.3419 96.5573 25.5388 100.441C25.5388 100.441 25.5869 101.257 25.7274 102.42C26.0578 105.155 26.8834 109.798 28.7488 110.245C28.7488 110.245 32.599 111.083 33.34 110.626C33.34 110.626 33.036 97.6372 43.6743 94.3007C49.9753 92.3301 62.2135 92.2539 64.0216 111.146C64.0216 111.146 135.973 109.41 140.837 110.201C140.837 110.201 142.727 109.859 142.336 106.913C142.336 106.913 142.301 106.279 142.371 105.254C142.614 101.309 144.304 91.536 154.816 89.3035C154.816 89.3035 169.885 85.8371 173.081 102.779C173.23 103.575 173.355 104.413 173.442 105.298C173.544 106.178 173.607 107.106 173.642 108.08C173.642 108.08 179.421 109.422 181.806 107.471C181.806 107.471 187.783 107.509 187.89 107.188L188.133 105.52C188.133 105.52 188.074 105.451 187.977 105.329C187.443 104.678 185.836 102.556 187.225 102.39Z" fill="#EB1D25"/>
</g>
<g id="XMLID_1219_">
<g id="XMLID_1250_">
<g id="XMLID_462_">
<g id="Group_8">
<path id="Vector_4" d="M158.098 88.8945C151.648 88.7755 140.762 93.0899 142.277 109.286C142.277 109.286 143.718 112.036 146.66 112.471C146.66 112.471 138.278 97.9498 154.449 92.3685C160.154 90.3992 171.408 94.6295 169.947 108.761L173.642 108.08C173.642 108.08 175.052 89.2072 158.098 88.8945Z" fill="#8E1319"/>
</g>
</g>
<g id="XMLID_75_">
<g id="Group_9">
<path id="Vector_5" d="M49.2011 92.943C42.7689 92.4492 32.0474 97.8501 33.34 110.625C33.34 110.625 33.5752 109.344 35.5091 109.953C35.5091 109.953 35.4104 100.998 44.9911 97.1208C50.5861 94.8569 61.4811 97.0316 61.7262 110.957L64.1033 111.079C64.1033 111.079 65.3922 94.1861 49.2011 92.943Z" fill="#8E1319"/>
</g>
</g>
</g>
<g id="XMLID_1220_">
<g id="XMLID_1231_">
<g id="XMLID_1246_">
<path id="Vector_6" d="M158.007 117.723C165.435 117.379 171.185 111.264 170.848 104.066C170.511 96.8671 164.216 91.3107 156.788 91.655C149.359 91.9992 143.61 98.1138 143.947 105.312C144.283 112.511 150.578 118.067 158.007 117.723Z" fill="#171717"/>
</g>
<g id="XMLID_1244_">
<path id="Vector_7" d="M157.845 114.278C163.208 114.03 167.356 109.536 167.108 104.24C166.861 98.9432 162.313 94.8508 156.95 95.0988C151.587 95.3468 147.439 99.8414 147.686 105.138C147.933 110.434 152.482 114.526 157.845 114.278Z" fill="#DEDFE0"/>
</g>
<g id="XMLID_1243_">
<path id="Vector_8" d="M157.084 97.9521C153.396 98.1237 150.547 101.279 150.72 105C150.893 108.72 154.023 111.598 157.711 111.426C161.398 111.255 164.248 108.099 164.075 104.378C163.902 100.658 160.772 97.7806 157.084 97.9521Z" fill="#464547"/>
</g>
<g id="XMLID_1241_">
<path id="Vector_9" d="M165.82 105.53L165.739 102.967L160.57 103.418C160.469 103.161 160.335 102.92 160.173 102.7L163.589 98.9974L161.65 97.3207L158.439 101.482C158.312 101.444 158.183 101.413 158.05 101.389L157.694 96.2295L155.144 96.4892L155.963 101.672C155.872 101.715 155.784 101.762 155.698 101.813L151.803 98.3465L150.208 100.353L154.32 103.411C154.283 103.503 154.251 103.597 154.222 103.693L148.975 103.967L149.25 106.516L154.333 105.799C154.427 106.028 154.547 106.242 154.69 106.441L151.291 110.543L153.351 112.068L156.375 107.688L156.315 107.644C156.41 107.676 156.507 107.706 156.606 107.73L157.31 113.148L159.833 112.696L158.741 107.568C158.893 107.505 159.04 107.435 159.179 107.353L162.909 111.045L164.651 109.164L160.554 105.766C160.586 105.687 160.614 105.607 160.64 105.525L165.82 105.53Z" fill="#DEDFE0"/>
</g>
</g>
<g id="XMLID_1221_">
<g id="XMLID_1230_">
<path id="Vector_10" d="M49.0911 121.527C56.5197 121.183 62.2695 115.069 61.9336 107.871C61.5978 100.672 55.3034 95.115 47.8748 95.4586C40.4462 95.8021 34.6964 101.916 35.0322 109.115C35.3681 116.313 41.6625 121.87 49.0911 121.527Z" fill="#171717"/>
</g>
<g id="XMLID_1229_">
<path id="Vector_11" d="M48.0372 98.9024C42.6739 99.152 38.5257 103.648 38.7719 108.944C39.0181 114.241 43.5655 118.332 48.9288 118.083C54.2921 117.833 58.4403 113.337 58.1941 108.041C57.9479 102.744 53.4004 98.6529 48.0372 98.9024Z" fill="#DEDFE0"/>
</g>
<g id="XMLID_1228_">
<path id="Vector_12" d="M48.1697 101.755C44.4819 101.927 41.6326 105.082 41.8056 108.803C41.9786 112.524 45.1083 115.401 48.796 115.229C52.4839 115.058 55.3332 111.903 55.1602 108.182C54.9872 104.461 51.8575 101.584 48.1697 101.755Z" fill="#464547"/>
</g>
<g id="XMLID_1227_">
<path id="Vector_13" d="M56.9053 109.333L56.8242 106.771L51.6553 107.222C51.5542 106.965 51.4202 106.724 51.2588 106.504L54.6744 102.801L52.7353 101.124L49.5241 105.286C49.3974 105.248 49.2682 105.216 49.1358 105.193L48.7793 100.033L46.2294 100.293L47.0487 105.475C46.9579 105.519 46.8691 105.566 46.7833 105.617L42.8886 102.15L41.2935 104.157L45.4052 107.215C45.3681 107.307 45.336 107.401 45.3077 107.496L40.0605 107.77L40.3357 110.32L45.4183 109.603C45.513 109.831 45.633 110.046 45.7758 110.245L42.3761 114.347L44.4368 115.871L47.4601 111.492L47.4001 111.447C47.4954 111.48 47.5923 111.51 47.6913 111.534L48.3958 116.952L50.9187 116.499L49.827 111.372C49.9785 111.309 50.1257 111.239 50.2647 111.157L53.9939 114.848L55.7367 112.968L51.6396 109.57C51.6717 109.491 51.6996 109.411 51.7254 109.329L56.9053 109.333Z" fill="#DEDFE0"/>
</g>
</g>
</g>
</g>
<g id="XMLID_1151_">
<g id="XMLID_1216_">
<path id="Vector_14" d="M99.6566 79.7096C96.8561 79.8398 94.6268 80.8255 94.6772 81.911C94.7277 82.9965 97.0388 83.7709 99.8393 83.6407C102.64 83.5104 104.869 82.5248 104.819 81.4392C104.768 80.3537 102.457 79.5794 99.6566 79.7096Z" fill="#AF1626"/>
</g>
<g id="XMLID_1213_">
<path id="Vector_15" d="M59.4251 77.8536C56.6246 77.9839 54.3953 78.9695 54.4458 80.0551C54.4963 81.1406 56.8074 81.915 59.6078 81.7847C62.4083 81.6544 64.6375 80.6688 64.5871 79.5833C64.5366 78.4978 62.2255 77.7234 59.4251 77.8536Z" fill="#AF1626"/>
</g>
<g id="XMLID_1211_" opacity="0.51">
<path id="Vector_16" d="M42.3057 82.1657C40.5087 82.2493 39.1197 83.7742 39.2033 85.5718C39.2868 87.3694 40.8113 88.7589 42.6082 88.6753C44.4053 88.5917 45.7942 87.0667 45.7106 85.2691C45.6271 83.4715 44.1026 82.0821 42.3057 82.1657Z" fill="white"/>
</g>
<g id="XMLID_1205_">
<path id="Vector_17" d="M30.0836 78.8385L29.7607 78.8891C27.9751 81.3613 27.3051 84.2188 29.1777 88.539C31.8962 88.7531 40.327 80.563 40.327 80.563C43.5155 76.3482 30.0836 78.8385 30.0836 78.8385Z" fill="#EBC032"/>
</g>
<g id="XMLID_1203_">
<path id="Vector_18" d="M124.185 64.2874C120.242 62.9115 103.521 57.4199 92.5022 59.16C92.1449 59.2165 91.9155 59.5696 91.9992 59.9215C92.5889 62.3999 94.7371 71.3308 95.9624 75.1299C96.1826 75.8126 96.8002 76.286 97.5162 76.3248L125.825 77.857L127.48 73.3745L125.342 65.4369C125.149 64.8982 124.725 64.476 124.185 64.2874Z" fill="#DDDDDD"/>
</g>
<g id="XMLID_1201_">
<path id="Vector_19" d="M124.185 64.2874C120.242 62.9115 103.521 57.4199 92.5022 59.16C92.1449 59.2165 91.9155 59.5696 91.9992 59.9215C92.5889 62.3999 94.7371 71.3308 95.9624 75.1299C96.1826 75.8126 96.8002 76.286 97.5162 76.3248L125.825 77.857L127.48 73.3745L125.342 65.4369C125.149 64.8982 124.725 64.476 124.185 64.2874Z" fill="#DDDDDD"/>
</g>
<g id="XMLID_1199_">
<path id="Vector_20" d="M124.185 64.2874C120.242 62.9115 103.521 57.4199 92.5022 59.16C92.1449 59.2165 91.9155 59.5696 91.9992 59.9215C92.5889 62.3999 94.7371 71.3308 95.9624 75.1299C96.1826 75.8126 96.8002 76.286 97.5162 76.3248L125.825 77.857L127.48 73.3745L125.342 65.4369C125.149 64.8982 124.725 64.476 124.185 64.2874Z" fill="#DDDDDD"/>
</g>
<g id="XMLID_1197_">
<path id="Vector_21" d="M124.185 64.2874C120.242 62.9115 103.521 57.4199 92.5022 59.16C92.1449 59.2165 91.9155 59.5696 91.9992 59.9215C92.5889 62.3999 94.7371 71.3308 95.9624 75.1299C96.1826 75.8126 96.8002 76.286 97.5162 76.3248L125.825 77.857L127.48 73.3745L125.342 65.4369C125.149 64.8982 124.725 64.476 124.185 64.2874Z" fill="#DDDDDD"/>
</g>
<g id="XMLID_1191_">
<path id="Vector_22" d="M173.707 105.306C173.614 105.285 173.523 105.284 173.442 105.298C173.544 106.178 173.607 107.105 173.643 108.08C173.643 108.08 179.422 109.422 181.806 107.471C181.806 107.471 187.784 107.508 187.891 107.188L188.133 105.52C188.133 105.52 175.759 105.719 173.707 105.306Z" fill="#EA3434"/>
</g>
<g id="XMLID_1179_">
<path id="Vector_23" d="M158.844 86.7418C155.122 86.4943 149.201 87.7401 145.516 92.1387C145.52 92.0147 139.729 89.8032 139.05 89.7924C130.8 89.6615 91.8149 84.0988 69.9007 90.0304C68.542 90.3982 64.9738 89.7511 65.3113 93.2939C65.3113 93.2939 64.4622 96.8917 62.7685 96.9705C62.6063 96.9781 62.5362 97.2203 62.5464 97.657C64.6471 100.325 66.19 103.125 66.19 103.125C66.2781 103.38 66.3654 103.62 66.4623 103.844C68.4455 108.683 72.0035 107.938 72.0035 107.938L93.965 107.363L134.051 106.322C134.862 106.483 142.339 104.996 142.371 105.254C142.073 98.5147 146.177 91.1435 154.816 89.303C154.816 89.303 169.885 85.8367 173.081 102.778C173.175 102.713 173.224 102.68 173.224 102.68C173.224 102.68 174.783 87.8011 158.844 86.7418Z" fill="#D61212"/>
</g>
<g id="XMLID_1177_">
<path id="Vector_24" d="M76.8204 102.249L133.703 104.305C133.703 104.305 101.894 97.7788 76.8204 102.249Z" fill="#EB1D25"/>
</g>
<g id="XMLID_1165_">
<path id="Vector_25" d="M143.941 73.3503C143.321 72.9639 142.906 72.7207 142.906 72.7207C143.199 72.9303 143.548 73.1404 143.941 73.3503Z" fill="#B71626"/>
</g>
<g id="XMLID_1163_">
<path id="Vector_26" d="M51.0536 62.671C51.345 62.8925 51.721 62.9572 52.0715 62.8521C54.4976 62.1247 62.3459 59.9026 70.5327 58.9941C70.5327 58.9941 56.8203 59.1661 45.5626 61.13C45.5626 61.13 49.939 61.824 51.0536 62.671Z" fill="#EA3434"/>
</g>
<g id="XMLID_1160_">
<path id="Vector_27" d="M179.345 81.4481C178.466 80.7358 177.335 80.0967 175.871 79.6241C175.605 79.5308 175.325 79.451 175.039 79.3778C175.039 79.3778 171.093 78.7587 166.275 77.647L166.215 77.6736C166.215 77.6736 161.191 79.0116 164.665 80.7091L164.824 80.869C164.884 80.9355 164.944 80.9954 165.011 81.0553C172.038 87.9584 182.326 87.2396 182.326 87.2396C182.326 87.2396 182.426 83.9243 179.345 81.4481Z" fill="#EBC032"/>
</g>
<g id="XMLID_1156_">
<path id="Vector_28" d="M66.8125 103.732C66.6947 103.775 66.5722 103.809 66.462 103.845C68.4452 108.683 72.0033 107.938 72.0033 107.938L93.9648 107.364L134.051 106.323C134.861 106.483 135.544 106.523 136.116 106.476L138.295 104.696C138.295 104.696 80.81 98.5692 66.8125 103.732Z" fill="#D61212"/>
</g>
<g id="XMLID_1154_">
<path id="Vector_29" d="M139.923 79.0841L139.905 79.0808C134.742 78.1411 111.015 77.1139 92.0201 76.4176C71.0762 75.648 50.9873 75.0979 50.7868 75.0925L50.7626 75.0918L50.7582 75.1156C50.2477 77.8681 50.3024 80.5405 50.9207 83.0587C51.4155 85.0733 52.27 86.9942 53.4606 88.7679C55.4877 91.7877 57.8193 93.3542 57.8426 93.3697L57.8458 93.3715C59.2402 94.056 60.814 95.504 62.5235 97.6748C64.5986 100.31 66.1491 103.111 66.1626 103.134C66.2384 103.354 66.3301 103.611 66.4355 103.855C67.0031 105.24 68.0764 107.037 69.9662 107.732C70.5704 107.955 71.1089 108.007 71.4803 108.007C71.8048 108.007 72.0019 107.967 72.0037 107.966L93.9651 107.392L134.048 106.351C134.813 106.502 135.51 106.554 136.118 106.504C137.135 106.422 137.903 106.055 138.398 105.412C139.236 104.326 139.012 102.794 138.992 102.666C140.359 99.3906 141.069 95.3526 141.101 90.6648C141.141 84.4081 139.94 79.1547 139.927 79.1023L139.923 79.0841ZM141.044 90.6643C141.012 95.3485 140.303 99.3816 138.936 102.652L138.933 102.66L138.934 102.668C138.937 102.684 139.208 104.269 138.353 105.378C137.868 106.007 137.114 106.367 136.114 106.447C135.51 106.497 134.818 106.446 134.056 106.295L134.053 106.294L93.9638 107.335L71.9972 107.91C71.9884 107.912 71.1 108.09 69.9827 107.678C68.114 106.989 67.0508 105.207 66.4877 103.833C66.3829 103.591 66.2916 103.334 66.2142 103.111C66.1988 103.083 64.6462 100.278 62.568 97.6396C60.854 95.463 59.2741 94.0101 57.8725 93.3213C57.8017 93.2737 55.5058 91.7137 53.5064 88.7342C52.3199 86.9662 51.4683 85.0516 50.9754 83.0437C50.3611 80.541 50.3053 77.8853 50.8095 75.1497C51.6187 75.1719 71.4042 75.7167 92.018 76.4741C110.989 77.1696 134.679 78.195 139.876 79.1331C139.954 79.4782 141.084 84.5989 141.044 90.6643Z" fill="#929292"/>
</g>
<g id="XMLID_1152_">
<path id="Vector_30" d="M92.1726 76.6235L92.1167 76.6326C92.1269 76.6954 93.1474 82.9863 93.89 89.8449C94.5752 96.1725 95.1574 104.29 94.0403 107.028L94.0927 107.049C95.2143 104.3 94.6321 96.1727 93.9463 89.8386C93.2035 82.9785 92.1828 76.6863 92.1726 76.6235Z" fill="#929292"/>
</g>
</g>
<g id="XMLID_325_">
<g id="Group_10">
<path id="Vector_31" d="M87.7108 57.7718C78.8259 58.3731 53.4781 59.2372 52.6981 64.3159C52.6981 64.3159 50.7389 73.2169 50.7865 75.1207C50.7886 75.1663 50.8012 75.2165 50.8342 75.271C62.2777 75.3689 76.9061 75.8833 91.8365 76.5563C91.9333 76.5605 92.0302 76.5652 92.1271 76.5694C90.3019 66.3669 88.3428 57.7314 88.3428 57.7314C88.1322 57.744 87.9217 57.7577 87.7108 57.7718Z" fill="#B71626"/>
</g>
<g id="Group_11">
<path id="Vector_32" d="M137.504 68.8767C137.504 68.8762 137.503 68.8762 137.503 68.8756C137.326 68.7253 137.136 68.6006 136.933 68.5058C136.933 68.5058 136.593 68.3131 135.947 67.9795C135.934 67.9727 135.92 67.9659 135.907 67.959C131.301 65.5844 111.714 56.3415 88.3428 57.7315C88.3428 57.7315 90.3019 66.3668 92.1271 76.5694C109.094 77.344 126.424 78.3254 139.891 79.1346L139.9 79.1084C139.9 79.1084 139.9 79.1079 139.9 79.1073C139.903 79.023 140.04 74.0873 138.81 70.9145C138.482 70.0682 138.056 69.347 137.504 68.8767Z" fill="#B71626"/>
</g>
<g id="XMLID_125_">
<path id="Vector_33" d="M83.0263 59.4682C73.9235 59.6951 56.2469 63.3001 56.1074 63.8811C54.9664 68.6372 60.3309 75.4822 60.3309 75.4822L87.2919 76.0919C87.3103 75.3485 85.1663 64.2588 84.4567 60.612C84.3243 59.9311 83.7196 59.451 83.0263 59.4682Z" fill="white"/>
</g>
<g id="XMLID_1144_">
<path id="Vector_34" d="M135.613 69.777C133.895 68.3714 129.748 66.7256 127.603 65.9491C127.27 65.8285 126.934 66.1126 126.999 66.4608C127.352 68.3444 128.357 73.4966 128.856 73.8191C128.856 73.8191 134.259 75.2622 136.316 73.9804C136.316 73.9804 136.831 70.7737 135.613 69.777Z" fill="#DDDDDD"/>
</g>
<g id="XMLID_1141_">
<path id="Vector_35" d="M128.388 71.0452C128.388 71.0452 126.291 75.1247 128.317 76.8097C128.317 76.8097 134.195 77.5529 134.264 73.5677C134.264 73.5677 133.846 70.0289 128.388 71.0452Z" fill="#8E1319"/>
</g>
<g id="XMLID_1129_">
<g id="Clip path group">
<mask id="mask0_7790_40346" style="mask-type:luminance" maskUnits="userSpaceOnUse" x="55" y="59" width="33" height="18">
<g id="SVGID_00000173145993659475497260000018432253447870143420_">
<path id="Vector_36" d="M84.4567 60.612C85.1663 64.2588 87.3103 75.3485 87.2919 76.0919L60.3309 75.4822C60.3309 75.4822 54.9664 68.6372 56.1074 63.8811C56.2469 63.3 73.9235 59.6951 83.0263 59.4682C83.7195 59.451 84.3243 59.9311 84.4567 60.612Z" fill="white"/>
</g>
</mask>
<g mask="url(#mask0_7790_40346)">
<g id="XMLID_1133_" opacity="0.57">
<g id="XMLID_119_">
<path id="Vector_37" d="M65.8871 55.7593L63.9424 57.4971L82.6118 78.4043L84.5566 76.6666L65.8871 55.7593Z" fill="white"/>
</g>
<g id="XMLID_116_">
<path id="Vector_38" d="M60.6562 57.3984L56.3186 61.2744L74.9881 82.1816L79.3257 78.3057L60.6562 57.3984Z" fill="white"/>
</g>
</g>
</g>
</g>
</g>
<g id="XMLID_1128_">
<path id="Vector_39" d="M124.185 64.2879C120.242 62.912 103.521 57.4204 92.5023 59.1605C92.145 59.217 91.9156 59.5701 91.9993 59.922C92.589 62.4004 94.7372 71.3313 95.9625 75.1304C96.1827 75.8131 96.8003 76.2865 97.5163 76.3253L125.825 77.8575L127.48 73.375L125.342 65.4374C125.149 64.8987 124.725 64.4765 124.185 64.2879Z" fill="#DDDDDD"/>
</g>
</g>
</g>
</g>
</g>
<g id="Group_12">
<g id="Clip path group_2">
<mask id="mask1_7790_40346" style="mask-type:luminance" maskUnits="userSpaceOnUse" x="55" y="59" width="33" height="18">
<g id="SVGID_00000128476307669046745650000002431656348490893713_">
<path id="Vector_40" d="M84.4319 60.6255C85.1468 64.2997 87.3069 75.4727 87.2884 76.2217L60.1249 75.6074C60.1249 75.6074 54.7201 68.7109 55.8697 63.9191C56.0102 63.3337 73.8196 59.7017 82.9907 59.4731C83.6892 59.4557 84.2985 59.9395 84.4319 60.6255Z" fill="white"/>
</g>
</mask>
<g mask="url(#mask1_7790_40346)">
<g id="XMLID_1368_" opacity="0.57">
<g id="XMLID_1370_">
<path id="Vector_41" d="M75.8343 53.8562L57.0247 74.9204L58.984 76.6712L77.7936 55.607L75.8343 53.8562Z" fill="white"/>
</g>
<g id="XMLID_1369_">
<path id="Vector_42" d="M81.1047 55.5075L62.295 76.5718L66.6653 80.4769L85.4749 59.4126L81.1047 55.5075Z" fill="white"/>
</g>
</g>
</g>
</g>
</g>
<g id="Group_13">
<g id="Clip path group_3">
<mask id="mask2_7790_40346" style="mask-type:luminance" maskUnits="userSpaceOnUse" x="92" y="58" width="36" height="20">
<g id="SVGID_00000024700350681161330770000017593918406936423850_">
<path id="Vector_43" d="M124.458 64.3284C120.486 62.9422 103.639 57.4094 92.5377 59.1626C92.1778 59.2194 91.9466 59.5752 92.0309 59.9298C92.6251 62.4268 94.7894 71.4248 96.0239 75.2524C96.2458 75.9401 96.868 76.4172 97.5893 76.4562L126.111 77.9999L127.778 73.4837L125.624 65.4865C125.429 64.9437 125.003 64.5184 124.458 64.3284Z" fill="white"/>
</g>
</mask>
<g mask="url(#mask2_7790_40346)">
<g id="XMLID_974_">
<g id="XMLID_978_" opacity="0.56">
<g id="XMLID_982_">
<path id="Vector_44" d="M107.643 52.6178L85.54 80.1763L87.4347 81.6969L109.538 54.1384L107.643 52.6178Z" fill="white"/>
</g>
<g id="XMLID_980_">
<path id="Vector_45" d="M91.7408 79.9709L99.9862 86.4978L122.09 58.9404L113.845 52.4136L91.7408 79.9709Z" fill="white"/>
</g>
</g>
</g>
</g>
</g>
</g>
</g>
<g id="Group_14">
<g id="Group_15">
<path id="Vector_46" d="M114.606 73.3011L114.341 72.6167L114.077 73.3011C113.954 73.6184 113.703 73.8693 113.386 73.9921L112.702 74.257L113.386 74.522C113.703 74.6448 113.954 74.8956 114.077 75.213L114.341 75.8974L114.606 75.213C114.729 74.8957 114.98 74.6448 115.297 74.522L115.981 74.257L115.297 73.9921C114.98 73.8693 114.729 73.6185 114.606 73.3011Z" fill="white"/>
</g>
<g id="Group_16">
<path id="Vector_47" d="M117.561 71.3695L117.422 71.0088L117.282 71.3695C117.217 71.5366 117.085 71.6689 116.918 71.7337L116.557 71.8733L116.918 72.0129C117.085 72.0776 117.217 72.2098 117.282 72.3771L117.422 72.7378L117.561 72.3771C117.626 72.2098 117.758 72.0776 117.925 72.0129L118.286 71.8733L117.925 71.7337C117.758 71.6689 117.626 71.5366 117.561 71.3695Z" fill="white"/>
</g>
</g>
<g id="Group_17">
<g id="Group_18">
<path id="Vector_48" d="M100.441 65.0943L100.287 64.6953L100.132 65.0943C100.061 65.2793 99.9144 65.4255 99.7295 65.4971L99.3307 65.6515L99.7295 65.806C99.9144 65.8776 100.061 66.0238 100.132 66.2088L100.287 66.6078L100.441 66.2088C100.513 66.0238 100.659 65.8776 100.844 65.806L101.242 65.6515L100.844 65.4971C100.659 65.4255 100.513 65.2793 100.441 65.0943Z" fill="white"/>
</g>
<g id="Group_19">
<path id="Vector_49" d="M97.672 63.446L97.5907 63.2358L97.5093 63.446C97.4716 63.5434 97.3946 63.6204 97.2971 63.6582L97.0869 63.7395L97.2971 63.8208C97.3946 63.8585 97.4716 63.9356 97.5093 64.033L97.5907 64.2431L97.672 64.033C97.7098 63.9356 97.7868 63.8586 97.8843 63.8208L98.0944 63.7395L97.8843 63.6582C97.7868 63.6204 97.7098 63.5434 97.672 63.446Z" fill="white"/>
</g>
<g id="Group_20">
<path id="Vector_50" d="M103.984 61.4987L103.924 61.3447L103.865 61.4987C103.837 61.57 103.781 61.6265 103.709 61.6541L103.555 61.7137L103.709 61.7733C103.781 61.8009 103.837 61.8574 103.865 61.9287L103.924 62.0826L103.984 61.9287C104.012 61.8573 104.068 61.8009 104.139 61.7733L104.293 61.7137L104.139 61.6541C104.068 61.6265 104.012 61.57 103.984 61.4987Z" fill="white"/>
</g>
</g>
</g>
<g id="Group_21">
<g id="Group_22">
<path id="Vector_51" d="M114.26 121.987C108.716 121.987 104.223 122.765 104.223 123.724C104.223 124.684 108.716 125.461 114.26 125.461C119.803 125.461 124.297 124.684 124.297 123.724C124.297 122.765 119.803 121.987 114.26 121.987Z" fill="#C6C6C6"/>
<path id="Vector_52" d="M133.414 123.343C130.746 123.343 128.583 123.583 128.583 123.878C128.583 124.173 130.746 124.413 133.414 124.413C136.082 124.413 138.245 124.173 138.245 123.878C138.245 123.583 136.082 123.343 133.414 123.343Z" fill="#C6C6C6"/>
</g>
<g id="Group_23">
<g id="Group_24">
<g id="Group_25">
<g id="Group_26">
<path id="Vector_53" d="M114.205 104.521L113.889 104.522L104.969 104.571L105.793 110.712L106.157 113.431L107.413 122.795H107.431C107.47 123.603 110.492 124.256 114.213 124.256C117.935 124.256 120.956 123.603 120.995 122.795H120.997L122.247 113.477L122.599 110.849L123.309 105.567L123.344 105.296C123.345 105.295 123.345 105.295 123.345 105.295L123.442 104.571L114.522 104.522L114.205 104.521Z" fill="#EBC032"/>
</g>
<g id="Group_27">
<path id="Vector_54" d="M114.122 115.512C110.424 115.468 107.254 113.509 105.793 110.712L106.157 113.431C107.953 115.793 110.834 117.34 114.1 117.38C117.432 117.42 120.402 115.879 122.247 113.477L122.6 110.849C121.087 113.646 117.849 115.558 114.122 115.512Z" fill="#F7C154"/>
</g>
<g id="Group_28">
<path id="Vector_55" d="M123.661 104.655C123.659 104.655 123.656 104.655 123.654 104.655C123.449 104.653 123.3 104.846 123.348 105.048C123.491 105.635 123.564 106.246 123.556 106.872C123.501 111.431 119.296 115.076 114.167 115.014C109.036 114.952 104.921 111.206 104.976 106.648C104.981 106.217 105.024 105.793 105.1 105.381C105.137 105.185 104.99 105.005 104.793 105.007C104.787 105.007 104.781 105.007 104.776 105.007C104.63 105.007 104.503 105.108 104.473 105.252C104.345 105.849 104.273 106.466 104.264 107.098C104.2 112.435 108.623 116.815 114.144 116.882C119.664 116.949 124.191 112.677 124.256 107.34C124.266 106.494 124.161 105.672 123.959 104.888C123.924 104.752 123.801 104.656 123.661 104.655Z" fill="#F3A950"/>
</g>
<g id="Group_29">
<path id="Vector_56" d="M123.304 105.545C123.305 105.552 123.308 105.56 123.309 105.567L123.344 105.296C123.3 105.367 123.282 105.455 123.304 105.545Z" fill="white"/>
<path id="Vector_57" d="M123.369 105.227C123.337 105.215 123.301 105.228 123.283 105.257C123.225 105.347 123.207 105.455 123.232 105.56C123.233 105.565 123.235 105.571 123.237 105.579C123.243 105.614 123.274 105.639 123.309 105.639C123.31 105.639 123.31 105.639 123.311 105.639C123.347 105.639 123.377 105.612 123.382 105.576L123.417 105.305C123.421 105.271 123.402 105.239 123.369 105.227Z" fill="black"/>
</g>
<g id="Group_30">
<path id="Vector_58" d="M123.442 104.564H104.969L104.65 106.188C104.637 106.224 104.629 106.26 104.629 106.296C104.629 107.203 108.916 107.938 114.205 107.938C119.494 107.938 123.781 107.203 123.781 106.296C123.781 106.26 123.774 106.224 123.76 106.188L123.442 104.564Z" fill="#F7C154"/>
</g>
<g id="Group_31">
<path id="Vector_59" d="M113.889 104.521L114.207 104.52L113.889 104.519V104.521Z" fill="white"/>
<path id="Vector_60" d="M114.206 104.447L113.889 104.445C113.889 104.445 113.889 104.445 113.889 104.445C113.87 104.445 113.851 104.454 113.838 104.468C113.824 104.481 113.816 104.501 113.816 104.521C113.816 104.54 113.824 104.558 113.837 104.572C113.851 104.585 113.87 104.593 113.889 104.593C113.889 104.593 113.889 104.593 113.889 104.593L114.206 104.592C114.246 104.592 114.279 104.559 114.279 104.519C114.279 104.479 114.246 104.447 114.206 104.447Z" fill="black"/>
</g>
<g id="Group_32">
<path id="Vector_61" d="M114.524 104.521V104.519L114.205 104.52L114.524 104.521Z" fill="white"/>
<path id="Vector_62" d="M114.522 104.445C114.522 104.445 114.522 104.445 114.522 104.445L114.205 104.447C114.165 104.447 114.132 104.479 114.132 104.519C114.132 104.559 114.165 104.592 114.205 104.592L114.522 104.593C114.522 104.593 114.522 104.593 114.522 104.593C114.542 104.593 114.56 104.585 114.574 104.572C114.588 104.558 114.595 104.54 114.595 104.52V104.518C114.595 104.499 114.588 104.48 114.574 104.466C114.56 104.453 114.542 104.445 114.522 104.445Z" fill="black"/>
</g>
<g id="Group_33">
<path id="Vector_63" d="M114.205 102.922C109.104 102.922 104.969 103.657 104.969 104.564C104.969 105.471 109.104 106.206 114.205 106.206C119.306 106.206 123.442 105.471 123.442 104.564C123.442 103.657 119.306 102.922 114.205 102.922Z" fill="#CE6824"/>
</g>
<g id="Group_34">
<path id="Vector_64" d="M114.205 103.398C109.829 103.398 106.281 103.92 106.281 104.564C106.281 105.208 109.829 105.73 114.205 105.73C118.582 105.73 122.129 105.208 122.129 104.564C122.129 103.92 118.582 103.398 114.205 103.398Z" fill="white"/>
</g>
</g>
<g id="Group_35" opacity="0.79">
<g id="Group_36">
<path id="Vector_65" d="M122.273 103.438C122.27 103.418 122.265 103.398 122.262 103.377C122.266 103.331 122.269 103.285 122.269 103.238C122.269 102.284 121.408 101.512 120.345 101.512C119.989 101.512 119.657 101.6 119.371 101.752C119.296 101.777 119.224 101.807 119.158 101.85C119.084 101.899 119.018 101.962 118.97 102.033C118.938 102.063 118.906 102.094 118.876 102.125C118.576 101.121 117.559 100.38 116.347 100.38C116.194 100.38 116.044 100.394 115.897 100.417C115.888 100.417 115.88 100.416 115.871 100.416C115.353 100.437 114.821 100.643 114.448 101.004C114.253 100.6 113.879 100.324 113.443 100.324C113.334 100.324 113.232 100.346 113.131 100.378C112.599 99.6048 111.709 99.0977 110.699 99.0977C109.327 99.0977 108.176 100.036 107.846 101.306C107.832 101.306 107.818 101.304 107.805 101.304C106.514 101.304 105.466 102.212 105.466 103.333C105.466 103.431 105.478 103.528 105.493 103.624C105.5 104.114 105.603 104.643 105.966 104.958C105.968 104.96 105.97 104.962 105.973 104.964C105.987 104.976 106.001 104.988 106.016 104.999C106.209 105.351 112.416 106.476 118.061 105.772C119.354 105.612 120.612 105.43 121.773 104.995C122.462 104.736 122.349 104.003 122.276 103.454C122.275 103.449 122.274 103.444 122.273 103.438Z" fill="#89D5F7"/>
</g>
</g>
<g id="Group_37" opacity="0.79">
<g id="Group_38">
<path id="Vector_66" d="M117.066 102.847C116.801 102.847 116.554 102.935 116.341 103.085C116.339 103.087 116.336 103.088 116.333 103.089C116.279 103.114 116.226 103.143 116.179 103.185C116.124 103.234 116.076 103.296 116.04 103.364C116.039 103.367 116.037 103.369 116.035 103.372L116.034 103.373C116.007 103.407 115.953 103.396 115.941 103.353C115.689 102.404 114.951 101.716 114.078 101.716C113.963 101.716 113.851 101.73 113.741 101.753C113.735 101.753 113.728 101.752 113.722 101.752C113.36 101.771 112.99 101.952 112.715 102.27C112.689 102.3 112.641 102.292 112.626 102.256C112.473 101.898 112.21 101.659 111.907 101.659C111.841 101.659 111.779 101.674 111.718 101.697C111.693 101.706 111.665 101.695 111.652 101.672C111.252 100.922 110.598 100.433 109.857 100.433C108.831 100.433 107.971 101.372 107.725 102.642C107.714 102.642 107.704 102.64 107.693 102.64C106.728 102.64 105.946 103.548 105.946 104.668C105.946 104.766 105.954 104.863 105.966 104.958C105.968 104.96 105.97 104.962 105.973 104.964C105.987 104.976 106.001 104.988 106.016 104.999C106.209 105.351 112.416 106.475 118.061 105.772C118.314 105.318 118.66 104.136 118.139 103.425C117.876 103.071 117.493 102.847 117.066 102.847Z" fill="#DCF6FF"/>
</g>
</g>
</g>
<g id="Group_39">
<path id="Vector_67" d="M110.026 101.002C109.6 100.795 109.087 100.972 108.879 101.398C108.766 101.63 108.768 101.889 108.862 102.11C108.916 101.838 109.164 101.491 109.378 101.364C109.669 101.193 109.833 101.191 110.374 101.316C110.292 101.185 110.175 101.075 110.026 101.002Z" fill="#BFDAF7"/>
</g>
<g id="Group_40">
<path id="Vector_68" d="M120.312 102.12C120.023 102.164 119.784 102.332 119.639 102.561C119.927 102.436 120.408 102.444 120.663 102.563C121.009 102.723 121.116 102.874 121.347 103.458C121.415 103.298 121.442 103.118 121.414 102.933C121.334 102.404 120.841 102.04 120.312 102.12Z" fill="white"/>
</g>
<g id="Group_41">
<path id="Vector_69" d="M115.899 100.94C115.603 101.128 115.456 101.457 115.462 101.825C115.697 101.531 116.248 101.325 116.625 101.365C117.136 101.421 117.371 101.573 118.065 102.238C118.024 101.996 117.922 101.746 117.753 101.515C117.269 100.854 116.439 100.596 115.899 100.94Z" fill="white"/>
</g>
</g>
</g>
<g id="Group_42">
<g id="Group_43">
<path id="Vector_70" d="M132.225 108.455H130.23V109.655H132.225V108.455Z" fill="#0072BC"/>
</g>
<g id="Group_44">
<path id="Vector_71" d="M129.782 108.504C129.782 108.504 131.564 108.814 132.049 109.834H136.524C136.524 109.834 136.176 109.12 135.729 108.504C135.729 108.504 132.394 108.284 129.782 108.504Z" fill="#71D0F6"/>
</g>
<g id="Group_45">
<path id="Vector_72" d="M128.855 108.096L129.319 108.226V107.579L128.855 107.708V108.096Z" fill="#5EB3E4"/>
</g>
<g id="Group_46">
<path id="Vector_73" d="M129.782 107.453H129.319V108.352H129.782V107.453Z" fill="#00A4DF"/>
</g>
<g id="Group_47">
<path id="Vector_74" d="M134.777 112.082H132.962V112.403H134.777V112.082Z" fill="#355BA9"/>
</g>
<g id="Group_48">
<path id="Vector_75" d="M135.334 109.835H132.225V112.082H135.334V109.835Z" fill="#0075BD"/>
</g>
<g id="Group_49">
<path id="Vector_76" d="M134.219 107.3C133.554 107.3 129.782 107.3 129.782 107.3V108.504H135.729C135.729 108.504 134.884 107.3 134.219 107.3Z" fill="#71D0F6"/>
</g>
<g id="Group_50">
<path id="Vector_77" d="M130.446 109.574C130.446 109.574 130.917 111.273 130.23 112.149V112.404C130.23 112.404 131.672 111.57 131.551 109.574H130.446Z" fill="#0072BC"/>
</g>
<g id="Group_51">
<path id="Vector_78" d="M129.782 108.226V108.504H135.729C135.729 108.504 135.647 108.387 135.513 108.226H129.782Z" fill="white"/>
</g>
<g id="Group_52" opacity="0.6">
<path id="Vector_79" d="M134.788 112.761H133.137C132.909 112.761 132.724 112.946 132.724 113.174V115.675C130.137 116.163 130.168 118.89 130.168 118.89V122.888C130.168 123.116 130.353 123.301 130.581 123.301H136.352C136.598 123.301 136.798 123.102 136.798 122.855V117.005L135.171 113.018C135.107 112.862 134.956 112.761 134.788 112.761Z" fill="#F0F0F0"/>
</g>
<g id="Group_53" opacity="0.72">
<path id="Vector_80" d="M134.877 112.404H132.941C132.697 112.404 132.5 112.601 132.5 112.845V115.516C129.738 116.037 129.943 118.95 129.943 118.95V123.218C129.943 123.462 130.141 123.66 130.385 123.66H136.582C136.826 123.66 137.023 123.462 137.023 123.218V116.936L135.286 112.678C135.218 112.512 135.057 112.404 134.877 112.404ZM136.798 122.888C136.798 123.117 136.613 123.302 136.385 123.302H130.581C130.353 123.302 130.168 123.117 130.168 122.888V118.891C130.168 118.891 130.137 116.164 132.724 115.676V113.175C132.724 112.947 132.909 112.762 133.137 112.762H134.788C134.956 112.762 135.108 112.863 135.171 113.019L136.798 117.006L136.798 122.888Z" fill="white"/>
</g>
<g id="Group_54">
<path id="Vector_81" d="M132.724 114.468V115.675C130.137 116.163 130.168 118.891 130.168 118.891V122.888C130.168 123.117 130.353 123.302 130.581 123.302H136.384C136.613 123.302 136.798 123.117 136.798 122.888V117.006L135.762 114.468H132.724Z" fill="#00A4DF"/>
</g>
<g id="Group_55">
<path id="Vector_82" d="M135.19 109.835H134.597V111.741H135.19V109.835Z" fill="#355BA9"/>
</g>
<g id="Group_56">
<path id="Vector_83" d="M134.372 109.835H133.779V111.741H134.372V109.835Z" fill="#355BA9"/>
</g>
<g id="Group_57" opacity="0.28">
<path id="Vector_84" d="M131.521 119.003V123.521C131.521 123.57 131.531 123.617 131.549 123.66H136.582C136.825 123.66 137.023 123.462 137.023 123.218V116.936C137.023 116.936 136.751 116.269 136.645 116.009C134.268 115.937 131.513 116.801 131.521 119.003Z" fill="#636363"/>
</g>
<g id="Group_58">
<path id="Vector_85" d="M133.555 109.835H132.962V111.741H133.555V109.835Z" fill="#355BA9"/>
</g>
<g id="Group_59">
<path id="Vector_86" d="M130.715 109.655C130.715 109.655 130.971 110.747 130.715 111.596C130.715 111.596 131.443 110.787 131.349 109.655H130.715Z" fill="#00ADE4"/>
</g>
<g id="Group_60" opacity="0.79">
<g id="Group_61">
<path id="Vector_87" d="M136.208 116.929C136.123 116.845 136.008 116.799 135.889 116.801C134.891 116.815 132.572 117.048 132.405 118.904V122.266C132.405 122.512 132.604 122.712 132.85 122.712H136.007C136.191 122.712 136.34 122.563 136.34 122.379L136.34 117.246C136.34 117.127 136.292 117.013 136.208 116.929Z" fill="#89D5F7"/>
</g>
</g>
<g id="Group_62">
<path id="Vector_88" d="M136.08 119.282H134.19V122.41H136.08V119.282Z" fill="#E7E7E7"/>
</g>
<g id="Group_63" opacity="0.79">
<g id="Group_64">
<path id="Vector_89" d="M135.686 117.195C134.847 117.207 132.93 117.397 132.685 118.879V119.003H136.078V117.581C136.078 117.478 136.036 117.379 135.963 117.306C135.889 117.233 135.79 117.193 135.686 117.195Z" fill="#BEECFC"/>
</g>
</g>
<g id="Group_65">
<g id="Group_66">
<path id="Vector_90" d="M133.936 119.282H132.685V119.619H133.936V119.282Z" fill="#A7A7A7"/>
</g>
<g id="Group_67">
<path id="Vector_91" d="M133.936 119.838H132.685V120.175H133.936V119.838Z" fill="#A7A7A7"/>
</g>
<g id="Group_68">
<path id="Vector_92" d="M133.936 120.395H132.685V120.732H133.936V120.395Z" fill="#A7A7A7"/>
</g>
<g id="Group_69">
<path id="Vector_93" d="M133.936 120.952H132.685V121.289H133.936V120.952Z" fill="#A7A7A7"/>
</g>
<g id="Group_70">
<path id="Vector_94" d="M133.936 121.508H132.685V121.845H133.936V121.508Z" fill="#A7A7A7"/>
</g>
<g id="Group_71">
<path id="Vector_95" d="M133.936 122.065H132.685V122.402H133.936V122.065Z" fill="#A7A7A7"/>
</g>
</g>
</g>
<g id="Group_72">
<g id="Group_73">
<g id="Group_74">
<path id="Vector_96" d="M75.8996 117.408L69.3696 117.728L69.4362 119.725L69.6044 124.8L76.0501 124.561L75.9455 119.609L75.8996 117.408Z" fill="#F9B6B7"/>
</g>
<g id="Group_75">
<path id="Vector_97" d="M69.3696 117.728L69.4362 119.725C70.5234 120.005 72.9945 120.432 75.9455 119.609L75.8996 117.408L69.3696 117.728Z" fill="#F99BAD"/>
</g>
</g>
<g id="Group_76">
<g id="Group_77">
<g id="Group_78">
<path id="Vector_98" d="M83.6135 122.714C83.6111 122.695 83.6098 122.684 83.6098 122.684C83.4667 121.821 82.0773 121.134 80.5099 120.626C78.331 119.92 75.8068 119.562 75.8068 119.562C75.8068 119.562 73.9001 122.542 69.5828 121.256C69.5828 121.256 68.3886 122.78 68.7211 124.221C69.965 124.292 75.5367 125.928 79.7085 125.278C80.9165 125.09 82.0057 124.711 82.8402 124.047C83.371 123.625 83.6075 123.231 83.6222 122.868C83.6218 122.858 83.6221 122.849 83.6217 122.84C83.6199 122.783 83.6156 122.74 83.6135 122.714Z" fill="#031433"/>
</g>
<g id="Group_79" opacity="0.59">
<path id="Vector_99" d="M83.6138 122.714C83.6114 122.695 83.61 122.684 83.61 122.684C83.467 121.821 82.0776 121.133 80.5101 120.626C79.2813 122.29 79.3338 123.981 79.7087 125.278C80.9167 125.09 82.0059 124.711 82.8404 124.047C83.3712 123.625 83.6077 123.231 83.6225 122.868C83.622 122.858 83.6223 122.849 83.6219 122.84C83.6202 122.783 83.6159 122.74 83.6138 122.714Z" fill="#E2E2E2"/>
</g>
<g id="Group_80">
<path id="Vector_100" d="M73.3899 122.566L71.2678 124.598C71.2086 124.655 71.2066 124.748 71.2632 124.808C71.2924 124.838 71.3313 124.853 71.3704 124.853C71.4073 124.853 71.4442 124.84 71.473 124.812L73.595 122.781C73.6542 122.724 73.6563 122.63 73.5997 122.571C73.543 122.511 73.4491 122.509 73.3899 122.566Z" fill="white"/>
</g>
<g id="Group_81">
<path id="Vector_101" d="M75.1703 122.945L73.0482 124.977C72.9891 125.033 72.987 125.127 73.0436 125.187C73.0727 125.217 73.1117 125.232 73.1508 125.232C73.1876 125.232 73.2246 125.219 73.2533 125.191L75.3754 123.159C75.4346 123.103 75.4367 123.009 75.38 122.95C75.3234 122.89 75.2295 122.888 75.1703 122.945Z" fill="white"/>
</g>
</g>
<g id="Group_82">
<path id="Vector_102" d="M82.8407 124.047C79.1215 127.006 70.3246 124.312 68.7216 124.221L68.9301 125.109C68.9301 125.109 77.0025 127.309 80.5026 126.266C83.4331 125.394 83.6342 123.47 83.6227 122.868C83.608 123.231 83.3715 123.625 82.8407 124.047Z" fill="#0C3993"/>
</g>
</g>
<g id="Group_83">
<g id="Group_84">
<path id="Vector_103" d="M82.6706 117.852L76.14 118.159L76.2025 120.156L76.3607 125.231L82.8067 125.005L82.7121 120.053L82.6706 117.852Z" fill="#F9B6B7"/>
</g>
<g id="Group_85">
<path id="Vector_104" d="M76.1399 118.159L76.2024 120.156C77.289 120.438 79.7593 120.87 82.712 120.053L82.6705 117.852L76.1399 118.159Z" fill="#F99BAD"/>
</g>
</g>
<g id="Group_86">
<g id="Group_87">
<g id="Group_88">
<path id="Vector_105" d="M90.2035 124.544C90.0832 123.677 88.7123 122.953 87.1587 122.405C84.9992 121.642 82.4852 121.218 82.4852 121.218C82.4852 121.218 80.501 124.146 76.2189 122.747C76.2189 122.747 74.985 124.24 75.2796 125.689C76.5212 125.792 82.0481 127.575 86.2354 127.034C87.4479 126.878 88.5467 126.527 89.3983 125.886C89.94 125.478 90.1868 125.09 90.2111 124.728C90.2109 124.718 90.2115 124.709 90.2113 124.7C90.211 124.643 90.2078 124.6 90.2065 124.574C90.2045 124.554 90.2035 124.544 90.2035 124.544Z" fill="#062158"/>
</g>
<g id="Group_89">
<path id="Vector_106" d="M90.2033 124.544C90.083 123.677 88.7121 122.954 87.1585 122.405C85.8864 124.036 85.8945 125.729 86.2353 127.034C87.4478 126.878 88.5466 126.528 89.3982 125.886C89.9399 125.478 90.1867 125.09 90.211 124.728C90.2108 124.718 90.2114 124.71 90.2112 124.7C90.2109 124.643 90.2077 124.6 90.2063 124.574C90.2044 124.555 90.2033 124.544 90.2033 124.544Z" fill="white"/>
</g>
<g id="Group_90">
<path id="Vector_107" d="M79.9901 124.158L77.8153 126.133C77.7547 126.188 77.7502 126.282 77.8052 126.343C77.8345 126.375 77.8747 126.391 77.9151 126.391C77.9506 126.391 77.9864 126.379 78.0148 126.353L80.1895 124.377C80.2501 124.322 80.2547 124.228 80.1996 124.168C80.1445 124.107 80.0507 124.103 79.9901 124.158Z" fill="white"/>
</g>
<g id="Group_91">
<path id="Vector_108" d="M81.7598 124.583L79.5851 126.558C79.5245 126.613 79.5199 126.707 79.575 126.767C79.6043 126.8 79.6445 126.816 79.6849 126.816C79.7205 126.816 79.7562 126.803 79.7846 126.778L81.9592 124.802C82.0199 124.747 82.0244 124.653 81.9694 124.593C81.9142 124.532 81.8204 124.527 81.7598 124.583Z" fill="white"/>
</g>
</g>
<g id="Group_92">
<path id="Vector_109" d="M89.3985 125.886C85.6029 128.746 76.8798 125.822 75.2797 125.689L75.4648 126.582C75.4648 126.582 83.4767 128.993 87.0029 128.043C89.9553 127.248 90.2069 125.33 90.2112 124.728C90.187 125.09 89.9402 125.478 89.3985 125.886Z" fill="#1445BB"/>
</g>
</g>
<g id="Group_93">
<g id="Group_94">
<g id="Group_95">
<path id="Vector_110" d="M87.514 47.7707C85.3653 48.1489 85.5759 51.3082 85.5939 51.5411C85.5778 51.4457 85.4545 50.9 84.6171 50.4862C83.6971 50.0304 82.5283 51.7712 84.1873 53.0912C84.1873 53.0912 83.7312 55.0979 82.3538 56.1446C82.7606 57.1797 83.6374 58.0085 84.3591 58.5528C84.9195 58.9754 85.7243 58.7938 86.0436 58.1681L86.2521 57.7615L86.8222 56.6447C86.8222 56.6447 88.1469 57.357 89.6323 56.8352C89.6935 56.8133 89.7564 56.7857 89.82 56.7523C90.0179 56.6481 90.2267 56.4913 90.4359 56.2905C90.6993 56.038 90.9627 55.7186 91.2086 55.3548C91.2237 55.3321 91.2387 55.3096 91.2539 55.2866C92.2412 53.7832 92.9074 51.5655 91.9726 50.1685C90.5499 48.0444 88.132 47.6614 87.514 47.7707Z" fill="#F9B6B7"/>
</g>
<g id="Group_96">
<g id="Group_97">
<path id="Vector_111" d="M93.0115 49.4124C93.4604 49.6092 93.6771 49.2743 93.6771 49.2743C93.4732 48.2825 92.8577 47.4449 92.2649 46.8367L92.2643 46.8362C91.6017 46.1566 90.9674 45.7639 90.9674 45.7639C87.5441 44.2565 86.5192 47.4118 86.5192 47.4118C84.7375 47.09 83.9792 48.1558 83.9792 48.1558C83.6172 48.5726 83.3818 48.9815 83.2349 49.367C83.0042 49.9723 82.9925 50.5194 83.0532 50.9446C83.1321 51.4998 83.3346 51.8476 83.3346 51.8476C83.3346 51.8476 84.8182 50.9947 85.2483 52.3614C85.2483 52.3614 85.5642 52.1516 85.7145 51.6791C85.7145 51.6791 87.8999 52.4759 88.3307 52.2969L87.9404 52.8681C87.9404 52.8681 90.5511 54.21 92.4448 52.1431C92.4448 52.1431 92.2853 53.281 91.9606 53.8269C91.9606 53.8269 93.5164 53.7878 94.1159 52.2845C94.1275 52.2555 94.1388 52.2256 94.1495 52.1955C94.7222 50.6041 93.0115 49.4124 93.0115 49.4124Z" fill="#512B3A"/>
</g>
<g id="Group_98">
<path id="Vector_112" d="M90.9675 45.7639C87.5442 44.2565 86.5193 47.4118 86.5193 47.4118C84.7376 47.09 83.9793 48.1558 83.9793 48.1558C83.6173 48.5726 83.3819 48.9815 83.235 49.367C84.4272 48.1381 86.5896 48.5991 86.5896 48.5991C87.4724 46.9774 89.0151 47.1526 89.0601 47.1582L88.2738 46.8028C89.5677 46.0943 92.2644 46.8362 92.2644 46.8362C91.6018 46.1566 90.9675 45.7639 90.9675 45.7639Z" fill="white"/>
<path id="Vector_113" d="M91.0499 45.6315C91.0437 45.6277 91.0372 45.6243 91.0306 45.6214C89.9076 45.1269 88.912 45.067 88.0718 45.4434C87.0373 45.9067 86.5605 46.886 86.418 47.2373C84.7055 46.9821 83.932 47.9576 83.8569 48.0589C83.5127 48.4562 83.2543 48.8778 83.0889 49.312C83.0625 49.3814 83.0884 49.4598 83.151 49.4997C83.1769 49.5162 83.206 49.5242 83.235 49.5242C83.2761 49.5242 83.3169 49.508 83.3472 49.4767C84.464 48.3255 86.5362 48.7485 86.557 48.7529C86.6249 48.7673 86.6938 48.7355 86.7269 48.6746C87.5571 47.1495 88.9807 47.3065 89.0409 47.3141C89.1176 47.3237 89.1898 47.2756 89.2106 47.2011C89.2315 47.1266 89.1949 47.0481 89.1244 47.0163L88.6618 46.8072C89.9691 46.3784 92.1986 46.9811 92.223 46.9878C92.291 47.0064 92.3632 46.9772 92.3991 46.9164C92.435 46.8556 92.4257 46.7782 92.3764 46.7276C91.7082 46.0422 91.0764 45.648 91.0499 45.6315ZM88.1988 46.6663C88.1468 46.6948 88.1153 46.7503 88.1176 46.8096C88.1198 46.8688 88.1554 46.9217 88.2095 46.9462L88.4146 47.0389C87.8593 47.1414 87.0712 47.4641 86.5083 48.4258C86.1069 48.3589 84.75 48.1963 83.6796 48.8238C83.7985 48.6314 83.938 48.4428 84.0974 48.2592C84.1005 48.2557 84.1037 48.2515 84.1064 48.2478C84.1315 48.2132 84.6579 47.5081 85.8657 47.5081C86.057 47.5081 86.2655 47.5258 86.4916 47.5666C86.5684 47.5801 86.6438 47.5354 86.6681 47.4612C86.6721 47.4489 87.0834 46.2273 88.2024 45.7278C88.9554 45.3916 89.861 45.4506 90.894 45.9032C90.9536 45.9412 91.3084 46.1723 91.74 46.5539C90.8614 46.3735 89.1749 46.1319 88.1988 46.6663Z" fill="black"/>
</g>
<g id="Group_99">
<path id="Vector_114" d="M93.2566 52.2498C92.842 51.8518 92.8108 51.0936 92.8108 51.0936C92.8108 51.0936 90.4162 52.5959 89.6776 52.1615C89.6776 52.1615 90.3867 51.7273 90.5228 50.9244C90.5228 50.9244 89.5192 51.8275 88.1673 51.325C86.9042 50.8555 85.4203 49.3595 83.0532 50.9447C83.1321 51.4999 83.3346 51.8477 83.3346 51.8477C83.3346 51.8477 84.8182 50.9948 85.2483 52.3615C85.2483 52.3615 85.5642 52.1517 85.7145 51.6792C85.7145 51.6792 87.8999 52.476 88.3307 52.297L87.9404 52.8682C87.9404 52.8682 90.5512 54.2101 92.4449 52.1432C92.4449 52.1432 92.2853 53.2811 91.9606 53.827C91.9606 53.827 93.5164 53.7879 94.1159 52.2846C93.8007 52.3862 93.4552 52.4403 93.2566 52.2498Z" fill="#3A1B28"/>
</g>
</g>
<g id="Group_100">
<path id="Vector_115" d="M84.7752 50.6493C83.7812 50.1146 83.0636 51.5984 83.4822 52.2146L85.2482 52.3614C85.2482 52.3614 85.7694 51.1839 84.7752 50.6493Z" fill="#F9B6B7"/>
</g>
</g>
<g id="Group_101">
<path id="Vector_116" d="M84.9583 54.3101C84.8611 55.9058 85.7766 57.2032 86.2515 57.7619L86.8219 56.6449C86.8219 56.6449 85.5244 55.8469 84.9583 54.3101Z" fill="#F99BAD"/>
</g>
<g id="Group_102">
<path id="Vector_117" d="M84.1336 51.0151C84.1336 51.0151 84.4741 51.2625 84.4686 51.426C84.4631 51.5895 83.8639 51.2234 83.4496 51.6255C83.4496 51.6255 84.0964 51.529 84.4012 51.8007C84.4012 51.8007 84.8241 52.0656 84.3219 52.6136C84.3219 52.6136 84.9675 52.1093 84.8778 51.5805C84.7881 51.0517 84.1336 51.0151 84.1336 51.0151Z" fill="#F99BAD"/>
</g>
<g id="Group_103">
<g id="Group_104">
<path id="Vector_118" d="M89.6157 54.3253C89.1584 54.1117 88.5894 54.3476 88.3446 54.8524C88.0999 55.357 88.2721 55.9394 88.7293 56.153C89.1866 56.3667 89.7556 56.1307 90.0004 55.626C90.2451 55.1213 90.0729 54.539 89.6157 54.3253Z" fill="#E88178"/>
</g>
<g id="Group_105">
<g id="Group_106">
<path id="Vector_119" d="M90.6282 53.858C90.5055 53.7936 90.3125 53.921 90.1971 54.1425C90.0816 54.3641 90.0874 54.5959 90.21 54.6603C90.3326 54.7247 90.5257 54.5973 90.6411 54.3758C90.7566 54.1542 90.7508 53.9224 90.6282 53.858Z" fill="#171717"/>
</g>
</g>
<g id="Group_107">
<g id="Group_108">
<path id="Vector_120" d="M90.109 53.0071L91.7436 53.5385C91.7436 53.5385 91.4077 52.6969 90.109 53.0071Z" fill="#171717"/>
</g>
</g>
<g id="Group_109">
<g id="Group_110">
<path id="Vector_121" d="M91.0755 55.6892L91.4521 54.7764L90.8619 55.477L91.0755 55.6892Z" fill="#D8D8D8"/>
<path id="Vector_122" d="M91.0642 55.637L90.8824 55.4561L90.8405 55.4981L91.0853 55.7416L91.4784 54.7877L91.4235 54.7651L91.0642 55.637Z" fill="black"/>
</g>
<g id="Group_111">
<path id="Vector_123" d="M91.0751 55.6892L91.4518 54.7764L90.8616 55.477L91.0751 55.6892Z" fill="#E88178"/>
<path id="Vector_124" d="M91.0694 55.6615L90.8728 55.466L90.8506 55.4884L91.0806 55.7172L91.4658 54.7826L91.4366 54.7705L91.0694 55.6615Z" fill="black"/>
</g>
</g>
<g id="Group_112">
<g id="Group_113">
<path id="Vector_125" d="M90.5432 56.0308C90.5436 56.0308 90.544 56.0309 90.5445 56.031C90.5446 56.031 90.5448 56.0311 90.545 56.0311L90.5432 56.0308Z" fill="black"/>
<path id="Vector_126" d="M90.5668 55.9462L90.5592 55.9446C90.5389 55.9308 90.518 55.9222 90.4988 55.9092C90.4793 55.8972 90.4608 55.8847 90.4419 55.8745C90.4237 55.8628 90.4059 55.8511 90.3893 55.8383C90.3722 55.8265 90.3554 55.8151 90.3399 55.8024C90.2759 55.7544 90.221 55.7037 90.1704 55.6464C90.1199 55.5891 90.0738 55.5252 90.028 55.452C89.9824 55.3782 89.9423 55.297 89.8954 55.1982L89.8784 55.1968C89.8575 55.3921 89.917 55.5948 90.038 55.7515C90.0983 55.8305 90.1783 55.8931 90.2651 55.9397C90.3522 55.9864 90.4475 56.0155 90.544 56.0311C90.5437 56.031 90.5434 56.031 90.5431 56.0309L90.5444 56.0312C90.5443 56.0312 90.5441 56.0311 90.544 56.0311C90.5921 56.0432 90.6407 56.0534 90.6895 56.0615L90.6927 56.0447C90.6713 56.0254 90.6501 56.0087 90.6291 55.9926C90.6084 55.9751 90.5871 55.9622 90.5668 55.9462Z" fill="black"/>
</g>
</g>
</g>
</g>
<g id="Group_114">
<g id="Group_115">
<path id="Vector_127" d="M87.3442 45.145C86.2026 45.4324 85.3426 45.8455 84.7008 46.3308C82.2771 48.164 82.9645 51.0285 83.3389 52.0347C83.7009 51.5313 84.2594 51.0783 84.9295 50.6749C87.9108 48.8785 93.1089 48.0527 93.1089 48.0527C93.1089 48.0527 91.4105 44.122 87.3442 45.145Z" fill="#EA3434"/>
</g>
<g id="Group_116">
<path id="Vector_128" d="M84.7008 46.3301C82.2771 48.1633 82.9645 51.0278 83.3389 52.034C83.7009 51.5305 84.2594 51.0775 84.9295 50.6742C84.1928 48.9916 84.3438 47.4646 84.7008 46.3301Z" fill="#D61212"/>
</g>
<g id="Group_117">
<path id="Vector_129" d="M96.1167 46.9915C94.9894 46.0001 86.2291 47.2348 83.339 52.0342C86.4185 49.3942 91.9916 47.8924 93.7292 50.1178C94.2337 50.7639 97.7361 48.4158 96.1167 46.9915Z" fill="#B4272D"/>
</g>
</g>
<g id="Group_118">
<path id="Vector_130" d="M66.3948 76.723C66.1252 76.7819 66.0236 77.3666 66.168 78.0291C66.3123 78.6917 66.6479 79.1811 66.9175 79.1223C67.1871 79.0635 67.2886 78.4787 67.1444 77.8162C67 77.1537 66.6644 76.6643 66.3948 76.723Z" fill="#F99BAD"/>
</g>
<g id="Group_119">
<path id="Vector_131" d="M68.1445 69.8066C70.4718 73.066 70.4718 63.4948 70.4718 63.4948L66.4378 61.4771C64.8345 63.857 65.8171 66.5472 68.1445 69.8066Z" fill="#F9B6B7"/>
</g>
<g id="Group_120">
<path id="Vector_132" d="M65.9208 61.9431C66.3346 62.8744 69.9549 65.4612 69.9549 65.4612L79.5746 55.4761C75.0233 56.7695 68.8688 57.8559 67.1104 59.0976C65.3519 60.3393 65.5071 61.0118 65.9208 61.9431Z" fill="white"/>
</g>
<g id="Group_121">
<path id="Vector_133" d="M73.2893 58.914C70.4561 59.9824 67.7576 60.373 65.9986 60.0877C65.4714 60.7679 65.6318 61.2927 65.9208 61.9431C66.3346 62.8744 69.9548 65.4612 69.9548 65.4612L79.5745 55.4761C79.3516 55.5395 79.1238 55.6022 78.894 55.6645C77.644 56.8338 75.6579 58.0208 73.2893 58.914Z" fill="#E4E5E6"/>
</g>
<g id="Group_122">
<path id="Vector_134" d="M65.9443 60.2105C65.2931 59.9673 63.5761 62.2951 64.7867 63.5957C66.5072 65.4442 69.8247 65.605 70.2174 65.5184C70.6101 65.4318 71.309 64.8657 71.1483 64.6148C70.9876 64.3639 66.5956 60.4538 65.9443 60.2105Z" fill="white"/>
</g>
<g id="Group_123">
<path id="Vector_135" d="M68.3911 62.1172C68.2778 63.1608 66.9917 64 65.3597 64.1044C67.1551 65.4696 69.8645 65.5957 70.2172 65.5179C70.61 65.4314 71.3089 64.8653 71.1482 64.6143C71.0603 64.477 69.7064 63.2451 68.3911 62.1172Z" fill="#E6E6E6"/>
</g>
<g id="Group_124">
<path id="Vector_136" d="M68.3817 73.9467C66.7373 74.8855 67.6158 76.8675 67.6158 76.8675C67.6158 76.8675 66.6631 76.9718 66.3524 77.9627C66.0418 78.9537 67.3988 81.0947 70.0238 79.9447C72.6428 78.7972 70.0261 73.0079 68.3817 73.9467Z" fill="#F9B6B7"/>
</g>
<g id="Group_125">
<path id="Vector_137" d="M83.0912 55.2168C83.0912 55.2168 78.6434 55.1134 76.6781 56.2515C74.7127 57.3897 70.5753 67.2196 68.8169 75.0835C67.0584 82.9474 68.8342 119.34 68.8342 119.34L76.885 118.645L78.6435 86.7758C78.6435 86.7758 82.9878 82.2231 83.8153 79.3258C84.6428 76.4286 88.9872 65.9779 88.6769 63.1842C88.3665 60.3904 83.0912 55.2168 83.0912 55.2168Z" fill="#D86127"/>
</g>
<g id="Group_126">
<path id="Vector_138" d="M86.5562 59.147C85.9077 63.5195 82.4023 72.9158 81.6551 75.7729C80.8041 79.0263 72.2562 84.7329 72.2562 84.7329L73.3367 118.952L76.885 118.646L78.6435 86.7765C78.6435 86.7765 82.9879 82.2237 83.8154 79.3265C84.6429 76.4293 88.9873 65.9786 88.6769 63.1848C88.5521 62.0603 87.6223 60.5501 86.5562 59.147Z" fill="#C6161D"/>
</g>
<g id="Group_127">
<path id="Vector_139" d="M72.767 86.2591L73.1611 85.0589L70.782 81.1372C70.782 81.1372 72.1566 85.1004 72.767 86.2591Z" fill="#C6161D"/>
</g>
<g id="Group_128">
<path id="Vector_140" d="M74.8162 119.887L83.215 119.449L84.5393 76.9463L72.5405 81.706C72.8508 85.8449 74.8162 119.887 74.8162 119.887Z" fill="#F47E24"/>
</g>
<g id="Group_129">
<path id="Vector_141" d="M75.5918 58.037C71.7192 62.8633 68.8731 68.6395 68.5063 77.0759C73.0059 80.4128 79.9361 93.8901 79.9361 93.8901L85.3666 63.314C85.3666 63.314 80.7895 57.8818 75.5918 58.037Z" fill="#EBC032"/>
</g>
<g id="Group_130">
<path id="Vector_142" d="M76.7961 119.749L83.2152 119.449L84.5394 76.9462L80.764 75.6011L76.7961 119.749Z" fill="#EBC032"/>
</g>
<g id="Group_131">
<path id="Vector_143" d="M88.1338 61.8658C86.2719 61.0897 79.4451 65.9788 78.6693 75.1362C78.5972 75.9867 82.6258 78.3955 83.4016 76.9987C83.4016 76.9987 90.4175 62.8177 88.1338 61.8658Z" fill="white"/>
</g>
<g id="Group_132">
<path id="Vector_144" d="M83.6071 54.3851C82.1589 53.816 81.3512 55.457 81.3512 55.457L86.1298 58.8514C86.5952 58.1271 85.0552 54.9542 83.6071 54.3851Z" fill="#F26722"/>
</g>
<g id="Group_133">
<path id="Vector_145" d="M83.0912 55.2168C83.0912 55.2168 80.747 55.1627 78.7103 55.5683C74.2214 59.3815 75.6408 63.4894 76.2126 63.9343C76.2126 63.9343 84.3468 61.0006 87.8191 61.0066C86.2458 58.3115 83.0912 55.2168 83.0912 55.2168Z" fill="white"/>
</g>
<g id="Group_134">
<path id="Vector_146" d="M85.4229 58.7451C84.8579 59.7566 82.0756 59.2767 79.2088 57.6732C78.6259 57.3472 78.0874 56.9995 77.5993 56.6445C74.4798 60.1192 75.6944 63.5317 76.2126 63.9349C76.2126 63.9349 84.3468 61.0012 87.8191 61.0072C87.1561 59.8716 86.2127 58.6658 85.3425 57.6497C85.5417 58.0788 85.5834 58.4577 85.4229 58.7451Z" fill="#E4E5E6"/>
</g>
<g id="Group_135">
<path id="Vector_147" d="M68.3383 76.883L84.2052 82.9073L84.3856 80.9209C84.2189 80.8047 68.6148 74.4849 68.6148 74.4849L68.3383 76.883Z" fill="#F8991E"/>
</g>
<g id="Group_136">
<path id="Vector_148" d="M99.7655 70.1318L100.068 74.6832L102.889 77.1343L108.253 76.3128L109.222 74.7995L100.796 68.4404L99.7655 70.1318Z" fill="#171717"/>
</g>
<g id="Group_137">
<path id="Vector_149" d="M99.4087 71.2676L99.6931 75.5488L102.142 77.7346L107.296 77.0492L108.175 75.4453L100.378 69.6768L99.4087 71.2676Z" fill="#EBC032"/>
</g>
<g id="Group_138">
<path id="Vector_150" d="M82.1085 67.9959C81.3207 71.936 85.1599 79.3261 86.4528 79.8952C87.7458 80.4643 90.4869 76.5841 90.8489 74.9802C91.2109 73.3764 88.8836 66.1334 88.5216 62.2532C88.4042 60.9956 82.4188 66.4438 82.1085 67.9959Z" fill="white"/>
</g>
<g id="Group_139">
<path id="Vector_151" d="M86.6598 74.8251C86.2105 74.8251 84.4276 71.8797 84.8282 69.4346C84.9897 68.4486 85.2333 67.5647 85.5131 66.8662C84.989 67.3806 84.3474 68.9197 83.9183 70.8074C83.8817 70.9687 83.848 71.128 83.8163 71.2856C83.4033 69.9 83.1551 68.2025 83.1441 66.3638C82.5812 67.0333 82.1824 67.6259 82.1085 67.9959C81.3207 71.9361 85.1598 79.3262 86.4528 79.8953C87.7458 80.4644 90.4869 76.5842 90.8489 74.9803C91.0323 74.168 90.5255 71.9082 89.9337 69.372C89.4208 72.564 88.1488 74.8251 86.6598 74.8251Z" fill="#E4E5E6"/>
</g>
<g id="Group_140">
<path id="Vector_152" d="M99.2725 75.7498L100.435 78.2834L102.889 75.2887L101.094 73.8608L99.2725 75.7498Z" fill="#F9AC13"/>
</g>
<g id="Group_141">
<path id="Vector_153" d="M100.145 74.541L100.221 77.8096L102.192 75.4032L100.75 74.2559L100.145 74.541Z" fill="#F96813"/>
</g>
<g id="Group_142">
<path id="Vector_154" d="M95.4521 80.4586L96.8947 81.4349L101.187 75.6686L100.146 74.5669L95.4521 80.4586Z" fill="#171717"/>
</g>
<g id="Group_143">
<path id="Vector_155" d="M98.1932 75.1876C95.1751 74.7347 91.056 74.2046 90.4354 74.2046C89.8148 74.2046 86.7634 78.9126 87.0737 79.5852C87.384 80.2577 94.0558 80.3094 96.9003 79.1712C99.7448 78.033 99.2276 75.3427 98.1932 75.1876Z" fill="#F9B6B7"/>
</g>
<g id="Group_144">
<path id="Vector_156" d="M98.1933 75.1876C97.247 75.0457 96.1926 74.8961 95.1716 74.7576C94.9907 76.3601 94.3002 77.5546 93.474 77.5546C92.5744 77.5546 91.8344 76.14 91.7393 74.323C91.087 74.2491 90.6147 74.2046 90.4354 74.2046C89.8148 74.2046 86.7634 78.9126 87.0737 79.5852C87.384 80.2578 94.0557 80.3095 96.9002 79.1713C99.7448 78.0331 99.2276 75.3428 98.1933 75.1876Z" fill="#F99BAD"/>
</g>
<g id="Group_145">
<path id="Vector_157" d="M90.6939 72.9107C90.3836 73.0659 85.3152 77.6704 84.9532 78.3948C84.5911 79.1191 87.0736 81.3955 88.7286 80.1538C91.0808 78.3891 91.6765 74.5663 91.6249 74.1007C91.5731 73.635 91.0042 72.7555 90.6939 72.9107Z" fill="white"/>
</g>
<g id="Group_146">
<path id="Vector_158" d="M91.5732 73.8823C91.4759 74.3809 91.337 74.9031 91.15 75.4348C90.2683 77.9414 88.7126 79.6775 87.6752 79.3124C86.9647 79.0623 86.6821 77.8909 86.8576 76.3723C85.8925 77.3002 85.0894 78.1226 84.9532 78.3952C84.5911 79.1195 87.0736 81.3959 88.7286 80.1542C91.0808 78.3895 91.6765 74.5667 91.6249 74.1011C91.6176 74.0353 91.599 73.9606 91.5732 73.8823Z" fill="#E4E5E6"/>
</g>
<g id="Group_147">
<path id="Vector_159" d="M99.8742 75.6144C99.5639 75.11 99.6415 74.9936 98.9433 74.916C98.5664 74.8741 98.381 75.0553 97.6632 75.0324C97.2476 75.019 96.6388 74.7703 96.1737 74.5898C95.9644 74.5085 95.7442 74.6878 95.7869 74.9084C96.1108 76.5803 95.161 78.6811 94.6113 79.7146C94.4899 79.943 94.7089 80.2019 94.9552 80.1233L96.7868 79.5391C96.8745 79.5112 96.9707 79.5291 97.0454 79.5827C98.101 80.34 98.7729 80.2278 99.4087 80.1155C100.068 79.9991 101.62 78.4082 101.62 77.3994C101.62 76.3904 100.184 76.1188 99.8742 75.6144Z" fill="white"/>
</g>
<g id="Group_148">
<path id="Vector_160" d="M97.6119 77.288C96.7981 76.8681 96.1869 76.2442 95.8512 75.5723C95.8718 77.1036 95.0898 78.8141 94.6109 79.7145C94.4895 79.9428 94.7086 80.2017 94.9549 80.1231L96.7865 79.5389C96.8741 79.511 96.9703 79.5289 97.045 79.5825C98.1007 80.3398 98.7725 80.2276 99.4083 80.1153C100.068 79.9989 101.619 78.408 101.619 77.3992C101.619 77.2311 101.577 77.085 101.509 76.9533C100.726 77.8807 99.0893 78.0503 97.6119 77.288Z" fill="#E6E6E6"/>
</g>
</g>
</g>
</g>
</g>
</svg>
