<svg width="16" height="16" viewBox="0 0 16 16" fill="none" xmlns="http://www.w3.org/2000/svg">
<path d="M14.3335 4.75004C14.1668 4.16671 13.7502 3.75004 13.1668 3.58337C12.1668 3.33337 7.91682 3.33337 7.91682 3.33337C7.91682 3.33337 3.75017 3.33337 2.66683 3.58337C2.0835 3.75004 1.66683 4.16671 1.50016 4.75004C1.33349 5.83337 1.3335 8.00004 1.3335 8.00004C1.3335 8.00004 1.3335 10.1667 1.5835 11.25C1.75017 11.8334 2.16683 12.25 2.75016 12.4167C3.75016 12.6667 8.00016 12.6667 8.00016 12.6667C8.00016 12.6667 12.1668 12.6667 13.2502 12.4167C13.8335 12.25 14.2502 11.8334 14.4168 11.25C14.6668 10.1667 14.6668 8.00004 14.6668 8.00004C14.6668 8.00004 14.6668 5.83337 14.3335 4.75004ZM6.66682 10V6.00004L10.1668 8.00004L6.66682 10Z" fill="#667779"/>
</svg>
